<?xml version="1.0" standalone="no"?>
<!DOCTYPE svg PUBLIC "-//W3C//DTD SVG 1.1//EN" "http://www.w3.org/Graphics/SVG/1.1/DTD/svg11.dtd" >
<svg xmlns="http://www.w3.org/2000/svg" xmlns:xlink="http://www.w3.org/1999/xlink" version="1.1">
<metadata>
Created by FontForge 20161003 at Fri Sep 20 09:52:47 2019
 By www-data
copyright missing
</metadata>
<defs>
<font id="PublicSansSemiBold" horiz-adv-x="714" >
  <font-face 
    font-family="PublicSansSemiBold"
    font-weight="600"
    font-stretch="normal"
    units-per-em="1000"
    panose-1="0 0 7 0 0 0 0 0 0 0"
    ascent="780"
    descent="-220"
    x-height="517"
    cap-height="723"
    bbox="-402 -324 1276 1123.43"
    underline-thickness="50"
    underline-position="-150"
    unicode-range="U+000D-FB02"
  />
<missing-glyph horiz-adv-x="666" 
d="M564 826q18 0 18 -21v-938q0 -28 -33 -28h-436q-27 0 -27 24v940q0 23 19 23h459zM531 760q0 17 -15 17h-343l358 -834v817zM137 -92q0 -20 22 -20h336l-358 828v-808z" />
    <glyph glyph-name="fi" unicode="fi" horiz-adv-x="663" 
d="M593 726v-115h-127v115h127zM367 517v-86h-117v-431h-122v431h-102v86h102v77q0 62 34.5 95.5t99.5 33.5h109l1 -83h-73q-29 0 -40 -14.5t-11 -48.5v-60h119zM591 517v-517h-122v517h122z" />
    <glyph glyph-name="fl" unicode="fl" horiz-adv-x="699" 
d="M614 -8q-48 0 -79.5 12t-46 35t-19.5 46t-5 55v603h120v-590q0 -67 58 -73l26 -1v-76q-28 -11 -54 -11zM367 517v-86h-117v-431h-122v431h-102v86h102v77q0 62 34.5 95.5t99.5 33.5h109l1 -83h-73q-29 0 -40 -14.5t-11 -48.5v-60h119z" />
    <glyph glyph-name="colon_one_eight_F_colon.liga" unicode="&#x3a;&#x31;&#x38;F&#x3a;" horiz-adv-x="776" 
d="M19 761h738q11 0 11 -12v-736q0 -13 -11 -13h-738q-11 0 -11 13v736q0 12 11 12zM375 234q35 0 60.5 25.5t25.5 60.5q0 44 -37 70q26 25 26 58q0 31 -22 53t-53 22q-33 0 -54.5 -22t-21.5 -53t27 -58q-37 -25 -37 -70q0 -35 25 -60.5t61 -25.5zM247 243v272q0 5 -4 5h-68
q-3 0 -3 -5v-26q0 -4 3 -4h37v-242q0 -4 3 -4h28q4 0 4 4zM616 489v26q0 5 -4 5h-105q-4 0 -4 -5v-272q0 -4 4 -4h26q6 0 6 4v124h61q3 0 3 4v25q0 5 -3 5h-61v84h73q4 0 4 4zM375 408q-18 0 -30 11t-12 29q0 17 12.5 29t29.5 12t29 -12t12 -29q0 -18 -11.5 -29t-29.5 -11z
M375 371q22 0 36.5 -14.5t14.5 -36.5q0 -21 -14.5 -36t-36.5 -15q-21 0 -36 15t-15 36q0 22 15 36.5t36 14.5z" />
    <glyph glyph-name="colon_f_l_a_g_two_colon.liga" unicode="&#x3a;flag&#x32;&#x3a;" horiz-adv-x="1162" 
d="M48 761h1066v-760h-1066v760zM1052 645v53h-535v-53h535zM142 585h63v59h-63v-59zM378 585h61v59h-61v-59zM261 527h61v58h-61v-58zM517 528h535v55h-535v-55zM144 468h61v59h-61v-59zM439 527h-61v-59h61v59zM322 468h-61v-58h61v58zM517 411h535v55h-535v-55zM205 410
h-61v-59h61v59zM439 410h-61v-59h61v59zM517 294h535v55h-535v-55zM1052 232h-943v-55h943v55zM110 63h942v52h-942v-52z" />
    <glyph glyph-name="colon_f_l_a_g_colon.liga" unicode="&#x3a;flag&#x3a;" horiz-adv-x="1162" 
d="M48 761h1066v-760h-1066v760zM1056 702h-950v-409h950v58h-540v59h540v58h-540v59h540v58h-540v59h540v58zM223 644v-59h-58v59h58zM457 644v-59h-58v59h58zM340 585v-58h-58v58h58zM223 527v-59h-58v59h58zM457 527v-59h-58v59h58zM340 468v-58h-58v58h58zM223 410v-59
h-58v59h58zM457 410v-59h-58v59h58zM1056 234h-950v-58h950v58zM106 59h950v58h-950v-58z" />
    <glyph glyph-name=".notdef" horiz-adv-x="666" 
d="M564 826q18 0 18 -21v-938q0 -28 -33 -28h-436q-27 0 -27 24v940q0 23 19 23h459zM531 760q0 17 -15 17h-343l358 -834v817zM137 -92q0 -20 22 -20h336l-358 828v-808z" />
    <glyph glyph-name="uni0000" horiz-adv-x="26" 
 />
    <glyph glyph-name="uni0000" horiz-adv-x="26" 
 />
    <glyph glyph-name="nonmarkingreturn" horiz-adv-x="333" 
 />
    <glyph glyph-name="CR" unicode="&#xd;" horiz-adv-x="236" 
 />
    <glyph glyph-name="space" unicode=" " horiz-adv-x="231" 
 />
    <glyph glyph-name="exclam" unicode="!" horiz-adv-x="268" 
d="M202 723l-32 -518h-78l-34 518h144zM198 138v-138h-137v138h137z" />
    <glyph glyph-name="quotedbl" unicode="&#x22;" horiz-adv-x="455" 
d="M194 723l-35 -259h-64l-34 259h133zM394 723l-35 -259h-64l-34 259h133z" />
    <glyph glyph-name="numbersign" unicode="#" horiz-adv-x="610" 
d="M573 434h-118l-21 -138h107v-67h-117l-34 -231l-68 9l33 222h-140l-34 -231l-67 9l33 222h-115v67h125l21 138h-114v67h124l33 224l67 -8l-32 -216h140l34 224l67 -8l-32 -216h108v-67zM365 296l21 138h-140l-21 -138h140z" />
    <glyph glyph-name="dollar" unicode="$" horiz-adv-x="671" 
d="M616 192q0 -80 -58.5 -133.5t-158.5 -65.5v-93h-108v93q-102 11 -164 61.5t-73 140.5l127 4q13 -54 56.5 -82t108.5 -28q59 0 100 29t41 73q0 42 -26 66t-84 39l-122 29q-178 39 -179 191q-1 86 59.5 142.5t159.5 70.5v100h108v-101q91 -15 145.5 -72.5t55.5 -134.5
l-124 -4q-17 116 -130 116q-62 0 -102.5 -28t-40.5 -76q0 -35 24 -55.5t88 -38.5l119 -31q178 -46 178 -212z" />
    <glyph glyph-name="percent" unicode="%" horiz-adv-x="923" 
d="M227 734q76 0 126.5 -58.5t50.5 -148.5t-50 -147t-127 -57t-127.5 57.5t-50.5 146.5q0 90 51 148.5t127 58.5zM760 731l-486 -735l-75 1l488 734h73zM226 387q43 0 65 37t22 103q0 67 -22.5 105t-64.5 38q-41 0 -63.5 -38.5t-22.5 -104.5q0 -65 22.5 -102.5t63.5 -37.5z
M692 402q76 0 126.5 -58.5t50.5 -148.5t-50 -147.5t-127 -57.5t-127.5 57.5t-50.5 147.5t51 148.5t127 58.5zM691 55q41 0 63.5 37.5t22.5 101.5q0 66 -22.5 105t-63.5 39q-40 0 -63 -39.5t-23 -104.5q0 -64 22.5 -101.5t63.5 -37.5z" />
    <glyph glyph-name="ampersand" unicode="&#x26;" horiz-adv-x="749" 
d="M336 734q88 0 149 -43.5t61 -112.5q0 -102 -165 -194l134 -157q48 88 56 174h122q-3 -15 -7.5 -30.5t-11 -31.5t-11 -27.5t-14 -29t-13.5 -26t-15.5 -27t-15 -24t-16.5 -26t-15 -23.5l133 -156h-140l-66 75q-105 -80 -229 -80q-110 0 -168.5 50.5t-58.5 135.5
q0 71 42.5 122t135.5 100q-46 49 -67 86t-21 81q0 70 56.5 117t144.5 47zM341 657q-40 -1 -63 -23.5t-23 -55.5q0 -50 55 -110l19 -21q63 38 86 67t23 60q0 42 -28.5 63t-68.5 20zM283 332q-110 -61 -102 -145q4 -44 38.5 -71t80.5 -27q80 0 142 59z" />
    <glyph glyph-name="quotesingle" unicode="'" horiz-adv-x="255" 
d="M194 723l-35 -259h-64l-34 259h133z" />
    <glyph glyph-name="parenleft" unicode="(" horiz-adv-x="319" 
d="M292 750q-116 -219 -116 -446q0 -209 110 -438h-85q-69 116 -103 217.5t-34 221.5q0 236 143 445h85z" />
    <glyph glyph-name="parenright" unicode=")" horiz-adv-x="324" 
d="M15 750h85q143 -209 143 -445q0 -120 -34 -221.5t-103 -217.5h-85q110 229 110 438q0 227 -116 446z" />
    <glyph glyph-name="asterisk" unicode="*" horiz-adv-x="437" 
d="M299 354l-81 132l-82 -135l-68 47l100 120l-140 40l26 73l133 -56l-10 148h83l-12 -149l135 59l23 -73l-136 -41l97 -117z" />
    <glyph glyph-name="plus" unicode="+" horiz-adv-x="573" 
d="M513 409v-91h-180v-181h-91v181h-182v91h181v182h91v-182h181z" />
    <glyph glyph-name="comma" unicode="," horiz-adv-x="261" 
d="M45 -133l58 130l-48 4v127h133v-112l-94 -149h-49z" />
    <glyph glyph-name="hyphen" unicode="-" horiz-adv-x="389" 
d="M324 303v-91h-264v91h264z" />
    <glyph glyph-name="period" unicode="." horiz-adv-x="250" 
d="M190 140v-140h-138v140h138z" />
    <glyph glyph-name="slash" unicode="/" horiz-adv-x="367" 
d="M12 -28l252 751h88l-251 -751h-89z" />
    <glyph glyph-name="zero" unicode="0" horiz-adv-x="621" 
d="M311 734q125 0 196.5 -97t71.5 -277q0 -179 -70.5 -274t-197.5 -95q-128 0 -198.5 94.5t-70.5 273.5q0 180 71.5 277.5t197.5 97.5zM311 91q72 0 106 63t34 205q0 145 -34.5 210.5t-105.5 65.5t-106 -66t-35 -210q0 -141 34.5 -204.5t106.5 -63.5z" />
    <glyph glyph-name="one" unicode="1" horiz-adv-x="413" 
d="M176 0v557h-134v72q92 0 131.5 23.5t43.5 70.5h83v-723h-124z" />
    <glyph glyph-name="two" unicode="2" horiz-adv-x="625" 
d="M64 0v99q0 52 21 94.5t54.5 71t74 52.5t81 45t74 42.5t54.5 51t21 64.5q0 49 -34.5 79.5t-92.5 30.5q-62 0 -102.5 -35.5t-47.5 -100.5h-118q2 104 72.5 171.5t199.5 67.5q116 0 183.5 -58t67.5 -155q0 -71 -38.5 -123t-93 -82t-109.5 -56.5t-93.5 -61.5t-38.5 -82v-11
h374v-104h-509z" />
    <glyph glyph-name="three" unicode="3" horiz-adv-x="633" 
d="M43 506q0 107 75 167t189 60q121 0 195 -49.5t74 -141.5q0 -115 -135 -161q69 -19 111 -64.5t42 -113.5q0 -100 -82 -157t-209 -56q-122 1 -193 61t-73 165h118q10 -62 50 -94t100 -32q73 0 116 31.5t43 83.5q0 54 -44.5 85t-114.5 33l-67 2v99l62 3q64 1 105 33t41 78
q0 42 -39 70t-102 28q-60 0 -100.5 -32t-43.5 -98h-118z" />
    <glyph glyph-name="four" unicode="4" horiz-adv-x="630" 
d="M367 723h121v-448h115v-104h-115v-171h-118v171h-336v104zM148 275h222v297z" />
    <glyph glyph-name="five" unicode="5" horiz-adv-x="658" 
d="M114 723h450l-5 -102h-346l-17 -201q74 52 163 52q109 0 179.5 -62.5t70.5 -173.5q0 -113 -74 -179.5t-199 -66.5q-103 0 -183 49t-112 127l99 52q64 -129 184 -129q71 0 113.5 39t42.5 104q0 61 -42.5 100t-107.5 39q-42 0 -73 -11.5t-68 -45.5q-7 -4 -15 0l-93 38z" />
    <glyph glyph-name="six" unicode="6" horiz-adv-x="635" 
d="M336 737q99 0 169.5 -53.5t79.5 -145.5h-113q-14 48 -48.5 74.5t-85.5 26.5q-86 0 -128.5 -72t-33.5 -199q23 44 70.5 70.5t103.5 26.5q110 0 176.5 -61t66.5 -164q0 -108 -73 -176t-191 -68q-133 0 -210 95.5t-77 261.5q0 178 77.5 281t216.5 103zM326 371
q-53 0 -97 -34.5t-44 -76.5q0 -77 38.5 -123.5t102.5 -46.5q59 0 98 40.5t39 104.5q0 65 -37 100.5t-100 35.5z" />
    <glyph glyph-name="seven" unicode="7" horiz-adv-x="593" 
d="M37 723h525v-102q-92 -120 -173.5 -311.5t-89.5 -309.5h-132q15 116 83 290t183 331h-396v102z" />
    <glyph glyph-name="eight" unicode="8" horiz-adv-x="646" 
d="M323 734q111 0 181.5 -53t70.5 -147q0 -106 -109 -154q54 -11 97.5 -63.5t43.5 -113.5q0 -95 -77.5 -151.5t-206.5 -56.5t-206.5 56.5t-77.5 151.5q0 61 43.5 113.5t97.5 63.5q-110 49 -110 154q0 94 70.5 147t182.5 53zM323 429q59 0 94.5 28.5t35.5 79.5
q0 52 -36.5 82.5t-93.5 30.5q-58 0 -94 -31t-36 -82t35.5 -79.5t94.5 -28.5zM323 88q71 0 112.5 32t41.5 85q0 54 -42 88t-112 34t-112 -34t-42 -88q0 -53 41.5 -85t112.5 -32z" />
    <glyph glyph-name="nine" unicode="9" horiz-adv-x="640" 
d="M300 -5q-100 0 -172.5 54.5t-80.5 143.5h116q11 -46 46 -73t86 -27q91 0 139 67.5t39 207.5q-21 -49 -68 -78t-110 -29q-111 0 -179 62.5t-68 167.5q0 109 71.5 177t189.5 68q133 0 210 -95.5t77 -261.5q0 -187 -77.5 -285.5t-218.5 -98.5zM312 360q53 0 97 34.5t44 77.5
q0 77 -38.5 123.5t-102.5 46.5q-59 0 -96 -40.5t-37 -104.5t35.5 -100.5t97.5 -36.5z" />
    <glyph glyph-name="colon" unicode=":" horiz-adv-x="250" 
d="M190 501v-139h-138v139h138zM190 141v-138h-138v138h138z" />
    <glyph glyph-name="semicolon" unicode=";" horiz-adv-x="261" 
d="M61 358v141h138v-141h-138zM52 -149l62 149h-51v139h138v-123l-98 -165h-51z" />
    <glyph glyph-name="less" unicode="&#x3c;" horiz-adv-x="563" 
d="M503 227v-107l-443 172v104l443 175v-108l-306 -119z" />
    <glyph glyph-name="equal" unicode="=" horiz-adv-x="573" 
d="M513 505v-91h-453v91h453zM513 279v-90l-453 -1v91h453z" />
    <glyph glyph-name="greater" unicode="&#x3e;" horiz-adv-x="563" 
d="M60 227l306 117l-306 119v108l443 -175v-104l-443 -172v107z" />
    <glyph glyph-name="question" unicode="?" horiz-adv-x="538" 
d="M16 578q32 74 96.5 114.5t150.5 40.5q104 0 167.5 -48.5t63.5 -123.5q0 -46 -20 -84.5t-49 -66.5l-58 -56t-49 -65t-20 -81h-100q0 52 18 96t43.5 74.5t51 57.5t43.5 57t18 62q0 41 -30.5 66t-79.5 25q-45 0 -84.5 -27t-55.5 -69zM316 138v-138h-137v138h137z" />
    <glyph glyph-name="at" unicode="@" horiz-adv-x="831" 
d="M664 -34q-95 -76 -237 -76q-174 0 -277 104.5t-103 260.5q0 162 110.5 275.5t287.5 113.5q67 0 127.5 -18.5t111 -55t80 -98.5t29.5 -141q0 -111 -53.5 -181.5t-137.5 -70.5q-74 0 -91 49q-4 9 -12 0q-51 -63 -132 -63q-62 0 -103.5 48t-40.5 125q0 93 54 159t140 66
q68 0 108 -55q6 -6 8 4l6 26h74l-36 -218q-12 -68 33 -68q42 0 73 46.5t31 126.5q0 66 -23 115.5t-62.5 77.5t-86 41.5t-98.5 13.5q-152 0 -234 -90.5t-82 -227.5q0 -135 83 -216t231 -81q42 0 77 9t54.5 20t50.5 32zM314 245q0 -46 19 -74t55 -28q43 0 76 37.5t38 87.5
q6 53 -17.5 85t-61.5 32q-47 0 -78 -40.5t-31 -99.5z" />
    <glyph glyph-name="A" unicode="A" 
d="M31 0l260 723h132l260 -723h-123l-64 181h-276l-66 -181h-123zM248 290h218l-108 315z" />
    <glyph glyph-name="B" unicode="B" horiz-adv-x="678" 
d="M86 0v723h249q136 0 205 -48.5t69 -140.5q0 -58 -29.5 -97.5t-99.5 -66.5q147 -36 147 -175q0 -99 -69 -147t-213 -48h-259zM208 415h148q56 0 96 25t40 78t-40 81t-108 28h-136v-212zM208 97h138q157 0 157 108q0 55 -40.5 83t-106.5 28h-148v-219z" />
    <glyph glyph-name="C" unicode="C" horiz-adv-x="712" 
d="M373 733q118 0 197 -66t90 -167l-128 -3q-12 62 -53 98t-109 36q-179 0 -179 -267q0 -272 183 -272q60 0 102 38t55 100l127 -5q-13 -104 -84 -169.5t-198 -65.5q-148 0 -233.5 101.5t-85.5 273.5q0 171 84 269.5t232 98.5z" />
    <glyph glyph-name="D" unicode="D" horiz-adv-x="708" 
d="M86 723q133 0 195 -1q375 -7 375 -357q0 -177 -95 -271t-287 -94h-188v723zM210 623v-522h65q254 0 254 264q0 136 -64.5 197t-186.5 61h-68z" />
    <glyph glyph-name="E" unicode="E" horiz-adv-x="634" 
d="M86 0v723h479l-1 -104h-355v-203h314v-103h-315v-207l364 -1v-105h-486z" />
    <glyph glyph-name="F" unicode="F" horiz-adv-x="597" 
d="M86 723h474l-1 -103h-349v-208h308v-102h-308v-310h-124v723z" />
    <glyph glyph-name="G" unicode="G" horiz-adv-x="751" 
d="M373 -10q-145 0 -230.5 100t-85.5 269q0 172 88.5 273t234.5 101q117 0 198 -69.5t86 -162.5l-129 -4q-11 57 -53.5 94t-103.5 37q-87 0 -138 -66.5t-51 -196.5q0 -138 53 -202.5t140 -64.5q70 0 113 43.5t48 95.5l4 54h-161v86l289 -2v-375h-87v102q-74 -112 -215 -112z
" />
    <glyph glyph-name="H" unicode="H" horiz-adv-x="718" 
d="M512 321h-304v-321h-122v723h122v-298h304v298h122v-723h-122v321z" />
    <glyph glyph-name="I" unicode="I" horiz-adv-x="292" 
d="M86 723h122v-723h-122v723z" />
    <glyph glyph-name="J" unicode="J" horiz-adv-x="395" 
d="M317 187q0 -102 -36.5 -149.5t-134.5 -47.5q-61 0 -121 19l5 113q57 -17 80 -17q48 0 66.5 26t18.5 89v503h122v-536z" />
    <glyph glyph-name="K" unicode="K" horiz-adv-x="700" 
d="M671 0h-136l-207 353l-115 -136v-217h-127v723h127v-351l291 351h142l-228 -280z" />
    <glyph glyph-name="L" unicode="L" horiz-adv-x="566" 
d="M87 723h123v-618h327v-105h-451z" />
    <glyph glyph-name="M" unicode="M" horiz-adv-x="899" 
d="M86 0v723h175l189 -553l191 553h174v-723h-124v567l-190 -567h-102l-189 563v-563h-124z" />
    <glyph glyph-name="N" unicode="N" horiz-adv-x="765" 
d="M559 723h122v-723h-109l-364 530v-530h-122v723h120l353 -516v516z" />
    <glyph glyph-name="O" unicode="O" horiz-adv-x="760" 
d="M381 -10q-151 0 -237.5 98t-86.5 271q0 175 87 274.5t237 99.5q149 0 236 -99.5t87 -273.5q0 -173 -86.5 -271.5t-236.5 -98.5zM382 92q189 0 189 266q0 273 -190 273q-91 0 -141 -67.5t-50 -205.5q0 -135 50 -200.5t142 -65.5z" />
    <glyph glyph-name="P" unicode="P" horiz-adv-x="648" 
d="M86 0v723h257q121 0 197 -61.5t76 -171.5q0 -107 -70 -167.5t-187 -60.5h-149v-262h-124zM209 359h147q63 0 103.5 38t40.5 99t-41 96t-106 35h-144v-268z" />
    <glyph glyph-name="Q" unicode="Q" horiz-adv-x="749" 
d="M42 360q0 175 87 274t237 99t236.5 -99t86.5 -274q0 -214 -130 -309q15 -34 49 -53t77 -21v-99q-74 0 -131 24.5t-104 95.5q-45 -8 -84 -8q-150 0 -237 97.5t-87 272.5zM176 358q0 -266 190 -266q191 0 191 267q0 272 -191 272q-190 0 -190 -273z" />
    <glyph glyph-name="R" unicode="R" horiz-adv-x="688" 
d="M627 0h-126l-125 294h-168v-294h-122v723h294q121 0 182 -55t61 -153q0 -142 -133 -201zM353 390q68 0 107 32t39 89q0 55 -35.5 86t-95.5 31h-160v-238h145z" />
    <glyph glyph-name="S" unicode="S" horiz-adv-x="702" 
d="M354 -10q-115 0 -201.5 53.5t-98.5 151.5l127 4q12 -53 59 -82.5t113 -29.5q72 0 118 27.5t46 76.5q0 80 -126 108l-136 28q-178 37 -179 189q-1 97 76.5 156.5t197.5 59.5q122 0 198 -61.5t86 -149.5l-124 -4q-16 116 -158 116q-62 0 -103.5 -28t-41.5 -76
q0 -36 24.5 -57.5t87.5 -36.5l133 -29q191 -38 191 -214q0 -87 -79.5 -144.5t-209.5 -57.5z" />
    <glyph glyph-name="T" unicode="T" horiz-adv-x="594" 
d="M15 613v110h564v-110h-217v-613h-122v613h-225z" />
    <glyph glyph-name="U" unicode="U" horiz-adv-x="721" 
d="M642 264q0 -274 -278 -274q-146 0 -212 71.5t-66 209.5v452h125v-464q0 -83 40 -124t113 -41q74 0 115 41t41 124v464h122v-459z" />
    <glyph glyph-name="V" unicode="V" horiz-adv-x="668" 
d="M655 723l-252 -723h-141l-250 723h118l202 -583l206 583h117z" />
    <glyph glyph-name="W" unicode="W" horiz-adv-x="964" 
d="M942 723l-212 -723h-103l-146 513l-148 -513h-100l-211 723h121l146 -522l147 522h91l148 -522l147 522h120z" />
    <glyph glyph-name="X" unicode="X" horiz-adv-x="682" 
d="M660 0h-153l-177 276l-175 -276h-133l243 368l-235 355h153l159 -252l159 252h132l-227 -340z" />
    <glyph glyph-name="Y" unicode="Y" horiz-adv-x="634" 
d="M626 723l-248 -417v-306h-122v306l-249 417h133l178 -311l175 311h133z" />
    <glyph glyph-name="Z" unicode="Z" horiz-adv-x="650" 
d="M50 0v62l380 558h-359v103h532v-59l-385 -560h382v-104h-550z" />
    <glyph glyph-name="bracketleft" unicode="[" horiz-adv-x="322" 
d="M81 723h210v-72h-107l-1 -740h108v-72h-209z" />
    <glyph glyph-name="backslash" unicode="\" horiz-adv-x="367" 
d="M261 -28l-251 751h88l252 -751h-89z" />
    <glyph glyph-name="bracketright" unicode="]" horiz-adv-x="331" 
d="M227 723v-884h-209v72h107v740h-107v72h209z" />
    <glyph glyph-name="asciicircum" unicode="^" horiz-adv-x="479" 
d="M345 125l-110 272l-109 -271h-87l153 365q14 34 43 35t44 -34l153 -367h-87z" />
    <glyph glyph-name="underscore" unicode="_" horiz-adv-x="537" 
d="M474 -38v-91h-414v90z" />
    <glyph glyph-name="grave" unicode="`" horiz-adv-x="306" 
d="M40 733l248 -100l-18 -55l-259 71z" />
    <glyph glyph-name="a" unicode="a" horiz-adv-x="554" 
d="M212 -10q-77 0 -125 41t-48 113q0 86 62.5 129.5t196.5 44.5l77 2v35q0 42 -26.5 65t-73.5 22q-40 0 -71 -19t-41 -56h-103q4 74 64 117t156 43q107 0 159.5 -43.5t52.5 -121.5v-362h-102l-10 90q-49 -100 -168 -100zM251 73q46 0 85 30.5t39 67.5v82l-63 -1
q-156 -2 -156 -96q0 -38 26.5 -60.5t68.5 -22.5z" />
    <glyph glyph-name="b" unicode="b" horiz-adv-x="598" 
d="M342 -10q-67 0 -109.5 30t-60.5 68l-12 -88h-89v743h122v-313q51 97 160 97q100 0 153 -73t53 -193q0 -126 -56 -198.5t-161 -72.5zM314 80q121 0 121 182q0 174 -121 174q-34 0 -59 -13t-37.5 -34.5t-18 -43t-6.5 -46.5v-75q1 -65 34 -104.5t87 -39.5z" />
    <glyph glyph-name="c" unicode="c" horiz-adv-x="534" 
d="M283 527q88 0 146 -51.5t66 -135.5l-103 -1q-10 42 -37.5 68t-68.5 26q-61 0 -97 -47t-36 -128q0 -82 36.5 -130.5t97.5 -48.5q42 0 70 27t36 65h101q-9 -82 -67 -131.5t-144 -49.5q-109 0 -176.5 73.5t-67.5 192.5q0 120 67.5 195.5t176.5 75.5z" />
    <glyph glyph-name="d" unicode="d" horiz-adv-x="594" 
d="M256 -10q-105 0 -161 72.5t-56 198.5q0 120 53 193t153 73q58 0 100 -25t61 -58v299h121v-743h-89l-14 106q-38 -116 -168 -116zM282 80q54 0 88.5 36.5t35.5 93.5v100q-2 48 -32 87t-92 39q-123 0 -123 -174q0 -93 33 -137.5t90 -44.5z" />
    <glyph glyph-name="e" unicode="e" horiz-adv-x="556" 
d="M160 230q0 -68 33 -108.5t94 -40.5q90 0 116 77h111q-16 -79 -79 -123.5t-145 -44.5q-113 0 -182 71t-69 192q0 122 65.5 198t178.5 76q112 0 172.5 -70t60.5 -190v-37h-356zM160 306h242q0 59 -31 96t-89 37q-57 0 -89.5 -40t-32.5 -93z" />
    <glyph glyph-name="f" unicode="f" horiz-adv-x="393" 
d="M367 517v-86h-117v-431h-122v431h-102v86h102v77q0 62 34.5 95.5t99.5 33.5h109l1 -83h-73q-29 0 -40 -14.5t-11 -48.5v-60h119z" />
    <glyph glyph-name="g" unicode="g" horiz-adv-x="619" 
d="M297 -171q-131 0 -201 35.5t-70 95.5q0 20 9 37.5t23 28.5t27 18.5t26 13t14 6.5q-1 0 -10 5.5t-13 8t-12.5 9.5t-12.5 13t-7.5 15.5t-3.5 20.5q0 27 25.5 49t74.5 31q-101 48 -101 146q0 76 65.5 119.5t170.5 43.5q85 0 150 -43q13 6 69 28.5t73 29.5v-100l-90 -16
q14 -34 14 -61q0 -71 -59 -119.5t-167 -48.5q-20 0 -42 2q-70 -3 -70 -28q0 -12 20 -17t74 -9q50 -2 110 -6q91 -6 135.5 -44t44.5 -100q0 -76 -69 -120t-197 -44zM295 267q51 0 78.5 24t27.5 68q0 45 -29 71.5t-77 26.5q-50 0 -79 -26.5t-29 -71.5q0 -43 28.5 -67.5
t79.5 -24.5zM317 -99q68 0 98.5 17t30.5 53q0 58 -86 64l-130 9q-33 2 -58.5 -19.5t-25.5 -50.5q0 -73 171 -73z" />
    <glyph glyph-name="h" unicode="h" horiz-adv-x="592" 
d="M71 0v743h121v-296q48 75 154 75q76 0 128 -44.5t52 -114.5v-363h-121v344q0 37 -28 59.5t-71 22.5q-47 0 -80 -23t-33 -64v-339h-122z" />
    <glyph glyph-name="i" unicode="i" horiz-adv-x="270" 
d="M200 726v-115h-127v115h127zM198 517v-517h-122v517h122z" />
    <glyph glyph-name="j" unicode="j" horiz-adv-x="280" 
d="M209 726v-115h-127v115h127zM206 -9q0 -80 -37.5 -118.5t-122.5 -38.5q-24 0 -40.5 3t-20.5 7l-4 3v81l45 4q32 3 45 17t13 45v523h122v-526z" />
    <glyph glyph-name="k" unicode="k" horiz-adv-x="577" 
d="M550 0h-124l-149 240l-84 -88v-152h-122v743h122v-460l214 234h134l-187 -202z" />
    <glyph glyph-name="l" unicode="l" horiz-adv-x="307" 
d="M221 -8q-48 0 -79.5 12t-46 35t-19.5 46t-5 55v603h120v-590q0 -67 58 -73l26 -1v-76q-28 -11 -54 -11z" />
    <glyph glyph-name="m" unicode="m" horiz-adv-x="889" 
d="M71 0v517h119v-69q55 79 159 79q45 0 86.5 -20t61.5 -59q25 36 67.5 57.5t89.5 21.5q67 0 118 -43t51 -134v-350h-122v338q0 52 -26 75t-66 23q-46 0 -74 -25t-28 -78v-333h-121v357q0 36 -28.5 57.5t-64.5 21.5q-39 0 -69.5 -22.5t-30.5 -63.5v-350h-122z" />
    <glyph glyph-name="n" unicode="n" horiz-adv-x="593" 
d="M71 0v517h120v-69q54 75 155 75q76 0 128.5 -49t52.5 -132v-342h-122v329q0 45 -27.5 71t-70.5 26q-47 0 -80.5 -22.5t-33.5 -63.5v-340h-122z" />
    <glyph glyph-name="o" unicode="o" horiz-adv-x="566" 
d="M283 -10q-113 0 -178.5 73t-65.5 192q0 122 67 197t178 75q112 0 177.5 -75.5t65.5 -195.5q0 -119 -66 -192.5t-178 -73.5zM284 82q63 0 93 50.5t30 127.5t-30 126t-93 49q-64 0 -94.5 -49t-30.5 -126t31 -127.5t94 -50.5z" />
    <glyph glyph-name="p" unicode="p" horiz-adv-x="598" 
d="M71 -161v678h122v-68q59 78 155 78q92 0 151 -67.5t59 -195.5q0 -132 -64 -203t-163 -71q-88 0 -138 83v-234h-122zM309 80q59 0 97 48t38 134q0 83 -38.5 128.5t-93.5 45.5q-48 0 -83.5 -35.5t-35.5 -75.5v-160q17 -38 48 -61.5t68 -23.5z" />
    <glyph glyph-name="q" unicode="q" horiz-adv-x="593" 
d="M527 -161h-122v232q-53 -81 -147 -81q-98 0 -158.5 70.5t-60.5 203.5q0 128 59.5 195.5t151.5 67.5q79 0 156 -67v57h121v-678zM295 74q53 0 81.5 43.5t28.5 108.5v81q0 59 -31.5 97t-82.5 38q-55 0 -91.5 -45t-36.5 -133t37 -139t95 -51z" />
    <glyph glyph-name="r" unicode="r" horiz-adv-x="393" 
d="M71 0v517h117v-112q20 54 68 88t117 34v-116q-180 11 -180 -110v-301h-122z" />
    <glyph glyph-name="s" unicode="s" horiz-adv-x="522" 
d="M266 -10q-87 0 -149.5 42.5t-74.5 124.5h108q9 -42 42 -61t74 -19q48 0 76 17t28 48q0 46 -71 61l-95 23q-145 31 -145 142q-1 73 55.5 116t152.5 43q91 0 146 -41.5t55 -113.5h-104q-6 33 -32.5 50.5t-67.5 17.5t-69 -15t-28 -49q0 -23 20.5 -36.5t64.5 -22.5l92 -23
q72 -18 102 -59t30 -87q0 -75 -59.5 -116.5t-150.5 -41.5z" />
    <glyph glyph-name="t" unicode="t" horiz-adv-x="391" 
d="M344 431h-116l1 -294q0 -33 12 -43t42 -10h63v-77q-24 -11 -84 -11q-87 0 -121.5 33.5t-34.5 100.5v301h-84v86h88l20 154h98v-153h116v-87z" />
    <glyph glyph-name="u" unicode="u" horiz-adv-x="591" 
d="M262 -10q-74 1 -133.5 45.5t-59.5 127.5v355h122v-341q0 -48 30.5 -72t72.5 -24q46 0 77 26.5t31 73.5v337h123l-3 -518h-93l-14 101q-12 -57 -56 -84t-97 -27z" />
    <glyph glyph-name="v" unicode="v" horiz-adv-x="515" 
d="M496 517l-190 -517h-96l-191 517h112l123 -362h7l123 362h112z" />
    <glyph glyph-name="w" unicode="w" horiz-adv-x="788" 
d="M766 517l-163 -517h-105l-106 344l-104 -344h-102l-165 517h110l108 -356h5l105 356h89l108 -355h5l104 355h111z" />
    <glyph glyph-name="x" unicode="x" horiz-adv-x="577" 
d="M553 0h-129l-135 184l-136 -184h-129l199 269l-183 248h130l119 -162l120 162h129l-184 -248z" />
    <glyph glyph-name="y" unicode="y" horiz-adv-x="553" 
d="M137 -165q-29 0 -51 3.5t-30 7.5l-8 4v78l53 -1q38 -2 62.5 8.5t31 20t12.5 24.5l14 37l-202 500h121l137 -365l138 365h119l-214 -536q-34 -83 -77.5 -114.5t-105.5 -31.5z" />
    <glyph glyph-name="z" unicode="z" horiz-adv-x="519" 
d="M39 0v67l281 371h-259v79h410v-66l-281 -371h285v-80h-436z" />
    <glyph glyph-name="braceleft" unicode="{" horiz-adv-x="359" 
d="M123 612q0 52 41.5 81.5t101.5 29.5h62v-72h-40q-37 0 -49.5 -13t-12.5 -39v-204q-1 -50 -31 -76.5t-71 -30.5q-5 -1 -6 -3t2 -3l4 -1q42 -4 71.5 -29.5t30.5 -80.5v-207q0 -29 13.5 -41t48.5 -12h40v-72h-60q-62 0 -103.5 30t-41.5 83v209q0 38 -28.5 64t-84.5 26v66
q113 0 113 95v200z" />
    <glyph glyph-name="bar" unicode="|" horiz-adv-x="262" 
d="M178 -161h-91l-1 987h92v-987z" />
    <glyph glyph-name="braceright" unicode="}" horiz-adv-x="360" 
d="M221 612v-200q0 -95 113 -95v-66q-55 0 -84 -26t-29 -64v-209q0 -53 -41 -83t-103 -30h-60v72h39q36 0 49.5 12t13.5 41v207q1 55 30.5 80.5t71.5 29.5q6 1 6 3q1 2 -2 3l-4 1q-41 4 -71 30.5t-31 76.5v204q0 26 -12.5 39t-49.5 13h-40v72h62q59 0 100.5 -29.5
t41.5 -81.5z" />
    <glyph glyph-name="asciitilde" unicode="~" horiz-adv-x="592" 
d="M529 375q-47 -79 -137 -79q-42 0 -98.5 29t-88.5 29q-34 0 -59.5 -17t-53.5 -48l-35 64q40 40 72.5 60t75.5 20q41 0 97.5 -29t87.5 -29q61 0 104 64z" />
    <glyph glyph-name="uni00A0" unicode="&#xa0;" horiz-adv-x="233" 
 />
    <glyph glyph-name="exclamdown" unicode="&#xa1;" horiz-adv-x="266" 
d="M198 379h-137v138h137v-138zM202 -161h-144l34 472h78z" />
    <glyph glyph-name="cent" unicode="&#xa2;" horiz-adv-x="553" 
d="M298 190q42 0 70 27t35 65h101q-7 -71 -52.5 -118.5t-114.5 -58.5v-105h-84v104q-92 14 -147.5 85t-55.5 178q0 108 55.5 181t147.5 87v88h84v-89q71 -12 116 -61t53 -122l-104 -1q-10 42 -37.5 68t-68.5 26q-61 0 -96.5 -47t-35.5 -128q0 -82 36 -130.5t98 -48.5z" />
    <glyph glyph-name="sterling" unicode="&#xa3;" horiz-adv-x="632" 
d="M18 0v102h36q40 0 63.5 29.5t23.5 89.5q0 43 -11 120h-101v71h87l-12 87q-18 106 48 170t168 64q76 0 135 -36t85 -96l-106 -35q-17 36 -39 52t-57 16q-43 0 -71 -26t-28 -71q0 -44 20 -124h153v-71h-143q7 -68 1 -110q-6 -79 -58 -129h152q50 0 77 18t43 63l104 -24
q-48 -160 -215 -160h-355z" />
    <glyph glyph-name="currency" unicode="&#xa4;" horiz-adv-x="561" 
d="M278 159q-59 0 -109 31q-10 5 -15 -2l-57 -57l-53 56l63 62q-35 53 -35 114q0 60 30 107q5 8 -1 15l-57 57l54 55l64 -65q52 36 114 36q60 0 110 -32q6 -3 12 1l54 56l54 -56l-61 -59q36 -53 36 -114q0 -65 -32 -109q-4 -5 0 -9l57 -55l-53 -55l-60 60q-55 -37 -115 -37z
M278 243q51 0 85.5 36t34.5 85q0 48 -34.5 84.5t-85.5 36.5t-86 -36.5t-35 -84.5q0 -49 35 -85t86 -36z" />
    <glyph glyph-name="yen" unicode="&#xa5;" horiz-adv-x="637" 
d="M638 723l-232 -379h136v-70h-151v-83h151v-69h-151v-122h-139v122h-150v69h150v82h-150v70h125l-228 380h158l176 -308l176 308h129z" />
    <glyph glyph-name="brokenbar" unicode="&#xa6;" horiz-adv-x="262" 
d="M178 421h-91l-1 405h92v-405zM178 -161h-91l-1 405h92v-405z" />
    <glyph glyph-name="section" unicode="&#xa7;" horiz-adv-x="503" 
d="M255 -75q-78 0 -138 32.5t-85 83.5l76 39q53 -77 146 -77q44 0 71.5 16t27.5 46q0 24 -19 42.5t-68 37.5l-81 31q-75 29 -108.5 65t-33.5 89q0 89 93 130q-88 50 -88 125q0 64 54 106t142 42q69 0 123 -30.5t79 -75.5l-77 -39q-57 67 -121 67q-42 0 -66 -16t-24 -43
q0 -38 66 -65l80 -31q82 -32 118 -70.5t36 -93.5q0 -82 -85 -130q90 -50 90 -126q0 -69 -55.5 -112t-152.5 -43zM280 248q33 -3 55.5 18.5t20.5 52.5q-2 27 -19.5 46t-61.5 36l-49 19q-36 -3 -59 -24.5t-23 -49.5q0 -24 16.5 -40t65.5 -36z" />
    <glyph glyph-name="dieresis" unicode="&#xa8;" horiz-adv-x="322" 
d="M1 611v115h126v-115h-126zM195 611v115h126v-115h-126z" />
    <glyph glyph-name="copyright" unicode="&#xa9;" horiz-adv-x="824" 
d="M409 -10q-154 0 -262.5 108.5t-108.5 263.5q0 153 108.5 262t262.5 109t263 -109t109 -262q0 -155 -109 -263.5t-263 -108.5zM409 63q127 0 210 82.5t83 216.5q0 133 -83.5 216.5t-209.5 83.5q-127 0 -209.5 -83t-82.5 -217q0 -135 82 -217t210 -82zM412 572
q63 0 106.5 -35t63.5 -86l-86 -14q-31 67 -80 67q-45 0 -72 -36.5t-27 -102.5q0 -68 27.5 -104.5t75.5 -36.5q62 0 100 72l63 -18q-20 -48 -62.5 -85t-108.5 -37q-87 0 -141.5 57.5t-54.5 149.5t55.5 150.5t140.5 58.5z" />
    <glyph glyph-name="ordfeminine" unicode="&#xaa;" horiz-adv-x="402" 
d="M146 397q-51 0 -79 24.5t-28 66.5q0 48 44 77t123 33l46 3v23q0 53 -62 53q-49 0 -73 -44l-70 17q39 82 147 82q135 -1 135 -106v-122q0 -42 4 -69l7 -32h-81l-8 38q-51 -44 -105 -44zM176 449q32 0 56 21q20 17 20 34v51l-38 -2q-94 -6 -94 -61q0 -19 15 -31t41 -12z
" />
    <glyph glyph-name="guillemotleft" unicode="&#xab;" horiz-adv-x="479" 
d="M146 251l90 -184h-66l-124 184l124 192h67zM331 251l89 -184h-66l-124 184l124 192h67z" />
    <glyph glyph-name="logicalnot" unicode="&#xac;" horiz-adv-x="573" 
d="M60 409h453v-238h-99l-1 147h-353v91z" />
    <glyph glyph-name="uni00AD" unicode="&#xad;" horiz-adv-x="389" 
d="M324 303v-91h-264v91h264z" />
    <glyph glyph-name="registered" unicode="&#xae;" horiz-adv-x="546" 
d="M271 268q-97 0 -165 67.5t-68 164.5t68 165t165 68q96 0 164 -68t68 -165t-68 -164.5t-164 -67.5zM271 321q78 0 126.5 49t48.5 130t-48.5 130.5t-126.5 49.5q-80 0 -128 -49t-48 -131t48 -130.5t128 -48.5zM179 384v230h106q40 0 62.5 -15.5t22.5 -44.5q0 -45 -48 -62
l45 -108h-55l-37 103h-45v-103h-51zM230 524h52q35 0 35 26q0 27 -38 27h-49v-53z" />
    <glyph glyph-name="macron" unicode="&#xaf;" horiz-adv-x="363" 
d="M343 714v-80h-328v80h328z" />
    <glyph glyph-name="degree" unicode="&#xb0;" horiz-adv-x="469" 
d="M394 673q0 -71 -46 -116.5t-116 -45.5q-71 0 -117 45.5t-46 116.5t46 117t117 46q70 0 116 -46t46 -117zM317 672q0 40 -23.5 65t-63.5 25q-39 0 -63 -25t-23 -65t24.5 -65t62.5 -25t62.5 25t23.5 65z" />
    <glyph glyph-name="plusminus" unicode="&#xb1;" horiz-adv-x="573" 
d="M332 490h181v-90h-181v-182h-90v181h-182v91h181v182h91v-182zM60 46v90l453 1v-91h-453z" />
    <glyph glyph-name="uni00B2" unicode="&#xb2;" horiz-adv-x="376" 
d="M31 384v62q0 45 24.5 78.5t60 53.5t71 38t60 41.5t24.5 53.5q0 31 -22 50t-58 19q-39 0 -64.5 -22.5t-30.5 -62.5h-74q1 65 45.5 107.5t125.5 42.5q72 0 115 -37t43 -97q0 -38 -17.5 -67.5t-43.5 -46.5t-56.5 -33.5t-56.5 -29.5t-43.5 -33t-17.5 -45v-6h236v-66h-321z
" />
    <glyph glyph-name="uni00B3" unicode="&#xb3;" horiz-adv-x="402" 
d="M29 702q0 68 47 105.5t119 37.5q76 0 122.5 -31t46.5 -89q0 -72 -85 -101q44 -12 70 -40.5t26 -72.5q0 -63 -51.5 -98.5t-130.5 -34.5q-77 0 -121.5 38t-46.5 104h75q12 -79 94 -79q46 0 73 20t27 52q0 34 -28 53.5t-72 20.5l-43 1v63l39 1q41 1 66.5 21t25.5 49
q0 27 -24 44.5t-64 17.5q-38 0 -63.5 -20t-27.5 -62h-74z" />
    <glyph glyph-name="acute" unicode="&#xb4;" horiz-adv-x="306" 
d="M262 733l28 -84l-259 -71l-19 55z" />
    <glyph glyph-name="uni00B5" unicode="&#xb5;" horiz-adv-x="600" 
d="M69 -165v695h125v-344q0 -33 26.5 -56t65.5 -23q71 0 122 77v346h126l-2 -530h-121v82q-67 -61 -122 -66q-55 -7 -95 19v-200h-125z" />
    <glyph glyph-name="paragraph" unicode="&#xb6;" horiz-adv-x="583" 
d="M517 652h-62v-735h-77v735h-54v-735h-77v381q-92 5 -150 62t-58 147q0 91 61 153.5t170 62.5h247v-71z" />
    <glyph glyph-name="periodcentered" unicode="&#xb7;" horiz-adv-x="246" 
d="M186 429v-129h-134v129h134z" />
    <glyph glyph-name="cedilla" unicode="&#xb8;" horiz-adv-x="254" 
d="M234 -130q0 -37 -33 -58.5t-82 -21.5q-64 0 -106 27l18 44q37 -24 74 -24q51 0 51 33q0 42 -82 43q-12 0 -7 8l36 84h57l-22 -59q50 -2 73 -24t23 -52z" />
    <glyph glyph-name="uni00B9" unicode="&#xb9;" horiz-adv-x="303" 
d="M90 380v350h-85v46q58 0 83 14.5t27 44.5h52v-455h-77z" />
    <glyph glyph-name="ordmasculine" unicode="&#xba;" horiz-adv-x="399" 
d="M199 733q73 0 117 -47t44 -122q0 -74 -44 -120t-117 -46t-116.5 46t-43.5 120q0 75 44.5 122t115.5 47zM199 676q-76 0 -76 -110q0 -112 76 -112q77 0 77 112q0 110 -77 110z" />
    <glyph glyph-name="guillemotright" unicode="&#xbb;" horiz-adv-x="479" 
d="M143 251l-90 192h66l124 -192l-124 -184h-65zM327 251l-90 192h67l123 -192l-124 -184h-65z" />
    <glyph glyph-name="onequarter" unicode="&#xbc;" horiz-adv-x="922" 
d="M90 276v350h-85v46q58 0 83 14.5t27 44.5h52v-455h-77zM708 731l-486 -735l-75 1l488 734h73zM732 455h76v-282h72v-65h-72v-108h-74v108h-212v65zM594 173h139v187z" />
    <glyph glyph-name="onehalf" unicode="&#xbd;" horiz-adv-x="948" 
d="M90 276v350h-85v46q58 0 83 14.5t27 44.5h52v-455h-77zM708 731l-486 -735l-75 1l488 734h73zM595 0v62q0 45 24.5 78.5t60 53.5t71 38t60 41.5t24.5 53.5q0 31 -22 50t-58 19q-39 0 -64.5 -22.5t-30.5 -62.5h-74q1 65 45.5 107.5t125.5 42.5q72 0 115 -37t43 -97
q0 -38 -17.5 -67.5t-43.5 -46.5t-56.5 -33.5t-56.5 -29.5t-43.5 -33t-17.5 -45v-6h236v-66h-321z" />
    <glyph glyph-name="threequarters" unicode="&#xbe;" horiz-adv-x="1020" 
d="M29 597q0 68 47 105.5t119 37.5q76 0 122.5 -31t46.5 -89q0 -72 -85 -101q44 -12 70 -40.5t26 -72.5q0 -63 -51.5 -98.5t-130.5 -34.5q-77 0 -121.5 38t-46.5 104h75q12 -79 94 -79q46 0 73 20t27 52q0 34 -28 53.5t-72 20.5l-43 1v63l39 1q41 1 66.5 21t25.5 49
q0 27 -24 44.5t-64 17.5q-38 0 -63.5 -20t-27.5 -62h-74zM807 731l-486 -735l-75 1l488 734h73zM830 455h76v-282h72v-65h-72v-108h-74v108h-212v65zM692 173h139v187z" />
    <glyph glyph-name="questiondown" unicode="&#xbf;" horiz-adv-x="532" 
d="M210 379v138h138v-138h-138zM510 -15q-32 -74 -96 -115t-151 -41q-109 0 -169.5 48.5t-60.5 124.5q0 38 14.5 69t36 51t47 41.5t47 40t36 47.5t14.5 63h101q0 -49 -18 -88t-43.5 -64t-51 -47.5t-43.5 -49.5t-18 -57q0 -40 30.5 -65t78.5 -25q44 0 84 26.5t57 67.5z" />
    <glyph glyph-name="Agrave" unicode="&#xc0;" 
d="M239 939l248 -100l-18 -55l-259 71zM31 0l260 723h132l260 -723h-123l-64 181h-276l-66 -181h-123zM248 290h218l-108 315z" />
    <glyph glyph-name="Aacute" unicode="&#xc1;" 
d="M469 939l28 -84l-259 -71l-19 55zM31 0l260 723h132l260 -723h-123l-64 181h-276l-66 -181h-123zM248 290h218l-108 315z" />
    <glyph glyph-name="Acircumflex" unicode="&#xc2;" 
d="M426 809l-67 71l-75 -71h-96l129 125h85l126 -125h-102zM31 0l260 723h132l260 -723h-123l-64 181h-276l-66 -181h-123zM248 290h218l-108 315z" />
    <glyph glyph-name="Atilde" unicode="&#xc3;" 
d="M522 862q-41 -33 -95 -33q-28 0 -70 13.5t-66 13.5q-36 0 -74 -30l-20 60q42 42 90 42q28 0 73.5 -14.5t66.5 -14.5q36 0 77 31zM31 0l260 723h132l260 -723h-123l-64 181h-276l-66 -181h-123zM248 290h218l-108 315z" />
    <glyph glyph-name="Adieresis" unicode="&#xc4;" 
d="M196 815v115h126v-115h-126zM390 815v115h126v-115h-126zM31 0l260 723h132l260 -723h-123l-64 181h-276l-66 -181h-123zM248 290h218l-108 315z" />
    <glyph glyph-name="Aring" unicode="&#xc5;" 
d="M464 884q0 -45 -31 -75.5t-76 -30.5q-44 0 -75 31t-31 77q0 43 31 72.5t75 29.5q45 0 76 -30t31 -74zM408 883q0 22 -15 36.5t-37 14.5q-21 0 -36.5 -14.5t-15.5 -36.5q0 -20 16 -36t36 -16q21 0 36.5 15.5t15.5 36.5zM31 0l260 723h132l260 -723h-123l-64 181h-276
l-66 -181h-123zM248 290h218l-108 315z" />
    <glyph glyph-name="AE" unicode="&#xc6;" horiz-adv-x="1017" 
d="M955 103v-103h-494v183h-239l-99 -183h-123l393 723h550v-103h-343v-205h243v-101h-243v-211h355zM461 290v350l-193 -350h193z" />
    <glyph glyph-name="Ccedilla" unicode="&#xc7;" horiz-adv-x="712" 
d="M374 92q60 0 102 38t55 100l127 -5q-12 -98 -76 -162.5t-179 -71.5l-17 -45q50 -2 73 -24t23 -52q0 -37 -33 -58.5t-82 -21.5q-64 0 -106 27l18 44q37 -24 74 -24q51 0 51 33q0 42 -82 43q-12 0 -7 8l30 70q-134 11 -211 111.5t-77 262.5q0 171 84 269.5t232 98.5
q118 0 197 -66t90 -167l-128 -3q-12 62 -53 98t-109 36q-179 0 -179 -267q0 -272 183 -272z" />
    <glyph glyph-name="Egrave" unicode="&#xc8;" horiz-adv-x="634" 
d="M208 939l248 -100l-18 -55l-259 71zM86 0v723h479l-1 -104h-355v-203h314v-103h-315v-207l364 -1v-105h-486z" />
    <glyph glyph-name="Eacute" unicode="&#xc9;" horiz-adv-x="634" 
d="M438 939l28 -84l-259 -71l-19 55zM86 0v723h479l-1 -104h-355v-203h314v-103h-315v-207l364 -1v-105h-486z" />
    <glyph glyph-name="Ecircumflex" unicode="&#xca;" horiz-adv-x="634" 
d="M394 809l-67 71l-75 -71h-96l129 125h85l126 -125h-102zM86 0v723h479l-1 -104h-355v-203h314v-103h-315v-207l364 -1v-105h-486z" />
    <glyph glyph-name="Edieresis" unicode="&#xcb;" horiz-adv-x="634" 
d="M165 815v115h126v-115h-126zM359 815v115h126v-115h-126zM86 0v723h479l-1 -104h-355v-203h314v-103h-315v-207l364 -1v-105h-486z" />
    <glyph glyph-name="Igrave" unicode="&#xcc;" horiz-adv-x="292" 
d="M29 939l248 -100l-18 -55l-259 71zM86 723h122v-723h-122v723z" />
    <glyph glyph-name="Iacute" unicode="&#xcd;" horiz-adv-x="292" 
d="M259 939l28 -84l-259 -71l-19 55zM86 723h122v-723h-122v723z" />
    <glyph glyph-name="Icircumflex" unicode="&#xce;" horiz-adv-x="292" 
d="M215 809l-67 71l-75 -71h-96l129 125h85l126 -125h-102zM86 723h122v-723h-122v723z" />
    <glyph glyph-name="Idieresis" unicode="&#xcf;" horiz-adv-x="292" 
d="M-14 815v115h126v-115h-126zM180 815v115h126v-115h-126zM86 723h122v-723h-122v723z" />
    <glyph glyph-name="Eth" unicode="&#xd0;" horiz-adv-x="729" 
d="M303 722q375 -7 375 -357q0 -177 -95 -271t-287 -94h-188v313h-73v92h73v318q133 0 195 -1zM297 101q254 0 254 264q0 136 -64.5 197t-186.5 61h-68v-218h155v-92h-155v-212h65z" />
    <glyph glyph-name="Ntilde" unicode="&#xd1;" horiz-adv-x="765" 
d="M548 862q-41 -33 -95 -33q-28 0 -70 13.5t-66 13.5q-36 0 -74 -30l-20 60q42 42 90 42q28 0 73.5 -14.5t66.5 -14.5q36 0 77 31zM559 723h122v-723h-109l-364 530v-530h-122v723h120l353 -516v516z" />
    <glyph glyph-name="Ograve" unicode="&#xd2;" horiz-adv-x="760" 
d="M263 939l248 -100l-18 -55l-259 71zM381 -10q-151 0 -237.5 98t-86.5 271q0 175 87 274.5t237 99.5q149 0 236 -99.5t87 -273.5q0 -173 -86.5 -271.5t-236.5 -98.5zM382 92q189 0 189 266q0 273 -190 273q-91 0 -141 -67.5t-50 -205.5q0 -135 50 -200.5t142 -65.5z" />
    <glyph glyph-name="Oacute" unicode="&#xd3;" horiz-adv-x="760" 
d="M493 939l28 -84l-259 -71l-19 55zM381 -10q-151 0 -237.5 98t-86.5 271q0 175 87 274.5t237 99.5q149 0 236 -99.5t87 -273.5q0 -173 -86.5 -271.5t-236.5 -98.5zM382 92q189 0 189 266q0 273 -190 273q-91 0 -141 -67.5t-50 -205.5q0 -135 50 -200.5t142 -65.5z" />
    <glyph glyph-name="Ocircumflex" unicode="&#xd4;" horiz-adv-x="760" 
d="M448 809l-67 71l-75 -71h-96l129 125h85l126 -125h-102zM381 -10q-151 0 -237.5 98t-86.5 271q0 175 87 274.5t237 99.5q149 0 236 -99.5t87 -273.5q0 -173 -86.5 -271.5t-236.5 -98.5zM382 92q189 0 189 266q0 273 -190 273q-91 0 -141 -67.5t-50 -205.5
q0 -135 50 -200.5t142 -65.5z" />
    <glyph glyph-name="Otilde" unicode="&#xd5;" horiz-adv-x="760" 
d="M546 862q-41 -33 -95 -33q-28 0 -70 13.5t-66 13.5q-36 0 -74 -30l-20 60q42 42 90 42q28 0 73.5 -14.5t66.5 -14.5q36 0 77 31zM381 -10q-151 0 -237.5 98t-86.5 271q0 175 87 274.5t237 99.5q149 0 236 -99.5t87 -273.5q0 -173 -86.5 -271.5t-236.5 -98.5zM382 92
q189 0 189 266q0 273 -190 273q-91 0 -141 -67.5t-50 -205.5q0 -135 50 -200.5t142 -65.5z" />
    <glyph glyph-name="Odieresis" unicode="&#xd6;" horiz-adv-x="760" 
d="M220 815v115h126v-115h-126zM414 815v115h126v-115h-126zM381 -10q-151 0 -237.5 98t-86.5 271q0 175 87 274.5t237 99.5q149 0 236 -99.5t87 -273.5q0 -173 -86.5 -271.5t-236.5 -98.5zM382 92q189 0 189 266q0 273 -190 273q-91 0 -141 -67.5t-50 -205.5
q0 -135 50 -200.5t142 -65.5z" />
    <glyph glyph-name="multiply" unicode="&#xd7;" horiz-adv-x="560" 
d="M500 520l-156 -156l155 -155l-65 -65l-155 155l-155 -155l-63 65l154 154l-155 156l63 64l156 -155l156 156z" />
    <glyph glyph-name="Oslash" unicode="&#xd8;" horiz-adv-x="764" 
d="M82 -14l-58 59l85 89q-53 88 -53 225q0 175 87 274.5t237 99.5q134 0 219 -83l81 86l57 -57l-87 -94q53 -92 53 -225q0 -173 -87 -271.5t-236 -98.5q-136 0 -218 79zM219 244l295 321q-44 69 -134 69q-162 0 -174 -228q-4 -82 13 -162zM380 90q80 0 122 52t48 160
q6 86 -11 173l-294 -321q45 -64 135 -64z" />
    <glyph glyph-name="Ugrave" unicode="&#xd9;" horiz-adv-x="721" 
d="M247 939l248 -100l-18 -55l-259 71zM642 264q0 -274 -278 -274q-146 0 -212 71.5t-66 209.5v452h125v-464q0 -83 40 -124t113 -41q74 0 115 41t41 124v464h122v-459z" />
    <glyph glyph-name="Uacute" unicode="&#xda;" horiz-adv-x="721" 
d="M477 939l28 -84l-259 -71l-19 55zM642 264q0 -274 -278 -274q-146 0 -212 71.5t-66 209.5v452h125v-464q0 -83 40 -124t113 -41q74 0 115 41t41 124v464h122v-459z" />
    <glyph glyph-name="Ucircumflex" unicode="&#xdb;" horiz-adv-x="721" 
d="M432 809l-67 71l-75 -71h-96l129 125h85l126 -125h-102zM642 264q0 -274 -278 -274q-146 0 -212 71.5t-66 209.5v452h125v-464q0 -83 40 -124t113 -41q74 0 115 41t41 124v464h122v-459z" />
    <glyph glyph-name="Udieresis" unicode="&#xdc;" horiz-adv-x="721" 
d="M204 815v115h126v-115h-126zM398 815v115h126v-115h-126zM642 264q0 -274 -278 -274q-146 0 -212 71.5t-66 209.5v452h125v-464q0 -83 40 -124t113 -41q74 0 115 41t41 124v464h122v-459z" />
    <glyph glyph-name="Yacute" unicode="&#xdd;" horiz-adv-x="634" 
d="M441 940l28 -84l-259 -71l-19 55zM626 723l-248 -417v-306h-122v306l-249 417h133l178 -311l175 311h133z" />
    <glyph glyph-name="Thorn" unicode="&#xde;" horiz-adv-x="690" 
d="M658 371q0 -104 -71 -159.5t-190 -55.5h-172v-156h-139v723h139v-143h155q124 0 201 -53.5t77 -155.5zM516 373q0 54 -38 80t-105 26h-148v-222h154q64 0 100.5 29.5t36.5 86.5z" />
    <glyph glyph-name="germandbls" unicode="&#xdf;" horiz-adv-x="639" 
d="M333 723q94 0 142.5 -39.5t48.5 -104.5q0 -51 -30 -81.5t-96 -59.5q-17 -10 -24 -14t-11.5 -10.5t-4.5 -14.5q0 -12 8.5 -18.5t31.5 -13.5q93 -38 126 -63q69 -52 69 -139q0 -83 -56.5 -129t-149.5 -46q-80 0 -134 34l38 77q48 -30 91 -30q45 0 72.5 21.5t27.5 60.5
t-26 58t-83 39q-50 20 -78.5 47t-28.5 75q0 35 18 60.5t56 50.5q4 3 14.5 10.5t15 11t13 10.5t12 12.5t8.5 13t7 16t2 17.5q0 31 -23 49t-64 18q-52 0 -82 -31.5t-30 -87.5v-522h-120v413h-63v86h62q2 99 62 161.5t179 62.5z" />
    <glyph glyph-name="agrave" unicode="&#xe0;" horiz-adv-x="554" 
d="M162 733l248 -100l-18 -55l-259 71zM212 -10q-77 0 -125 41t-48 113q0 86 62.5 129.5t196.5 44.5l77 2v35q0 42 -26.5 65t-73.5 22q-40 0 -71 -19t-41 -56h-103q4 74 64 117t156 43q107 0 159.5 -43.5t52.5 -121.5v-362h-102l-10 90q-49 -100 -168 -100zM251 73
q46 0 85 30.5t39 67.5v82l-63 -1q-156 -2 -156 -96q0 -38 26.5 -60.5t68.5 -22.5z" />
    <glyph glyph-name="aacute" unicode="&#xe1;" horiz-adv-x="554" 
d="M392 733l28 -84l-259 -71l-19 55zM212 -10q-77 0 -125 41t-48 113q0 86 62.5 129.5t196.5 44.5l77 2v35q0 42 -26.5 65t-73.5 22q-40 0 -71 -19t-41 -56h-103q4 74 64 117t156 43q107 0 159.5 -43.5t52.5 -121.5v-362h-102l-10 90q-49 -100 -168 -100zM251 73
q46 0 85 30.5t39 67.5v82l-63 -1q-156 -2 -156 -96q0 -38 26.5 -60.5t68.5 -22.5z" />
    <glyph glyph-name="acircumflex" unicode="&#xe2;" horiz-adv-x="554" 
d="M348 603l-67 71l-75 -71h-96l129 125h85l126 -125h-102zM212 -10q-77 0 -125 41t-48 113q0 86 62.5 129.5t196.5 44.5l77 2v35q0 42 -26.5 65t-73.5 22q-40 0 -71 -19t-41 -56h-103q4 74 64 117t156 43q107 0 159.5 -43.5t52.5 -121.5v-362h-102l-10 90
q-49 -100 -168 -100zM251 73q46 0 85 30.5t39 67.5v82l-63 -1q-156 -2 -156 -96q0 -38 26.5 -60.5t68.5 -22.5z" />
    <glyph glyph-name="atilde" unicode="&#xe3;" horiz-adv-x="554" 
d="M446 656q-41 -33 -95 -33q-28 0 -70 13.5t-66 13.5q-36 0 -74 -30l-20 60q42 42 90 42q28 0 73.5 -14.5t66.5 -14.5q36 0 77 31zM212 -10q-77 0 -125 41t-48 113q0 86 62.5 129.5t196.5 44.5l77 2v35q0 42 -26.5 65t-73.5 22q-40 0 -71 -19t-41 -56h-103q4 74 64 117
t156 43q107 0 159.5 -43.5t52.5 -121.5v-362h-102l-10 90q-49 -100 -168 -100zM251 73q46 0 85 30.5t39 67.5v82l-63 -1q-156 -2 -156 -96q0 -38 26.5 -60.5t68.5 -22.5z" />
    <glyph glyph-name="adieresis" unicode="&#xe4;" horiz-adv-x="554" 
d="M119 609v115h126v-115h-126zM313 609v115h126v-115h-126zM212 -10q-77 0 -125 41t-48 113q0 86 62.5 129.5t196.5 44.5l77 2v35q0 42 -26.5 65t-73.5 22q-40 0 -71 -19t-41 -56h-103q4 74 64 117t156 43q107 0 159.5 -43.5t52.5 -121.5v-362h-102l-10 90
q-49 -100 -168 -100zM251 73q46 0 85 30.5t39 67.5v82l-63 -1q-156 -2 -156 -96q0 -38 26.5 -60.5t68.5 -22.5z" />
    <glyph glyph-name="aring" unicode="&#xe5;" horiz-adv-x="554" 
d="M387 678q0 -45 -31 -75.5t-76 -30.5q-44 0 -75 31t-31 77q0 43 31 72.5t75 29.5q45 0 76 -30t31 -74zM331 677q0 22 -15 36.5t-37 14.5q-21 0 -36.5 -14.5t-15.5 -36.5q0 -20 16 -36t36 -16q21 0 36.5 15.5t15.5 36.5zM212 -10q-77 0 -125 41t-48 113q0 86 62.5 129.5
t196.5 44.5l77 2v35q0 42 -26.5 65t-73.5 22q-40 0 -71 -19t-41 -56h-103q4 74 64 117t156 43q107 0 159.5 -43.5t52.5 -121.5v-362h-102l-10 90q-49 -100 -168 -100zM251 73q46 0 85 30.5t39 67.5v82l-63 -1q-156 -2 -156 -96q0 -38 26.5 -60.5t68.5 -22.5z" />
    <glyph glyph-name="ae" unicode="&#xe6;" horiz-adv-x="914" 
d="M500 234q0 -65 42.5 -111.5t102.5 -46.5q47 0 79 20t65 59l77 -36q-79 -129 -236 -129q-120 0 -201 96q-4 4 -8 0q-43 -45 -92.5 -70.5t-123.5 -25.5q-78 0 -122 39.5t-44 106.5q0 77 65 122.5t194 53.5l80 6v36q0 44 -25.5 68.5t-74.5 24.5q-79 0 -122 -77l-103 27
q31 65 86 97.5t145 32.5q133 -1 176 -76q62 76 169 76q110 0 178 -78t68 -214zM633 448q-56 0 -93 -38t-37 -104l252 -1q0 55 -34 99t-88 44zM378 250l-66 -5q-69 -5 -110.5 -31t-41.5 -70q0 -35 24 -55.5t67 -19.5q53 2 90 29t37 66v86z" />
    <glyph glyph-name="ccedilla" unicode="&#xe7;" horiz-adv-x="534" 
d="M287 79q42 0 70 27t36 65h101q-8 -76 -58.5 -124t-126.5 -56l-17 -45q50 -2 73 -24t23 -52q0 -37 -33 -58.5t-82 -21.5q-64 0 -106 27l18 44q37 -24 74 -24q51 0 51 33q0 42 -82 43q-12 0 -7 8l30 71q-96 11 -154 83t-58 181q0 120 67.5 195.5t176.5 75.5q88 0 146 -51.5
t66 -135.5l-103 -1q-10 42 -37.5 68t-68.5 26q-61 0 -97 -47t-36 -128q0 -82 36.5 -130.5t97.5 -48.5z" />
    <glyph glyph-name="egrave" unicode="&#xe8;" horiz-adv-x="556" 
d="M165 733l248 -100l-18 -55l-259 71zM160 230q0 -68 33 -108.5t94 -40.5q90 0 116 77h111q-16 -79 -79 -123.5t-145 -44.5q-113 0 -182 71t-69 192q0 122 65.5 198t178.5 76q112 0 172.5 -70t60.5 -190v-37h-356zM160 306h242q0 59 -31 96t-89 37q-57 0 -89.5 -40
t-32.5 -93z" />
    <glyph glyph-name="eacute" unicode="&#xe9;" horiz-adv-x="556" 
d="M395 733l28 -84l-259 -71l-19 55zM160 230q0 -68 33 -108.5t94 -40.5q90 0 116 77h111q-16 -79 -79 -123.5t-145 -44.5q-113 0 -182 71t-69 192q0 122 65.5 198t178.5 76q112 0 172.5 -70t60.5 -190v-37h-356zM160 306h242q0 59 -31 96t-89 37q-57 0 -89.5 -40t-32.5 -93
z" />
    <glyph glyph-name="ecircumflex" unicode="&#xea;" horiz-adv-x="556" 
d="M350 603l-67 71l-75 -71h-96l129 125h85l126 -125h-102zM160 230q0 -68 33 -108.5t94 -40.5q90 0 116 77h111q-16 -79 -79 -123.5t-145 -44.5q-113 0 -182 71t-69 192q0 122 65.5 198t178.5 76q112 0 172.5 -70t60.5 -190v-37h-356zM160 306h242q0 59 -31 96t-89 37
q-57 0 -89.5 -40t-32.5 -93z" />
    <glyph glyph-name="edieresis" unicode="&#xeb;" horiz-adv-x="556" 
d="M122 609v115h126v-115h-126zM316 609v115h126v-115h-126zM160 230q0 -68 33 -108.5t94 -40.5q90 0 116 77h111q-16 -79 -79 -123.5t-145 -44.5q-113 0 -182 71t-69 192q0 122 65.5 198t178.5 76q112 0 172.5 -70t60.5 -190v-37h-356zM160 306h242q0 59 -31 96t-89 37
q-57 0 -89.5 -40t-32.5 -93z" />
    <glyph glyph-name="igrave" unicode="&#xec;" horiz-adv-x="266" 
d="M17 733l248 -100l-18 -55l-259 71zM195 517v-517h-122v517h122z" />
    <glyph glyph-name="iacute" unicode="&#xed;" horiz-adv-x="266" 
d="M247 733l28 -84l-259 -71l-19 55zM195 517v-517h-122v517h122z" />
    <glyph glyph-name="icircumflex" unicode="&#xee;" horiz-adv-x="266" 
d="M203 603l-67 71l-75 -71h-96l129 125h85l126 -125h-102zM195 517v-517h-122v517h122z" />
    <glyph glyph-name="idieresis" unicode="&#xef;" horiz-adv-x="266" 
d="M-25 609v115h126v-115h-126zM169 609v115h126v-115h-126zM195 517v-517h-122v517h122z" />
    <glyph glyph-name="eth" unicode="&#xf0;" horiz-adv-x="589" 
d="M550 263q0 -123 -70 -198t-187 -75q-112 0 -183 72t-71 184q0 114 71 187.5t180 73.5q51 0 80 -29q-35 71 -111 124l-138 -78l-26 43l117 64q-43 23 -107 48l70 55q71 -21 127 -52l97 54l23 -44l-71 -40q199 -137 199 -389zM296 74q60 0 95 47.5t35 127.5t-35.5 128
t-95.5 48t-96 -48t-36 -128t36 -127.5t97 -47.5z" />
    <glyph glyph-name="ntilde" unicode="&#xf1;" horiz-adv-x="593" 
d="M469 656q-41 -33 -95 -33q-28 0 -70 13.5t-66 13.5q-36 0 -74 -30l-20 60q42 42 90 42q28 0 73.5 -14.5t66.5 -14.5q36 0 77 31zM71 0v517h120v-69q54 75 155 75q76 0 128.5 -49t52.5 -132v-342h-122v329q0 45 -27.5 71t-70.5 26q-47 0 -80.5 -22.5t-33.5 -63.5v-340
h-122z" />
    <glyph glyph-name="ograve" unicode="&#xf2;" horiz-adv-x="566" 
d="M166 733l248 -100l-18 -55l-259 71zM283 -10q-113 0 -178.5 73t-65.5 192q0 122 67 197t178 75q112 0 177.5 -75.5t65.5 -195.5q0 -119 -66 -192.5t-178 -73.5zM284 82q63 0 93 50.5t30 127.5t-30 126t-93 49q-64 0 -94.5 -49t-30.5 -126t31 -127.5t94 -50.5z" />
    <glyph glyph-name="oacute" unicode="&#xf3;" horiz-adv-x="566" 
d="M396 733l28 -84l-259 -71l-19 55zM283 -10q-113 0 -178.5 73t-65.5 192q0 122 67 197t178 75q112 0 177.5 -75.5t65.5 -195.5q0 -119 -66 -192.5t-178 -73.5zM284 82q63 0 93 50.5t30 127.5t-30 126t-93 49q-64 0 -94.5 -49t-30.5 -126t31 -127.5t94 -50.5z" />
    <glyph glyph-name="ocircumflex" unicode="&#xf4;" horiz-adv-x="566" 
d="M351 603l-67 71l-75 -71h-96l129 125h85l126 -125h-102zM283 -10q-113 0 -178.5 73t-65.5 192q0 122 67 197t178 75q112 0 177.5 -75.5t65.5 -195.5q0 -119 -66 -192.5t-178 -73.5zM284 82q63 0 93 50.5t30 127.5t-30 126t-93 49q-64 0 -94.5 -49t-30.5 -126t31 -127.5
t94 -50.5z" />
    <glyph glyph-name="otilde" unicode="&#xf5;" horiz-adv-x="566" 
d="M449 656q-41 -33 -95 -33q-28 0 -70 13.5t-66 13.5q-36 0 -74 -30l-20 60q42 42 90 42q28 0 73.5 -14.5t66.5 -14.5q36 0 77 31zM283 -10q-113 0 -178.5 73t-65.5 192q0 122 67 197t178 75q112 0 177.5 -75.5t65.5 -195.5q0 -119 -66 -192.5t-178 -73.5zM284 82
q63 0 93 50.5t30 127.5t-30 126t-93 49q-64 0 -94.5 -49t-30.5 -126t31 -127.5t94 -50.5z" />
    <glyph glyph-name="odieresis" unicode="&#xf6;" horiz-adv-x="566" 
d="M123 609v115h126v-115h-126zM317 609v115h126v-115h-126zM283 -10q-113 0 -178.5 73t-65.5 192q0 122 67 197t178 75q112 0 177.5 -75.5t65.5 -195.5q0 -119 -66 -192.5t-178 -73.5zM284 82q63 0 93 50.5t30 127.5t-30 126t-93 49q-64 0 -94.5 -49t-30.5 -126t31 -127.5
t94 -50.5z" />
    <glyph glyph-name="divide" unicode="&#xf7;" horiz-adv-x="573" 
d="M355 617v-131h-136v131h136zM513 409v-91h-453v91h453zM355 242v-131h-136v131h136z" />
    <glyph glyph-name="oslash" unicode="&#xf8;" horiz-adv-x="600" 
d="M572 476l-66 -63q38 -65 38 -157q0 -119 -65.5 -192.5t-177.5 -73.5q-105 0 -170 65l-65 -62l-43 46l69 66q-35 64 -35 150q0 122 67 197t178 75q102 0 166 -64l61 59zM177 260q0 -38 7 -67l207 198q-31 44 -89 44q-64 0 -94.5 -49t-30.5 -126zM425 260q0 40 -7 69
l-209 -199q35 -48 93 -48q63 0 93 50.5t30 127.5z" />
    <glyph glyph-name="ugrave" unicode="&#xf9;" horiz-adv-x="591" 
d="M178 733l248 -100l-18 -55l-259 71zM262 -10q-74 1 -133.5 45.5t-59.5 127.5v355h122v-341q0 -48 30.5 -72t72.5 -24q46 0 77 26.5t31 73.5v337h123l-3 -518h-93l-14 101q-12 -57 -56 -84t-97 -27z" />
    <glyph glyph-name="uacute" unicode="&#xfa;" horiz-adv-x="591" 
d="M408 733l28 -84l-259 -71l-19 55zM262 -10q-74 1 -133.5 45.5t-59.5 127.5v355h122v-341q0 -48 30.5 -72t72.5 -24q46 0 77 26.5t31 73.5v337h123l-3 -518h-93l-14 101q-12 -57 -56 -84t-97 -27z" />
    <glyph glyph-name="ucircumflex" unicode="&#xfb;" horiz-adv-x="591" 
d="M363 603l-67 71l-75 -71h-96l129 125h85l126 -125h-102zM262 -10q-74 1 -133.5 45.5t-59.5 127.5v355h122v-341q0 -48 30.5 -72t72.5 -24q46 0 77 26.5t31 73.5v337h123l-3 -518h-93l-14 101q-12 -57 -56 -84t-97 -27z" />
    <glyph glyph-name="udieresis" unicode="&#xfc;" horiz-adv-x="591" 
d="M135 609v115h126v-115h-126zM329 609v115h126v-115h-126zM262 -10q-74 1 -133.5 45.5t-59.5 127.5v355h122v-341q0 -48 30.5 -72t72.5 -24q46 0 77 26.5t31 73.5v337h123l-3 -518h-93l-14 101q-12 -57 -56 -84t-97 -27z" />
    <glyph glyph-name="yacute" unicode="&#xfd;" horiz-adv-x="553" 
d="M401 733l28 -84l-259 -71l-19 55zM137 -165q-29 0 -51 3.5t-30 7.5l-8 4v78l53 -1q38 -2 62.5 8.5t31 20t12.5 24.5l14 37l-202 500h121l137 -365l138 365h119l-214 -536q-34 -83 -77.5 -114.5t-105.5 -31.5z" />
    <glyph glyph-name="thorn" unicode="&#xfe;" horiz-adv-x="598" 
d="M193 723v-274q20 22 35.5 35.5t49.5 28t74 14.5q91 0 148.5 -67.5t57.5 -195.5q0 -133 -58.5 -203.5t-155.5 -70.5q-79 0 -134 50q-7 6 -10.5 7t-5 -2t-1.5 -11v-195h-122v884h122zM193 125q52 -55 109 -55q62 0 97.5 48.5t35.5 146.5q0 95 -35 138.5t-94 43.5
q-47 0 -80 -29t-33 -64v-229z" />
    <glyph glyph-name="ydieresis" unicode="&#xff;" horiz-adv-x="553" 
d="M129 609v115h126v-115h-126zM323 609v115h126v-115h-126zM137 -165q-29 0 -51 3.5t-30 7.5l-8 4v78l53 -1q38 -2 62.5 8.5t31 20t12.5 24.5l14 37l-202 500h121l137 -365l138 365h119l-214 -536q-34 -83 -77.5 -114.5t-105.5 -31.5z" />
    <glyph glyph-name="Amacron" unicode="&#x100;" 
d="M521 920v-80h-328v80h328zM31 0l260 723h132l260 -723h-123l-64 181h-276l-66 -181h-123zM248 290h218l-108 315z" />
    <glyph glyph-name="amacron" unicode="&#x101;" horiz-adv-x="554" 
d="M444 714v-80h-328v80h328zM212 -10q-77 0 -125 41t-48 113q0 86 62.5 129.5t196.5 44.5l77 2v35q0 42 -26.5 65t-73.5 22q-40 0 -71 -19t-41 -56h-103q4 74 64 117t156 43q107 0 159.5 -43.5t52.5 -121.5v-362h-102l-10 90q-49 -100 -168 -100zM251 73q46 0 85 30.5
t39 67.5v82l-63 -1q-156 -2 -156 -96q0 -38 26.5 -60.5t68.5 -22.5z" />
    <glyph glyph-name="Abreve" unicode="&#x102;" 
d="M524 928q-15 -52 -59.5 -85.5t-105.5 -33.5q-62 0 -105.5 32t-58.5 87h78q32 -54 86 -54t86 54h79zM31 0l260 723h132l260 -723h-123l-64 181h-276l-66 -181h-123zM248 290h218l-108 315z" />
    <glyph glyph-name="abreve" unicode="&#x103;" horiz-adv-x="554" 
d="M448 722q-15 -52 -59.5 -85.5t-105.5 -33.5q-62 0 -105.5 32t-58.5 87h78q32 -54 86 -54t86 54h79zM212 -10q-77 0 -125 41t-48 113q0 86 62.5 129.5t196.5 44.5l77 2v35q0 42 -26.5 65t-73.5 22q-40 0 -71 -19t-41 -56h-103q4 74 64 117t156 43q107 0 159.5 -43.5
t52.5 -121.5v-362h-102l-10 90q-49 -100 -168 -100zM251 73q46 0 85 30.5t39 67.5v82l-63 -1q-156 -2 -156 -96q0 -38 26.5 -60.5t68.5 -22.5z" />
    <glyph glyph-name="Aogonek" unicode="&#x104;" 
d="M630 -110q38 0 72 20v-58q-34 -22 -99 -22q-50 0 -77.5 21t-27.5 60q0 58 84 89h-22l-64 181h-276l-66 -181h-123l260 723h132l260 -722v-1h-3q-50 -20 -70 -37t-20 -39q0 -34 40 -34zM248 290h218l-108 315z" />
    <glyph glyph-name="aogonek" unicode="&#x105;" horiz-adv-x="554" 
d="M435 -106q38 0 72 20v-58q-34 -22 -99 -22q-50 0 -77.5 21t-27.5 60q0 58 86 90l-9 85q-49 -100 -168 -100q-77 0 -125 41t-48 113q0 86 62.5 129.5t196.5 44.5l77 2v35q0 42 -26.5 65t-73.5 22q-40 0 -71 -19t-41 -56h-103q4 74 64 117t156 43q107 0 159.5 -43.5
t52.5 -121.5v-362h-16q-44 -19 -62.5 -35t-18.5 -37q0 -34 40 -34zM375 171v82l-63 -1q-156 -2 -156 -96q0 -38 26.5 -60.5t68.5 -22.5q46 0 85 30.5t39 67.5z" />
    <glyph glyph-name="Cacute" unicode="&#x106;" horiz-adv-x="712" 
d="M485 939l28 -84l-259 -71l-19 55zM373 733q118 0 197 -66t90 -167l-128 -3q-12 62 -53 98t-109 36q-179 0 -179 -267q0 -272 183 -272q60 0 102 38t55 100l127 -5q-13 -104 -84 -169.5t-198 -65.5q-148 0 -233.5 101.5t-85.5 273.5q0 171 84 269.5t232 98.5z" />
    <glyph glyph-name="cacute" unicode="&#x107;" horiz-adv-x="534" 
d="M394 733l28 -84l-259 -71l-19 55zM283 527q88 0 146 -51.5t66 -135.5l-103 -1q-10 42 -37.5 68t-68.5 26q-61 0 -97 -47t-36 -128q0 -82 36.5 -130.5t97.5 -48.5q42 0 70 27t36 65h101q-9 -82 -67 -131.5t-144 -49.5q-109 0 -176.5 73.5t-67.5 192.5q0 120 67.5 195.5
t176.5 75.5z" />
    <glyph glyph-name="Ccircumflex" unicode="&#x108;" horiz-adv-x="712" 
d="M440 809l-67 71l-75 -71h-96l129 125h85l126 -125h-102zM373 733q118 0 197 -66t90 -167l-128 -3q-12 62 -53 98t-109 36q-179 0 -179 -267q0 -272 183 -272q60 0 102 38t55 100l127 -5q-13 -104 -84 -169.5t-198 -65.5q-148 0 -233.5 101.5t-85.5 273.5q0 171 84 269.5
t232 98.5z" />
    <glyph glyph-name="ccircumflex" unicode="&#x109;" horiz-adv-x="534" 
d="M349 603l-67 71l-75 -71h-96l129 125h85l126 -125h-102zM283 527q88 0 146 -51.5t66 -135.5l-103 -1q-10 42 -37.5 68t-68.5 26q-61 0 -97 -47t-36 -128q0 -82 36.5 -130.5t97.5 -48.5q42 0 70 27t36 65h101q-9 -82 -67 -131.5t-144 -49.5q-109 0 -176.5 73.5
t-67.5 192.5q0 120 67.5 195.5t176.5 75.5z" />
    <glyph glyph-name="Cdotaccent" unicode="&#x10a;" horiz-adv-x="712" 
d="M310 798v115h126v-115h-126zM373 733q118 0 197 -66t90 -167l-128 -3q-12 62 -53 98t-109 36q-179 0 -179 -267q0 -272 183 -272q60 0 102 38t55 100l127 -5q-13 -104 -84 -169.5t-198 -65.5q-148 0 -233.5 101.5t-85.5 273.5q0 171 84 269.5t232 98.5z" />
    <glyph glyph-name="cdotaccent" unicode="&#x10b;" horiz-adv-x="534" 
d="M219 592v115h126v-115h-126zM283 527q88 0 146 -51.5t66 -135.5l-103 -1q-10 42 -37.5 68t-68.5 26q-61 0 -97 -47t-36 -128q0 -82 36.5 -130.5t97.5 -48.5q42 0 70 27t36 65h101q-9 -82 -67 -131.5t-144 -49.5q-109 0 -176.5 73.5t-67.5 192.5q0 120 67.5 195.5
t176.5 75.5z" />
    <glyph glyph-name="Ccaron" unicode="&#x10c;" horiz-adv-x="712" 
d="M440 930h102l-126 -127h-86l-129 127h97l75 -72zM373 733q118 0 197 -66t90 -167l-128 -3q-12 62 -53 98t-109 36q-179 0 -179 -267q0 -272 183 -272q60 0 102 38t55 100l127 -5q-13 -104 -84 -169.5t-198 -65.5q-148 0 -233.5 101.5t-85.5 273.5q0 171 84 269.5
t232 98.5z" />
    <glyph glyph-name="ccaron" unicode="&#x10d;" horiz-adv-x="534" 
d="M349 724h102l-126 -127h-86l-129 127h97l75 -72zM283 527q88 0 146 -51.5t66 -135.5l-103 -1q-10 42 -37.5 68t-68.5 26q-61 0 -97 -47t-36 -128q0 -82 36.5 -130.5t97.5 -48.5q42 0 70 27t36 65h101q-9 -82 -67 -131.5t-144 -49.5q-109 0 -176.5 73.5t-67.5 192.5
q0 120 67.5 195.5t176.5 75.5z" />
    <glyph glyph-name="Dcaron" unicode="&#x10e;" horiz-adv-x="708" 
d="M416 930h102l-126 -127h-86l-129 127h97l75 -72zM86 723q133 0 195 -1q375 -7 375 -357q0 -177 -95 -271t-287 -94h-188v723zM210 623v-522h65q254 0 254 264q0 136 -64.5 197t-186.5 61h-68z" />
    <glyph glyph-name="dcaron" unicode="&#x10f;" horiz-adv-x="716" 
d="M256 -10q-105 0 -161 72.5t-56 198.5q0 120 53 193t153 73q58 0 100 -25t61 -58v299h121v-743h-89l-14 106q-38 -116 -168 -116zM587 516l39 97l-32 6v105h89v-110l-41 -98h-55zM282 80q54 0 88.5 36.5t35.5 93.5v100q-2 48 -32 87t-92 39q-123 0 -123 -174
q0 -93 33 -137.5t90 -44.5z" />
    <glyph glyph-name="Dcroat" unicode="&#x110;" horiz-adv-x="729" 
d="M303 722q375 -7 375 -357q0 -177 -95 -271t-287 -94h-188v313h-73v92h73v318q133 0 195 -1zM297 101q254 0 254 264q0 136 -64.5 197t-186.5 61h-68v-218h155v-92h-155v-212h65z" />
    <glyph glyph-name="dcroat" unicode="&#x111;" horiz-adv-x="644" 
d="M599 658v-71h-72v-587h-89l-14 106q-38 -116 -168 -116q-105 0 -161 72.5t-56 198.5q0 120 53 193t153 73q58 0 100 -25t61 -58v143h-131v71h131v85h121v-85h72zM406 210v100q-2 48 -32 87t-92 39q-123 0 -123 -174q0 -93 33 -137.5t90 -44.5q54 0 88.5 36.5t35.5 93.5z
" />
    <glyph glyph-name="Emacron" unicode="&#x112;" horiz-adv-x="634" 
d="M490 920v-80h-328v80h328zM86 0v723h479l-1 -104h-355v-203h314v-103h-315v-207l364 -1v-105h-486z" />
    <glyph glyph-name="emacron" unicode="&#x113;" horiz-adv-x="556" 
d="M447 714v-80h-328v80h328zM160 230q0 -68 33 -108.5t94 -40.5q90 0 116 77h111q-16 -79 -79 -123.5t-145 -44.5q-113 0 -182 71t-69 192q0 122 65.5 198t178.5 76q112 0 172.5 -70t60.5 -190v-37h-356zM160 306h242q0 59 -31 96t-89 37q-57 0 -89.5 -40t-32.5 -93z" />
    <glyph glyph-name="Ebreve" unicode="&#x114;" horiz-adv-x="634" 
d="M493 928q-15 -52 -59.5 -85.5t-105.5 -33.5q-62 0 -105.5 32t-58.5 87h78q32 -54 86 -54t86 54h79zM86 0v723h479l-1 -104h-355v-203h314v-103h-315v-207l364 -1v-105h-486z" />
    <glyph glyph-name="ebreve" unicode="&#x115;" horiz-adv-x="556" 
d="M450 722q-15 -52 -59.5 -85.5t-105.5 -33.5q-62 0 -105.5 32t-58.5 87h78q32 -54 86 -54t86 54h79zM160 230q0 -68 33 -108.5t94 -40.5q90 0 116 77h111q-16 -79 -79 -123.5t-145 -44.5q-113 0 -182 71t-69 192q0 122 65.5 198t178.5 76q112 0 172.5 -70t60.5 -190v-37
h-356zM160 306h242q0 59 -31 96t-89 37q-57 0 -89.5 -40t-32.5 -93z" />
    <glyph glyph-name="Edotaccent" unicode="&#x116;" horiz-adv-x="634" 
d="M264 798v115h126v-115h-126zM86 0v723h479l-1 -104h-355v-203h314v-103h-315v-207l364 -1v-105h-486z" />
    <glyph glyph-name="edotaccent" unicode="&#x117;" horiz-adv-x="556" 
d="M221 592v115h126v-115h-126zM160 230q0 -68 33 -108.5t94 -40.5q90 0 116 77h111q-16 -79 -79 -123.5t-145 -44.5q-113 0 -182 71t-69 192q0 122 65.5 198t178.5 76q112 0 172.5 -70t60.5 -190v-37h-356zM160 306h242q0 59 -31 96t-89 37q-57 0 -89.5 -40t-32.5 -93z" />
    <glyph glyph-name="Eogonek" unicode="&#x118;" horiz-adv-x="634" 
d="M529 -108q38 0 72 20v-58q-34 -22 -99 -22q-50 0 -77.5 21t-27.5 60q0 56 79 87h-390v723h479l-1 -104h-355v-203h314v-103h-315v-207l364 -1v-102h10q-51 -20 -72 -37.5t-21 -39.5q0 -34 40 -34z" />
    <glyph glyph-name="eogonek" unicode="&#x119;" horiz-adv-x="556" 
d="M516 267v-37h-356q0 -68 33 -108.5t94 -40.5q90 0 116 77h111q-20 -98 -111 -143h6q-51 -20 -72 -37.5t-21 -39.5q0 -34 40 -34q38 0 72 20v-58q-34 -22 -99 -22q-50 0 -77.5 21t-27.5 60q0 41 38 66q-102 9 -162.5 79t-60.5 183q0 122 65.5 198t178.5 76
q112 0 172.5 -70t60.5 -190zM160 306h242q0 59 -31 96t-89 37q-57 0 -89.5 -40t-32.5 -93z" />
    <glyph glyph-name="Ecaron" unicode="&#x11a;" horiz-adv-x="634" 
d="M394 930h102l-126 -127h-86l-129 127h97l75 -72zM86 0v723h479l-1 -104h-355v-203h314v-103h-315v-207l364 -1v-105h-486z" />
    <glyph glyph-name="ecaron" unicode="&#x11b;" horiz-adv-x="559" 
d="M350 724h102l-126 -127h-85l-129 127h97l74 -72zM160 230q0 -68 33 -108.5t94 -40.5q90 0 116 77h111q-16 -79 -79 -123.5t-145 -44.5q-113 0 -182 71t-69 192q0 122 65.5 198t178.5 76q112 0 172.5 -70t60.5 -190v-37h-356zM160 306h242q0 59 -31 96t-89 37
q-57 0 -89.5 -40t-32.5 -93z" />
    <glyph glyph-name="Gcircumflex" unicode="&#x11c;" horiz-adv-x="751" 
d="M444 809l-67 71l-75 -71h-96l129 125h85l126 -125h-102zM373 -10q-145 0 -230.5 100t-85.5 269q0 172 88.5 273t234.5 101q117 0 198 -69.5t86 -162.5l-129 -4q-11 57 -53.5 94t-103.5 37q-87 0 -138 -66.5t-51 -196.5q0 -138 53 -202.5t140 -64.5q70 0 113 43.5t48 95.5
l4 54h-161v86l289 -2v-375h-87v102q-74 -112 -215 -112z" />
    <glyph glyph-name="gcircumflex" unicode="&#x11d;" horiz-adv-x="619" 
d="M367 603l-67 71l-75 -71h-96l129 125h85l126 -125h-102zM297 -171q-131 0 -201 35.5t-70 95.5q0 20 9 37.5t23 28.5t27 18.5t26 13t14 6.5q-1 0 -10 5.5t-13 8t-12.5 9.5t-12.5 13t-7.5 15.5t-3.5 20.5q0 27 25.5 49t74.5 31q-101 48 -101 146q0 76 65.5 119.5
t170.5 43.5q85 0 150 -43q13 6 69 28.5t73 29.5v-100l-90 -16q14 -34 14 -61q0 -71 -59 -119.5t-167 -48.5q-20 0 -42 2q-70 -3 -70 -28q0 -12 20 -17t74 -9q50 -2 110 -6q91 -6 135.5 -44t44.5 -100q0 -76 -69 -120t-197 -44zM295 267q51 0 78.5 24t27.5 68q0 45 -29 71.5
t-77 26.5q-50 0 -79 -26.5t-29 -71.5q0 -43 28.5 -67.5t79.5 -24.5zM317 -99q68 0 98.5 17t30.5 53q0 58 -86 64l-130 9q-33 2 -58.5 -19.5t-25.5 -50.5q0 -73 171 -73z" />
    <glyph glyph-name="Gbreve" unicode="&#x11e;" horiz-adv-x="751" 
d="M544 928q-15 -52 -59.5 -85.5t-105.5 -33.5q-62 0 -105.5 32t-58.5 87h78q32 -54 86 -54t86 54h79zM373 -10q-145 0 -230.5 100t-85.5 269q0 172 88.5 273t234.5 101q117 0 198 -69.5t86 -162.5l-129 -4q-11 57 -53.5 94t-103.5 37q-87 0 -138 -66.5t-51 -196.5
q0 -138 53 -202.5t140 -64.5q70 0 113 43.5t48 95.5l4 54h-161v86l289 -2v-375h-87v102q-74 -112 -215 -112z" />
    <glyph glyph-name="gbreve" unicode="&#x11f;" horiz-adv-x="619" 
d="M467 722q-15 -52 -59.5 -85.5t-105.5 -33.5q-62 0 -105.5 32t-58.5 87h78q32 -54 86 -54t86 54h79zM297 -171q-131 0 -201 35.5t-70 95.5q0 20 9 37.5t23 28.5t27 18.5t26 13t14 6.5q-1 0 -10 5.5t-13 8t-12.5 9.5t-12.5 13t-7.5 15.5t-3.5 20.5q0 27 25.5 49t74.5 31
q-101 48 -101 146q0 76 65.5 119.5t170.5 43.5q85 0 150 -43q13 6 69 28.5t73 29.5v-100l-90 -16q14 -34 14 -61q0 -71 -59 -119.5t-167 -48.5q-20 0 -42 2q-70 -3 -70 -28q0 -12 20 -17t74 -9q50 -2 110 -6q91 -6 135.5 -44t44.5 -100q0 -76 -69 -120t-197 -44zM295 267
q51 0 78.5 24t27.5 68q0 45 -29 71.5t-77 26.5q-50 0 -79 -26.5t-29 -71.5q0 -43 28.5 -67.5t79.5 -24.5zM317 -99q68 0 98.5 17t30.5 53q0 58 -86 64l-130 9q-33 2 -58.5 -19.5t-25.5 -50.5q0 -73 171 -73z" />
    <glyph glyph-name="Gdotaccent" unicode="&#x120;" horiz-adv-x="751" 
d="M314 798v115h126v-115h-126zM373 -10q-145 0 -230.5 100t-85.5 269q0 172 88.5 273t234.5 101q117 0 198 -69.5t86 -162.5l-129 -4q-11 57 -53.5 94t-103.5 37q-87 0 -138 -66.5t-51 -196.5q0 -138 53 -202.5t140 -64.5q70 0 113 43.5t48 95.5l4 54h-161v86l289 -2v-375
h-87v102q-74 -112 -215 -112z" />
    <glyph glyph-name="gdotaccent" unicode="&#x121;" horiz-adv-x="619" 
d="M237 592v115h126v-115h-126zM297 -171q-131 0 -201 35.5t-70 95.5q0 20 9 37.5t23 28.5t27 18.5t26 13t14 6.5q-1 0 -10 5.5t-13 8t-12.5 9.5t-12.5 13t-7.5 15.5t-3.5 20.5q0 27 25.5 49t74.5 31q-101 48 -101 146q0 76 65.5 119.5t170.5 43.5q85 0 150 -43
q13 6 69 28.5t73 29.5v-100l-90 -16q14 -34 14 -61q0 -71 -59 -119.5t-167 -48.5q-20 0 -42 2q-70 -3 -70 -28q0 -12 20 -17t74 -9q50 -2 110 -6q91 -6 135.5 -44t44.5 -100q0 -76 -69 -120t-197 -44zM295 267q51 0 78.5 24t27.5 68q0 45 -29 71.5t-77 26.5q-50 0 -79 -26.5
t-29 -71.5q0 -43 28.5 -67.5t79.5 -24.5zM317 -99q68 0 98.5 17t30.5 53q0 58 -86 64l-130 9q-33 2 -58.5 -19.5t-25.5 -50.5q0 -73 171 -73z" />
    <glyph glyph-name="uni0122" unicode="&#x122;" horiz-adv-x="751" 
d="M373 -10q-145 0 -230.5 100t-85.5 269q0 172 88.5 273t234.5 101q117 0 198 -69.5t86 -162.5l-129 -4q-11 57 -53.5 94t-103.5 37q-87 0 -138 -66.5t-51 -196.5q0 -138 53 -202.5t140 -64.5q70 0 113 43.5t48 95.5l4 54h-161v86l289 -2v-375h-87v102q-74 -112 -215 -112z
M299 -324l58 131l-48 3v128h133v-112l-94 -150h-49z" />
    <glyph glyph-name="uni0123" unicode="&#x123;" horiz-adv-x="619" 
d="M230 599v97l51 75h50l-51 -81h43v-91h-93zM297 -171q-131 0 -201 35.5t-70 95.5q0 20 9 37.5t23 28.5t27 18.5t26 13t14 6.5q-1 0 -10 5.5t-13 8t-12.5 9.5t-12.5 13t-7.5 15.5t-3.5 20.5q0 27 25.5 49t74.5 31q-101 48 -101 146q0 76 65.5 119.5t170.5 43.5
q85 0 150 -43q13 6 69 28.5t73 29.5v-100l-90 -16q14 -34 14 -61q0 -71 -59 -119.5t-167 -48.5q-20 0 -42 2q-70 -3 -70 -28q0 -12 20 -17t74 -9q50 -2 110 -6q91 -6 135.5 -44t44.5 -100q0 -76 -69 -120t-197 -44zM295 267q51 0 78.5 24t27.5 68q0 45 -29 71.5t-77 26.5
q-50 0 -79 -26.5t-29 -71.5q0 -43 28.5 -67.5t79.5 -24.5zM317 -99q68 0 98.5 17t30.5 53q0 58 -86 64l-130 9q-33 2 -58.5 -19.5t-25.5 -50.5q0 -73 171 -73z" />
    <glyph glyph-name="Hcircumflex" unicode="&#x124;" horiz-adv-x="718" 
d="M427 809l-67 71l-75 -71h-96l129 125h85l126 -125h-102zM512 321h-304v-321h-122v723h122v-298h304v298h122v-723h-122v321z" />
    <glyph glyph-name="hcircumflex" unicode="&#x125;" horiz-adv-x="592" 
d="M71 0v743h121v-296q48 75 154 75q76 0 128 -44.5t52 -114.5v-363h-121v344q0 37 -28 59.5t-71 22.5q-47 0 -80 -23t-33 -64v-339h-122zM454 603l-67 71l-75 -71h-96l129 125h85l126 -125h-102z" />
    <glyph glyph-name="Hbar" unicode="&#x126;" horiz-adv-x="763" 
d="M747 624v-72h-89v-552h-122v321h-303v-321h-122v552h-96v72h96v99h122v-99h303v99h122v-99h89zM536 425v127h-303v-127h303z" />
    <glyph glyph-name="hbar" unicode="&#x127;" horiz-adv-x="612" 
d="M366 522q76 0 128 -44.5t52 -114.5v-363h-122v344q0 38 -27.5 60t-71.5 22q-46 0 -79 -23t-33 -64v-339h-122v587h-71v71h71v85h120v-85h133v-71h-133v-140q50 75 155 75z" />
    <glyph glyph-name="Itilde" unicode="&#x128;" horiz-adv-x="292" 
d="M313 862q-41 -33 -95 -33q-28 0 -70 13.5t-66 13.5q-36 0 -74 -30l-20 60q42 42 90 42q28 0 73.5 -14.5t66.5 -14.5q36 0 77 31zM86 723h122v-723h-122v723z" />
    <glyph glyph-name="itilde" unicode="&#x129;" horiz-adv-x="266" 
d="M301 656q-41 -33 -95 -33q-28 0 -70 13.5t-66 13.5q-36 0 -74 -30l-20 60q42 42 90 42q28 0 73.5 -14.5t66.5 -14.5q36 0 77 31zM195 517v-517h-122v517h122z" />
    <glyph glyph-name="Imacron" unicode="&#x12a;" horiz-adv-x="292" 
d="M312 920v-80h-328v80h328zM86 723h122v-723h-122v723z" />
    <glyph glyph-name="imacron" unicode="&#x12b;" horiz-adv-x="266" 
d="M300 714v-80h-328v80h328zM195 517v-517h-122v517h122z" />
    <glyph glyph-name="Ibreve" unicode="&#x12c;" horiz-adv-x="292" 
d="M315 928q-15 -52 -59.5 -85.5t-105.5 -33.5q-62 0 -105.5 32t-58.5 87h78q32 -54 86 -54t86 54h79zM86 723h122v-723h-122v723z" />
    <glyph glyph-name="ibreve" unicode="&#x12d;" horiz-adv-x="266" 
d="M303 722q-15 -52 -59.5 -85.5t-105.5 -33.5q-62 0 -105.5 32t-58.5 87h78q32 -54 86 -54t86 54h79zM195 517v-517h-122v517h122z" />
    <glyph glyph-name="Iogonek" unicode="&#x12e;" horiz-adv-x="292" 
d="M154 -112q38 0 72 20v-58q-34 -22 -99 -22q-50 0 -77.5 21t-27.5 60q0 29 20 51t70 40h-26v723h122v-723h-22l21 -1q-51 -20 -72 -37.5t-21 -39.5q0 -34 40 -34z" />
    <glyph glyph-name="iogonek" unicode="&#x12f;" horiz-adv-x="266" 
d="M199 707v-115h-126v115h126zM137 -107q38 0 72 20v-58q-34 -22 -99 -22q-50 0 -77.5 21t-27.5 60q0 55 77 86h-9v517h122v-517h-15q-45 -19 -64 -35.5t-19 -37.5q0 -34 40 -34z" />
    <glyph glyph-name="Idotaccent" unicode="&#x130;" horiz-adv-x="292" 
d="M85 798v115h126v-115h-126zM86 723h122v-723h-122v723z" />
    <glyph glyph-name="dotlessi" unicode="&#x131;" horiz-adv-x="266" 
d="M195 517v-517h-122v517h122z" />
    <glyph glyph-name="Jcircumflex" unicode="&#x134;" horiz-adv-x="395" 
d="M320 809l-67 71l-75 -71h-96l129 125h85l126 -125h-102zM317 187q0 -102 -36.5 -149.5t-134.5 -47.5q-61 0 -121 19l5 113q57 -17 80 -17q48 0 66.5 26t18.5 89v503h122v-536z" />
    <glyph glyph-name="jcircumflex" unicode="&#x135;" horiz-adv-x="274" 
d="M203 603l-67 71l-75 -71h-96l129 125h85l126 -125h-102zM197 -9q0 -80 -38 -118.5t-122 -38.5q-66 0 -66 13v81l45 4q32 3 45.5 17.5t13.5 44.5v523h122v-526z" />
    <glyph glyph-name="uni0136" unicode="&#x136;" horiz-adv-x="700" 
d="M671 0h-136l-207 353l-115 -136v-217h-127v723h127v-351l291 351h142l-228 -280zM270 -324l58 131l-48 3v128h133v-112l-94 -150h-49z" />
    <glyph glyph-name="uni0137" unicode="&#x137;" horiz-adv-x="577" 
d="M550 0h-124l-149 240l-84 -88v-152h-122v743h122v-460l214 234h134l-187 -202zM213 -324l58 131l-48 3v128h133v-112l-94 -150h-49z" />
    <glyph glyph-name="kgreenlandic" unicode="&#x138;" horiz-adv-x="593" 
d="M567 0h-141l-133 251l-100 -99v-152h-122v517h122v-246l230 246h127l-175 -177z" />
    <glyph glyph-name="Lacute" unicode="&#x139;" horiz-adv-x="566" 
d="M258 939l28 -84l-259 -71l-19 55zM87 723h123v-618h327v-105h-451z" />
    <glyph glyph-name="lacute" unicode="&#x13a;" horiz-adv-x="307" 
d="M242 980l28 -84l-259 -71l-19 55zM221 -8q-48 0 -79.5 12t-46 35t-19.5 46t-5 55v603h120v-590q0 -67 58 -73l26 -1v-76q-28 -11 -54 -11z" />
    <glyph glyph-name="uni013B" unicode="&#x13b;" horiz-adv-x="566" 
d="M87 723h123v-618h327v-105h-451zM232 -324l58 131l-48 3v128h133v-112l-94 -150h-49z" />
    <glyph glyph-name="uni013C" unicode="&#x13c;" horiz-adv-x="307" 
d="M221 -8q-48 0 -79.5 12t-46 35t-19.5 46t-5 55v603h120v-590q0 -67 58 -73l26 -1v-76q-28 -11 -54 -11zM59 -324l58 131l-48 3v128h133v-112l-94 -150h-49z" />
    <glyph glyph-name="Lcaron" unicode="&#x13d;" horiz-adv-x="566" 
d="M87 723h123v-618h327v-105h-451zM363 516l39 97l-32 5v105h90v-110l-42 -97h-55z" />
    <glyph glyph-name="lcaron" unicode="&#x13e;" horiz-adv-x="307" 
d="M239 538l39 97l-32 5v105h90v-110l-42 -97h-55zM221 -8q-48 0 -79.5 12t-46 35t-19.5 46t-5 55v603h120v-590q0 -67 58 -73l26 -1v-76q-28 -11 -54 -11z" />
    <glyph glyph-name="Ldot" unicode="&#x13f;" horiz-adv-x="595" 
d="M87 723h123v-618h327v-105h-451zM549 462v-128h-133v128h133z" />
    <glyph glyph-name="ldot" unicode="&#x140;" horiz-adv-x="386" 
d="M221 -8q-48 0 -79.5 12t-46 35t-19.5 46t-5 55v603h120v-590q0 -67 58 -73l26 -1v-76q-28 -11 -54 -11zM399 348v-129h-134v129h134z" />
    <glyph glyph-name="Lslash" unicode="&#x141;" horiz-adv-x="574" 
d="M218 105h327v-105h-450v314l-81 -22v102l81 21v308h123v-276l163 43v-97l-163 -45v-243z" />
    <glyph glyph-name="lslash" unicode="&#x142;" horiz-adv-x="316" 
d="M293 80l26 -1v-76q-27 -11 -54 -11q-48 0 -79.5 12t-46 35t-19.5 46t-5 55v87l-94 -72v107l94 71v410h120v-320l62 46v-102l-62 -48v-166q0 -67 58 -73z" />
    <glyph glyph-name="Nacute" unicode="&#x143;" horiz-adv-x="765" 
d="M495 939l28 -84l-259 -71l-19 55zM559 723h122v-723h-109l-364 530v-530h-122v723h120l353 -516v516z" />
    <glyph glyph-name="nacute" unicode="&#x144;" horiz-adv-x="593" 
d="M415 733l28 -84l-259 -71l-19 55zM71 0v517h120v-69q54 75 155 75q76 0 128.5 -49t52.5 -132v-342h-122v329q0 45 -27.5 71t-70.5 26q-47 0 -80.5 -22.5t-33.5 -63.5v-340h-122z" />
    <glyph glyph-name="uni0145" unicode="&#x145;" horiz-adv-x="765" 
d="M559 723h122v-723h-109l-364 530v-530h-122v723h120l353 -516v516zM297 -324l58 131l-48 3v128h133v-112l-94 -150h-49z" />
    <glyph glyph-name="uni0146" unicode="&#x146;" horiz-adv-x="593" 
d="M71 0v517h120v-69q54 75 155 75q76 0 128.5 -49t52.5 -132v-342h-122v329q0 45 -27.5 71t-70.5 26q-47 0 -80.5 -22.5t-33.5 -63.5v-340h-122zM224 -324l58 131l-48 3v128h133v-112l-94 -150h-49z" />
    <glyph glyph-name="Ncaron" unicode="&#x147;" horiz-adv-x="765" 
d="M450 930h102l-126 -127h-86l-129 127h97l75 -72zM559 723h122v-723h-109l-364 530v-530h-122v723h120l353 -516v516z" />
    <glyph glyph-name="ncaron" unicode="&#x148;" horiz-adv-x="593" 
d="M371 724h102l-126 -127h-86l-129 127h97l75 -72zM71 0v517h120v-69q54 75 155 75q76 0 128.5 -49t52.5 -132v-342h-122v329q0 45 -27.5 71t-70.5 26q-47 0 -80.5 -22.5t-33.5 -63.5v-340h-122z" />
    <glyph glyph-name="Eng" unicode="&#x14a;" horiz-adv-x="766" 
d="M681 50h1v-93q0 -102 -36.5 -149.5t-134.5 -47.5q-61 0 -121 19l4 113q57 -17 80 -17q49 0 67.5 26t18.5 89v27l-352 513v-530h-122v723h120l353 -516v516h122v-673z" />
    <glyph glyph-name="eng" unicode="&#x14b;" horiz-adv-x="599" 
d="M370 -166q-60 0 -60 11v83l39 2q30 2 43.5 16.5t13.5 45.5v359q0 85 -86 85q-65 0 -126 -69v-367h-123l2 517h118v-80q94 90 181 90q71 0 113 -41.5t42 -109.5v-380q0 -76 -42 -119t-115 -43z" />
    <glyph glyph-name="Omacron" unicode="&#x14c;" horiz-adv-x="760" 
d="M545 920v-80h-328v80h328zM381 -10q-151 0 -237.5 98t-86.5 271q0 175 87 274.5t237 99.5q149 0 236 -99.5t87 -273.5q0 -173 -86.5 -271.5t-236.5 -98.5zM382 92q189 0 189 266q0 273 -190 273q-91 0 -141 -67.5t-50 -205.5q0 -135 50 -200.5t142 -65.5z" />
    <glyph glyph-name="omacron" unicode="&#x14d;" horiz-adv-x="566" 
d="M448 714v-80h-328v80h328zM283 -10q-113 0 -178.5 73t-65.5 192q0 122 67 197t178 75q112 0 177.5 -75.5t65.5 -195.5q0 -119 -66 -192.5t-178 -73.5zM284 82q63 0 93 50.5t30 127.5t-30 126t-93 49q-64 0 -94.5 -49t-30.5 -126t31 -127.5t94 -50.5z" />
    <glyph glyph-name="Obreve" unicode="&#x14e;" horiz-adv-x="760" 
d="M548 928q-15 -52 -59.5 -85.5t-105.5 -33.5q-62 0 -105.5 32t-58.5 87h78q32 -54 86 -54t86 54h79zM381 -10q-151 0 -237.5 98t-86.5 271q0 175 87 274.5t237 99.5q149 0 236 -99.5t87 -273.5q0 -173 -86.5 -271.5t-236.5 -98.5zM382 92q189 0 189 266q0 273 -190 273
q-91 0 -141 -67.5t-50 -205.5q0 -135 50 -200.5t142 -65.5z" />
    <glyph glyph-name="obreve" unicode="&#x14f;" horiz-adv-x="566" 
d="M451 722q-15 -52 -59.5 -85.5t-105.5 -33.5q-62 0 -105.5 32t-58.5 87h78q32 -54 86 -54t86 54h79zM283 -10q-113 0 -178.5 73t-65.5 192q0 122 67 197t178 75q112 0 177.5 -75.5t65.5 -195.5q0 -119 -66 -192.5t-178 -73.5zM284 82q63 0 93 50.5t30 127.5t-30 126
t-93 49q-64 0 -94.5 -49t-30.5 -126t31 -127.5t94 -50.5z" />
    <glyph glyph-name="Ohungarumlaut" unicode="&#x150;" horiz-adv-x="760" 
d="M359 941l55 -67l-160 -114l-39 44zM536 941l57 -67l-161 -114l-39 44zM381 -10q-151 0 -237.5 98t-86.5 271q0 175 87 274.5t237 99.5q149 0 236 -99.5t87 -273.5q0 -173 -86.5 -271.5t-236.5 -98.5zM382 92q189 0 189 266q0 273 -190 273q-91 0 -141 -67.5t-50 -205.5
q0 -135 50 -200.5t142 -65.5z" />
    <glyph glyph-name="ohungarumlaut" unicode="&#x151;" horiz-adv-x="566" 
d="M262 735l55 -67l-160 -114l-39 44zM439 735l57 -67l-161 -114l-39 44zM283 -10q-113 0 -178.5 73t-65.5 192q0 122 67 197t178 75q112 0 177.5 -75.5t65.5 -195.5q0 -119 -66 -192.5t-178 -73.5zM284 82q63 0 93 50.5t30 127.5t-30 126t-93 49q-64 0 -94.5 -49
t-30.5 -126t31 -127.5t94 -50.5z" />
    <glyph glyph-name="OE" unicode="&#x152;" horiz-adv-x="1124" 
d="M1062 103v-103h-460l-26 64q-63 -74 -189 -74q-155 0 -242.5 97.5t-87.5 271.5q0 176 89.5 275t247.5 99q122 0 182 -75l33 65h442v-103h-353v-205h248v-101h-248v-211h364zM382 90q91 0 133.5 64t42.5 204q0 142 -43.5 209t-133.5 67q-91 0 -135 -67t-44 -209
q0 -139 44 -203.5t136 -64.5z" />
    <glyph glyph-name="oe" unicode="&#x153;" horiz-adv-x="962" 
d="M294 -10q-114 0 -184.5 73.5t-70.5 191.5q0 121 71.5 196.5t184.5 75.5q120 0 184 -89q10 -10 20 0q62 89 177 89q113 0 180 -78t67 -214h-374q0 -70 41.5 -114.5t103.5 -44.5q83 0 142 79l78 -36q-44 -70 -99 -99.5t-135 -29.5q-118 0 -185 86q-9 10 -18 -2
q-67 -84 -183 -84zM682 448q-57 0 -94.5 -39t-36.5 -103l253 -1q0 56 -33.5 99.5t-88.5 43.5zM296 74q62 0 96 48t34 136q0 89 -34.5 137.5t-96.5 48.5t-97 -48.5t-35 -137.5q0 -88 35 -136t98 -48z" />
    <glyph glyph-name="Racute" unicode="&#x154;" horiz-adv-x="688" 
d="M446 939l28 -84l-259 -71l-19 55zM627 0h-126l-125 294h-168v-294h-122v723h294q121 0 182 -55t61 -153q0 -142 -133 -201zM353 390q68 0 107 32t39 89q0 55 -35.5 86t-95.5 31h-160v-238h145z" />
    <glyph glyph-name="racute" unicode="&#x155;" horiz-adv-x="393" 
d="M332 733l28 -84l-259 -71l-19 55zM71 0v517h117v-112q20 54 68 88t117 34v-116q-180 11 -180 -110v-301h-122z" />
    <glyph glyph-name="uni0156" unicode="&#x156;" horiz-adv-x="688" 
d="M627 0h-126l-125 294h-168v-294h-122v723h294q121 0 182 -55t61 -153q0 -142 -133 -201zM353 390q68 0 107 32t39 89q0 55 -35.5 86t-95.5 31h-160v-238h145zM267 -324l58 131l-48 3v128h133v-112l-94 -150h-49z" />
    <glyph glyph-name="uni0157" unicode="&#x157;" horiz-adv-x="393" 
d="M71 0v517h117v-112q20 54 68 88t117 34v-116q-180 11 -180 -110v-301h-122zM63 -324l58 131l-48 3v128h133v-112l-94 -150h-49z" />
    <glyph glyph-name="Rcaron" unicode="&#x158;" horiz-adv-x="688" 
d="M401 930h102l-126 -127h-86l-129 127h97l75 -72zM627 0h-126l-125 294h-168v-294h-122v723h294q121 0 182 -55t61 -153q0 -142 -133 -201zM353 390q68 0 107 32t39 89q0 55 -35.5 86t-95.5 31h-160v-238h145z" />
    <glyph glyph-name="rcaron" unicode="&#x159;" horiz-adv-x="393" 
d="M288 724h102l-126 -127h-86l-129 127h97l75 -72zM71 0v517h117v-112q20 54 68 88t117 34v-116q-180 11 -180 -110v-301h-122z" />
    <glyph glyph-name="Sacute" unicode="&#x15a;" horiz-adv-x="702" 
d="M461 939l28 -84l-259 -71l-19 55zM354 -10q-115 0 -201.5 53.5t-98.5 151.5l127 4q12 -53 59 -82.5t113 -29.5q72 0 118 27.5t46 76.5q0 80 -126 108l-136 28q-178 37 -179 189q-1 97 76.5 156.5t197.5 59.5q122 0 198 -61.5t86 -149.5l-124 -4q-16 116 -158 116
q-62 0 -103.5 -28t-41.5 -76q0 -36 24.5 -57.5t87.5 -36.5l133 -29q191 -38 191 -214q0 -87 -79.5 -144.5t-209.5 -57.5z" />
    <glyph glyph-name="sacute" unicode="&#x15b;" horiz-adv-x="522" 
d="M369 733l28 -84l-259 -71l-19 55zM266 -10q-87 0 -149.5 42.5t-74.5 124.5h108q9 -42 42 -61t74 -19q48 0 76 17t28 48q0 46 -71 61l-95 23q-145 31 -145 142q-1 73 55.5 116t152.5 43q91 0 146 -41.5t55 -113.5h-104q-6 33 -32.5 50.5t-67.5 17.5t-69 -15t-28 -49
q0 -23 20.5 -36.5t64.5 -22.5l92 -23q72 -18 102 -59t30 -87q0 -75 -59.5 -116.5t-150.5 -41.5z" />
    <glyph glyph-name="Scircumflex" unicode="&#x15c;" horiz-adv-x="702" 
d="M416 809l-67 71l-75 -71h-96l129 125h85l126 -125h-102zM354 -10q-115 0 -201.5 53.5t-98.5 151.5l127 4q12 -53 59 -82.5t113 -29.5q72 0 118 27.5t46 76.5q0 80 -126 108l-136 28q-178 37 -179 189q-1 97 76.5 156.5t197.5 59.5q122 0 198 -61.5t86 -149.5l-124 -4
q-16 116 -158 116q-62 0 -103.5 -28t-41.5 -76q0 -36 24.5 -57.5t87.5 -36.5l133 -29q191 -38 191 -214q0 -87 -79.5 -144.5t-209.5 -57.5z" />
    <glyph glyph-name="scircumflex" unicode="&#x15d;" horiz-adv-x="522" 
d="M324 603l-67 71l-75 -71h-96l129 125h85l126 -125h-102zM266 -10q-87 0 -149.5 42.5t-74.5 124.5h108q9 -42 42 -61t74 -19q48 0 76 17t28 48q0 46 -71 61l-95 23q-145 31 -145 142q-1 73 55.5 116t152.5 43q91 0 146 -41.5t55 -113.5h-104q-6 33 -32.5 50.5t-67.5 17.5
t-69 -15t-28 -49q0 -23 20.5 -36.5t64.5 -22.5l92 -23q72 -18 102 -59t30 -87q0 -75 -59.5 -116.5t-150.5 -41.5z" />
    <glyph glyph-name="Scedilla" unicode="&#x15e;" horiz-adv-x="702" 
d="M643 192q0 -83 -74 -140.5t-196 -61.5l-17 -44q50 -2 73 -24t23 -52q0 -37 -33 -58.5t-82 -21.5q-64 0 -106 27l18 44q37 -24 74 -24q51 0 51 33q0 42 -82 43q-12 0 -7 8l30 71q-103 9 -176.5 61.5t-84.5 141.5l127 4q12 -53 59 -82.5t113 -29.5q72 0 118 27.5t46 76.5
q0 80 -126 108l-136 28q-178 37 -179 189q-1 97 76.5 156.5t197.5 59.5q122 0 198 -61.5t86 -149.5l-124 -4q-16 116 -158 116q-62 0 -103.5 -28t-41.5 -76q0 -36 24.5 -57.5t87.5 -36.5l133 -29q191 -38 191 -214z" />
    <glyph glyph-name="scedilla" unicode="&#x15f;" horiz-adv-x="522" 
d="M476 148q0 -70 -53 -111t-136 -46l-17 -45q50 -2 73 -24t23 -52q0 -37 -33 -58.5t-82 -21.5q-64 0 -106 27l18 44q37 -24 74 -24q51 0 51 33q0 42 -82 43q-12 0 -7 8l30 71q-74 9 -125 50.5t-62 114.5h108q9 -42 42 -61t74 -19q48 0 76 17t28 48q0 46 -71 61l-95 23
q-145 31 -145 142q-1 73 55.5 116t152.5 43q91 0 146 -41.5t55 -113.5h-104q-6 33 -32.5 50.5t-67.5 17.5t-69 -15t-28 -49q0 -23 20.5 -36.5t64.5 -22.5l92 -23q72 -18 102 -59t30 -87z" />
    <glyph glyph-name="Scaron" unicode="&#x160;" horiz-adv-x="702" 
d="M416 930h102l-126 -127h-86l-129 127h97l75 -72zM354 -10q-115 0 -201.5 53.5t-98.5 151.5l127 4q12 -53 59 -82.5t113 -29.5q72 0 118 27.5t46 76.5q0 80 -126 108l-136 28q-178 37 -179 189q-1 97 76.5 156.5t197.5 59.5q122 0 198 -61.5t86 -149.5l-124 -4
q-16 116 -158 116q-62 0 -103.5 -28t-41.5 -76q0 -36 24.5 -57.5t87.5 -36.5l133 -29q191 -38 191 -214q0 -87 -79.5 -144.5t-209.5 -57.5z" />
    <glyph glyph-name="scaron" unicode="&#x161;" horiz-adv-x="522" 
d="M324 724h102l-126 -127h-86l-129 127h97l75 -72zM266 -10q-87 0 -149.5 42.5t-74.5 124.5h108q9 -42 42 -61t74 -19q48 0 76 17t28 48q0 46 -71 61l-95 23q-145 31 -145 142q-1 73 55.5 116t152.5 43q91 0 146 -41.5t55 -113.5h-104q-6 33 -32.5 50.5t-67.5 17.5t-69 -15
t-28 -49q0 -23 20.5 -36.5t64.5 -22.5l92 -23q72 -18 102 -59t30 -87q0 -75 -59.5 -116.5t-150.5 -41.5z" />
    <glyph glyph-name="uni0162" unicode="&#x162;" horiz-adv-x="594" 
d="M362 0h-26l-20 -53q50 -2 73 -24.5t23 -51.5q0 -37 -33 -58.5t-82 -21.5q-64 0 -106 27l18 44q37 -24 74 -24q51 0 51 33q0 42 -82 43q-12 0 -7 8l33 78h-38v613h-225v110h564v-110h-217v-613z" />
    <glyph glyph-name="uni0163" unicode="&#x163;" horiz-adv-x="391" 
d="M262 -4h-12l-17 -45q50 -2 73 -24.5t23 -51.5q0 -37 -33 -58.5t-82 -21.5q-64 0 -106 27l18 44q37 -24 74 -24q51 0 51 33q0 42 -82 43q-12 0 -7 8l33 77q-49 11 -69 43t-20 84v301h-84v86h88l20 154h98v-153h116v-87h-116l1 -294q0 -33 12 -43t42 -10h63v-77
q-24 -11 -84 -11z" />
    <glyph glyph-name="Tcaron" unicode="&#x164;" horiz-adv-x="594" 
d="M374 930h102l-126 -127h-86l-129 127h97l75 -72zM15 613v110h564v-110h-217v-613h-122v613h-225z" />
    <glyph glyph-name="tcaron" unicode="&#x165;" horiz-adv-x="391" 
d="M295 560l39 97l-32 5v105h90v-110l-42 -97h-55zM344 431h-116l1 -294q0 -33 12 -43t42 -10h63v-77q-24 -11 -84 -11q-87 0 -121.5 33.5t-34.5 100.5v301h-84v86h88l20 154h98v-153h116v-87z" />
    <glyph glyph-name="Tbar" unicode="&#x166;" horiz-adv-x="594" 
d="M579 613h-217v-211h138v-92h-138v-310h-122v310h-135v92h135v211h-225v110h564v-110z" />
    <glyph glyph-name="tbar" unicode="&#x167;" horiz-adv-x="420" 
d="M302 84h64v-77q-26 -11 -84 -11q-88 0 -122.5 33.5t-34.5 100.5v118h-77v71h77v112h-84v86h88l20 154h99v-153h116v-87h-116v-112h97v-71h-97v-111q0 -33 12 -43t42 -10z" />
    <glyph glyph-name="Utilde" unicode="&#x168;" horiz-adv-x="721" 
d="M530 862q-41 -33 -95 -33q-28 0 -70 13.5t-66 13.5q-36 0 -74 -30l-20 60q42 42 90 42q28 0 73.5 -14.5t66.5 -14.5q36 0 77 31zM642 264q0 -274 -278 -274q-146 0 -212 71.5t-66 209.5v452h125v-464q0 -83 40 -124t113 -41q74 0 115 41t41 124v464h122v-459z" />
    <glyph glyph-name="utilde" unicode="&#x169;" horiz-adv-x="591" 
d="M461 656q-41 -33 -95 -33q-28 0 -70 13.5t-66 13.5q-36 0 -74 -30l-20 60q42 42 90 42q28 0 73.5 -14.5t66.5 -14.5q36 0 77 31zM262 -10q-74 1 -133.5 45.5t-59.5 127.5v355h122v-341q0 -48 30.5 -72t72.5 -24q46 0 77 26.5t31 73.5v337h123l-3 -518h-93l-14 101
q-12 -57 -56 -84t-97 -27z" />
    <glyph glyph-name="Umacron" unicode="&#x16a;" horiz-adv-x="721" 
d="M529 920v-80h-328v80h328zM642 264q0 -274 -278 -274q-146 0 -212 71.5t-66 209.5v452h125v-464q0 -83 40 -124t113 -41q74 0 115 41t41 124v464h122v-459z" />
    <glyph glyph-name="umacron" unicode="&#x16b;" horiz-adv-x="591" 
d="M460 714v-80h-328v80h328zM262 -10q-74 1 -133.5 45.5t-59.5 127.5v355h122v-341q0 -48 30.5 -72t72.5 -24q46 0 77 26.5t31 73.5v337h123l-3 -518h-93l-14 101q-12 -57 -56 -84t-97 -27z" />
    <glyph glyph-name="Ubreve" unicode="&#x16c;" horiz-adv-x="721" 
d="M532 928q-15 -52 -59.5 -85.5t-105.5 -33.5q-62 0 -105.5 32t-58.5 87h78q32 -54 86 -54t86 54h79zM642 264q0 -274 -278 -274q-146 0 -212 71.5t-66 209.5v452h125v-464q0 -83 40 -124t113 -41q74 0 115 41t41 124v464h122v-459z" />
    <glyph glyph-name="ubreve" unicode="&#x16d;" horiz-adv-x="591" 
d="M463 722q-15 -52 -59.5 -85.5t-105.5 -33.5q-62 0 -105.5 32t-58.5 87h78q32 -54 86 -54t86 54h79zM262 -10q-74 1 -133.5 45.5t-59.5 127.5v355h122v-341q0 -48 30.5 -72t72.5 -24q46 0 77 26.5t31 73.5v337h123l-3 -518h-93l-14 101q-12 -57 -56 -84t-97 -27z" />
    <glyph glyph-name="Uring" unicode="&#x16e;" horiz-adv-x="721" 
d="M472 884q0 -45 -31 -75.5t-76 -30.5q-44 0 -75 31t-31 77q0 43 31 72.5t75 29.5q45 0 76 -30t31 -74zM416 883q0 22 -15 36.5t-37 14.5q-21 0 -36.5 -14.5t-15.5 -36.5q0 -20 16 -36t36 -16q21 0 36.5 15.5t15.5 36.5zM642 264q0 -274 -278 -274q-146 0 -212 71.5
t-66 209.5v452h125v-464q0 -83 40 -124t113 -41q74 0 115 41t41 124v464h122v-459z" />
    <glyph glyph-name="uring" unicode="&#x16f;" horiz-adv-x="591" 
d="M403 678q0 -45 -31 -75.5t-76 -30.5q-44 0 -75 31t-31 77q0 43 31 72.5t75 29.5q45 0 76 -30t31 -74zM347 677q0 22 -15 36.5t-37 14.5q-21 0 -36.5 -14.5t-15.5 -36.5q0 -20 16 -36t36 -16q21 0 36.5 15.5t15.5 36.5zM262 -10q-74 1 -133.5 45.5t-59.5 127.5v355h122
v-341q0 -48 30.5 -72t72.5 -24q46 0 77 26.5t31 73.5v337h123l-3 -518h-93l-14 101q-12 -57 -56 -84t-97 -27z" />
    <glyph glyph-name="Uhungarumlaut" unicode="&#x170;" horiz-adv-x="721" 
d="M343 941l55 -67l-160 -114l-39 44zM520 941l57 -67l-161 -114l-39 44zM642 264q0 -274 -278 -274q-146 0 -212 71.5t-66 209.5v452h125v-464q0 -83 40 -124t113 -41q74 0 115 41t41 124v464h122v-459z" />
    <glyph glyph-name="uhungarumlaut" unicode="&#x171;" horiz-adv-x="591" 
d="M274 735l55 -67l-160 -114l-39 44zM451 735l57 -67l-161 -114l-39 44zM262 -10q-74 1 -133.5 45.5t-59.5 127.5v355h122v-341q0 -48 30.5 -72t72.5 -24q46 0 77 26.5t31 73.5v337h123l-3 -518h-93l-14 101q-12 -57 -56 -84t-97 -27z" />
    <glyph glyph-name="Uogonek" unicode="&#x172;" horiz-adv-x="721" 
d="M520 723h122v-459q0 -241 -213 -270q-69 -30 -69 -67q0 -34 40 -34q38 0 72 20v-58q-34 -22 -99 -22q-50 0 -77.5 21t-27.5 60q0 48 57 77q-239 18 -239 280v452h125v-464q0 -83 40 -124t113 -41q74 0 115 41t41 124v464z" />
    <glyph glyph-name="uogonek" unicode="&#x173;" horiz-adv-x="591" 
d="M464 -107q38 0 72 20v-58q-34 -22 -99 -22q-50 0 -77.5 21t-27.5 60q0 30 21 52.5t75 40.5l-13 94q-12 -57 -56 -84t-97 -27q-74 1 -133.5 45.5t-59.5 127.5v355h122v-341q0 -48 30.5 -72t72.5 -24q46 0 77 26.5t31 73.5v337h123l-3 -518h-15q-45 -19 -64 -35.5
t-19 -37.5q0 -34 40 -34z" />
    <glyph glyph-name="Wcircumflex" unicode="&#x174;" horiz-adv-x="964" 
d="M549 809l-67 71l-75 -71h-96l129 125h85l126 -125h-102zM942 723l-212 -723h-103l-146 513l-148 -513h-100l-211 723h121l146 -522l147 522h91l148 -522l147 522h120z" />
    <glyph glyph-name="wcircumflex" unicode="&#x175;" horiz-adv-x="788" 
d="M465 603l-67 71l-75 -71h-96l129 125h85l126 -125h-102zM766 517l-163 -517h-105l-106 344l-104 -344h-102l-165 517h110l108 -356h5l105 356h89l108 -355h5l104 355h111z" />
    <glyph glyph-name="Ycircumflex" unicode="&#x176;" horiz-adv-x="634" 
d="M397 810l-67 71l-75 -71h-96l129 125h85l126 -125h-102zM626 723l-248 -417v-306h-122v306l-249 417h133l178 -311l175 311h133z" />
    <glyph glyph-name="ycircumflex" unicode="&#x177;" horiz-adv-x="553" 
d="M357 603l-67 71l-75 -71h-96l129 125h85l126 -125h-102zM137 -165q-29 0 -51 3.5t-30 7.5l-8 4v78l53 -1q38 -2 62.5 8.5t31 20t12.5 24.5l14 37l-202 500h121l137 -365l138 365h119l-214 -536q-34 -83 -77.5 -114.5t-105.5 -31.5z" />
    <glyph glyph-name="Ydieresis" unicode="&#x178;" horiz-adv-x="634" 
d="M169 816v115h126v-115h-126zM363 816v115h126v-115h-126zM626 723l-248 -417v-306h-122v306l-249 417h133l178 -311l175 311h133z" />
    <glyph glyph-name="Zacute" unicode="&#x179;" horiz-adv-x="650" 
d="M454 939l28 -84l-259 -71l-19 55zM50 0v62l380 558h-359v103h532v-59l-385 -560h382v-104h-550z" />
    <glyph glyph-name="zacute" unicode="&#x17a;" horiz-adv-x="519" 
d="M377 733l28 -84l-259 -71l-19 55zM39 0v67l281 371h-259v79h410v-66l-281 -371h285v-80h-436z" />
    <glyph glyph-name="Zdotaccent" unicode="&#x17b;" horiz-adv-x="650" 
d="M279 798v115h126v-115h-126zM50 0v62l380 558h-359v103h532v-59l-385 -560h382v-104h-550z" />
    <glyph glyph-name="zdotaccent" unicode="&#x17c;" horiz-adv-x="519" 
d="M203 592v115h126v-115h-126zM39 0v67l281 371h-259v79h410v-66l-281 -371h285v-80h-436z" />
    <glyph glyph-name="Zcaron" unicode="&#x17d;" horiz-adv-x="650" 
d="M409 930h102l-126 -127h-86l-129 127h97l75 -72zM50 0v62l380 558h-359v103h532v-59l-385 -560h382v-104h-550z" />
    <glyph glyph-name="zcaron" unicode="&#x17e;" horiz-adv-x="519" 
d="M333 724h102l-126 -127h-86l-129 127h97l75 -72zM39 0v67l281 371h-259v79h410v-66l-281 -371h285v-80h-436z" />
    <glyph glyph-name="uni018F" unicode="&#x18f;" horiz-adv-x="759" 
d="M554 408q0 37 -6.5 70t-23.5 68.5t-54 56.5t-90 21q-30 0 -55.5 -8t-42 -19t-31.5 -30t-22.5 -32t-18.5 -34t-15 -29q-4 -7 -18 -1l-88 41q-12 4 -3 20q14 29 28.5 52.5t40 52.5t55 49t74 33.5t95.5 13.5q83 0 147 -30.5t101.5 -83.5t56 -117.5t18.5 -137.5
q0 -156 -88 -265t-236 -109q-164 0 -242.5 103t-78.5 279q0 9 0.5 12.5t4 6.5t11.5 3h469q12 0 12 14zM553 302h-332q-8 0 -11 -2.5t-3 -9.5q0 -83 41.5 -141.5t128.5 -58.5q91 0 130.5 57t45.5 155z" />
    <glyph glyph-name="florin" unicode="&#x192;" horiz-adv-x="490" 
d="M426 517l-16 -86h-116l-82 -466q-11 -62 -51.5 -97t-105.5 -35h-101l12 83h59q32 1 47 17t22 57l78 441h-84l15 86h84l13 77q11 62 52.5 95.5t104.5 33.5h109l-14 -83h-69q-24 0 -43 -18.5t-24 -46.5l-10 -58h120z" />
    <glyph glyph-name="Ohorn" unicode="&#x1a0;" horiz-adv-x="813" 
d="M779 741q-1 -85 -28 -124.5t-93 -43.5q46 -89 46 -213q0 -173 -86.5 -271.5t-236.5 -98.5q-151 0 -237.5 98t-86.5 271q0 175 87 274.5t237 99.5q145 0 229 -92q45 0 61.5 17.5t21.5 82.5h86zM382 92q189 0 189 266q0 273 -190 273q-91 0 -141 -67.5t-50 -205.5
q0 -135 50 -200.5t142 -65.5z" />
    <glyph glyph-name="ohorn" unicode="&#x1a1;" horiz-adv-x="689" 
d="M651 511q-2 -88 -31.5 -128t-102.5 -41q10 -39 10 -86q0 -119 -66 -192.5t-178 -73.5q-113 0 -178.5 73t-65.5 192q0 122 67 197t178 75q142 0 206 -116q40 1 55 19t19 81h87zM284 82q63 0 93 50.5t30 127.5t-30 126t-93 49q-64 0 -94.5 -49t-30.5 -126t31 -127.5
t94 -50.5z" />
    <glyph glyph-name="Uhorn" unicode="&#x1af;" horiz-adv-x="844" 
d="M710 741h87q-2 -94 -36 -133.5t-119 -35.5v-308q0 -274 -278 -274q-146 0 -212 71.5t-66 209.5v452h125v-464q0 -83 40 -124t113 -41q74 0 115 41t41 124v464h122v-82q36 2 50 21t18 79z" />
    <glyph glyph-name="uhorn" unicode="&#x1b0;" 
d="M594 557h87q-2 -95 -36.5 -134t-120.5 -35l-2 -388h-93l-14 101q-12 -57 -56 -84t-97 -27q-74 1 -133.5 45.5t-59.5 127.5v355h122v-341q0 -48 30.5 -72t72.5 -24q46 0 77 26.5t31 73.5v337h123v-61q37 2 51 20.5t18 79.5z" />
    <glyph glyph-name="uni01EA" unicode="&#x1ea;" horiz-adv-x="760" 
d="M466 -1q-46 -19 -65 -35.5t-19 -37.5q0 -34 40 -34q38 0 72 20v-58q-34 -22 -99 -22q-50 0 -77.5 21t-27.5 60q0 50 59 78q-137 11 -214.5 108t-77.5 260q0 175 87 274.5t237 99.5q149 0 236 -99.5t87 -273.5q0 -146 -63 -240t-175 -121zM190 358q0 -135 50 -200.5
t142 -65.5q189 0 189 266q0 273 -190 273q-91 0 -141 -67.5t-50 -205.5z" />
    <glyph glyph-name="uni01EB" unicode="&#x1eb;" horiz-adv-x="566" 
d="M360 1q-48 -19 -67.5 -36.5t-19.5 -38.5q0 -34 40 -34q38 0 72 20v-58q-34 -22 -99 -22q-50 0 -77.5 21t-27.5 60q0 50 62 80q-96 13 -150 83.5t-54 178.5q0 122 67 197t178 75q112 0 177.5 -75.5t65.5 -195.5q0 -96 -44 -164t-123 -91zM159 260q0 -77 31 -127.5
t94 -50.5t93 50.5t30 127.5t-30 126t-93 49q-64 0 -94.5 -49t-30.5 -126z" />
    <glyph glyph-name="Aringacute" unicode="&#x1fa;" 
d="M429 707l254 -707h-123l-64 181h-276l-66 -181h-123l254 707q-31 29 -31 74q0 35 22 60.5t56 32.5l15 66h78l-29 -70q28 -12 45.5 -36t17.5 -55q0 -42 -30 -72zM355 829q-21 0 -36.5 -14.5t-15.5 -36.5q0 -21 16 -37t36 -16q21 0 36.5 16t15.5 37q0 22 -15 36.5t-37 14.5
zM248 290h218l-108 315z" />
    <glyph glyph-name="aringacute" unicode="&#x1fb;" horiz-adv-x="554" 
d="M362 519q130 -31 130 -157v-362h-102l-10 90q-49 -100 -168 -100q-77 0 -125 41t-48 113q0 86 62.5 129.5t196.5 44.5l77 2v35q0 42 -26.5 65t-73.5 22q-40 0 -71 -19t-41 -56h-103q3 59 42.5 99t105.5 54q-25 27 -25 68q0 36 22 61.5t56 32.5l15 66h78l-29 -70
q28 -12 45.5 -36t17.5 -56q0 -39 -26 -67zM284 637q-21 0 -36.5 -15t-15.5 -37q0 -20 16 -36t36 -16q21 0 36.5 15.5t15.5 36.5q0 22 -15 37t-37 15zM375 171v82l-63 -1q-156 -2 -156 -96q0 -38 26.5 -60.5t68.5 -22.5q46 0 85 30.5t39 67.5z" />
    <glyph glyph-name="AEacute" unicode="&#x1fc;" horiz-adv-x="1017" 
d="M768 939l28 -84l-259 -71l-19 55zM955 103v-103h-494v183h-239l-99 -183h-123l393 723h550v-103h-343v-205h243v-101h-243v-211h355zM461 290v350l-193 -350h193z" />
    <glyph glyph-name="aeacute" unicode="&#x1fd;" horiz-adv-x="914" 
d="M562 733l28 -84l-259 -71l-19 55zM500 234q0 -65 42.5 -111.5t102.5 -46.5q47 0 79 20t65 59l77 -36q-79 -129 -236 -129q-120 0 -201 96q-4 4 -8 0q-43 -45 -92.5 -70.5t-123.5 -25.5q-78 0 -122 39.5t-44 106.5q0 77 65 122.5t194 53.5l80 6v36q0 44 -25.5 68.5
t-74.5 24.5q-79 0 -122 -77l-103 27q31 65 86 97.5t145 32.5q133 -1 176 -76q62 76 169 76q110 0 178 -78t68 -214zM633 448q-56 0 -93 -38t-37 -104l252 -1q0 55 -34 99t-88 44zM378 250l-66 -5q-69 -5 -110.5 -31t-41.5 -70q0 -35 24 -55.5t67 -19.5q53 2 90 29t37 66v86z
" />
    <glyph glyph-name="Oslashacute" unicode="&#x1fe;" horiz-adv-x="764" 
d="M491 939l28 -84l-259 -71l-19 55zM82 -14l-58 59l85 89q-53 88 -53 225q0 175 87 274.5t237 99.5q134 0 219 -83l81 86l57 -57l-87 -94q53 -92 53 -225q0 -173 -87 -271.5t-236 -98.5q-136 0 -218 79zM219 244l295 321q-44 69 -134 69q-162 0 -174 -228q-4 -82 13 -162z
M380 90q80 0 122 52t48 160q6 86 -11 173l-294 -321q45 -64 135 -64z" />
    <glyph glyph-name="oslashacute" unicode="&#x1ff;" horiz-adv-x="600" 
d="M437 649l-259 -71l-19 55l250 100zM572 476l-66 -63q38 -65 38 -157q0 -119 -65.5 -192.5t-177.5 -73.5q-105 0 -170 65l-65 -62l-43 46l69 66q-35 64 -35 150q0 122 67 197t178 75q102 0 166 -64l61 59zM177 260q0 -38 7 -67l207 198q-31 44 -89 44q-64 0 -94.5 -49
t-30.5 -126zM425 260q0 40 -7 69l-209 -199q35 -48 93 -48q63 0 93 50.5t30 127.5z" />
    <glyph glyph-name="uni0200" unicode="&#x200;" 
d="M189 941l143 -137l-39 -44l-160 114zM366 941l143 -137l-38 -44l-161 114zM31 0l260 723h132l260 -723h-123l-64 181h-276l-66 -181h-123zM248 290h218l-108 315z" />
    <glyph glyph-name="uni0201" unicode="&#x201;" horiz-adv-x="554" 
d="M112 735l143 -137l-39 -44l-160 114zM289 735l143 -137l-38 -44l-161 114zM212 -10q-77 0 -125 41t-48 113q0 86 62.5 129.5t196.5 44.5l77 2v35q0 42 -26.5 65t-73.5 22q-40 0 -71 -19t-41 -56h-103q4 74 64 117t156 43q107 0 159.5 -43.5t52.5 -121.5v-362h-102l-10 90
q-49 -100 -168 -100zM251 73q46 0 85 30.5t39 67.5v82l-63 -1q-156 -2 -156 -96q0 -38 26.5 -60.5t68.5 -22.5z" />
    <glyph glyph-name="uni0202" unicode="&#x202;" 
d="M522 848h-80q-30 54 -86 54q-55 0 -85 -54h-78q15 55 58.5 87t104.5 32t106 -33t60 -86zM31 0l260 723h132l260 -723h-123l-64 181h-276l-66 -181h-123zM248 290h218l-108 315z" />
    <glyph glyph-name="uni0203" unicode="&#x203;" horiz-adv-x="554" 
d="M445 642h-80q-30 54 -86 54q-55 0 -85 -54h-78q15 55 58.5 87t104.5 32t106 -33t60 -86zM212 -10q-77 0 -125 41t-48 113q0 86 62.5 129.5t196.5 44.5l77 2v35q0 42 -26.5 65t-73.5 22q-40 0 -71 -19t-41 -56h-103q4 74 64 117t156 43q107 0 159.5 -43.5t52.5 -121.5
v-362h-102l-10 90q-49 -100 -168 -100zM251 73q46 0 85 30.5t39 67.5v82l-63 -1q-156 -2 -156 -96q0 -38 26.5 -60.5t68.5 -22.5z" />
    <glyph glyph-name="uni0204" unicode="&#x204;" horiz-adv-x="634" 
d="M158 941l143 -137l-39 -44l-160 114zM335 941l143 -137l-38 -44l-161 114zM86 0v723h479l-1 -104h-355v-203h314v-103h-315v-207l364 -1v-105h-486z" />
    <glyph glyph-name="uni0205" unicode="&#x205;" horiz-adv-x="556" 
d="M115 735l143 -137l-39 -44l-160 114zM292 735l143 -137l-38 -44l-161 114zM160 230q0 -68 33 -108.5t94 -40.5q90 0 116 77h111q-16 -79 -79 -123.5t-145 -44.5q-113 0 -182 71t-69 192q0 122 65.5 198t178.5 76q112 0 172.5 -70t60.5 -190v-37h-356zM160 306h242
q0 59 -31 96t-89 37q-57 0 -89.5 -40t-32.5 -93z" />
    <glyph glyph-name="uni0206" unicode="&#x206;" horiz-adv-x="634" 
d="M491 848h-80q-30 54 -86 54q-55 0 -85 -54h-78q15 55 58.5 87t104.5 32t106 -33t60 -86zM86 0v723h479l-1 -104h-355v-203h314v-103h-315v-207l364 -1v-105h-486z" />
    <glyph glyph-name="uni0207" unicode="&#x207;" horiz-adv-x="556" 
d="M448 642h-80q-30 54 -86 54q-55 0 -85 -54h-78q15 55 58.5 87t104.5 32t106 -33t60 -86zM160 230q0 -68 33 -108.5t94 -40.5q90 0 116 77h111q-16 -79 -79 -123.5t-145 -44.5q-113 0 -182 71t-69 192q0 122 65.5 198t178.5 76q112 0 172.5 -70t60.5 -190v-37h-356z
M160 306h242q0 59 -31 96t-89 37q-57 0 -89.5 -40t-32.5 -93z" />
    <glyph glyph-name="uni0208" unicode="&#x208;" horiz-adv-x="292" 
d="M-21 941l143 -137l-39 -44l-161 114zM156 941l143 -137l-38 -44l-161 114zM86 723h122v-723h-122v723z" />
    <glyph glyph-name="uni0209" unicode="&#x209;" horiz-adv-x="266" 
d="M-32 735l143 -137l-39 -44l-161 114zM145 735l143 -137l-38 -44l-161 114zM195 517v-517h-122v517h122z" />
    <glyph glyph-name="uni020A" unicode="&#x20a;" horiz-adv-x="292" 
d="M312 848h-80q-30 54 -86 54q-55 0 -85 -54h-78q15 55 58.5 87t104.5 32t106 -33t60 -86zM86 723h122v-723h-122v723z" />
    <glyph glyph-name="uni020B" unicode="&#x20b;" horiz-adv-x="266" 
d="M300 642h-80q-30 54 -86 54q-55 0 -85 -54h-78q15 55 58.5 87t104.5 32t106 -33t60 -86zM195 517v-517h-122v517h122z" />
    <glyph glyph-name="uni020C" unicode="&#x20c;" horiz-adv-x="760" 
d="M213 941l143 -137l-39 -44l-160 114zM390 941l143 -137l-38 -44l-161 114zM381 -10q-151 0 -237.5 98t-86.5 271q0 175 87 274.5t237 99.5q149 0 236 -99.5t87 -273.5q0 -173 -86.5 -271.5t-236.5 -98.5zM382 92q189 0 189 266q0 273 -190 273q-91 0 -141 -67.5
t-50 -205.5q0 -135 50 -200.5t142 -65.5z" />
    <glyph glyph-name="uni020D" unicode="&#x20d;" horiz-adv-x="566" 
d="M116 735l143 -137l-39 -44l-160 114zM293 735l143 -137l-38 -44l-161 114zM283 -10q-113 0 -178.5 73t-65.5 192q0 122 67 197t178 75q112 0 177.5 -75.5t65.5 -195.5q0 -119 -66 -192.5t-178 -73.5zM284 82q63 0 93 50.5t30 127.5t-30 126t-93 49q-64 0 -94.5 -49
t-30.5 -126t31 -127.5t94 -50.5z" />
    <glyph glyph-name="uni020E" unicode="&#x20e;" horiz-adv-x="760" 
d="M546 848h-80q-30 54 -86 54q-55 0 -85 -54h-78q15 55 58.5 87t104.5 32t106 -33t60 -86zM381 -10q-151 0 -237.5 98t-86.5 271q0 175 87 274.5t237 99.5q149 0 236 -99.5t87 -273.5q0 -173 -86.5 -271.5t-236.5 -98.5zM382 92q189 0 189 266q0 273 -190 273
q-91 0 -141 -67.5t-50 -205.5q0 -135 50 -200.5t142 -65.5z" />
    <glyph glyph-name="uni020F" unicode="&#x20f;" horiz-adv-x="566" 
d="M449 642h-80q-30 54 -86 54q-55 0 -85 -54h-78q15 55 58.5 87t104.5 32t106 -33t60 -86zM283 -10q-113 0 -178.5 73t-65.5 192q0 122 67 197t178 75q112 0 177.5 -75.5t65.5 -195.5q0 -119 -66 -192.5t-178 -73.5zM284 82q63 0 93 50.5t30 127.5t-30 126t-93 49
q-64 0 -94.5 -49t-30.5 -126t31 -127.5t94 -50.5z" />
    <glyph glyph-name="uni0210" unicode="&#x210;" horiz-adv-x="688" 
d="M166 941l143 -137l-39 -44l-160 114zM343 941l143 -137l-38 -44l-161 114zM627 0h-126l-125 294h-168v-294h-122v723h294q121 0 182 -55t61 -153q0 -142 -133 -201zM353 390q68 0 107 32t39 89q0 55 -35.5 86t-95.5 31h-160v-238h145z" />
    <glyph glyph-name="uni0211" unicode="&#x211;" horiz-adv-x="393" 
d="M53 735l143 -137l-39 -44l-161 114zM230 735l143 -137l-38 -44l-161 114zM71 0v517h117v-112q20 54 68 88t117 34v-116q-180 11 -180 -110v-301h-122z" />
    <glyph glyph-name="uni0212" unicode="&#x212;" horiz-adv-x="688" 
d="M499 848h-80q-30 54 -86 54q-55 0 -85 -54h-78q15 55 58.5 87t104.5 32t106 -33t60 -86zM627 0h-126l-125 294h-168v-294h-122v723h294q121 0 182 -55t61 -153q0 -142 -133 -201zM353 390q68 0 107 32t39 89q0 55 -35.5 86t-95.5 31h-160v-238h145z" />
    <glyph glyph-name="uni0213" unicode="&#x213;" horiz-adv-x="393" 
d="M385 642h-80q-30 54 -86 54q-55 0 -85 -54h-78q15 55 58.5 87t104.5 32t106 -33t60 -86zM71 0v517h117v-112q20 54 68 88t117 34v-116q-180 11 -180 -110v-301h-122z" />
    <glyph glyph-name="uni0214" unicode="&#x214;" horiz-adv-x="721" 
d="M197 941l143 -137l-39 -44l-160 114zM374 941l143 -137l-38 -44l-161 114zM642 264q0 -274 -278 -274q-146 0 -212 71.5t-66 209.5v452h125v-464q0 -83 40 -124t113 -41q74 0 115 41t41 124v464h122v-459z" />
    <glyph glyph-name="uni0215" unicode="&#x215;" horiz-adv-x="591" 
d="M128 735l143 -137l-39 -44l-160 114zM305 735l143 -137l-38 -44l-161 114zM262 -10q-74 1 -133.5 45.5t-59.5 127.5v355h122v-341q0 -48 30.5 -72t72.5 -24q46 0 77 26.5t31 73.5v337h123l-3 -518h-93l-14 101q-12 -57 -56 -84t-97 -27z" />
    <glyph glyph-name="uni0216" unicode="&#x216;" horiz-adv-x="721" 
d="M530 848h-80q-30 54 -86 54q-55 0 -85 -54h-78q15 55 58.5 87t104.5 32t106 -33t60 -86zM642 264q0 -274 -278 -274q-146 0 -212 71.5t-66 209.5v452h125v-464q0 -83 40 -124t113 -41q74 0 115 41t41 124v464h122v-459z" />
    <glyph glyph-name="uni0217" unicode="&#x217;" horiz-adv-x="591" 
d="M461 642h-80q-30 54 -86 54q-55 0 -85 -54h-78q15 55 58.5 87t104.5 32t106 -33t60 -86zM262 -10q-74 1 -133.5 45.5t-59.5 127.5v355h122v-341q0 -48 30.5 -72t72.5 -24q46 0 77 26.5t31 73.5v337h123l-3 -518h-93l-14 101q-12 -57 -56 -84t-97 -27z" />
    <glyph glyph-name="uni0218" unicode="&#x218;" horiz-adv-x="702" 
d="M354 -10q-115 0 -201.5 53.5t-98.5 151.5l127 4q12 -53 59 -82.5t113 -29.5q72 0 118 27.5t46 76.5q0 80 -126 108l-136 28q-178 37 -179 189q-1 97 76.5 156.5t197.5 59.5q122 0 198 -61.5t86 -149.5l-124 -4q-16 116 -158 116q-62 0 -103.5 -28t-41.5 -76
q0 -36 24.5 -57.5t87.5 -36.5l133 -29q191 -38 191 -214q0 -87 -79.5 -144.5t-209.5 -57.5zM271 -324l58 131l-48 3v128h133v-112l-94 -150h-49z" />
    <glyph glyph-name="uni0219" unicode="&#x219;" horiz-adv-x="522" 
d="M266 -10q-87 0 -149.5 42.5t-74.5 124.5h108q9 -42 42 -61t74 -19q48 0 76 17t28 48q0 46 -71 61l-95 23q-145 31 -145 142q-1 73 55.5 116t152.5 43q91 0 146 -41.5t55 -113.5h-104q-6 33 -32.5 50.5t-67.5 17.5t-69 -15t-28 -49q0 -23 20.5 -36.5t64.5 -22.5l92 -23
q72 -18 102 -59t30 -87q0 -75 -59.5 -116.5t-150.5 -41.5zM185 -324l58 131l-48 3v128h133v-112l-94 -150h-49z" />
    <glyph glyph-name="uni021A" unicode="&#x21a;" horiz-adv-x="594" 
d="M15 613v110h564v-110h-217v-613h-122v613h-225zM231 -323l58 131l-48 3v128h133v-112l-94 -150h-49z" />
    <glyph glyph-name="uni021B" unicode="&#x21b;" horiz-adv-x="391" 
d="M344 431h-116l1 -294q0 -33 12 -43t42 -10h63v-77q-24 -11 -84 -11q-87 0 -121.5 33.5t-34.5 100.5v301h-84v86h88l20 154h98v-153h116v-87zM149 -319l58 131l-48 3v128h133v-112l-94 -150h-49z" />
    <glyph glyph-name="uni0237" unicode="&#x237;" horiz-adv-x="274" 
d="M197 -9q0 -80 -38 -118.5t-122 -38.5q-66 0 -66 13v81l45 4q32 3 45.5 17.5t13.5 44.5v523h122v-526z" />
    <glyph glyph-name="uni0259" unicode="&#x259;" horiz-adv-x="557" 
d="M396 287q1 67 -32.5 108t-94.5 41q-88 0 -116 -77h-111q16 79 79 123.5t145 44.5q113 0 182 -71t69 -192q0 -122 -65 -198t-178 -76q-112 0 -173 70.5t-61 189.5v37h356zM396 211h-242q0 -59 31 -96t89 -37q57 0 90 40t32 93z" />
    <glyph glyph-name="uni02BB" unicode="&#x2bb;" horiz-adv-x="229" 
d="M183 678l-10 -1q-21 -2 -38.5 -22t-17.5 -45v-8l66 -4v-126h-133v111q0 60 40.5 102t92.5 32v-39z" />
    <glyph glyph-name="uni02BC" unicode="&#x2bc;" horiz-adv-x="229" 
d="M50 513l10 1q21 2 38.5 22t17.5 45v8l-66 4v126h133v-111q0 -60 -40.5 -102t-92.5 -32v39z" />
    <glyph glyph-name="circumflex" unicode="&#x2c6;" horiz-adv-x="354" 
d="M245 603l-67 71l-75 -71h-96l129 125h85l126 -125h-102z" />
    <glyph glyph-name="caron" unicode="&#x2c7;" horiz-adv-x="361" 
d="M245 724h102l-126 -127h-86l-129 127h97l75 -72z" />
    <glyph glyph-name="breve" unicode="&#x2d8;" horiz-adv-x="358" 
d="M343 723q-15 -52 -59.5 -85.5t-105.5 -33.5q-62 0 -105.5 32t-58.5 87h78q32 -54 86 -54t86 54h79z" />
    <glyph glyph-name="dotaccent" unicode="&#x2d9;" horiz-adv-x="162" 
d="M18 592v115h126v-115h-126z" />
    <glyph glyph-name="ring" unicode="&#x2da;" horiz-adv-x="248" 
d="M228 672q0 -45 -31 -75.5t-76 -30.5q-44 0 -75 31t-31 77q0 43 31 72.5t75 29.5q45 0 76 -30t31 -74zM172 671q0 22 -15 36.5t-37 14.5q-21 0 -36.5 -14.5t-15.5 -36.5q0 -20 16 -36t36 -16q21 0 36.5 15.5t15.5 36.5z" />
    <glyph glyph-name="ogonek" unicode="&#x2db;" horiz-adv-x="240" 
d="M15 -86q0 30 22 53t77 41l86 -4q-51 -20 -72 -37.5t-21 -39.5q0 -34 40 -34q38 0 72 20v-58q-34 -22 -99 -22q-50 0 -77.5 21t-27.5 60z" />
    <glyph glyph-name="tilde" unicode="&#x2dc;" horiz-adv-x="383" 
d="M353 656q-41 -33 -95 -33q-28 0 -70 13.5t-66 13.5q-36 0 -74 -30l-20 60q42 42 90 42q28 0 73.5 -14.5t66.5 -14.5q36 0 77 31z" />
    <glyph glyph-name="hungarumlaut" unicode="&#x2dd;" horiz-adv-x="419" 
d="M163 735l55 -67l-160 -114l-39 44zM340 735l57 -67l-161 -114l-39 44z" />
    <glyph glyph-name="gravecomb" unicode="&#x300;" horiz-adv-x="0" 
d="M-266 733l248 -100l-18 -55l-259 71z" />
    <glyph glyph-name="acutecomb" unicode="&#x301;" horiz-adv-x="0" 
d="M-44 733l28 -84l-259 -71l-19 55z" />
    <glyph glyph-name="uni0302" unicode="&#x302;" horiz-adv-x="0" 
d="M-109 603l-67 71l-75 -71h-96l129 125h85l126 -125h-102z" />
    <glyph glyph-name="tildecomb" unicode="&#x303;" horiz-adv-x="0" 
d="M-30 656q-41 -33 -95 -33q-28 0 -70 13.5t-66 13.5q-36 0 -74 -30l-20 60q42 42 90 42q28 0 73.5 -14.5t66.5 -14.5q36 0 77 31z" />
    <glyph glyph-name="uni0304" unicode="&#x304;" horiz-adv-x="0" 
d="M-20 714v-80h-328v80h328z" />
    <glyph glyph-name="uni0306" unicode="&#x306;" horiz-adv-x="0" 
d="M-15 723q-15 -52 -59.5 -85.5t-105.5 -33.5q-62 0 -105.5 32t-58.5 87h78q32 -54 86 -54t86 54h79z" />
    <glyph glyph-name="uni0307" unicode="&#x307;" horiz-adv-x="0" 
d="M-144 592v115h126v-115h-126z" />
    <glyph glyph-name="uni0308" unicode="&#x308;" horiz-adv-x="0" 
d="M-321 611v115h126v-115h-126zM-127 611v115h126v-115h-126z" />
    <glyph glyph-name="hookabovecomb" unicode="&#x309;" horiz-adv-x="0" 
d="M-373 760l31 -48q19 13 39 12t30 -16q22 -34 -26 -65l32 -48q48 29 60 67.5t-15 79.5q-22 34 -64 40t-87 -22z" />
    <glyph glyph-name="uni030A" unicode="&#x30a;" horiz-adv-x="0" 
d="M-20 672q0 -45 -31 -75.5t-76 -30.5q-44 0 -75 31t-31 77q0 43 31 72.5t75 29.5q45 0 76 -30t31 -74zM-76 671q0 22 -15 36.5t-37 14.5q-21 0 -36.5 -14.5t-15.5 -36.5q0 -20 16 -36t36 -16q21 0 36.5 15.5t15.5 36.5z" />
    <glyph glyph-name="uni030B" unicode="&#x30b;" horiz-adv-x="0" 
d="M-256 735l55 -67l-160 -114l-39 44zM-79 735l57 -67l-161 -114l-39 44z" />
    <glyph glyph-name="uni030C" unicode="&#x30c;" horiz-adv-x="0" 
d="M-116 724h102l-126 -127h-86l-129 127h97l75 -72z" />
    <glyph glyph-name="uni030F" unicode="&#x30f;" horiz-adv-x="0" 
d="M-346 735l143 -137l-39 -44l-160 114zM-169 735l143 -137l-38 -44l-161 114z" />
    <glyph glyph-name="uni0311" unicode="&#x311;" horiz-adv-x="0" 
d="M-9 642h-80q-30 54 -86 54q-55 0 -85 -54h-78q15 55 58.5 87t104.5 32t106 -33t60 -86z" />
    <glyph glyph-name="uni031B" unicode="&#x31b;" horiz-adv-x="0" 
d="M0 630q-2 -100 -41.5 -138.5t-138.5 -28.5v67q53 -1 71 15t22 85h87z" />
    <glyph glyph-name="dotbelowcomb" unicode="&#x323;" horiz-adv-x="0" 
d="M-133 -197v114h126v-114h-126z" />
    <glyph glyph-name="uni0326" unicode="&#x326;" horiz-adv-x="0" 
d="M-144 -324l58 131l-48 3v128h133v-112l-94 -150h-49z" />
    <glyph glyph-name="uni0327" unicode="&#x327;" horiz-adv-x="0" 
d="M-20 -130q0 -37 -33 -58.5t-82 -21.5q-64 0 -106 27l18 44q37 -24 74 -24q51 0 51 33q0 42 -82 43q-12 0 -7 8l36 84h57l-22 -59q50 -2 73 -24t23 -52z" />
    <glyph glyph-name="uni0328" unicode="&#x328;" horiz-adv-x="0" 
d="M-225 -86q0 30 22 53t77 41l86 -4q-51 -20 -72 -37.5t-21 -39.5q0 -34 40 -34q38 0 72 20v-58q-34 -22 -99 -22q-50 0 -77.5 21t-27.5 60z" />
    <glyph glyph-name="pi" unicode="&#x3c0;" horiz-adv-x="667" 
d="M637 431h-102v-431h-117l-1 431h-182q0 -108 -17.5 -233t-41.5 -198h-113q55 211 55 421q0 10 -8 10h-85v86h612v-86z" />
    <glyph glyph-name="uni1E0C" unicode="&#x1e0c;" horiz-adv-x="708" 
d="M86 723q133 0 195 -1q375 -7 375 -357q0 -177 -95 -271t-287 -94h-188v723zM210 623v-522h65q254 0 254 264q0 136 -64.5 197t-186.5 61h-68zM290 -197v114h126v-114h-126z" />
    <glyph glyph-name="uni1E0D" unicode="&#x1e0d;" horiz-adv-x="594" 
d="M256 -10q-105 0 -161 72.5t-56 198.5q0 120 53 193t153 73q58 0 100 -25t61 -58v299h121v-743h-89l-14 106q-38 -116 -168 -116zM282 80q54 0 88.5 36.5t35.5 93.5v100q-2 48 -32 87t-92 39q-123 0 -123 -174q0 -93 33 -137.5t90 -44.5zM227 -197v114h126v-114h-126z" />
    <glyph glyph-name="uni1E24" unicode="&#x1e24;" horiz-adv-x="718" 
d="M512 321h-304v-321h-122v723h122v-298h304v298h122v-723h-122v321zM295 -197v114h126v-114h-126z" />
    <glyph glyph-name="uni1E25" unicode="&#x1e25;" horiz-adv-x="592" 
d="M71 0v743h121v-296q48 75 154 75q76 0 128 -44.5t52 -114.5v-363h-121v344q0 37 -28 59.5t-71 22.5q-47 0 -80 -23t-33 -64v-339h-122zM241 -197v114h126v-114h-126z" />
    <glyph glyph-name="uni1E44" unicode="&#x1e44;" horiz-adv-x="765" 
d="M321 798v115h126v-115h-126zM559 723h122v-723h-109l-364 530v-530h-122v723h120l353 -516v516z" />
    <glyph glyph-name="uni1E45" unicode="&#x1e45;" horiz-adv-x="593" 
d="M241 592v115h126v-115h-126zM71 0v517h120v-69q54 75 155 75q76 0 128.5 -49t52.5 -132v-342h-122v329q0 45 -27.5 71t-70.5 26q-47 0 -80.5 -22.5t-33.5 -63.5v-340h-122z" />
    <glyph glyph-name="uni1E5A" unicode="&#x1e5a;" horiz-adv-x="688" 
d="M627 0h-126l-125 294h-168v-294h-122v723h294q121 0 182 -55t61 -153q0 -142 -133 -201zM353 390q68 0 107 32t39 89q0 55 -35.5 86t-95.5 31h-160v-238h145zM280 -197v114h126v-114h-126z" />
    <glyph glyph-name="uni1E5B" unicode="&#x1e5b;" horiz-adv-x="393" 
d="M71 0v517h117v-112q20 54 68 88t117 34v-116q-180 11 -180 -110v-301h-122zM75 -197v114h126v-114h-126z" />
    <glyph glyph-name="uni1E62" unicode="&#x1e62;" horiz-adv-x="702" 
d="M354 -10q-115 0 -201.5 53.5t-98.5 151.5l127 4q12 -53 59 -82.5t113 -29.5q72 0 118 27.5t46 76.5q0 80 -126 108l-136 28q-178 37 -179 189q-1 97 76.5 156.5t197.5 59.5q122 0 198 -61.5t86 -149.5l-124 -4q-16 116 -158 116q-62 0 -103.5 -28t-41.5 -76
q0 -36 24.5 -57.5t87.5 -36.5l133 -29q191 -38 191 -214q0 -87 -79.5 -144.5t-209.5 -57.5zM284 -197v114h126v-114h-126z" />
    <glyph glyph-name="uni1E63" unicode="&#x1e63;" horiz-adv-x="522" 
d="M266 -10q-87 0 -149.5 42.5t-74.5 124.5h108q9 -42 42 -61t74 -19q48 0 76 17t28 48q0 46 -71 61l-95 23q-145 31 -145 142q-1 73 55.5 116t152.5 43q91 0 146 -41.5t55 -113.5h-104q-6 33 -32.5 50.5t-67.5 17.5t-69 -15t-28 -49q0 -23 20.5 -36.5t64.5 -22.5l92 -23
q72 -18 102 -59t30 -87q0 -75 -59.5 -116.5t-150.5 -41.5zM198 -197v114h126v-114h-126z" />
    <glyph glyph-name="uni1E6C" unicode="&#x1e6c;" horiz-adv-x="594" 
d="M15 613v110h564v-110h-217v-613h-122v613h-225zM244 -196v114h126v-114h-126z" />
    <glyph glyph-name="uni1E6D" unicode="&#x1e6d;" horiz-adv-x="391" 
d="M344 431h-116l1 -294q0 -33 12 -43t42 -10h63v-77q-24 -11 -84 -11q-87 0 -121.5 33.5t-34.5 100.5v301h-84v86h88l20 154h98v-153h116v-87zM161 -192v114h126v-114h-126z" />
    <glyph glyph-name="Wgrave" unicode="&#x1e80;" horiz-adv-x="964" 
d="M363 939l248 -100l-18 -55l-259 71zM942 723l-212 -723h-103l-146 513l-148 -513h-100l-211 723h121l146 -522l147 522h91l148 -522l147 522h120z" />
    <glyph glyph-name="wgrave" unicode="&#x1e81;" horiz-adv-x="788" 
d="M279 733l248 -100l-18 -55l-259 71zM766 517l-163 -517h-105l-106 344l-104 -344h-102l-165 517h110l108 -356h5l105 356h89l108 -355h5l104 355h111z" />
    <glyph glyph-name="Wacute" unicode="&#x1e82;" horiz-adv-x="964" 
d="M593 939l28 -84l-259 -71l-19 55zM942 723l-212 -723h-103l-146 513l-148 -513h-100l-211 723h121l146 -522l147 522h91l148 -522l147 522h120z" />
    <glyph glyph-name="wacute" unicode="&#x1e83;" horiz-adv-x="788" 
d="M509 733l28 -84l-259 -71l-19 55zM766 517l-163 -517h-105l-106 344l-104 -344h-102l-165 517h110l108 -356h5l105 356h89l108 -355h5l104 355h111z" />
    <glyph glyph-name="Wdieresis" unicode="&#x1e84;" horiz-adv-x="964" 
d="M320 815v115h126v-115h-126zM514 815v115h126v-115h-126zM942 723l-212 -723h-103l-146 513l-148 -513h-100l-211 723h121l146 -522l147 522h91l148 -522l147 522h120z" />
    <glyph glyph-name="wdieresis" unicode="&#x1e85;" horiz-adv-x="788" 
d="M236 609v115h126v-115h-126zM430 609v115h126v-115h-126zM766 517l-163 -517h-105l-106 344l-104 -344h-102l-165 517h110l108 -356h5l105 356h89l108 -355h5l104 355h111z" />
    <glyph glyph-name="uni1E92" unicode="&#x1e92;" horiz-adv-x="650" 
d="M50 0v62l380 558h-359v103h532v-59l-385 -560h382v-104h-550zM270 -197v114h126v-114h-126z" />
    <glyph glyph-name="uni1E93" unicode="&#x1e93;" horiz-adv-x="519" 
d="M39 0v67l281 371h-259v79h410v-66l-281 -371h285v-80h-436zM203 -197v114h126v-114h-126z" />
    <glyph glyph-name="uni1EA0" unicode="&#x1ea0;" 
d="M31 0l260 723h132l260 -723h-123l-64 181h-276l-66 -181h-123zM248 290h218l-108 315zM294 -197v114h126v-114h-126z" />
    <glyph glyph-name="uni1EA1" unicode="&#x1ea1;" horiz-adv-x="554" 
d="M212 -10q-77 0 -125 41t-48 113q0 86 62.5 129.5t196.5 44.5l77 2v35q0 42 -26.5 65t-73.5 22q-40 0 -71 -19t-41 -56h-103q4 74 64 117t156 43q107 0 159.5 -43.5t52.5 -121.5v-362h-102l-10 90q-49 -100 -168 -100zM251 73q46 0 85 30.5t39 67.5v82l-63 -1
q-156 -2 -156 -96q0 -38 26.5 -60.5t68.5 -22.5zM217 -197v114h126v-114h-126z" />
    <glyph glyph-name="uni1EA2" unicode="&#x1ea2;" 
d="M288 960l31 -48q19 13 39 12t30 -16q22 -34 -26 -65l32 -48q48 29 60 67.5t-15 79.5q-22 34 -64 40t-87 -22zM31 0l260 723h132l260 -723h-123l-64 181h-276l-66 -181h-123zM248 290h218l-108 315z" />
    <glyph glyph-name="uni1EA3" unicode="&#x1ea3;" horiz-adv-x="554" 
d="M211 754l31 -48q19 13 39 12t30 -16q22 -34 -26 -65l32 -48q48 29 60 67.5t-15 79.5q-22 34 -64 40t-87 -22zM212 -10q-77 0 -125 41t-48 113q0 86 62.5 129.5t196.5 44.5l77 2v35q0 42 -26.5 65t-73.5 22q-40 0 -71 -19t-41 -56h-103q4 74 64 117t156 43
q107 0 159.5 -43.5t52.5 -121.5v-362h-102l-10 90q-49 -100 -168 -100zM251 73q46 0 85 30.5t39 67.5v82l-63 -1q-156 -2 -156 -96q0 -38 26.5 -60.5t68.5 -22.5z" />
    <glyph glyph-name="uni1EA4" unicode="&#x1ea4;" 
d="M467 1123l28 -84l-259 -72l-19 56zM424 809l-67 71l-75 -71h-96l129 125h85l126 -125h-102zM31 0l260 723h132l260 -723h-123l-64 181h-276l-66 -181h-123zM248 290h218l-108 315z" />
    <glyph glyph-name="uni1EA5" unicode="&#x1ea5;" horiz-adv-x="554" 
d="M391 917l28 -84l-259 -72l-19 56zM348 603l-67 71l-75 -71h-96l129 125h85l126 -125h-102zM212 -10q-77 0 -125 41t-48 113q0 86 62.5 129.5t196.5 44.5l77 2v35q0 42 -26.5 65t-73.5 22q-40 0 -71 -19t-41 -56h-103q4 74 64 117t156 43q107 0 159.5 -43.5t52.5 -121.5
v-362h-102l-10 90q-49 -100 -168 -100zM251 73q46 0 85 30.5t39 67.5v82l-63 -1q-156 -2 -156 -96q0 -38 26.5 -60.5t68.5 -22.5z" />
    <glyph glyph-name="uni1EA6" unicode="&#x1ea6;" 
d="M250 1117l248 -100l-18 -56l-259 72zM424 809l-67 71l-75 -71h-96l129 125h85l126 -125h-102zM31 0l260 723h132l260 -723h-123l-64 181h-276l-66 -181h-123zM248 290h218l-108 315z" />
    <glyph glyph-name="uni1EA7" unicode="&#x1ea7;" horiz-adv-x="554" 
d="M174 911l248 -100l-18 -56l-259 72zM348 603l-67 71l-75 -71h-96l129 125h85l126 -125h-102zM212 -10q-77 0 -125 41t-48 113q0 86 62.5 129.5t196.5 44.5l77 2v35q0 42 -26.5 65t-73.5 22q-40 0 -71 -19t-41 -56h-103q4 74 64 117t156 43q107 0 159.5 -43.5t52.5 -121.5
v-362h-102l-10 90q-49 -100 -168 -100zM251 73q46 0 85 30.5t39 67.5v82l-63 -1q-156 -2 -156 -96q0 -38 26.5 -60.5t68.5 -22.5z" />
    <glyph glyph-name="uni1EA8" unicode="&#x1ea8;" 
d="M384 1076l31 -48q19 13 39 12t30 -16q21 -33 -26 -65l31 -48q48 28 60 67.5t-14 79.5q-22 34 -64.5 40t-86.5 -22zM424 809l-67 71l-75 -71h-96l129 125h85l126 -125h-102zM31 0l260 723h132l260 -723h-123l-64 181h-276l-66 -181h-123zM248 290h218l-108 315z" />
    <glyph glyph-name="uni1EA9" unicode="&#x1ea9;" horiz-adv-x="554" 
d="M308 870l31 -48q19 13 39 12t30 -16q21 -33 -26 -65l31 -48q48 28 60 67.5t-14 79.5q-22 34 -64.5 40t-86.5 -22zM348 603l-67 71l-75 -71h-96l129 125h85l126 -125h-102zM212 -10q-77 0 -125 41t-48 113q0 86 62.5 129.5t196.5 44.5l77 2v35q0 42 -26.5 65t-73.5 22
q-40 0 -71 -19t-41 -56h-103q4 74 64 117t156 43q107 0 159.5 -43.5t52.5 -121.5v-362h-102l-10 90q-49 -100 -168 -100zM251 73q46 0 85 30.5t39 67.5v82l-63 -1q-156 -2 -156 -96q0 -38 26.5 -60.5t68.5 -22.5z" />
    <glyph glyph-name="uni1EAA" unicode="&#x1eaa;" 
d="M519 1009q-39 -33 -94 -33q-28 0 -70 13.5t-66 13.5q-37 0 -75 -30l-20 60q44 42 91 42q27 0 72.5 -14.5t67.5 -14.5q37 0 77 32zM425 809l-67 71l-75 -71h-96l129 125h85l126 -125h-102zM31 0l260 723h132l260 -723h-123l-64 181h-276l-66 -181h-123zM248 290h218
l-108 315z" />
    <glyph glyph-name="uni1EAB" unicode="&#x1eab;" horiz-adv-x="554" 
d="M443 803q-39 -33 -94 -33q-28 0 -70 13.5t-66 13.5q-37 0 -75 -30l-20 60q44 42 91 42q28 0 73.5 -14.5t66.5 -14.5q37 0 77 32zM349 603l-67 71l-75 -71h-96l129 125h85l126 -125h-102zM212 -10q-77 0 -125 41t-48 113q0 86 62.5 129.5t196.5 44.5l77 2v35
q0 42 -26.5 65t-73.5 22q-40 0 -71 -19t-41 -56h-103q4 74 64 117t156 43q107 0 159.5 -43.5t52.5 -121.5v-362h-102l-10 90q-49 -100 -168 -100zM251 73q46 0 85 30.5t39 67.5v82l-63 -1q-156 -2 -156 -96q0 -38 26.5 -60.5t68.5 -22.5z" />
    <glyph glyph-name="uni1EAC" unicode="&#x1eac;" 
d="M424 809l-67 71l-75 -71h-96l129 125h85l126 -125h-102zM31 0l260 723h132l260 -723h-123l-64 181h-276l-66 -181h-123zM248 290h218l-108 315zM294 -197v114h126v-114h-126z" />
    <glyph glyph-name="uni1EAD" unicode="&#x1ead;" horiz-adv-x="554" 
d="M348 603l-67 71l-75 -71h-96l129 125h85l126 -125h-102zM212 -10q-77 0 -125 41t-48 113q0 86 62.5 129.5t196.5 44.5l77 2v35q0 42 -26.5 65t-73.5 22q-40 0 -71 -19t-41 -56h-103q4 74 64 117t156 43q107 0 159.5 -43.5t52.5 -121.5v-362h-102l-10 90
q-49 -100 -168 -100zM251 73q46 0 85 30.5t39 67.5v82l-63 -1q-156 -2 -156 -96q0 -38 26.5 -60.5t68.5 -22.5zM217 -197v114h126v-114h-126z" />
    <glyph glyph-name="uni1EAE" unicode="&#x1eae;" 
d="M469 1122l28 -84l-259 -72l-19 56zM524 928q-15 -52 -59.5 -85.5t-105.5 -33.5q-62 0 -105.5 32t-58.5 87h78q32 -54 86 -54t86 54h79zM31 0l260 723h132l260 -723h-123l-64 181h-276l-66 -181h-123zM248 290h218l-108 315z" />
    <glyph glyph-name="uni1EAF" unicode="&#x1eaf;" horiz-adv-x="554" 
d="M393 916l28 -84l-259 -72l-19 56zM448 722q-15 -52 -59.5 -85.5t-105.5 -33.5q-62 0 -105.5 32t-58.5 87h78q32 -54 86 -54t86 54h79zM212 -10q-77 0 -125 41t-48 113q0 86 62.5 129.5t196.5 44.5l77 2v35q0 42 -26.5 65t-73.5 22q-40 0 -71 -19t-41 -56h-103
q4 74 64 117t156 43q107 0 159.5 -43.5t52.5 -121.5v-362h-102l-10 90q-49 -100 -168 -100zM251 73q46 0 85 30.5t39 67.5v82l-63 -1q-156 -2 -156 -96q0 -38 26.5 -60.5t68.5 -22.5z" />
    <glyph glyph-name="uni1EB0" unicode="&#x1eb0;" 
d="M252 1116l248 -100l-18 -56l-259 72zM524 928q-15 -52 -59.5 -85.5t-105.5 -33.5q-62 0 -105.5 32t-58.5 87h78q32 -54 86 -54t86 54h79zM31 0l260 723h132l260 -723h-123l-64 181h-276l-66 -181h-123zM248 290h218l-108 315z" />
    <glyph glyph-name="uni1EB1" unicode="&#x1eb1;" horiz-adv-x="554" 
d="M176 910l248 -100l-18 -56l-259 72zM448 722q-15 -52 -59.5 -85.5t-105.5 -33.5q-62 0 -105.5 32t-58.5 87h78q32 -54 86 -54t86 54h79zM212 -10q-77 0 -125 41t-48 113q0 86 62.5 129.5t196.5 44.5l77 2v35q0 42 -26.5 65t-73.5 22q-40 0 -71 -19t-41 -56h-103
q4 74 64 117t156 43q107 0 159.5 -43.5t52.5 -121.5v-362h-102l-10 90q-49 -100 -168 -100zM251 73q46 0 85 30.5t39 67.5v82l-63 -1q-156 -2 -156 -96q0 -38 26.5 -60.5t68.5 -22.5z" />
    <glyph glyph-name="uni1EB2" unicode="&#x1eb2;" 
d="M302 1101l31 -48q18 12 39 11.5t30 -15.5q21 -35 -26 -65l32 -48q47 29 59 67.5t-14 79.5q-22 34 -64 39.5t-87 -21.5zM524 928q-15 -52 -59.5 -85.5t-105.5 -33.5q-62 0 -105.5 32t-58.5 87h78q32 -54 86 -54t86 54h79zM31 0l260 723h132l260 -723h-123l-64 181h-276
l-66 -181h-123zM248 290h218l-108 315z" />
    <glyph glyph-name="uni1EB3" unicode="&#x1eb3;" horiz-adv-x="554" 
d="M226 895l31 -48q18 12 39 11.5t30 -15.5q21 -35 -26 -65l32 -48q47 29 59 67.5t-14 79.5q-22 34 -64 39.5t-87 -21.5zM448 722q-15 -52 -59.5 -85.5t-105.5 -33.5q-62 0 -105.5 32t-58.5 87h78q32 -54 86 -54t86 54h79zM212 -10q-77 0 -125 41t-48 113q0 86 62.5 129.5
t196.5 44.5l77 2v35q0 42 -26.5 65t-73.5 22q-40 0 -71 -19t-41 -56h-103q4 74 64 117t156 43q107 0 159.5 -43.5t52.5 -121.5v-362h-102l-10 90q-49 -100 -168 -100zM251 73q46 0 85 30.5t39 67.5v82l-63 -1q-156 -2 -156 -96q0 -38 26.5 -60.5t68.5 -22.5z" />
    <glyph glyph-name="uni1EB4" unicode="&#x1eb4;" 
d="M520 1008q-39 -33 -94 -33q-28 0 -70 13.5t-66 13.5q-37 0 -75 -30l-20 60q44 42 91 42q28 0 73 -14.5t67 -14.5q37 0 77 32zM524 928q-15 -52 -59.5 -85.5t-105.5 -33.5q-62 0 -105.5 32t-58.5 87h78q32 -54 86 -54t86 54h79zM31 0l260 723h132l260 -723h-123l-64 181
h-276l-66 -181h-123zM248 290h218l-108 315z" />
    <glyph glyph-name="uni1EB5" unicode="&#x1eb5;" horiz-adv-x="554" 
d="M444 802q-39 -33 -94 -33q-28 0 -70 13.5t-66 13.5q-37 0 -75 -30l-20 60q44 42 91 42q28 0 73 -14.5t67 -14.5q37 0 77 32zM448 722q-15 -52 -59.5 -85.5t-105.5 -33.5q-62 0 -105.5 32t-58.5 87h78q32 -54 86 -54t86 54h79zM212 -10q-77 0 -125 41t-48 113
q0 86 62.5 129.5t196.5 44.5l77 2v35q0 42 -26.5 65t-73.5 22q-40 0 -71 -19t-41 -56h-103q4 74 64 117t156 43q107 0 159.5 -43.5t52.5 -121.5v-362h-102l-10 90q-49 -100 -168 -100zM251 73q46 0 85 30.5t39 67.5v82l-63 -1q-156 -2 -156 -96q0 -38 26.5 -60.5t68.5 -22.5
z" />
    <glyph glyph-name="uni1EB6" unicode="&#x1eb6;" 
d="M524 928q-15 -52 -59.5 -85.5t-105.5 -33.5q-62 0 -105.5 32t-58.5 87h78q32 -54 86 -54t86 54h79zM31 0l260 723h132l260 -723h-123l-64 181h-276l-66 -181h-123zM248 290h218l-108 315zM294 -197v114h126v-114h-126z" />
    <glyph glyph-name="uni1EB7" unicode="&#x1eb7;" horiz-adv-x="554" 
d="M448 722q-15 -52 -59.5 -85.5t-105.5 -33.5q-62 0 -105.5 32t-58.5 87h78q32 -54 86 -54t86 54h79zM212 -10q-77 0 -125 41t-48 113q0 86 62.5 129.5t196.5 44.5l77 2v35q0 42 -26.5 65t-73.5 22q-40 0 -71 -19t-41 -56h-103q4 74 64 117t156 43q107 0 159.5 -43.5
t52.5 -121.5v-362h-102l-10 90q-49 -100 -168 -100zM251 73q46 0 85 30.5t39 67.5v82l-63 -1q-156 -2 -156 -96q0 -38 26.5 -60.5t68.5 -22.5zM217 -197v114h126v-114h-126z" />
    <glyph glyph-name="uni1EB8" unicode="&#x1eb8;" horiz-adv-x="634" 
d="M86 0v723h479l-1 -104h-355v-203h314v-103h-315v-207l364 -1v-105h-486zM276 -197v114h126v-114h-126z" />
    <glyph glyph-name="uni1EB9" unicode="&#x1eb9;" horiz-adv-x="556" 
d="M160 230q0 -68 33 -108.5t94 -40.5q90 0 116 77h111q-16 -79 -79 -123.5t-145 -44.5q-113 0 -182 71t-69 192q0 122 65.5 198t178.5 76q112 0 172.5 -70t60.5 -190v-37h-356zM160 306h242q0 59 -31 96t-89 37q-57 0 -89.5 -40t-32.5 -93zM221 -197v114h126v-114h-126z
" />
    <glyph glyph-name="uni1EBA" unicode="&#x1eba;" horiz-adv-x="634" 
d="M257 960l31 -48q19 13 39 12t30 -16q22 -34 -26 -65l32 -48q48 29 60 67.5t-15 79.5q-22 34 -64 40t-87 -22zM86 0v723h479l-1 -104h-355v-203h314v-103h-315v-207l364 -1v-105h-486z" />
    <glyph glyph-name="uni1EBB" unicode="&#x1ebb;" horiz-adv-x="556" 
d="M214 754l31 -48q19 13 39 12t30 -16q22 -34 -26 -65l32 -48q48 29 60 67.5t-15 79.5q-22 34 -64 40t-87 -22zM160 230q0 -68 33 -108.5t94 -40.5q90 0 116 77h111q-16 -79 -79 -123.5t-145 -44.5q-113 0 -182 71t-69 192q0 122 65.5 198t178.5 76q112 0 172.5 -70
t60.5 -190v-37h-356zM160 306h242q0 59 -31 96t-89 37q-57 0 -89.5 -40t-32.5 -93z" />
    <glyph glyph-name="uni1EBC" unicode="&#x1ebc;" horiz-adv-x="634" 
d="M492 862q-41 -33 -95 -33q-28 0 -70 13.5t-66 13.5q-36 0 -74 -30l-20 60q42 42 90 42q28 0 73.5 -14.5t66.5 -14.5q36 0 77 31zM86 0v723h479l-1 -104h-355v-203h314v-103h-315v-207l364 -1v-105h-486z" />
    <glyph glyph-name="uni1EBD" unicode="&#x1ebd;" horiz-adv-x="556" 
d="M448 656q-41 -33 -95 -33q-28 0 -70 13.5t-66 13.5q-36 0 -74 -30l-20 60q42 42 90 42q28 0 73.5 -14.5t66.5 -14.5q36 0 77 31zM160 230q0 -68 33 -108.5t94 -40.5q90 0 116 77h111q-16 -79 -79 -123.5t-145 -44.5q-113 0 -182 71t-69 192q0 122 65.5 198t178.5 76
q112 0 172.5 -70t60.5 -190v-37h-356zM160 306h242q0 59 -31 96t-89 37q-57 0 -89.5 -40t-32.5 -93z" />
    <glyph glyph-name="uni1EBE" unicode="&#x1ebe;" horiz-adv-x="634" 
d="M437 1123l28 -84l-259 -72l-19 56zM394 809l-67 71l-75 -71h-96l129 125h85l126 -125h-102zM86 0v723h479l-1 -104h-355v-203h314v-103h-315v-207l364 -1v-105h-486z" />
    <glyph glyph-name="uni1EBF" unicode="&#x1ebf;" horiz-adv-x="556" 
d="M393 917l28 -84l-259 -72l-19 56zM350 603l-67 71l-75 -71h-96l129 125h85l126 -125h-102zM160 230q0 -68 33 -108.5t94 -40.5q90 0 116 77h111q-16 -79 -79 -123.5t-145 -44.5q-113 0 -182 71t-69 192q0 122 65.5 198t178.5 76q112 0 172.5 -70t60.5 -190v-37h-356z
M160 306h242q0 59 -31 96t-89 37q-57 0 -89.5 -40t-32.5 -93z" />
    <glyph glyph-name="uni1EC0" unicode="&#x1ec0;" horiz-adv-x="634" 
d="M220 1117l248 -100l-18 -56l-259 72zM394 809l-67 71l-75 -71h-96l129 125h85l126 -125h-102zM86 0v723h479l-1 -104h-355v-203h314v-103h-315v-207l364 -1v-105h-486z" />
    <glyph glyph-name="uni1EC1" unicode="&#x1ec1;" horiz-adv-x="556" 
d="M176 911l248 -100l-18 -56l-259 72zM350 603l-67 71l-75 -71h-96l129 125h85l126 -125h-102zM160 230q0 -68 33 -108.5t94 -40.5q90 0 116 77h111q-16 -79 -79 -123.5t-145 -44.5q-113 0 -182 71t-69 192q0 122 65.5 198t178.5 76q112 0 172.5 -70t60.5 -190v-37h-356z
M160 306h242q0 59 -31 96t-89 37q-57 0 -89.5 -40t-32.5 -93z" />
    <glyph glyph-name="uni1EC2" unicode="&#x1ec2;" horiz-adv-x="634" 
d="M354 1076l31 -48q19 13 39 12t30 -16q21 -33 -26 -65l31 -48q48 28 60 67.5t-14 79.5q-22 34 -64.5 40t-86.5 -22zM394 809l-67 71l-75 -71h-96l129 125h85l126 -125h-102zM86 0v723h479l-1 -104h-355v-203h314v-103h-315v-207l364 -1v-105h-486z" />
    <glyph glyph-name="uni1EC3" unicode="&#x1ec3;" horiz-adv-x="556" 
d="M310 870l31 -48q19 13 39 12t30 -16q21 -33 -26 -65l31 -48q48 28 60 67.5t-14 79.5q-22 34 -64.5 40t-86.5 -22zM350 603l-67 71l-75 -71h-96l129 125h85l126 -125h-102zM160 230q0 -68 33 -108.5t94 -40.5q90 0 116 77h111q-16 -79 -79 -123.5t-145 -44.5
q-113 0 -182 71t-69 192q0 122 65.5 198t178.5 76q112 0 172.5 -70t60.5 -190v-37h-356zM160 306h242q0 59 -31 96t-89 37q-57 0 -89.5 -40t-32.5 -93z" />
    <glyph glyph-name="uni1EC4" unicode="&#x1ec4;" horiz-adv-x="634" 
d="M489 1009q-39 -33 -94 -33q-28 0 -70 13.5t-66 13.5q-37 0 -75 -30l-20 60q44 42 91 42q27 0 73 -14.5t67 -14.5q37 0 77 32zM395 809l-67 71l-75 -71h-96l129 125h85l126 -125h-102zM86 0v723h479l-1 -104h-355v-203h314v-103h-315v-207l364 -1v-105h-486z" />
    <glyph glyph-name="uni1EC5" unicode="&#x1ec5;" horiz-adv-x="556" 
d="M445 803q-39 -33 -94 -33q-28 0 -70 13.5t-66 13.5q-37 0 -75 -30l-20 60q44 42 91 42q27 0 73 -14.5t67 -14.5q37 0 77 32zM351 603l-67 71l-75 -71h-96l129 125h85l126 -125h-102zM160 230q0 -68 33 -108.5t94 -40.5q90 0 116 77h111q-16 -79 -79 -123.5t-145 -44.5
q-113 0 -182 71t-69 192q0 122 65.5 198t178.5 76q112 0 172.5 -70t60.5 -190v-37h-356zM160 306h242q0 59 -31 96t-89 37q-57 0 -89.5 -40t-32.5 -93z" />
    <glyph glyph-name="uni1EC6" unicode="&#x1ec6;" horiz-adv-x="634" 
d="M394 809l-67 71l-75 -71h-96l129 125h85l126 -125h-102zM86 0v723h479l-1 -104h-355v-203h314v-103h-315v-207l364 -1v-105h-486zM276 -197v114h126v-114h-126z" />
    <glyph glyph-name="uni1EC7" unicode="&#x1ec7;" horiz-adv-x="556" 
d="M350 603l-67 71l-75 -71h-96l129 125h85l126 -125h-102zM160 230q0 -68 33 -108.5t94 -40.5q90 0 116 77h111q-16 -79 -79 -123.5t-145 -44.5q-113 0 -182 71t-69 192q0 122 65.5 198t178.5 76q112 0 172.5 -70t60.5 -190v-37h-356zM160 306h242q0 59 -31 96t-89 37
q-57 0 -89.5 -40t-32.5 -93zM221 -197v114h126v-114h-126z" />
    <glyph glyph-name="uni1EC8" unicode="&#x1ec8;" horiz-adv-x="292" 
d="M78 960l31 -48q19 13 39 12t30 -16q22 -34 -26 -65l32 -48q48 29 60 67.5t-15 79.5q-22 34 -64 40t-87 -22zM86 723h122v-723h-122v723z" />
    <glyph glyph-name="uni1EC9" unicode="&#x1ec9;" horiz-adv-x="266" 
d="M66 754l31 -48q19 13 39 12t30 -16q22 -34 -26 -65l32 -48q48 29 60 67.5t-15 79.5q-22 34 -64 40t-87 -22zM195 517v-517h-122v517h122z" />
    <glyph glyph-name="uni1ECA" unicode="&#x1eca;" horiz-adv-x="292" 
d="M86 723h122v-723h-122v723zM91 -197v114h126v-114h-126z" />
    <glyph glyph-name="uni1ECB" unicode="&#x1ecb;" horiz-adv-x="271" 
d="M200 726v-115h-126v115h126zM198 517v-517h-122v517h122zM74 -197v114h126v-114h-126z" />
    <glyph glyph-name="uni1ECC" unicode="&#x1ecc;" horiz-adv-x="760" 
d="M381 -10q-151 0 -237.5 98t-86.5 271q0 175 87 274.5t237 99.5q149 0 236 -99.5t87 -273.5q0 -173 -86.5 -271.5t-236.5 -98.5zM382 92q189 0 189 266q0 273 -190 273q-91 0 -141 -67.5t-50 -205.5q0 -135 50 -200.5t142 -65.5zM319 -197v114h126v-114h-126z" />
    <glyph glyph-name="uni1ECD" unicode="&#x1ecd;" horiz-adv-x="566" 
d="M283 -10q-113 0 -178.5 73t-65.5 192q0 122 67 197t178 75q112 0 177.5 -75.5t65.5 -195.5q0 -119 -66 -192.5t-178 -73.5zM284 82q63 0 93 50.5t30 127.5t-30 126t-93 49q-64 0 -94.5 -49t-30.5 -126t31 -127.5t94 -50.5zM220 -197v114h126v-114h-126z" />
    <glyph glyph-name="uni1ECE" unicode="&#x1ece;" horiz-adv-x="760" 
d="M312 960l31 -48q19 13 39 12t30 -16q22 -34 -26 -65l32 -48q48 29 60 67.5t-15 79.5q-22 34 -64 40t-87 -22zM381 -10q-151 0 -237.5 98t-86.5 271q0 175 87 274.5t237 99.5q149 0 236 -99.5t87 -273.5q0 -173 -86.5 -271.5t-236.5 -98.5zM382 92q189 0 189 266
q0 273 -190 273q-91 0 -141 -67.5t-50 -205.5q0 -135 50 -200.5t142 -65.5z" />
    <glyph glyph-name="uni1ECF" unicode="&#x1ecf;" horiz-adv-x="566" 
d="M215 754l31 -48q19 13 39 12t30 -16q22 -34 -26 -65l32 -48q48 29 60 67.5t-15 79.5q-22 34 -64 40t-87 -22zM283 -10q-113 0 -178.5 73t-65.5 192q0 122 67 197t178 75q112 0 177.5 -75.5t65.5 -195.5q0 -119 -66 -192.5t-178 -73.5zM284 82q63 0 93 50.5t30 127.5
t-30 126t-93 49q-64 0 -94.5 -49t-30.5 -126t31 -127.5t94 -50.5z" />
    <glyph glyph-name="uni1ED0" unicode="&#x1ed0;" horiz-adv-x="760" 
d="M491 1123l28 -84l-259 -72l-19 56zM448 809l-67 71l-75 -71h-96l129 125h85l126 -125h-102zM381 -10q-151 0 -237.5 98t-86.5 271q0 175 87 274.5t237 99.5q149 0 236 -99.5t87 -273.5q0 -173 -86.5 -271.5t-236.5 -98.5zM382 92q189 0 189 266q0 273 -190 273
q-91 0 -141 -67.5t-50 -205.5q0 -135 50 -200.5t142 -65.5z" />
    <glyph glyph-name="uni1ED1" unicode="&#x1ed1;" horiz-adv-x="566" 
d="M394 917l28 -84l-259 -72l-19 56zM351 603l-67 71l-75 -71h-96l129 125h85l126 -125h-102zM283 -10q-113 0 -178.5 73t-65.5 192q0 122 67 197t178 75q112 0 177.5 -75.5t65.5 -195.5q0 -119 -66 -192.5t-178 -73.5zM284 82q63 0 93 50.5t30 127.5t-30 126t-93 49
q-64 0 -94.5 -49t-30.5 -126t31 -127.5t94 -50.5z" />
    <glyph glyph-name="uni1ED2" unicode="&#x1ed2;" horiz-adv-x="760" 
d="M274 1117l248 -100l-18 -56l-259 72zM448 809l-67 71l-75 -71h-96l129 125h85l126 -125h-102zM381 -10q-151 0 -237.5 98t-86.5 271q0 175 87 274.5t237 99.5q149 0 236 -99.5t87 -273.5q0 -173 -86.5 -271.5t-236.5 -98.5zM382 92q189 0 189 266q0 273 -190 273
q-91 0 -141 -67.5t-50 -205.5q0 -135 50 -200.5t142 -65.5z" />
    <glyph glyph-name="uni1ED3" unicode="&#x1ed3;" horiz-adv-x="566" 
d="M177 911l248 -100l-18 -56l-259 72zM351 603l-67 71l-75 -71h-96l129 125h85l126 -125h-102zM283 -10q-113 0 -178.5 73t-65.5 192q0 122 67 197t178 75q112 0 177.5 -75.5t65.5 -195.5q0 -119 -66 -192.5t-178 -73.5zM284 82q63 0 93 50.5t30 127.5t-30 126t-93 49
q-64 0 -94.5 -49t-30.5 -126t31 -127.5t94 -50.5z" />
    <glyph glyph-name="uni1ED4" unicode="&#x1ed4;" horiz-adv-x="760" 
d="M408 1076l31 -48q19 13 39 12t30 -16q21 -33 -26 -65l31 -48q48 28 60 67.5t-14 79.5q-22 34 -64.5 40t-86.5 -22zM448 809l-67 71l-75 -71h-96l129 125h85l126 -125h-102zM381 -10q-151 0 -237.5 98t-86.5 271q0 175 87 274.5t237 99.5q149 0 236 -99.5t87 -273.5
q0 -173 -86.5 -271.5t-236.5 -98.5zM382 92q189 0 189 266q0 273 -190 273q-91 0 -141 -67.5t-50 -205.5q0 -135 50 -200.5t142 -65.5z" />
    <glyph glyph-name="uni1ED5" unicode="&#x1ed5;" horiz-adv-x="566" 
d="M311 870l31 -48q19 13 39 12t30 -16q21 -33 -26 -65l31 -48q48 28 60 67.5t-14 79.5q-22 34 -64.5 40t-86.5 -22zM351 603l-67 71l-75 -71h-96l129 125h85l126 -125h-102zM283 -10q-113 0 -178.5 73t-65.5 192q0 122 67 197t178 75q112 0 177.5 -75.5t65.5 -195.5
q0 -119 -66 -192.5t-178 -73.5zM284 82q63 0 93 50.5t30 127.5t-30 126t-93 49q-64 0 -94.5 -49t-30.5 -126t31 -127.5t94 -50.5z" />
    <glyph glyph-name="uni1ED6" unicode="&#x1ed6;" horiz-adv-x="760" 
d="M543 1009q-39 -33 -94 -33q-28 0 -70 13.5t-66 13.5q-37 0 -75 -30l-20 60q44 42 91 42q27 0 72.5 -14.5t67.5 -14.5q37 0 77 32zM449 809l-67 71l-75 -71h-96l129 125h85l126 -125h-102zM381 -10q-151 0 -237.5 98t-86.5 271q0 175 87 274.5t237 99.5q149 0 236 -99.5
t87 -273.5q0 -173 -86.5 -271.5t-236.5 -98.5zM382 92q189 0 189 266q0 273 -190 273q-91 0 -141 -67.5t-50 -205.5q0 -135 50 -200.5t142 -65.5z" />
    <glyph glyph-name="uni1ED7" unicode="&#x1ed7;" horiz-adv-x="566" 
d="M446 803q-39 -33 -94 -33q-28 0 -70 13.5t-66 13.5q-37 0 -75 -30l-20 60q44 42 91 42q28 0 73 -14.5t67 -14.5q37 0 77 32zM352 603l-67 71l-75 -71h-96l129 125h85l126 -125h-102zM283 -10q-113 0 -178.5 73t-65.5 192q0 122 67 197t178 75q112 0 177.5 -75.5
t65.5 -195.5q0 -119 -66 -192.5t-178 -73.5zM284 82q63 0 93 50.5t30 127.5t-30 126t-93 49q-64 0 -94.5 -49t-30.5 -126t31 -127.5t94 -50.5z" />
    <glyph glyph-name="uni1ED8" unicode="&#x1ed8;" horiz-adv-x="760" 
d="M448 809l-67 71l-75 -71h-96l129 125h85l126 -125h-102zM381 -10q-151 0 -237.5 98t-86.5 271q0 175 87 274.5t237 99.5q149 0 236 -99.5t87 -273.5q0 -173 -86.5 -271.5t-236.5 -98.5zM382 92q189 0 189 266q0 273 -190 273q-91 0 -141 -67.5t-50 -205.5
q0 -135 50 -200.5t142 -65.5zM319 -197v114h126v-114h-126z" />
    <glyph glyph-name="uni1ED9" unicode="&#x1ed9;" horiz-adv-x="566" 
d="M351 603l-67 71l-75 -71h-96l129 125h85l126 -125h-102zM283 -10q-113 0 -178.5 73t-65.5 192q0 122 67 197t178 75q112 0 177.5 -75.5t65.5 -195.5q0 -119 -66 -192.5t-178 -73.5zM284 82q63 0 93 50.5t30 127.5t-30 126t-93 49q-64 0 -94.5 -49t-30.5 -126t31 -127.5
t94 -50.5zM220 -197v114h126v-114h-126z" />
    <glyph glyph-name="uni1EDA" unicode="&#x1eda;" horiz-adv-x="813" 
d="M521 855l-259 -71l-19 55l250 100zM779 741q-1 -85 -28 -124.5t-93 -43.5q46 -89 46 -213q0 -173 -86.5 -271.5t-236.5 -98.5q-151 0 -237.5 98t-86.5 271q0 175 87 274.5t237 99.5q145 0 229 -92q45 0 61.5 17.5t21.5 82.5h86zM382 92q189 0 189 266q0 273 -190 273
q-91 0 -141 -67.5t-50 -205.5q0 -135 50 -200.5t142 -65.5z" />
    <glyph glyph-name="uni1EDB" unicode="&#x1edb;" horiz-adv-x="689" 
d="M424 649l-259 -71l-19 55l250 100zM651 511q-2 -88 -31.5 -128t-102.5 -41q10 -39 10 -86q0 -119 -66 -192.5t-178 -73.5q-113 0 -178.5 73t-65.5 192q0 122 67 197t178 75q142 0 206 -116q40 1 55 19t19 81h87zM284 82q63 0 93 50.5t30 127.5t-30 126t-93 49
q-64 0 -94.5 -49t-30.5 -126t31 -127.5t94 -50.5z" />
    <glyph glyph-name="uni1EDC" unicode="&#x1edc;" horiz-adv-x="813" 
d="M511 839l-18 -55l-259 71l29 84zM779 741q-1 -85 -28 -124.5t-93 -43.5q46 -89 46 -213q0 -173 -86.5 -271.5t-236.5 -98.5q-151 0 -237.5 98t-86.5 271q0 175 87 274.5t237 99.5q145 0 229 -92q45 0 61.5 17.5t21.5 82.5h86zM382 92q189 0 189 266q0 273 -190 273
q-91 0 -141 -67.5t-50 -205.5q0 -135 50 -200.5t142 -65.5z" />
    <glyph glyph-name="uni1EDD" unicode="&#x1edd;" horiz-adv-x="689" 
d="M414 633l-18 -55l-259 71l29 84zM651 511q-2 -88 -31.5 -128t-102.5 -41q10 -39 10 -86q0 -119 -66 -192.5t-178 -73.5q-113 0 -178.5 73t-65.5 192q0 122 67 197t178 75q142 0 206 -116q40 1 55 19t19 81h87zM284 82q63 0 93 50.5t30 127.5t-30 126t-93 49
q-64 0 -94.5 -49t-30.5 -126t31 -127.5t94 -50.5z" />
    <glyph glyph-name="uni1EDE" unicode="&#x1ede;" horiz-adv-x="813" 
d="M412 908q-10 15 -30 16t-39 -12l-31 48q45 28 87 22t64 -40q27 -41 15 -79.5t-60 -67.5l-32 48q48 31 26 65zM779 741q-1 -85 -28 -124.5t-93 -43.5q46 -89 46 -213q0 -173 -86.5 -271.5t-236.5 -98.5q-151 0 -237.5 98t-86.5 271q0 175 87 274.5t237 99.5q145 0 229 -92
q45 0 61.5 17.5t21.5 82.5h86zM382 92q189 0 189 266q0 273 -190 273q-91 0 -141 -67.5t-50 -205.5q0 -135 50 -200.5t142 -65.5z" />
    <glyph glyph-name="uni1EDF" unicode="&#x1edf;" horiz-adv-x="689" 
d="M315 702q-10 15 -30 16t-39 -12l-31 48q45 28 87 22t64 -40q27 -41 15 -79.5t-60 -67.5l-32 48q48 31 26 65zM651 511q-2 -88 -31.5 -128t-102.5 -41q10 -39 10 -86q0 -119 -66 -192.5t-178 -73.5q-113 0 -178.5 73t-65.5 192q0 122 67 197t178 75q142 0 206 -116
q40 1 55 19t19 81h87zM284 82q63 0 93 50.5t30 127.5t-30 126t-93 49q-64 0 -94.5 -49t-30.5 -126t31 -127.5t94 -50.5z" />
    <glyph glyph-name="uni1EE0" unicode="&#x1ee0;" horiz-adv-x="813" 
d="M315 856q-36 0 -74 -30l-20 60q42 42 90 42q28 0 73.5 -14.5t66.5 -14.5q36 0 77 31l18 -68q-41 -33 -95 -33q-28 0 -70 13.5t-66 13.5zM779 741q-1 -85 -28 -124.5t-93 -43.5q46 -89 46 -213q0 -173 -86.5 -271.5t-236.5 -98.5q-151 0 -237.5 98t-86.5 271
q0 175 87 274.5t237 99.5q145 0 229 -92q45 0 61.5 17.5t21.5 82.5h86zM382 92q189 0 189 266q0 273 -190 273q-91 0 -141 -67.5t-50 -205.5q0 -135 50 -200.5t142 -65.5z" />
    <glyph glyph-name="uni1EE1" unicode="&#x1ee1;" horiz-adv-x="689" 
d="M218 650q-36 0 -74 -30l-20 60q42 42 90 42q28 0 73.5 -14.5t66.5 -14.5q36 0 77 31l18 -68q-41 -33 -95 -33q-28 0 -70 13.5t-66 13.5zM651 511q-2 -88 -31.5 -128t-102.5 -41q10 -39 10 -86q0 -119 -66 -192.5t-178 -73.5q-113 0 -178.5 73t-65.5 192q0 122 67 197
t178 75q142 0 206 -116q40 1 55 19t19 81h87zM284 82q63 0 93 50.5t30 127.5t-30 126t-93 49q-64 0 -94.5 -49t-30.5 -126t31 -127.5t94 -50.5z" />
    <glyph glyph-name="uni1EE2" unicode="&#x1ee2;" horiz-adv-x="813" 
d="M779 741q-1 -85 -28 -124.5t-93 -43.5q46 -89 46 -213q0 -173 -86.5 -271.5t-236.5 -98.5q-151 0 -237.5 98t-86.5 271q0 175 87 274.5t237 99.5q145 0 229 -92q45 0 61.5 17.5t21.5 82.5h86zM382 92q189 0 189 266q0 273 -190 273q-91 0 -141 -67.5t-50 -205.5
q0 -135 50 -200.5t142 -65.5zM319 -197v114h126v-114h-126z" />
    <glyph glyph-name="uni1EE3" unicode="&#x1ee3;" horiz-adv-x="689" 
d="M651 511q-2 -88 -31.5 -128t-102.5 -41q10 -39 10 -86q0 -119 -66 -192.5t-178 -73.5q-113 0 -178.5 73t-65.5 192q0 122 67 197t178 75q142 0 206 -116q40 1 55 19t19 81h87zM284 82q63 0 93 50.5t30 127.5t-30 126t-93 49q-64 0 -94.5 -49t-30.5 -126t31 -127.5
t94 -50.5zM220 -197v114h126v-114h-126z" />
    <glyph glyph-name="uni1EE4" unicode="&#x1ee4;" horiz-adv-x="721" 
d="M642 264q0 -274 -278 -274q-146 0 -212 71.5t-66 209.5v452h125v-464q0 -83 40 -124t113 -41q74 0 115 41t41 124v464h122v-459zM301 -196v114h126v-114h-126z" />
    <glyph glyph-name="uni1EE5" unicode="&#x1ee5;" horiz-adv-x="591" 
d="M262 -10q-74 1 -133.5 45.5t-59.5 127.5v355h122v-341q0 -48 30.5 -72t72.5 -24q46 0 77 26.5t31 73.5v337h123l-3 -518h-93l-14 101q-12 -57 -56 -84t-97 -27zM233 -197v114h126v-114h-126z" />
    <glyph glyph-name="uni1EE6" unicode="&#x1ee6;" horiz-adv-x="721" 
d="M296 960l31 -48q19 13 39 12t30 -16q22 -34 -26 -65l32 -48q48 29 60 67.5t-15 79.5q-22 34 -64 40t-87 -22zM642 264q0 -274 -278 -274q-146 0 -212 71.5t-66 209.5v452h125v-464q0 -83 40 -124t113 -41q74 0 115 41t41 124v464h122v-459z" />
    <glyph glyph-name="uni1EE7" unicode="&#x1ee7;" horiz-adv-x="591" 
d="M227 754l31 -48q19 13 39 12t30 -16q22 -34 -26 -65l32 -48q48 29 60 67.5t-15 79.5q-22 34 -64 40t-87 -22zM262 -10q-74 1 -133.5 45.5t-59.5 127.5v355h122v-341q0 -48 30.5 -72t72.5 -24q46 0 77 26.5t31 73.5v337h123l-3 -518h-93l-14 101q-12 -57 -56 -84t-97 -27z
" />
    <glyph glyph-name="uni1EE8" unicode="&#x1ee8;" horiz-adv-x="844" 
d="M505 855l-259 -71l-19 55l250 100zM710 741h87q-2 -94 -36 -133.5t-119 -35.5v-308q0 -274 -278 -274q-146 0 -212 71.5t-66 209.5v452h125v-464q0 -83 40 -124t113 -41q74 0 115 41t41 124v464h122v-82q36 2 50 21t18 79z" />
    <glyph glyph-name="uni1EE9" unicode="&#x1ee9;" 
d="M436 649l-259 -71l-19 55l250 100zM594 557h87q-2 -95 -36.5 -134t-120.5 -35l-2 -388h-93l-14 101q-12 -57 -56 -84t-97 -27q-74 1 -133.5 45.5t-59.5 127.5v355h122v-341q0 -48 30.5 -72t72.5 -24q46 0 77 26.5t31 73.5v337h123v-61q37 2 51 20.5t18 79.5z" />
    <glyph glyph-name="uni1EEA" unicode="&#x1eea;" horiz-adv-x="844" 
d="M495 839l-18 -55l-259 71l29 84zM710 741h87q-2 -94 -36 -133.5t-119 -35.5v-308q0 -274 -278 -274q-146 0 -212 71.5t-66 209.5v452h125v-464q0 -83 40 -124t113 -41q74 0 115 41t41 124v464h122v-82q36 2 50 21t18 79z" />
    <glyph glyph-name="uni1EEB" unicode="&#x1eeb;" 
d="M426 633l-18 -55l-259 71l29 84zM594 557h87q-2 -95 -36.5 -134t-120.5 -35l-2 -388h-93l-14 101q-12 -57 -56 -84t-97 -27q-74 1 -133.5 45.5t-59.5 127.5v355h122v-341q0 -48 30.5 -72t72.5 -24q46 0 77 26.5t31 73.5v337h123v-61q37 2 51 20.5t18 79.5z" />
    <glyph glyph-name="uni1EEC" unicode="&#x1eec;" horiz-adv-x="844" 
d="M396 908q-10 15 -30 16t-39 -12l-31 48q45 28 87 22t64 -40q27 -41 15 -79.5t-60 -67.5l-32 48q48 31 26 65zM710 741h87q-2 -94 -36 -133.5t-119 -35.5v-308q0 -274 -278 -274q-146 0 -212 71.5t-66 209.5v452h125v-464q0 -83 40 -124t113 -41q74 0 115 41t41 124v464
h122v-82q36 2 50 21t18 79z" />
    <glyph glyph-name="uni1EED" unicode="&#x1eed;" 
d="M327 702q-10 15 -30 16t-39 -12l-31 48q45 28 87 22t64 -40q27 -41 15 -79.5t-60 -67.5l-32 48q48 31 26 65zM594 557h87q-2 -95 -36.5 -134t-120.5 -35l-2 -388h-93l-14 101q-12 -57 -56 -84t-97 -27q-74 1 -133.5 45.5t-59.5 127.5v355h122v-341q0 -48 30.5 -72
t72.5 -24q46 0 77 26.5t31 73.5v337h123v-61q37 2 51 20.5t18 79.5z" />
    <glyph glyph-name="uni1EEE" unicode="&#x1eee;" horiz-adv-x="844" 
d="M299 856q-36 0 -74 -30l-20 60q42 42 90 42q28 0 73.5 -14.5t66.5 -14.5q36 0 77 31l18 -68q-41 -33 -95 -33q-28 0 -70 13.5t-66 13.5zM710 741h87q-2 -94 -36 -133.5t-119 -35.5v-308q0 -274 -278 -274q-146 0 -212 71.5t-66 209.5v452h125v-464q0 -83 40 -124t113 -41
q74 0 115 41t41 124v464h122v-82q36 2 50 21t18 79z" />
    <glyph glyph-name="uni1EEF" unicode="&#x1eef;" 
d="M230 650q-36 0 -74 -30l-20 60q42 42 90 42q28 0 73.5 -14.5t66.5 -14.5q36 0 77 31l18 -68q-41 -33 -95 -33q-28 0 -70 13.5t-66 13.5zM594 557h87q-2 -95 -36.5 -134t-120.5 -35l-2 -388h-93l-14 101q-12 -57 -56 -84t-97 -27q-74 1 -133.5 45.5t-59.5 127.5v355h122
v-341q0 -48 30.5 -72t72.5 -24q46 0 77 26.5t31 73.5v337h123v-61q37 2 51 20.5t18 79.5z" />
    <glyph glyph-name="uni1EF0" unicode="&#x1ef0;" horiz-adv-x="844" 
d="M710 741h87q-2 -94 -36 -133.5t-119 -35.5v-308q0 -274 -278 -274q-146 0 -212 71.5t-66 209.5v452h125v-464q0 -83 40 -124t113 -41q74 0 115 41t41 124v464h122v-82q36 2 50 21t18 79zM301 -196v114h126v-114h-126z" />
    <glyph glyph-name="uni1EF1" unicode="&#x1ef1;" 
d="M594 557h87q-2 -95 -36.5 -134t-120.5 -35l-2 -388h-93l-14 101q-12 -57 -56 -84t-97 -27q-74 1 -133.5 45.5t-59.5 127.5v355h122v-341q0 -48 30.5 -72t72.5 -24q46 0 77 26.5t31 73.5v337h123v-61q37 2 51 20.5t18 79.5zM233 -197v114h126v-114h-126z" />
    <glyph glyph-name="Ygrave" unicode="&#x1ef2;" horiz-adv-x="634" 
d="M211 940l248 -100l-18 -55l-259 71zM626 723l-248 -417v-306h-122v306l-249 417h133l178 -311l175 311h133z" />
    <glyph glyph-name="ygrave" unicode="&#x1ef3;" horiz-adv-x="553" 
d="M171 733l248 -100l-18 -55l-259 71zM137 -165q-29 0 -51 3.5t-30 7.5l-8 4v78l53 -1q38 -2 62.5 8.5t31 20t12.5 24.5l14 37l-202 500h121l137 -365l138 365h119l-214 -536q-34 -83 -77.5 -114.5t-105.5 -31.5z" />
    <glyph glyph-name="uni1EF4" unicode="&#x1ef4;" horiz-adv-x="634" 
d="M626 723l-248 -417v-306h-122v306l-249 417h133l178 -311l175 311h133zM255 -197v114h126v-114h-126z" />
    <glyph glyph-name="uni1EF5" unicode="&#x1ef5;" horiz-adv-x="553" 
d="M137 -165q-29 0 -51 3.5t-30 7.5l-8 4v78l53 -1q38 -2 62.5 8.5t31 20t12.5 24.5l14 37l-202 500h121l137 -365l138 365h119l-214 -536q-34 -83 -77.5 -114.5t-105.5 -31.5zM208 -305v115h126v-115h-126z" />
    <glyph glyph-name="uni1EF6" unicode="&#x1ef6;" horiz-adv-x="634" 
d="M261 961l31 -48q19 13 39 12t30 -16q22 -34 -26 -65l32 -48q48 29 60 67.5t-15 79.5q-22 34 -64 40t-87 -22zM626 723l-248 -417v-306h-122v306l-249 417h133l178 -311l175 311h133z" />
    <glyph glyph-name="uni1EF7" unicode="&#x1ef7;" horiz-adv-x="553" 
d="M220 754l31 -48q19 13 39 12t30 -16q22 -34 -26 -65l32 -48q48 29 60 67.5t-15 79.5q-22 34 -64 40t-87 -22zM137 -165q-29 0 -51 3.5t-30 7.5l-8 4v78l53 -1q38 -2 62.5 8.5t31 20t12.5 24.5l14 37l-202 500h121l137 -365l138 365h119l-214 -536q-34 -83 -77.5 -114.5
t-105.5 -31.5z" />
    <glyph glyph-name="uni1EF8" unicode="&#x1ef8;" horiz-adv-x="634" 
d="M495 863q-41 -33 -95 -33q-28 0 -70 13.5t-66 13.5q-36 0 -74 -30l-20 60q42 42 90 42q28 0 73.5 -14.5t66.5 -14.5q36 0 77 31zM626 723l-248 -417v-306h-122v306l-249 417h133l178 -311l175 311h133z" />
    <glyph glyph-name="uni1EF9" unicode="&#x1ef9;" horiz-adv-x="553" 
d="M455 656q-41 -33 -95 -33q-28 0 -70 13.5t-66 13.5q-36 0 -74 -30l-20 60q42 42 90 42q28 0 73.5 -14.5t66.5 -14.5q36 0 77 31zM137 -165q-29 0 -51 3.5t-30 7.5l-8 4v78l53 -1q38 -2 62.5 8.5t31 20t12.5 24.5l14 37l-202 500h121l137 -365l138 365h119l-214 -536
q-34 -83 -77.5 -114.5t-105.5 -31.5z" />
    <glyph glyph-name="endash" unicode="&#x2013;" horiz-adv-x="578" 
d="M513 295v-91h-453v91h453z" />
    <glyph glyph-name="emdash" unicode="&#x2014;" horiz-adv-x="894" 
d="M829 295v-91h-769v91h769z" />
    <glyph glyph-name="quoteleft" unicode="&#x2018;" horiz-adv-x="252" 
d="M188 754l-57 -131l47 -3v-127h-133v111l94 150h49z" />
    <glyph glyph-name="quoteright" unicode="&#x2019;" horiz-adv-x="238" 
d="M50 462l57 131l-47 4v126h132v-111l-93 -150h-49z" />
    <glyph glyph-name="quotesinglbase" unicode="&#x201a;" horiz-adv-x="261" 
d="M45 -132l57 130l-47 4v127h133v-112l-94 -149h-49z" />
    <glyph glyph-name="quotedblleft" unicode="&#x201c;" horiz-adv-x="452" 
d="M46 462v112l94 149h49l-57 -130l47 -4v-127h-133zM246 462v112l93 149h49l-57 -130l48 -4v-127h-133z" />
    <glyph glyph-name="quotedblright" unicode="&#x201d;" horiz-adv-x="437" 
d="M50 462l57 131l-47 4v126h132v-111l-93 -150h-49zM249 462l58 131l-48 4v126h133v-111l-94 -150h-49z" />
    <glyph glyph-name="quotedblbase" unicode="&#x201e;" horiz-adv-x="465" 
d="M45 -132l57 130l-47 4v127h133v-112l-94 -149h-49zM250 -132l56 130l-47 4v127h133v-112l-93 -149h-49z" />
    <glyph glyph-name="dagger" unicode="&#x2020;" horiz-adv-x="492" 
d="M463 484v-108l-183 17l24 -554h-120l23 554l-183 -17v108l178 -15l-19 254h121l-20 -254z" />
    <glyph glyph-name="daggerdbl" unicode="&#x2021;" horiz-adv-x="492" 
d="M281 382v-223l182 17v-109l-179 16l20 -244h-121l19 244l-178 -16v109l181 -17v223l-181 -17v108l178 -15l-19 265h121l-20 -265l179 15v-108z" />
    <glyph glyph-name="bullet" unicode="&#x2022;" horiz-adv-x="336" 
d="M164 255q-46 0 -79.5 33.5t-33.5 79.5t33.5 79.5t79.5 33.5t79.5 -33.5t33.5 -79.5t-33.5 -79.5t-79.5 -33.5z" />
    <glyph glyph-name="ellipsis" unicode="&#x2026;" horiz-adv-x="831" 
d="M205 140v-140h-137v140h137zM499 140v-140h-137v140h137zM793 140v-140h-138v140h138z" />
    <glyph glyph-name="perthousand" unicode="&#x2030;" horiz-adv-x="1330" 
d="M227 734q76 0 126.5 -58.5t50.5 -148.5t-50 -147t-127 -57t-127.5 57.5t-50.5 146.5q0 90 51 148.5t127 58.5zM760 731l-486 -735l-75 1l488 734h73zM226 387q43 0 65 37t22 103q0 67 -22.5 105t-64.5 38q-41 0 -63.5 -38.5t-22.5 -104.5q0 -65 22.5 -102.5t63.5 -37.5z
M692 402q76 0 126.5 -58.5t50.5 -148.5t-50 -147.5t-127 -57.5t-127.5 57.5t-50.5 147.5t51 148.5t127 58.5zM1100 402q75 0 125.5 -58.5t50.5 -148.5t-50 -147.5t-126 -57.5q-77 0 -127.5 57.5t-50.5 147.5t50.5 148.5t127.5 58.5zM691 55q41 0 63.5 37.5t22.5 101.5
q0 66 -22.5 105t-63.5 39q-40 0 -63 -39.5t-23 -104.5q0 -64 22.5 -101.5t63.5 -37.5zM1099 55q41 0 63 37.5t22 101.5q0 66 -22.5 105t-62.5 39q-41 0 -64 -39.5t-23 -104.5q0 -63 23 -101t64 -38z" />
    <glyph glyph-name="guilsinglleft" unicode="&#x2039;" horiz-adv-x="295" 
d="M146 251l90 -184h-66l-124 184l124 192h67z" />
    <glyph glyph-name="guilsinglright" unicode="&#x203a;" horiz-adv-x="294" 
d="M143 251l-90 192h66l124 -192l-124 -184h-65z" />
    <glyph glyph-name="fraction" unicode="&#x2044;" horiz-adv-x="257" 
d="M405 731l-486 -735l-75 1l488 734h73z" />
    <glyph glyph-name="uni2070" unicode="&#x2070;" horiz-adv-x="414" 
d="M182 844q78 0 123 -61t45 -174t-44.5 -172.5t-124.5 -59.5t-124.5 59.5t-44.5 172.5t45 174t125 61zM182 440q45 0 66 39.5t21 129.5q0 91 -21.5 132t-66.5 41q-88 0 -88 -173q0 -89 21.5 -129t67.5 -40z" />
    <glyph glyph-name="uni2074" unicode="&#x2074;" horiz-adv-x="417" 
d="M227 835h76v-282h72v-65h-72v-108h-74v108h-212v65zM89 553h139v187z" />
    <glyph glyph-name="uni2075" unicode="&#x2075;" horiz-adv-x="403" 
d="M70 835h283l-3 -64h-218l-10 -127q46 33 102 33q68 0 112.5 -39t44.5 -109q0 -72 -46.5 -113.5t-125.5 -41.5q-64 0 -114 30.5t-71 79.5l62 33q41 -81 116 -81q45 0 72 24.5t27 65.5q0 38 -27 63t-68 25q-50 0 -88 -37q-5 -2 -10 1l-59 23z" />
    <glyph glyph-name="uni2076" unicode="&#x2076;" horiz-adv-x="391" 
d="M206 848q63 0 107.5 -33.5t49.5 -91.5h-71q-17 64 -84 64q-54 0 -81 -45t-21 -125q14 28 44 44.5t66 16.5q69 0 110.5 -38.5t41.5 -103.5q0 -68 -46 -111t-120 -43q-83 0 -132 60.5t-49 164.5q0 112 49 176.5t136 64.5zM200 619q-33 0 -60.5 -21.5t-27.5 -49.5
q-1 -48 23.5 -77t64.5 -29q37 0 62 25t25 66t-23.5 63.5t-63.5 22.5z" />
    <glyph glyph-name="uni2077" unicode="&#x2077;" horiz-adv-x="369" 
d="M32 835h331v-64q-58 -75 -109.5 -196t-56.5 -195h-82q8 72 51 182t115 209h-249v64z" />
    <glyph glyph-name="uni2078" unicode="&#x2078;" horiz-adv-x="401" 
d="M195 846q70 0 114.5 -33.5t44.5 -92.5q0 -66 -69 -97q34 -7 61.5 -40t27.5 -71q0 -60 -49 -95.5t-130 -35.5t-129.5 35.5t-48.5 95.5q0 38 27.5 71t61.5 40q-70 31 -70 97q0 59 44.5 92.5t114.5 33.5zM195 654q37 0 59.5 18t22.5 50q0 33 -22.5 52t-59.5 19
q-36 0 -58.5 -19.5t-22.5 -51.5t22.5 -50t58.5 -18zM195 439q45 0 71 20.5t26 53.5q0 34 -26.5 55.5t-70.5 21.5t-70.5 -21.5t-26.5 -55.5q0 -33 26.5 -53.5t70.5 -20.5z" />
    <glyph glyph-name="uni2079" unicode="&#x2079;" horiz-adv-x="408" 
d="M180 382q-62 0 -107.5 34.5t-51.5 90.5h73q7 -29 29 -46.5t54 -17.5q57 0 87.5 42.5t24.5 130.5q-13 -31 -42.5 -49t-69.5 -18q-69 0 -112 39t-43 106q0 68 45 111t119 43q84 0 132.5 -60.5t48.5 -164.5q0 -117 -49 -179t-138 -62zM188 611q33 0 61 22t28 49
q0 49 -24.5 78t-64.5 29q-37 0 -60.5 -25.5t-23.5 -65.5t22.5 -63.5t61.5 -23.5z" />
    <glyph glyph-name="colonmonetary" unicode="&#x20a1;" horiz-adv-x="593" 
d="M298 182q42 0 70 27t35 65h101q-7 -67 -47 -112.5t-104 -61.5l-26 -99l-69 1l24 91q-35 2 -61 10l-26 -102l-69 1l33 129q-52 34 -80.5 93t-28.5 135q0 99 46.5 168.5t125.5 92.5l28 102l69 1l-24 -93q27 0 60 -7l27 99l69 1l-33 -128q77 -52 88 -152l-104 -1
q-10 42 -37.5 68t-68.5 26q-61 0 -96.5 -47t-35.5 -128q0 -82 36 -130.5t98 -48.5z" />
    <glyph glyph-name="franc" unicode="&#x20a3;" horiz-adv-x="617" 
d="M572 620h-357v-215h281v-101h-281v-108h155v-70h-155v-126h-138v125h-91v70h91v528h496z" />
    <glyph glyph-name="lira" unicode="&#x20a4;" horiz-adv-x="632" 
d="M588 160q-22 -78 -78.5 -119t-136.5 -41h-355v102h36q35 0 58 26t27 78q3 12 1 34q0 7 -8 7h-106v69h105l-13 77h-92v70h82l-4 36q-15 118 48 176t168 58q71 0 133.5 -35.5t87.5 -96.5l-107 -35q-31 68 -96 68q-43 0 -71 -26t-28 -71q0 -11 8 -63q2 -11 11 -11l145 1v-70
l-144 -1l11 -77l133 1v-70h-133q-6 -92 -60 -144h154q48 0 76.5 18.5t43.5 62.5z" />
    <glyph glyph-name="uni20A6" unicode="&#x20a6;" horiz-adv-x="759" 
d="M746 439h-40v-133h40v-64h-40v-242h-110l-165 242l-198 -1v-241h-122v241h-103v65h103v133h-103v64h103v220h119l151 -220h203v220h122v-220h40v-64zM233 530v-27h18zM233 306h153l-91 133h-62v-133zM584 306v133h-159l91 -133h68zM584 207v35h-24z" />
    <glyph glyph-name="uni20A9" unicode="&#x20a9;" horiz-adv-x="1089" 
d="M1074 501h-146l-25 -86h171v-70h-192l-101 -345h-103l-98 345h-96l-99 -345h-101l-101 345h-171v69h151l-25 87h-126v69h106l-45 153h121l43 -153h207l43 153h91l43 -152h209l43 152h120l-45 -152h126v-70zM256 501l24 -87h120l24 87h-168zM504 414l56 1l-25 86h-6z
M786 415l24 86h-169l24 -86h121zM340 201l41 144h-81zM726 201l41 144h-82z" />
    <glyph glyph-name="dong" unicode="&#x20ab;" horiz-adv-x="524" 
d="M445 664h61v-57h-61v-475h-101v56q-57 -64 -132 -64q-76 0 -124 56t-48 159q0 100 51.5 163t128.5 63q62 0 108 -44q14 -10 14 5v81h-122v57h122v59h103v-59zM340 271v180q-40 42 -87 42q-49 0 -77.5 -38t-28.5 -114q0 -75 28.5 -111.5t75.5 -36.5q38 0 63.5 24t25.5 54z
M65 0v62h382v-62h-382z" />
    <glyph glyph-name="Euro" unicode="&#x20ac;" horiz-adv-x="628" 
d="M523 152l66 -72q-85 -90 -206 -90q-113 0 -191 68.5t-104 188.5h-92v70h82q-2 32 -2 48q0 15 2 43h-82v70h91q26 120 103.5 187.5t190.5 67.5q126 0 207 -88l-84 -68q-59 57 -112 57q-131 0 -165 -156h181v-69h-190q-1 -15 -1 -45q0 -17 2 -47h189v-70h-179
q37 -152 169 -152q68 0 125 57z" />
    <glyph glyph-name="uni20B9" unicode="&#x20b9;" horiz-adv-x="616" 
d="M593 723v-64h-131q37 -35 47 -87h84v-64h-83q-8 -60 -45 -100t-90 -59q-7 -3 -4 -13l134 -336h-150l-117 326h-222v90h203q67 0 103 22t44 70h-349v64h348q-18 82 -133 82h-216v69h577z" />
    <glyph glyph-name="uni20BA" unicode="&#x20ba;" horiz-adv-x="616" 
d="M491 267l109 -24q-84 -243 -339 -243h-134v220l-77 -28l-24 69l101 37v84l-87 -32l-25 69l112 41v263h139v-212l127 46l26 -69l-153 -56v-84l137 50l25 -69l-162 -59v-167h41q124 3 184 164z" />
    <glyph glyph-name="uni2113" unicode="&#x2113;" horiz-adv-x="540" 
d="M227 198q0 -115 87 -115q49 0 92 36l-116 -129q-51 0 -86.5 14.5t-55 46.5t-26 47.5t-14.5 50.5q-2 7 -3 10q-1 5 -6 2l-46 -31l-31 69l81 60v234q0 118 54 179t144 61q79 0 117.5 -45t38.5 -118q0 -52 -18 -100t-57 -94.5t-69.5 -75.5t-85.5 -76v-26zM227 487v-161
q146 135 146 253q0 77 -64 77q-40 0 -61 -38t-21 -131zM406 119l45 51l-7 -9q-17 -23 -38 -42z" />
    <glyph glyph-name="uni2116" unicode="&#x2116;" horiz-adv-x="1165" 
d="M964 733q73 0 117 -47t44 -122q0 -74 -44 -120t-117 -46t-116.5 46t-43.5 120q0 75 44.5 122t115.5 47zM559 723h122v-723h-109l-364 530v-530h-122v723h120l353 -516v516zM964 676q-76 0 -76 -110q0 -112 76 -112q77 0 77 112q0 110 -77 110z" />
    <glyph glyph-name="uni2117" unicode="&#x2117;" horiz-adv-x="824" 
d="M409 -10q-154 0 -262.5 108.5t-108.5 263.5q0 153 108.5 262t262.5 109t263 -109t109 -262q0 -155 -109 -263.5t-263 -108.5zM409 63q127 0 210 82.5t83 216.5q0 133 -83.5 216.5t-209.5 83.5q-127 0 -209.5 -83t-82.5 -217q0 -135 82 -217t210 -82zM584 436
q0 -61 -38 -93t-102 -32h-91v-144h-81v387h164q66 0 107 -29.5t41 -88.5zM502 433q0 60 -70 60h-79v-122h82q30 0 48.5 16t18.5 46z" />
    <glyph glyph-name="uni2120" unicode="&#x2120;" horiz-adv-x="1004" 
d="M219 -6q-72 0 -125.5 33.5t-61.5 94.5l79 3q7 -34 36.5 -52t71.5 -18q44 0 73 17t29 47q0 52 -79 68l-84 18q-112 21 -112 117q-1 61 47.5 98.5t123.5 37.5q76 0 123.5 -39t53.5 -93l-77 -3q-11 73 -99 73q-39 0 -65 -18t-26 -48q0 -23 15.5 -36t55.5 -22l82 -18
q120 -24 120 -134q0 -54 -50 -90t-131 -36zM492 0v452h109l119 -345l119 345h109v-452h-78v354l-119 -354h-63l-118 352v-352h-78z" />
    <glyph glyph-name="trademark" unicode="&#x2122;" horiz-adv-x="936" 
d="M8 383v69h352v-69h-136v-383h-76v383h-140zM425 0v452h109l118 -345l120 345h108v-452h-77v354l-119 -354h-64l-118 352v-352h-77z" />
    <glyph glyph-name="uni2126" unicode="&#x2126;" horiz-adv-x="767" 
d="M385 650q-89 0 -141.5 -69t-52.5 -185q0 -184 161 -301v-95h-280v107h146q-28 23 -47 41.5t-51.5 59t-50.5 93t-18 112.5q0 137 91 238t243 101q79 0 143.5 -30t104 -78.5t61 -108t21.5 -121.5q0 -93 -39 -161t-131 -146h150v-107h-280v95q160 117 160 304
q0 113 -50.5 182t-139.5 69z" />
    <glyph glyph-name="uni2153" unicode="&#x2153;" horiz-adv-x="962" 
d="M90 276v350h-85v46q58 0 83 14.5t27 44.5h52v-455h-77zM708 731l-486 -735l-75 1l488 734h73zM589 315q0 68 47 105.5t119 37.5q76 0 122.5 -31t46.5 -89q0 -72 -85 -101q44 -12 70 -40.5t26 -72.5q0 -63 -51.5 -98.5t-130.5 -34.5q-77 0 -121.5 38t-46.5 104h75
q12 -79 94 -79q46 0 73 20t27 52q0 34 -28 53.5t-72 20.5l-43 1v63l39 1q41 1 66.5 21t25.5 49q0 27 -24 44.5t-64 17.5q-38 0 -63.5 -20t-27.5 -62h-74z" />
    <glyph glyph-name="uni2154" unicode="&#x2154;" horiz-adv-x="1054" 
d="M31 279v62q0 45 24.5 78.5t60 53.5t71 38t60 41.5t24.5 53.5q0 31 -22 50t-58 19q-39 0 -64.5 -22.5t-30.5 -62.5h-74q1 65 45.5 107.5t125.5 42.5q72 0 115 -37t43 -97q0 -38 -17.5 -67.5t-43.5 -46.5t-56.5 -33.5t-56.5 -29.5t-43.5 -33t-17.5 -45v-6h236v-66h-321z
M801 731l-486 -735l-75 1l488 734h73zM682 315q0 68 47 105.5t119 37.5q76 0 122.5 -31t46.5 -89q0 -72 -85 -101q44 -12 70 -40.5t26 -72.5q0 -63 -51.5 -98.5t-130.5 -34.5q-77 0 -121.5 38t-46.5 104h75q12 -79 94 -79q46 0 73 20t27 52q0 34 -28 53.5t-72 20.5l-43 1v63
l39 1q41 1 66.5 21t25.5 49q0 27 -24 44.5t-64 17.5q-38 0 -63.5 -20t-27.5 -62h-74z" />
    <glyph glyph-name="oneeighth" unicode="&#x215b;" horiz-adv-x="962" 
d="M90 276v350h-85v46q58 0 83 14.5t27 44.5h52v-455h-77zM708 731l-486 -735l-75 1l488 734h73zM755 458q70 0 114.5 -33.5t44.5 -92.5q0 -66 -69 -97q34 -7 61.5 -40t27.5 -71q0 -60 -49 -95.5t-130 -35.5t-129.5 35.5t-48.5 95.5q0 38 27.5 71t61.5 40q-70 31 -70 97
q0 59 44.5 92.5t114.5 33.5zM755 266q37 0 59.5 18t22.5 50q0 33 -22.5 52t-59.5 19q-36 0 -58.5 -19.5t-22.5 -51.5t22.5 -50t58.5 -18zM755 51q45 0 71 20.5t26 53.5q0 34 -26.5 55.5t-70.5 21.5t-70.5 -21.5t-26.5 -55.5q0 -33 26.5 -53.5t70.5 -20.5z" />
    <glyph glyph-name="threeeighths" unicode="&#x215c;" horiz-adv-x="1060" 
d="M29 597q0 68 47 105.5t119 37.5q76 0 122.5 -31t46.5 -89q0 -72 -85 -101q44 -12 70 -40.5t26 -72.5q0 -63 -51.5 -98.5t-130.5 -34.5q-77 0 -121.5 38t-46.5 104h75q12 -79 94 -79q46 0 73 20t27 52q0 34 -28 53.5t-72 20.5l-43 1v63l39 1q41 1 66.5 21t25.5 49
q0 27 -24 44.5t-64 17.5q-38 0 -63.5 -20t-27.5 -62h-74zM807 731l-486 -735l-75 1l488 734h73zM853 458q70 0 114.5 -33.5t44.5 -92.5q0 -66 -69 -97q34 -7 61.5 -40t27.5 -71q0 -60 -49 -95.5t-130 -35.5t-129.5 35.5t-48.5 95.5q0 38 27.5 71t61.5 40q-70 31 -70 97
q0 59 44.5 92.5t114.5 33.5zM853 266q37 0 59.5 18t22.5 50q0 33 -22.5 52t-59.5 19q-36 0 -58.5 -19.5t-22.5 -51.5t22.5 -50t58.5 -18zM853 51q45 0 71 20.5t26 53.5q0 34 -26.5 55.5t-70.5 21.5t-70.5 -21.5t-26.5 -55.5q0 -33 26.5 -53.5t70.5 -20.5z" />
    <glyph glyph-name="fiveeighths" unicode="&#x215d;" horiz-adv-x="1061" 
d="M70 731h283l-3 -64h-218l-10 -127q46 33 102 33q68 0 112.5 -39t44.5 -109q0 -72 -46.5 -113.5t-125.5 -41.5q-64 0 -114 30.5t-71 79.5l62 33q41 -81 116 -81q45 0 72 24.5t27 65.5q0 38 -27 63t-68 25q-50 0 -88 -37q-5 -2 -10 1l-59 23zM808 731l-486 -735l-75 1
l488 734h73zM854 458q70 0 114.5 -33.5t44.5 -92.5q0 -66 -69 -97q34 -7 61.5 -40t27.5 -71q0 -60 -49 -95.5t-130 -35.5t-129.5 35.5t-48.5 95.5q0 38 27.5 71t61.5 40q-70 31 -70 97q0 59 44.5 92.5t114.5 33.5zM854 266q37 0 59.5 18t22.5 50q0 33 -22.5 52t-59.5 19
q-36 0 -58.5 -19.5t-22.5 -51.5t22.5 -50t58.5 -18zM854 51q45 0 71 20.5t26 53.5q0 34 -26.5 55.5t-70.5 21.5t-70.5 -21.5t-26.5 -55.5q0 -33 26.5 -53.5t70.5 -20.5z" />
    <glyph glyph-name="seveneighths" unicode="&#x215e;" horiz-adv-x="1028" 
d="M774 731l-486 -735l-75 1l488 734h73zM32 730h331v-64q-58 -75 -109.5 -196t-56.5 -195h-82q8 72 51 182t115 209h-249v64zM821 458q70 0 114.5 -33.5t44.5 -92.5q0 -66 -69 -97q34 -7 61.5 -40t27.5 -71q0 -60 -49 -95.5t-130 -35.5t-129.5 35.5t-48.5 95.5
q0 38 27.5 71t61.5 40q-70 31 -70 97q0 59 44.5 92.5t114.5 33.5zM821 266q37 0 59.5 18t22.5 50q0 33 -22.5 52t-59.5 19q-36 0 -58.5 -19.5t-22.5 -51.5t22.5 -50t58.5 -18zM821 51q45 0 71 20.5t26 53.5q0 34 -26.5 55.5t-70.5 21.5t-70.5 -21.5t-26.5 -55.5
q0 -33 26.5 -53.5t70.5 -20.5z" />
    <glyph glyph-name="partialdiff" unicode="&#x2202;" horiz-adv-x="598" 
d="M105 593l-35 73q26 26 80.5 46.5t117.5 20.5q131 0 207 -94.5t76 -278.5q0 -174 -68.5 -272t-197.5 -98q-110 0 -175.5 66.5t-65.5 168.5q0 101 64 164t173 63q33 0 60 -7t41.5 -15.5t39.5 -24.5q15 -10 15 4q0 102 -49 166.5t-145 64.5q-69 0 -138 -47zM279 80h1
q59 0 99.5 52.5t48.5 138.5q2 23 -6 35q-18 25 -54 43t-74 18q-58 0 -94.5 -42t-36.5 -106q0 -61 33 -100t83 -39z" />
    <glyph glyph-name="emptyset" unicode="&#x2205;" horiz-adv-x="589" 
d="M535 541l-60 -56q37 -56 37 -121q0 -91 -64.5 -155t-154.5 -64q-75 0 -135 47l-68 -63l-44 46l69 63q-40 58 -40 126q0 90 63.5 154t154.5 64q79 0 140 -51l60 55zM135 364q0 -45 24 -85l230 211q-43 32 -96 32q-66 0 -112 -46.5t-46 -111.5zM452 364q0 42 -22 80
l-227 -211q39 -28 90 -28q66 0 112.5 46.5t46.5 112.5z" />
    <glyph glyph-name="uni2206" unicode="&#x2206;" horiz-adv-x="740" 
d="M17 0l358 723l348 -723h-706zM195 104h354l-174 385z" />
    <glyph glyph-name="product" unicode="&#x220f;" horiz-adv-x="679" 
d="M656 723v-102h-95v-621h-126v621h-197v-621h-127v621h-93v102h638z" />
    <glyph glyph-name="summation" unicode="&#x2211;" horiz-adv-x="552" 
d="M522 0h-494v76l211 283l-199 280v84h464v-100h-297l184 -251l-203 -268h334v-104z" />
    <glyph glyph-name="minus" unicode="&#x2212;" horiz-adv-x="573" 
d="M513 409v-91h-453v91h453z" />
    <glyph glyph-name="uni2219" unicode="&#x2219;" horiz-adv-x="338" 
d="M165 297q-29 0 -49.5 20.5t-20.5 49.5t20.5 49.5t49.5 20.5t49.5 -20.5t20.5 -49.5t-20.5 -49.5t-49.5 -20.5z" />
    <glyph glyph-name="radical" unicode="&#x221a;" horiz-adv-x="661" 
d="M661 826l-259 -987h-126l-157 429l-78 -29l-26 72l173 63l148 -417l221 869h104z" />
    <glyph glyph-name="infinity" unicode="&#x221e;" horiz-adv-x="765" 
d="M713 274v-1q0 -80 -48.5 -127.5t-119.5 -47.5q-35 0 -64.5 14.5t-46.5 30.5t-45 48q-6 6 -8.5 6.5t-8.5 -6.5q-1 -1 -14.5 -16t-25 -25t-30.5 -23.5t-43 -21t-50 -7.5q-67 0 -114.5 47.5t-47.5 122.5q0 77 48.5 124t124.5 47q27 0 48.5 -5.5t41.5 -20t31.5 -25.5
t33.5 -35q7 -8 11.5 -8t11.5 8q23 26 39 40.5t48.5 30t68.5 15.5q69 0 114 -45t45 -120zM216 178h2q30 0 58 21t47 48q9 12 8.5 18t-9.5 21q-51 75 -107 75q-38 0 -61.5 -25t-23.5 -65q0 -41 24.5 -67t61.5 -26zM549 361h-1q-49 0 -108 -72q-15 -19 0 -37q54 -74 112 -74
q36 0 57 28t21 64q0 37 -22.5 64t-58.5 27z" />
    <glyph glyph-name="integral" unicode="&#x222b;" horiz-adv-x="456" 
d="M151 607q0 113 45 171t131 58q69 0 113 -27l-26 -103q-40 21 -78 21q-72 0 -72 -105q0 -98 16.5 -291.5t16.5 -269.5q0 -115 -45.5 -174t-129.5 -59q-67 0 -112 27l28 103q39 -21 76 -21q70 0 70 106q0 96 -16.5 291.5t-16.5 272.5z" />
    <glyph glyph-name="approxequal" unicode="&#x2248;" horiz-adv-x="591" 
d="M532 455q-22 -36 -58.5 -57t-79.5 -21q-40 0 -97 28.5t-90 28.5q-24 0 -46 -10.5t-34.5 -22.5t-31.5 -32l-35 64q39 40 71.5 60t75.5 20q41 0 98 -28.5t87 -28.5q63 0 104 64zM532 251q-47 -79 -138 -79q-42 0 -98 28.5t-89 28.5q-55 0 -112 -65l-35 65q38 39 71 59
t76 20q41 0 98 -28.5t87 -28.5q63 0 104 64z" />
    <glyph glyph-name="notequal" unicode="&#x2260;" horiz-adv-x="573" 
d="M513 414h-178l-60 -135h238v-90l-277 -1l-63 -143h-65l63 143h-111v91h152l59 135h-211v91h252l60 136h62l-60 -136h139v-91z" />
    <glyph glyph-name="lessequal" unicode="&#x2264;" horiz-adv-x="573" 
d="M507 321v-108l-443 173v105l443 173v-108l-305 -118zM513 132v-90l-453 1v90z" />
    <glyph glyph-name="greaterequal" unicode="&#x2265;" horiz-adv-x="573" 
d="M66 321l306 117l-306 118v108l443 -173v-105l-443 -173v108zM60 132l453 1v-90l-453 -1v90z" />
    <glyph glyph-name="lozenge" unicode="&#x25ca;" horiz-adv-x="525" 
d="M310 0h-87l-169 362l174 361h87l170 -359zM270 632l-118 -267l118 -276l118 273z" />
    <glyph glyph-name="i.loclTRK" horiz-adv-x="266" 
d="M73 592v115h126v-115h-126zM195 517v-517h-122v517h122z" />
    <glyph glyph-name="g.ss01" horiz-adv-x="599" 
d="M532 70q0 -110 -69.5 -174t-181.5 -64q-93 0 -153 49t-68 108h114q7 -30 37 -48.5t69 -18.5q69 -1 104.5 35t35.5 87l1 49q-40 -74 -160 -74q-92 0 -156.5 70.5t-65.5 175.5q-1 67 23 125.5t75.5 97t120.5 38.5q52 0 94 -26t59 -56l1 72h118zM413 233l-1 81
q-1 46 -36.5 85.5t-83.5 39.5q-61 0 -95.5 -49t-34.5 -125q0 -67 37 -112t96 -45q63 0 91 35.5t27 89.5z" />
    <glyph glyph-name="l.ss01" horiz-adv-x="295" 
d="M86 0v743h122v-743h-122z" />
    <glyph glyph-name="zero.osf" horiz-adv-x="621" 
d="M311 734q125 0 196.5 -97t71.5 -277q0 -179 -70.5 -274t-197.5 -95q-128 0 -198.5 94.5t-70.5 273.5q0 180 71.5 277.5t197.5 97.5zM311 91q72 0 106 63t34 205q0 145 -34.5 210.5t-105.5 65.5t-106 -66t-35 -210q0 -141 34.5 -204.5t106.5 -63.5z" />
    <glyph glyph-name="one.osf" horiz-adv-x="413" 
d="M176 0v557h-134v72q92 0 131.5 23.5t43.5 70.5h83v-723h-124z" />
    <glyph glyph-name="two.osf" horiz-adv-x="625" 
d="M64 0v99q0 52 21 94.5t54.5 71t74 52.5t81 45t74 42.5t54.5 51t21 64.5q0 49 -34.5 79.5t-92.5 30.5q-62 0 -102.5 -35.5t-47.5 -100.5h-118q2 104 72.5 171.5t199.5 67.5q116 0 183.5 -58t67.5 -155q0 -71 -38.5 -123t-93 -82t-109.5 -56.5t-93.5 -61.5t-38.5 -82v-11
h374v-104h-509z" />
    <glyph glyph-name="three.osf" horiz-adv-x="633" 
d="M43 508q0 108 74.5 167.5t189.5 59.5q121 0 195 -49t74 -141q0 -116 -135 -162q69 -18 111 -63.5t42 -114.5q0 -100 -82 -157t-209 -56q-122 1 -193 61.5t-73 165.5h118q10 -63 50 -95t100 -32q73 0 116 32t43 84q0 54 -44.5 85t-114.5 32l-67 2v99l62 3q64 2 105 33.5
t41 77.5q0 43 -39 71t-102 28q-60 0 -100.5 -32.5t-43.5 -98.5h-118z" />
    <glyph glyph-name="four.osf" horiz-adv-x="630" 
d="M367 723h121v-448h115v-104h-115v-171h-118v171h-336v104zM148 275h222v297z" />
    <glyph glyph-name="five.osf" horiz-adv-x="658" 
d="M114 723h450l-5 -102h-346l-17 -201q74 52 163 52q109 0 179.5 -62.5t70.5 -173.5q0 -113 -74 -179.5t-199 -66.5q-103 0 -183 49t-112 127l99 52q64 -129 184 -129q71 0 113.5 39t42.5 104q0 61 -42.5 100t-107.5 39q-42 0 -73 -11.5t-68 -45.5q-7 -4 -15 0l-93 38z" />
    <glyph glyph-name="six.osf" horiz-adv-x="635" 
d="M336 737q99 0 169.5 -53.5t79.5 -145.5h-113q-14 48 -48.5 74.5t-85.5 26.5q-86 0 -128.5 -72t-33.5 -199q23 44 70.5 70.5t103.5 26.5q110 0 176.5 -61t66.5 -164q0 -108 -73 -176t-191 -68q-133 0 -210 95.5t-77 261.5q0 178 77.5 281t216.5 103zM326 371
q-53 0 -97 -34.5t-44 -76.5q0 -77 38.5 -123.5t102.5 -46.5q59 0 98 40.5t39 104.5q0 65 -37 100.5t-100 35.5z" />
    <glyph glyph-name="seven.osf" horiz-adv-x="593" 
d="M37 723h525v-102q-92 -120 -173.5 -311.5t-89.5 -309.5h-132q15 116 83 290t183 331h-396v102z" />
    <glyph glyph-name="eight.osf" horiz-adv-x="646" 
d="M323 734q111 0 181.5 -53t70.5 -147q0 -106 -109 -154q54 -11 97.5 -63.5t43.5 -113.5q0 -95 -77.5 -151.5t-206.5 -56.5t-206.5 56.5t-77.5 151.5q0 61 43.5 113.5t97.5 63.5q-110 49 -110 154q0 94 70.5 147t182.5 53zM323 429q59 0 94.5 28.5t35.5 79.5
q0 52 -36.5 82.5t-93.5 30.5q-58 0 -94 -31t-36 -82t35.5 -79.5t94.5 -28.5zM323 88q71 0 112.5 32t41.5 85q0 54 -42 88t-112 34t-112 -34t-42 -88q0 -53 41.5 -85t112.5 -32z" />
    <glyph glyph-name="nine.osf" horiz-adv-x="640" 
d="M300 -5q-100 0 -172.5 54.5t-80.5 143.5h116q11 -46 46 -73t86 -27q91 0 139 67.5t39 207.5q-21 -49 -68 -78t-110 -29q-111 0 -179 62.5t-68 167.5q0 109 71.5 177t189.5 68q133 0 210 -95.5t77 -261.5q0 -187 -77.5 -285.5t-218.5 -98.5zM312 360q53 0 97 34.5t44 77.5
q0 77 -38.5 123.5t-102.5 46.5q-59 0 -96 -40.5t-37 -104.5t35.5 -100.5t97.5 -36.5z" />
    <glyph glyph-name="zero.tf" horiz-adv-x="696" 
d="M344 734q125 0 196.5 -97t71.5 -277q0 -179 -71 -274t-198 -95t-198 95t-71 273q0 181 72 278t198 97zM343 91q72 0 106 63t34 205q0 145 -34.5 210.5t-105.5 65.5t-106 -66t-35 -210q0 -141 34.5 -204.5t106.5 -63.5z" />
    <glyph glyph-name="one.tf" horiz-adv-x="696" 
d="M416 104h196v-104h-525v104h210v488l-199 -66v108l263 89h55v-619z" />
    <glyph glyph-name="two.tf" horiz-adv-x="696" 
d="M108 0v99q0 52 21 94.5t54.5 71t74.5 52.5t81.5 45t74 42.5t54.5 51t21 64.5q0 49 -35 79.5t-92 30.5q-63 0 -103 -35.5t-47 -100.5h-118q2 104 72 171.5t200 67.5q115 0 183 -58.5t68 -154.5q0 -71 -38.5 -123t-93.5 -82t-109.5 -56.5t-93 -61.5t-38.5 -82v-11h374v-104
h-510z" />
    <glyph glyph-name="three.tf" horiz-adv-x="696" 
d="M78 506q0 107 75 167t189 60q121 0 195 -49.5t74 -141.5q0 -115 -135 -161q69 -19 111 -64.5t42 -113.5q0 -100 -82 -157t-209 -56q-122 1 -193 61t-73 165h118q10 -62 50 -94t101 -32q72 0 115 32t43 83q0 54 -44.5 85t-114.5 33l-67 2v99l62 3q64 1 105 33t41 78
q0 42 -39 70t-102 28q-60 0 -100 -32t-44 -98h-118z" />
    <glyph glyph-name="four.tf" horiz-adv-x="696" 
d="M396 723h121v-448h115v-104h-115v-171h-118v171h-336v104zM177 275h221v297z" />
    <glyph glyph-name="five.tf" horiz-adv-x="696" 
d="M143 723h450l-5 -102h-346l-17 -201q74 52 163 52q109 0 179.5 -62.5t70.5 -173.5q0 -113 -74 -179.5t-199 -66.5q-103 0 -183 49t-112 127l99 52q64 -129 184 -129q71 0 113.5 39t42.5 104q0 61 -42.5 100t-107.5 39q-42 0 -73 -11.5t-67 -45.5q-8 -4 -16 0l-93 38z" />
    <glyph glyph-name="six.tf" horiz-adv-x="696" 
d="M365 737q100 0 170.5 -53.5t78.5 -145.5h-112q-30 101 -134 101q-86 0 -129 -72t-33 -199q23 44 70 70.5t104 26.5q109 0 176 -61t67 -164q0 -108 -73 -176t-192 -68q-133 0 -210 95.5t-77 261.5q0 178 78 281t216 103zM355 371q-53 0 -96.5 -34.5t-43.5 -76.5
q-1 -77 38 -123.5t103 -46.5q59 0 98 40.5t39 104.5q0 65 -37 100.5t-101 35.5z" />
    <glyph glyph-name="seven.tf" horiz-adv-x="696" 
d="M67 723h569v-102q-102 -134 -198.5 -322t-104.5 -299h-134q12 98 97.5 276t208.5 345h-438v102z" />
    <glyph glyph-name="eight.tf" horiz-adv-x="696" 
d="M344 734q111 0 181.5 -53t70.5 -147q0 -106 -109 -154q54 -11 97.5 -63.5t43.5 -113.5q0 -95 -77.5 -151.5t-206.5 -56.5t-206.5 56.5t-77.5 151.5q0 61 43.5 113.5t97.5 63.5q-110 49 -110 154q0 94 71 147t182 53zM344 429q59 0 94.5 28.5t35.5 79.5q0 52 -36 82.5
t-94 30.5t-94 -31t-36 -82t35.5 -79.5t94.5 -28.5zM344 88q71 0 112.5 32t41.5 85q0 54 -42 88t-112 34t-112 -34t-42 -88q0 -53 42 -85t112 -32z" />
    <glyph glyph-name="nine.tf" horiz-adv-x="696" 
d="M335 -5q-100 0 -172.5 54.5t-80.5 143.5h116q11 -46 46 -73t86 -27q91 0 139 67.5t39 207.5q-21 -49 -68 -78t-110 -29q-111 0 -179 62.5t-68 167.5q0 109 71.5 177t189.5 68q133 0 210 -95.5t77 -261.5q0 -187 -77.5 -285.5t-218.5 -98.5zM347 360q53 0 97 34.5t44 77.5
q0 77 -38.5 123.5t-102.5 46.5q-59 0 -96 -40.5t-37 -104.5t35.5 -100.5t97.5 -36.5z" />
    <glyph glyph-name="zero.subs" horiz-adv-x="414" 
d="M182 291q78 0 123 -61t45 -174t-44.5 -172.5t-124.5 -59.5t-124.5 59.5t-44.5 172.5t45 174t125 61zM182 -113q45 0 66 39.5t21 129.5q0 91 -21.5 132t-66.5 41q-88 0 -88 -173q0 -89 21.5 -129t67.5 -40z" />
    <glyph glyph-name="one.subs" horiz-adv-x="301" 
d="M90 -165v350h-85v46q58 0 83 14.5t27 44.5h52v-455h-77z" />
    <glyph glyph-name="two.subs" horiz-adv-x="384" 
d="M31 -165v62q0 45 24.5 78.5t60 53.5t71 38t60 41.5t24.5 53.5q0 31 -22 50t-58 19q-39 0 -64.5 -22.5t-30.5 -62.5h-74q1 65 45.5 107.5t125.5 42.5q72 0 115 -37t43 -97q0 -38 -17.5 -67.5t-43.5 -46.5t-56.5 -33.5t-56.5 -29.5t-43.5 -33t-17.5 -45v-6h236v-66h-321z
" />
    <glyph glyph-name="three.subs" horiz-adv-x="402" 
d="M29 150q0 68 47 105.5t119 37.5q76 0 122.5 -31t46.5 -89q0 -72 -85 -101q44 -12 70 -40.5t26 -72.5q0 -63 -51.5 -98.5t-130.5 -34.5q-77 0 -121.5 38t-46.5 104h75q12 -79 94 -79q46 0 73 20t27 52q0 34 -28 53.5t-72 20.5l-43 1v63l39 1q41 1 66.5 21t25.5 49
q0 27 -24 44.5t-64 17.5q-38 0 -63.5 -20t-27.5 -62h-74z" />
    <glyph glyph-name="four.subs" horiz-adv-x="417" 
d="M227 290h76v-282h72v-65h-72v-108h-74v108h-212v65zM89 8h139v187z" />
    <glyph glyph-name="five.subs" horiz-adv-x="403" 
d="M70 287h283l-3 -64h-218l-10 -127q46 33 102 33q68 0 112.5 -39t44.5 -109q0 -72 -46.5 -113.5t-125.5 -41.5q-64 0 -114 30.5t-71 79.5l62 33q41 -81 116 -81q45 0 72 24.5t27 65.5q0 38 -27 63t-68 25q-50 0 -88 -37q-5 -2 -10 1l-59 23z" />
    <glyph glyph-name="six.subs" horiz-adv-x="406" 
d="M197 293q63 0 107.5 -33.5t49.5 -91.5h-71q-17 64 -84 64q-54 0 -81 -45t-21 -125q14 28 44 44.5t66 16.5q69 0 110.5 -38.5t41.5 -103.5q0 -68 -46 -111t-120 -43q-83 0 -131.5 60.5t-48.5 164.5q0 112 48.5 176.5t135.5 64.5zM191 64q-33 0 -60.5 -22t-27.5 -49
q-1 -48 23.5 -77t64.5 -29q37 0 62 25t25 66t-23.5 63.5t-63.5 22.5z" />
    <glyph glyph-name="seven.subs" horiz-adv-x="369" 
d="M32 290h331v-64q-58 -75 -109.5 -196t-56.5 -195h-82q8 72 51 182t115 209h-249v64z" />
    <glyph glyph-name="eight.subs" horiz-adv-x="401" 
d="M195 294q70 0 114.5 -33.5t44.5 -92.5q0 -66 -69 -97q34 -7 61.5 -40t27.5 -71q0 -60 -49 -95.5t-130 -35.5t-129.5 35.5t-48.5 95.5q0 38 27.5 71t61.5 40q-70 31 -70 97q0 59 44.5 92.5t114.5 33.5zM195 102q37 0 59.5 18t22.5 50q0 33 -22.5 52t-59.5 19
q-36 0 -58.5 -19.5t-22.5 -51.5t22.5 -50t58.5 -18zM195 -113q45 0 71 20.5t26 53.5q0 34 -26.5 55.5t-70.5 21.5t-70.5 -21.5t-26.5 -55.5q0 -33 26.5 -53.5t70.5 -20.5z" />
    <glyph glyph-name="nine.subs" horiz-adv-x="408" 
d="M180 -173q-62 0 -107.5 34.5t-51.5 90.5h73q7 -29 29 -46.5t54 -17.5q57 0 87.5 42.5t24.5 130.5q-13 -31 -42.5 -49t-69.5 -18q-69 0 -112 39t-43 106q0 68 45 111t119 43q84 0 132.5 -60.5t48.5 -164.5q0 -117 -49 -179t-138 -62zM188 56q33 0 61 22t28 49
q0 49 -24.5 78t-64.5 29q-37 0 -60.5 -25.5t-23.5 -65.5t22.5 -63.5t61.5 -23.5z" />
    <glyph glyph-name="zero.dnom" horiz-adv-x="414" 
d="M182 456q78 0 123 -61t45 -174t-44.5 -172.5t-124.5 -59.5t-124.5 59.5t-44.5 172.5t45 174t125 61zM182 52q45 0 66 39.5t21 129.5q0 91 -21.5 132t-66.5 41q-88 0 -88 -173q0 -89 21.5 -129t67.5 -40z" />
    <glyph glyph-name="one.dnom" horiz-adv-x="301" 
d="M90 0v350h-85v46q58 0 83 14.5t27 44.5h52v-455h-77z" />
    <glyph glyph-name="two.dnom" horiz-adv-x="384" 
d="M31 0v62q0 45 24.5 78.5t60 53.5t71 38t60 41.5t24.5 53.5q0 31 -22 50t-58 19q-39 0 -64.5 -22.5t-30.5 -62.5h-74q1 65 45.5 107.5t125.5 42.5q72 0 115 -37t43 -97q0 -38 -17.5 -67.5t-43.5 -46.5t-56.5 -33.5t-56.5 -29.5t-43.5 -33t-17.5 -45v-6h236v-66h-321z" />
    <glyph glyph-name="three.dnom" horiz-adv-x="402" 
d="M29 315q0 68 47 105.5t119 37.5q76 0 122.5 -31t46.5 -89q0 -72 -85 -101q44 -12 70 -40.5t26 -72.5q0 -63 -51.5 -98.5t-130.5 -34.5q-77 0 -121.5 38t-46.5 104h75q12 -79 94 -79q46 0 73 20t27 52q0 34 -28 53.5t-72 20.5l-43 1v63l39 1q41 1 66.5 21t25.5 49
q0 27 -24 44.5t-64 17.5q-38 0 -63.5 -20t-27.5 -62h-74z" />
    <glyph glyph-name="four.dnom" horiz-adv-x="417" 
d="M227 455h76v-282h72v-65h-72v-108h-74v108h-212v65zM89 173h139v187z" />
    <glyph glyph-name="five.dnom" horiz-adv-x="403" 
d="M70 452h283l-3 -64h-218l-10 -127q46 33 102 33q68 0 112.5 -39t44.5 -109q0 -72 -46.5 -113.5t-125.5 -41.5q-64 0 -114 30.5t-71 79.5l62 33q41 -81 116 -81q45 0 72 24.5t27 65.5q0 38 -27 63t-68 25q-50 0 -88 -37q-5 -2 -10 1l-59 23z" />
    <glyph glyph-name="six.dnom" horiz-adv-x="406" 
d="M197 458q63 0 107.5 -33.5t49.5 -91.5h-71q-17 64 -84 64q-54 0 -81 -45t-21 -125q14 28 44 44.5t66 16.5q69 0 110.5 -38.5t41.5 -103.5q0 -68 -46 -111t-120 -43q-83 0 -131.5 60.5t-48.5 164.5q0 112 48.5 176.5t135.5 64.5zM191 229q-33 0 -60.5 -21.5t-27.5 -49.5
q-1 -48 23.5 -77t64.5 -29q37 0 62 25t25 66t-23.5 63.5t-63.5 22.5z" />
    <glyph glyph-name="seven.dnom" horiz-adv-x="369" 
d="M32 455h331v-64q-58 -75 -109.5 -196t-56.5 -195h-82q8 72 51 182t115 209h-249v64z" />
    <glyph glyph-name="eight.dnom" horiz-adv-x="401" 
d="M195 458q70 0 114.5 -33.5t44.5 -92.5q0 -66 -69 -97q34 -7 61.5 -40t27.5 -71q0 -60 -49 -95.5t-130 -35.5t-129.5 35.5t-48.5 95.5q0 38 27.5 71t61.5 40q-70 31 -70 97q0 59 44.5 92.5t114.5 33.5zM195 266q37 0 59.5 18t22.5 50q0 33 -22.5 52t-59.5 19
q-36 0 -58.5 -19.5t-22.5 -51.5t22.5 -50t58.5 -18zM195 51q45 0 71 20.5t26 53.5q0 34 -26.5 55.5t-70.5 21.5t-70.5 -21.5t-26.5 -55.5q0 -33 26.5 -53.5t70.5 -20.5z" />
    <glyph glyph-name="nine.dnom" horiz-adv-x="408" 
d="M180 -8q-62 0 -107.5 34.5t-51.5 90.5h73q7 -29 29 -46.5t54 -17.5q57 0 87.5 42.5t24.5 130.5q-13 -31 -42.5 -49t-69.5 -18q-69 0 -112 39t-43 106q0 68 45 111t119 43q84 0 132.5 -60.5t48.5 -164.5q0 -117 -49 -179t-138 -62zM188 221q33 0 61 22t28 49
q0 49 -24.5 78t-64.5 29q-37 0 -60.5 -25.5t-23.5 -65.5t22.5 -63.5t61.5 -23.5z" />
    <glyph glyph-name="zero.numr" horiz-adv-x="414" 
d="M182 740q78 0 123 -61t45 -174t-44.5 -172.5t-124.5 -59.5t-124.5 59.5t-44.5 172.5t45 174t125 61zM182 336q45 0 66 39.5t21 129.5q0 91 -21.5 132t-66.5 41q-88 0 -88 -173q0 -89 21.5 -129t67.5 -40z" />
    <glyph glyph-name="one.numr" horiz-adv-x="303" 
d="M90 276v350h-85v46q58 0 83 14.5t27 44.5h52v-455h-77z" />
    <glyph glyph-name="two.numr" horiz-adv-x="376" 
d="M31 279v62q0 45 24.5 78.5t60 53.5t71 38t60 41.5t24.5 53.5q0 31 -22 50t-58 19q-39 0 -64.5 -22.5t-30.5 -62.5h-74q1 65 45.5 107.5t125.5 42.5q72 0 115 -37t43 -97q0 -38 -17.5 -67.5t-43.5 -46.5t-56.5 -33.5t-56.5 -29.5t-43.5 -33t-17.5 -45v-6h236v-66h-321z
" />
    <glyph glyph-name="three.numr" horiz-adv-x="402" 
d="M29 597q0 68 47 105.5t119 37.5q76 0 122.5 -31t46.5 -89q0 -72 -85 -101q44 -12 70 -40.5t26 -72.5q0 -63 -51.5 -98.5t-130.5 -34.5q-77 0 -121.5 38t-46.5 104h75q12 -79 94 -79q46 0 73 20t27 52q0 34 -28 53.5t-72 20.5l-43 1v63l39 1q41 1 66.5 21t25.5 49
q0 27 -24 44.5t-64 17.5q-38 0 -63.5 -20t-27.5 -62h-74z" />
    <glyph glyph-name="four.numr" horiz-adv-x="417" 
d="M227 731h76v-282h72v-65h-72v-108h-74v108h-212v65zM89 449h139v187z" />
    <glyph glyph-name="five.numr" horiz-adv-x="403" 
d="M70 731h283l-3 -64h-218l-10 -127q46 33 102 33q68 0 112.5 -39t44.5 -109q0 -72 -46.5 -113.5t-125.5 -41.5q-64 0 -114 30.5t-71 79.5l62 33q41 -81 116 -81q45 0 72 24.5t27 65.5q0 38 -27 63t-68 25q-50 0 -88 -37q-5 -2 -10 1l-59 23z" />
    <glyph glyph-name="six.numr" horiz-adv-x="391" 
d="M206 743q63 0 107.5 -33.5t49.5 -91.5h-71q-17 64 -84 64q-54 0 -81 -45t-21 -125q14 28 44 44.5t66 16.5q69 0 110.5 -38.5t41.5 -103.5q0 -68 -46 -111t-120 -43q-83 0 -132 60.5t-49 164.5q0 112 49 176.5t136 64.5zM200 514q-33 0 -60.5 -22t-27.5 -49
q-1 -48 23.5 -77t64.5 -29q37 0 62 25t25 66t-23.5 63.5t-63.5 22.5z" />
    <glyph glyph-name="seven.numr" horiz-adv-x="369" 
d="M32 730h331v-64q-58 -75 -109.5 -196t-56.5 -195h-82q8 72 51 182t115 209h-249v64z" />
    <glyph glyph-name="eight.numr" horiz-adv-x="401" 
d="M195 741q70 0 114.5 -33.5t44.5 -92.5q0 -66 -69 -97q34 -7 61.5 -40t27.5 -71q0 -60 -49 -95.5t-130 -35.5t-129.5 35.5t-48.5 95.5q0 38 27.5 71t61.5 40q-70 32 -70 97q0 59 44.5 92.5t114.5 33.5zM195 549q37 0 59.5 18t22.5 50q0 33 -22.5 52t-59.5 19
q-36 0 -58.5 -19.5t-22.5 -51.5t22.5 -50t58.5 -18zM195 334q45 0 71 20.5t26 53.5q0 34 -26.5 55.5t-70.5 21.5t-70.5 -21.5t-26.5 -55.5q0 -33 26.5 -53.5t70.5 -20.5z" />
    <glyph glyph-name="nine.numr" horiz-adv-x="408" 
d="M180 277q-62 0 -107.5 34.5t-51.5 90.5h73q7 -29 29 -46.5t54 -17.5q57 0 87.5 42.5t24.5 130.5q-13 -31 -42.5 -49t-69.5 -18q-69 0 -112 39t-43 106q0 68 45 111t119 43q84 0 132.5 -60.5t48.5 -164.5q0 -117 -49 -179t-138 -62zM188 506q33 0 61 22t28 49
q0 49 -24.5 78t-64.5 29q-37 0 -60.5 -25.5t-23.5 -65.5t22.5 -63.5t61.5 -23.5z" />
    <glyph glyph-name="period.tf" horiz-adv-x="296" 
d="M231 140v-140h-137v140h137z" />
    <glyph glyph-name="comma.tf" horiz-adv-x="291" 
d="M84 -133l58 130l-48 4v127h133v-112l-94 -149h-49z" />
    <glyph glyph-name="caroncomb.alt" horiz-adv-x="0" 
d="M-129 516l39 97l-32 5v105h90v-110l-42 -97h-55z" />
    <glyph glyph-name="uni03060301" horiz-adv-x="0" 
d="M-70 917l28 -84l-259 -72l-19 56zM-15 723q-15 -52 -59.5 -85.5t-105.5 -33.5q-62 0 -105.5 32t-58.5 87h78q32 -54 86 -54t86 54h79z" />
    <glyph glyph-name="uni03060300" horiz-adv-x="0" 
d="M-287 911l248 -100l-18 -56l-259 72zM-15 723q-15 -52 -59.5 -85.5t-105.5 -33.5q-62 0 -105.5 32t-58.5 87h78q32 -54 86 -54t86 54h79z" />
    <glyph glyph-name="uni03060309" horiz-adv-x="0" 
d="M-237 896l31 -48q18 12 39 11.5t30 -15.5q21 -35 -26 -65l32 -48q47 29 59 67.5t-14 79.5q-22 34 -64 39.5t-87 -21.5zM-15 723q-15 -52 -59.5 -85.5t-105.5 -33.5q-62 0 -105.5 32t-58.5 87h78q32 -54 86 -54t86 54h79z" />
    <glyph glyph-name="uni03060303" horiz-adv-x="0" 
d="M-20 803q-39 -33 -94 -33q-28 0 -70 13.5t-66 13.5q-37 0 -75 -30l-20 60q44 42 91 42q27 0 72.5 -14.5t67.5 -14.5q37 0 77 32zM-16 723q-15 -52 -59.5 -85.5t-105.5 -33.5q-62 0 -105.5 32t-58.5 87h78q32 -54 86 -54t86 54h79z" />
    <glyph glyph-name="uni03020301" horiz-adv-x="0" 
d="M-66 917l28 -84l-259 -72l-19 56zM-109 603l-67 71l-75 -71h-96l129 125h85l126 -125h-102z" />
    <glyph glyph-name="uni03020300" horiz-adv-x="0" 
d="M-283 911l248 -100l-18 -56l-259 72zM-109 603l-67 71l-75 -71h-96l129 125h85l126 -125h-102z" />
    <glyph glyph-name="uni03020309" horiz-adv-x="0" 
d="M-175 870l31 -48q19 13 39 12t30 -16q21 -33 -26 -65l31 -48q48 28 60 67.5t-14 79.5q-22 34 -64.5 40t-86.5 -22zM-135 603l-67 71l-75 -71h-96l129 125h85l126 -125h-102z" />
    <glyph glyph-name="uni03020303" horiz-adv-x="0" 
d="M-15 803q-39 -33 -94 -33q-28 0 -70 13.5t-66 13.5q-37 0 -75 -30l-20 60q44 42 91 42q27 0 73 -14.5t67 -14.5q37 0 77 32zM-109 603l-67 71l-75 -71h-96l129 125h85l126 -125h-102z" />
    </font>
</defs>
</svg>
