<?xml version="1.0" standalone="no"?>
<!DOCTYPE svg PUBLIC "-//W3C//DTD SVG 1.1//EN" "http://www.w3.org/Graphics/SVG/1.1/DTD/svg11.dtd" >
<svg xmlns="http://www.w3.org/2000/svg" xmlns:xlink="http://www.w3.org/1999/xlink" version="1.1">
<metadata>
Created by FontForge 20161003 at Fri Sep 20 09:54:18 2019
 By www-data
copyright missing
</metadata>
<defs>
<font id="PublicSansRegular" horiz-adv-x="0" >
  <font-face 
    font-family="PublicSansRegular"
    font-weight="400"
    font-stretch="normal"
    units-per-em="1000"
    panose-1="0 0 5 0 0 0 0 0 0 0"
    ascent="780"
    descent="-220"
    x-height="517"
    cap-height="723"
    bbox="-368 -303 1245 1112.16"
    underline-thickness="50"
    underline-position="-150"
    unicode-range="U+000D-FB02"
  />
<missing-glyph horiz-adv-x="679" 
d="M572 826q17 0 17 -21v-938q0 -28 -32 -28h-436q-27 0 -27 24v940q0 23 19 23h459zM539 760q0 17 -15 17h-344l359 -834v817zM145 -92q0 -20 22 -20h335l-357 828v-808z" />
    <glyph glyph-name="fi" unicode="fi" horiz-adv-x="657" 
d="M360 517v-66h-127v-451h-89v451h-110v66h110v80q0 126 124 126h96l1 -64h-78q-31 0 -43 -16.5t-12 -52.5v-73h128zM575 719v-94h-96v94h96zM572 517v-517h-90v517h90z" />
    <glyph glyph-name="fl" unicode="fl" horiz-adv-x="687" 
d="M604 -6q-74 0 -101.5 37.5t-27.5 100.5v611h89v-602q0 -78 58 -81h28v-58q-24 -8 -46 -8zM360 517v-66h-127v-451h-89v451h-110v66h110v80q0 126 124 126h96l1 -64h-78q-31 0 -43 -16.5t-12 -52.5v-73h128z" />
    <glyph glyph-name="colon_one_eight_F_colon.liga" unicode="&#x3a;&#x31;&#x38;F&#x3a;" horiz-adv-x="770" 
d="M17 761h737q11 0 11 -12v-736q0 -13 -11 -13h-737q-12 0 -12 13v736q0 12 12 12zM373 234q35 0 60 25.5t25 60.5q0 45 -37 70q27 26 27 58q0 31 -22.5 53t-52.5 22q-33 0 -55 -22t-22 -53t27 -58q-37 -25 -37 -70q0 -36 25 -61t62 -25zM244 243v272q0 5 -4 5h-67
q-4 0 -4 -5v-26q0 -4 4 -4h36v-242q0 -4 4 -4h27q4 0 4 4zM613 489v26q0 5 -4 5h-105q-4 0 -4 -5v-272q0 -4 4 -4h26q6 0 6 4v124h61q4 0 4 4v25q0 5 -4 5h-61v84h73q4 0 4 4zM373 408q-18 0 -30 11t-12 29q0 17 12 29t30 12q17 0 28.5 -12t11.5 -29q0 -18 -11.5 -29
t-28.5 -11zM373 371q21 0 35.5 -14.5t14.5 -36.5q0 -21 -14.5 -36t-35.5 -15q-22 0 -37 15t-15 36q0 22 15 36.5t37 14.5z" />
    <glyph glyph-name="colon_f_l_a_g_two_colon.liga" unicode="&#x3a;flag&#x32;&#x3a;" horiz-adv-x="1156" 
d="M45 761h1067v-760h-1067v760zM1049 645v53h-535v-53h535zM140 585h62v59h-62v-59zM375 585h61v59h-61v-59zM258 527h61v58h-61v-58zM514 528h535v55h-535v-55zM141 468h61v59h-61v-59zM436 527h-61v-59h61v59zM319 468h-61v-58h61v58zM514 411h535v55h-535v-55zM202 410
h-61v-59h61v59zM436 410h-61v-59h61v59zM514 294h535v55h-535v-55zM1049 232h-943v-55h943v55zM107 63h942v52h-942v-52z" />
    <glyph glyph-name="colon_f_l_a_g_colon.liga" unicode="&#x3a;flag&#x3a;" horiz-adv-x="1156" 
d="M45 761h1067v-760h-1067v760zM1053 702h-950v-409h950v58h-540v59h540v58h-540v59h540v58h-540v59h540v58zM220 644v-59h-58v59h58zM454 644v-59h-58v59h58zM337 585v-58h-58v58h58zM220 527v-59h-58v59h58zM454 527v-59h-58v59h58zM337 468v-58h-58v58h58zM220 410v-59
h-58v59h58zM454 410v-59h-58v59h58zM1053 234h-950v-58h950v58zM103 59h950v58h-950v-58z" />
    <glyph glyph-name=".notdef" horiz-adv-x="679" 
d="M572 826q17 0 17 -21v-938q0 -28 -32 -28h-436q-27 0 -27 24v940q0 23 19 23h459zM539 760q0 17 -15 17h-344l359 -834v817zM145 -92q0 -20 22 -20h335l-357 828v-808z" />
    <glyph glyph-name="uni0000" horiz-adv-x="27" 
 />
    <glyph glyph-name="uni0000" horiz-adv-x="27" 
 />
    <glyph glyph-name="nonmarkingreturn" horiz-adv-x="333" 
 />
    <glyph glyph-name="CR" unicode="&#xd;" horiz-adv-x="233" 
 />
    <glyph glyph-name="space" unicode=" " horiz-adv-x="240" 
 />
    <glyph glyph-name="exclam" unicode="!" horiz-adv-x="249" 
d="M176 723l-23 -542h-60l-24 542h107zM176 114v-114h-107v114h107z" />
    <glyph glyph-name="quotedbl" unicode="&#x22;" horiz-adv-x="422" 
d="M179 723l-30 -231h-52l-28 231h110zM354 723l-30 -231h-52l-28 231h110z" />
    <glyph glyph-name="numbersign" unicode="#" horiz-adv-x="602" 
d="M562 440h-116l-22 -150h106v-55h-114l-36 -237l-56 8l35 229h-148l-36 -237l-56 8l35 229h-117v55h125l23 150h-116v55h124l35 229l55 -6l-33 -223h148l35 229l55 -6l-33 -223h107v-55zM367 290l23 150h-149l-22 -150h148z" />
    <glyph glyph-name="dollar" unicode="$" horiz-adv-x="657" 
d="M597 186q0 -79 -60 -131.5t-159 -62.5v-97h-84v97q-98 9 -159.5 58t-74.5 134l94 6q15 -60 63.5 -91.5t120.5 -31.5q66 0 114.5 33t48.5 85q0 48 -28.5 76.5t-90.5 45.5l-125 34q-174 44 -174 181q-1 84 59 140.5t159 67.5v101h83v-102q90 -12 143 -68t57 -133l-91 -5
q-23 133 -151 133q-67 0 -115 -33.5t-48 -92.5q0 -39 27.5 -62t100.5 -45l120 -35q170 -47 170 -202z" />
    <glyph glyph-name="percent" unicode="%" horiz-adv-x="902" 
d="M225 734q74 0 121.5 -56.5t47.5 -150.5t-47 -150t-122 -56t-123 56t-48 150t48 150.5t123 56.5zM742 731l-486 -735l-61 1l488 734h59zM224 372q47 0 74 42t27 113q0 72 -27 114.5t-74 42.5t-74.5 -43t-27.5 -114q0 -70 27 -112.5t75 -42.5zM676 404q74 0 121.5 -57
t47.5 -150q0 -95 -47 -151t-122 -56t-123 56.5t-48 150.5q0 93 48.5 150t122.5 57zM675 41q46 0 73.5 43t27.5 112t-27.5 113t-73.5 44t-73.5 -44t-27.5 -113q0 -68 27.5 -111.5t73.5 -43.5z" />
    <glyph glyph-name="ampersand" unicode="&#x26;" horiz-adv-x="704" 
d="M309 734q82 0 139.5 -42.5t57.5 -111.5q0 -105 -172 -196l161 -188q58 83 65 192h87q-14 -115 -107 -246l121 -142h-105l-71 81q-102 -86 -224 -86q-104 0 -161 51t-57 136q0 69 41.5 120.5t129.5 98.5q-46 49 -68 89.5t-22 85.5q0 67 52 112.5t133 45.5zM312 672
q-46 -1 -72 -27t-26 -64q0 -59 62 -127l18 -20q75 44 102.5 76.5t27.5 67.5q0 48 -33 71.5t-79 22.5zM260 346q-122 -68 -118 -162q2 -53 42 -85t96 -32q89 0 161 69z" />
    <glyph glyph-name="quotesingle" unicode="'" horiz-adv-x="247" 
d="M179 723l-30 -231h-52l-28 231h110z" />
    <glyph glyph-name="parenleft" unicode="(" horiz-adv-x="301" 
d="M274 761q-117 -222 -117 -446q0 -208 109 -438h-61q-67 116 -101 218t-34 221q0 236 143 445h61z" />
    <glyph glyph-name="parenright" unicode=")" horiz-adv-x="308" 
d="M20 761h61q143 -209 143 -445q0 -119 -34 -221t-101 -218h-61q109 230 109 438q0 224 -117 446z" />
    <glyph glyph-name="asterisk" unicode="*" horiz-adv-x="390" 
d="M275 389l-78 126l-80 -130l-54 37l94 117l-130 37l20 57l125 -50l-9 140h66l-8 -140l126 54l18 -56l-128 -41l92 -113z" />
    <glyph glyph-name="plus" unicode="+" horiz-adv-x="553" 
d="M491 399v-70h-179v-180h-70v179h-180v70h180v181h70v-180h179z" />
    <glyph glyph-name="comma" unicode="," horiz-adv-x="239" 
d="M43 -125l56 123l-43 2v109h114v-94l-84 -140h-43z" />
    <glyph glyph-name="hyphen" unicode="-" horiz-adv-x="380" 
d="M315 294v-71l-253 -1v71z" />
    <glyph glyph-name="period" unicode="." horiz-adv-x="223" 
d="M163 116v-116h-108v116h108z" />
    <glyph glyph-name="slash" unicode="/" horiz-adv-x="349" 
d="M13 -40l251 763h70l-250 -763h-71z" />
    <glyph glyph-name="zero" unicode="0" horiz-adv-x="607" 
d="M304 733q119 0 187.5 -96t68.5 -277q0 -180 -68.5 -274.5t-188.5 -94.5q-121 0 -188.5 93.5t-67.5 274.5q0 182 68.5 278t188.5 96zM304 68q80 0 119.5 69.5t39.5 222.5q0 297 -160 297t-160 -297q0 -152 40.5 -222t120.5 -70z" />
    <glyph glyph-name="one" unicode="1" horiz-adv-x="402" 
d="M185 0v577h-140v60q94 0 130 20t39 66h64v-723h-93z" />
    <glyph glyph-name="two" unicode="2" horiz-adv-x="606" 
d="M69 0v85q0 72 39.5 125.5t95.5 86.5t112.5 63.5t96 72t39.5 95.5q0 57 -39.5 91.5t-105.5 34.5q-71 0 -115 -40t-49 -108h-89q2 98 69 162.5t188 64.5q108 0 172 -56t64 -149q0 -53 -21 -95.5t-54 -70.5t-73.5 -51.5t-81 -45t-73.5 -44t-54 -54.5t-21 -72v-15h382v-80
h-482z" />
    <glyph glyph-name="three" unicode="3" horiz-adv-x="618" 
d="M51 513q0 101 71 160.5t177 59.5q115 0 184.5 -49t69.5 -137q0 -56 -34.5 -99t-103.5 -66q74 -20 116 -67t42 -116q0 -97 -77.5 -153.5t-199.5 -55.5q-112 1 -181.5 59.5t-72.5 157.5h89q10 -67 55 -103.5t113 -36.5q80 0 128.5 36.5t48.5 96.5q0 64 -51.5 100t-132.5 37
l-65 2v76l62 2q71 1 119.5 38t48.5 89q0 47 -42.5 80.5t-115.5 33.5q-64 0 -110.5 -37t-47.5 -108h-90z" />
    <glyph glyph-name="four" unicode="4" horiz-adv-x="621" 
d="M377 723h92v-458h120v-79h-120v-186h-88v186h-341v82zM126 265h253v340z" />
    <glyph glyph-name="five" unicode="5" horiz-adv-x="646" 
d="M117 723h430l-3 -78h-350l-19 -236q66 62 172 62q103 0 173 -62t70 -172q0 -113 -71.5 -180t-190.5 -67q-99 0 -175.5 51t-103.5 134l78 32q27 -65 76.5 -103t118.5 -38q79 0 126 45t47 123q0 71 -48 116t-118 45q-49 0 -85 -14.5t-74 -57.5q-5 -2 -10 0l-76 23z" />
    <glyph glyph-name="six" unicode="6" horiz-adv-x="616" 
d="M328 738q92 0 158 -50t78 -136h-85q-14 52 -53 81.5t-96 29.5q-97 0 -145.5 -81.5t-39.5 -235.5q20 56 71.5 90.5t115.5 34.5q108 0 173 -61.5t65 -167.5q0 -110 -68 -177.5t-182 -67.5q-126 0 -199.5 95.5t-73.5 263.5q0 177 73 279.5t208 102.5zM319 398
q-62 0 -111 -41t-49 -96q-1 -84 44 -137.5t117 -53.5q67 0 110.5 47t43.5 121q0 76 -40.5 118t-114.5 42z" />
    <glyph glyph-name="seven" unicode="7" horiz-adv-x="586" 
d="M42 723h505v-78q-94 -130 -179 -329.5t-99 -315.5h-97q20 121 92 302t185 343h-407v78z" />
    <glyph glyph-name="eight" unicode="8" horiz-adv-x="643" 
d="M321 735q107 0 175 -52t68 -144q0 -108 -114 -156q56 -11 101 -65t45 -116q0 -94 -75 -149.5t-200 -55.5t-199.5 55.5t-74.5 149.5q0 62 45 116t101 65q-114 48 -114 156q0 92 68 144t174 52zM321 421q68 0 109.5 31.5t41.5 88.5q0 59 -41.5 93t-109.5 34
q-67 0 -108.5 -34.5t-41.5 -92.5q0 -57 41 -88.5t109 -31.5zM321 69q82 0 130.5 36.5t48.5 97.5t-49 99.5t-130 38.5q-80 0 -128.5 -38.5t-48.5 -99.5t48 -97.5t129 -36.5z" />
    <glyph glyph-name="nine" unicode="9" horiz-adv-x="623" 
d="M290 -4q-92 0 -160 50.5t-80 135.5h87q13 -51 53 -81t97 -30q100 0 152 79t44 241q-18 -59 -69.5 -95t-119.5 -36q-109 0 -175 62.5t-66 169.5q0 111 67 178.5t181 67.5q126 0 199.5 -96t73.5 -264q0 -182 -74 -282t-210 -100zM303 336q62 0 110.5 41.5t48.5 96.5
q2 84 -42.5 137.5t-117.5 53.5q-67 0 -109 -46.5t-42 -121.5t39 -118t113 -43z" />
    <glyph glyph-name="colon" unicode=":" horiz-adv-x="223" 
d="M163 496v-115h-108v115h108zM163 117v-114h-108v114h108z" />
    <glyph glyph-name="semicolon" unicode=";" horiz-adv-x="238" 
d="M67 378v117h108v-117h-108zM55 -142l57 142h-42v115h108v-102l-84 -155h-39z" />
    <glyph glyph-name="less" unicode="&#x3c;" horiz-adv-x="544" 
d="M481 224v-83l-419 164v82l420 167v-85l-313 -123z" />
    <glyph glyph-name="equal" unicode="=" horiz-adv-x="553" 
d="M491 495v-70h-429v70h429zM491 274v-70l-429 -1v70z" />
    <glyph glyph-name="greater" unicode="&#x3e;" horiz-adv-x="544" 
d="M62 224l313 122l-313 123v85l420 -167v-82l-420 -164v83z" />
    <glyph glyph-name="question" unicode="?" horiz-adv-x="530" 
d="M24 589q32 68 94.5 106t142.5 38q100 0 160.5 -48.5t60.5 -125.5q0 -47 -20.5 -87.5t-50 -70.5t-59 -60.5t-50 -70.5t-20.5 -86h-77q0 53 19 98t46 77t54 61.5t46 64t19 71.5q0 49 -35.5 78.5t-93.5 29.5q-50 0 -95 -28.5t-61 -70.5zM297 114v-114h-107v114h107z" />
    <glyph glyph-name="at" unicode="@" horiz-adv-x="823" 
d="M657 -35q-99 -75 -231 -75q-173 0 -275.5 104.5t-102.5 259.5q0 162 110 276t283 114q52 0 101 -11.5t93.5 -36t78 -60.5t53 -88.5t19.5 -116.5q0 -111 -53.5 -181.5t-135.5 -70.5q-73 0 -88 51q-4 11 -12 1q-50 -66 -134 -66q-59 0 -99.5 48t-39.5 124q0 95 53 160.5
t136 65.5q75 0 112 -61q5 -5 7 4l8 32h62l-37 -222q-13 -76 37 -76q49 0 83 50.5t34 134.5q0 68 -24 119.5t-65 81t-88.5 44t-100.5 14.5q-152 0 -238.5 -94.5t-86.5 -235.5q0 -135 85 -220.5t239 -85.5q42 0 77 10t54 20.5t51 32.5zM298 243q0 -52 21 -83t58 -31
q47 0 83 40t44 96q8 62 -18.5 98t-67.5 36q-52 0 -86 -45t-34 -111z" />
    <glyph glyph-name="A" unicode="A" horiz-adv-x="706" 
d="M40 0l262 723h102l262 -723h-92l-71 199h-298l-73 -199h-92zM228 282h250l-124 352z" />
    <glyph glyph-name="B" unicode="B" horiz-adv-x="666" 
d="M94 0v723h231q131 0 199 -48.5t68 -139.5q0 -60 -31.5 -100.5t-103.5 -65.5q152 -33 152 -175q0 -194 -277 -194h-238zM183 404h159q67 0 115 28t48 91q0 62 -47.5 94t-128.5 32h-146v-245zM183 75h148q188 0 188 123q0 65 -49 97t-128 32h-159v-252z" />
    <glyph glyph-name="C" unicode="C" horiz-adv-x="697" 
d="M365 733q113 0 189 -63t86 -156l-95 -5q-13 67 -59 106.5t-122 39.5q-203 0 -203 -293q0 -294 208 -294q66 0 113 39t61 105l95 -7q-11 -93 -83 -154t-185 -61q-145 0 -226.5 99.5t-81.5 273.5t80 272t223 98z" />
    <glyph glyph-name="D" unicode="D" horiz-adv-x="692" 
d="M94 723q104 0 165 -1q196 -3 286 -92t90 -264q0 -366 -386 -366h-155v723zM186 646v-569h63q143 0 217.5 67.5t74.5 219.5q0 153 -72.5 217.5t-215.5 64.5h-67z" />
    <glyph glyph-name="E" unicode="E" horiz-adv-x="622" 
d="M94 0v723h453v-79h-363v-240h328v-78h-329v-245l374 -1v-80h-463z" />
    <glyph glyph-name="F" unicode="F" horiz-adv-x="582" 
d="M94 723h448v-79h-356v-242h320v-78h-320v-324h-92v723z" />
    <glyph glyph-name="G" unicode="G" horiz-adv-x="736" 
d="M367 -10q-142 0 -223.5 99t-81.5 270q0 175 84 274.5t226 99.5q107 0 185.5 -65t84.5 -153l-97 -5q-11 62 -59 102.5t-116 40.5q-98 0 -155 -74.5t-57 -213.5q0 -147 58 -220.5t157 -73.5q84 0 133 54t52 117l3 65h-177v66h270v-373h-68v111q-73 -121 -219 -121z" />
    <glyph glyph-name="H" unicode="H" horiz-adv-x="704" 
d="M524 335h-341v-335h-89v723h89v-309h341v309h90v-723h-90v335z" />
    <glyph glyph-name="I" unicode="I" horiz-adv-x="274" 
d="M94 723h89v-723h-89v723z" />
    <glyph glyph-name="J" unicode="J" horiz-adv-x="382" 
d="M294 169q0 -91 -33 -135t-119 -44q-63 0 -117 23l7 86q2 -1 15.5 -7t20.5 -8t21.5 -5t29.5 -3q48 0 66.5 26.5t18.5 92.5v528h90v-554z" />
    <glyph glyph-name="K" unicode="K" horiz-adv-x="677" 
d="M644 0h-103l-228 374l-126 -145v-229h-93v723h93v-376l327 376h108l-241 -282z" />
    <glyph glyph-name="L" unicode="L" horiz-adv-x="561" 
d="M94 723h92v-642h343v-81h-435v723z" />
    <glyph glyph-name="M" unicode="M" horiz-adv-x="875" 
d="M94 0v723h123l221 -602l224 602h123v-723h-93v586l-211 -586h-85l-210 581v-581h-92z" />
    <glyph glyph-name="N" unicode="N" horiz-adv-x="744" 
d="M564 723h90v-723h-80l-391 574v-574h-89v723h85l385 -566v566z" />
    <glyph glyph-name="O" unicode="O" horiz-adv-x="747" 
d="M374 -10q-146 0 -229 97t-83 272q0 177 83.5 275.5t229.5 98.5q144 0 227.5 -98.5t83.5 -274.5q0 -175 -83 -272.5t-229 -97.5zM376 68q211 0 211 291q0 296 -212 296q-103 0 -159 -73.5t-56 -222.5q0 -147 56 -219t160 -72z" />
    <glyph glyph-name="P" unicode="P" horiz-adv-x="638" 
d="M94 0v723h243q120 0 194 -59.5t74 -168.5q0 -106 -70 -166.5t-186 -60.5h-163v-268h-92zM185 344h162q76 0 123 42.5t47 113.5t-47.5 109.5t-126.5 38.5h-158v-304z" />
    <glyph glyph-name="Q" unicode="Q" horiz-adv-x="733" 
d="M47 360q0 178 83.5 275.5t228.5 97.5q146 0 229 -97.5t83 -275.5q0 -231 -143 -322q36 -80 137 -83v-76q-147 0 -220 120q-49 -9 -86 -9q-145 0 -228.5 96.5t-83.5 273.5zM146 358q0 -290 213 -290q214 0 214 291q0 148 -54.5 222t-159.5 74q-104 0 -158.5 -74.5
t-54.5 -222.5z" />
    <glyph glyph-name="R" unicode="R" horiz-adv-x="676" 
d="M608 0h-95l-132 313h-198v-313h-89v723h278q115 0 175 -51.5t60 -145.5q0 -144 -141 -197zM342 388q84 0 128.5 33.5t44.5 99.5q0 63 -39.5 95.5t-110.5 32.5h-182v-261h159z" />
    <glyph glyph-name="S" unicode="S" horiz-adv-x="692" 
d="M348 -10q-110 0 -192 51t-96 143l94 6q14 -60 67.5 -92.5t126.5 -32.5q80 0 131.5 32.5t51.5 87.5q0 97 -129 127l-145 33q-174 38 -174 177q-1 93 72.5 151.5t188.5 58.5q120 0 190.5 -59t79.5 -145l-91 -5q-22 133 -179 133q-66 0 -115.5 -33.5t-49.5 -92.5
q0 -40 28 -64.5t100 -42.5l141 -33q177 -39 177 -204q0 -84 -75 -140t-202 -56z" />
    <glyph glyph-name="T" unicode="T" horiz-adv-x="575" 
d="M15 640v83h545v-83h-221v-640h-90v640h-234z" />
    <glyph glyph-name="U" unicode="U" horiz-adv-x="709" 
d="M620 248q0 -258 -264 -258q-137 0 -199.5 67.5t-62.5 201.5v464h93v-479q0 -175 169 -175q84 0 128.5 44t44.5 131v479h91v-475z" />
    <glyph glyph-name="V" unicode="V" horiz-adv-x="644" 
d="M630 723l-256 -723h-109l-252 723h89l218 -621l222 621h88z" />
    <glyph glyph-name="W" unicode="W" horiz-adv-x="956" 
d="M931 723l-210 -723h-85l-159 565l-162 -565h-82l-208 723h91l161 -581l165 581h70l164 -581l165 581h90z" />
    <glyph glyph-name="X" unicode="X" horiz-adv-x="655" 
d="M629 0h-112l-196 298l-195 -298h-101l246 369l-236 354h113l179 -276l181 276h100l-231 -345z" />
    <glyph glyph-name="Y" unicode="Y" horiz-adv-x="597" 
d="M588 723l-244 -415v-308h-89v308l-247 415h98l194 -335l191 335h97z" />
    <glyph glyph-name="Z" unicode="Z" horiz-adv-x="625" 
d="M52 0v50l397 595h-381v78h507v-48l-401 -596h399v-79h-521z" />
    <glyph glyph-name="bracketleft" unicode="[" horiz-adv-x="301" 
d="M90 723h185v-58h-105l-1 -768h105v-58h-183z" />
    <glyph glyph-name="backslash" unicode="\" horiz-adv-x="349" 
d="M261 -40l-249 763h70l250 -763h-71z" />
    <glyph glyph-name="bracketright" unicode="]" horiz-adv-x="315" 
d="M205 723l-1 -884h-183v58h105v768h-105v58h184z" />
    <glyph glyph-name="asciicircum" unicode="^" horiz-adv-x="472" 
d="M350 128l-117 295l-117 -293h-71l149 361q14 34 39 35t40 -35l149 -363h-72z" />
    <glyph glyph-name="underscore" unicode="_" horiz-adv-x="515" 
d="M452 -46v-71l-390 -1v71z" />
    <glyph glyph-name="grave" unicode="`" horiz-adv-x="289" 
d="M32 732l244 -97l-15 -46l-252 75z" />
    <glyph glyph-name="a" unicode="a" horiz-adv-x="546" 
d="M215 -10q-76 0 -123 40t-47 109q0 87 60 128.5t192 44.5l94 3v41q0 50 -32.5 77.5t-87.5 26.5q-47 0 -81.5 -22.5t-43.5 -65.5h-80q4 67 61 111t148 44q98 0 150 -44.5t52 -121.5v-361h-76l-7 94q-53 -104 -179 -104zM242 55q53 0 100.5 36t48.5 79v89l-78 -1
q-93 -2 -137 -27.5t-44 -82.5q0 -43 30.5 -68t79.5 -25z" />
    <glyph glyph-name="b" unicode="b" horiz-adv-x="591" 
d="M331 -10q-40 0 -72.5 11t-52.5 29t-31 33.5t-18 31.5l-8 -95h-69v743h90v-317q50 101 168 101q102 0 155 -73.5t53 -192.5q0 -127 -55 -199t-160 -72zM313 59q66 0 103.5 50t37.5 152q0 96 -36.5 146t-105.5 50q-42 0 -72 -15.5t-43.5 -40.5t-19.5 -45t-7 -41v-109
q1 -62 40.5 -104.5t102.5 -42.5z" />
    <glyph glyph-name="c" unicode="c" horiz-adv-x="533" 
d="M281 527q81 0 138 -46t68 -126l-79 -1q-13 48 -45.5 74.5t-77.5 26.5q-71 0 -112.5 -53.5t-41.5 -143.5q0 -91 41.5 -145t113.5 -54q47 0 80 27t42 72h78q-12 -80 -68.5 -124t-136.5 -44q-106 0 -171 73.5t-65 192.5q0 120 65 195.5t171 75.5z" />
    <glyph glyph-name="d" unicode="d" horiz-adv-x="587" 
d="M261 -10q-105 0 -160.5 72t-55.5 199q0 119 53.5 192.5t155.5 73.5q65 0 108 -28.5t60 -60.5v305h89v-743h-68l-10 106q-5 -18 -15.5 -35.5t-29.5 -37t-52 -31.5t-75 -12zM276 59q64 0 104 40.5t42 98.5v123q-1 19 -8.5 39.5t-22.5 43.5t-44.5 38t-68.5 15
q-69 0 -106 -50t-37 -146q0 -102 38 -152t103 -50z" />
    <glyph glyph-name="e" unicode="e" horiz-adv-x="551" 
d="M136 237q-1 -78 37.5 -127t112.5 -49q101 0 131 89h84q-17 -78 -76 -119t-138 -41q-109 0 -175.5 70.5t-66.5 192.5q0 125 62.5 199.5t173.5 74.5q107 0 165.5 -68.5t58.5 -187.5v-34h-369zM136 299h283q0 71 -35.5 115t-103.5 44q-69 0 -107 -47.5t-37 -111.5z" />
    <glyph glyph-name="f" unicode="f" horiz-adv-x="395" 
d="M360 517v-66h-127v-451h-89v451h-110v66h110v80q0 126 124 126h96l1 -64h-78q-31 0 -43 -16.5t-12 -52.5v-73h128z" />
    <glyph glyph-name="g" unicode="g" horiz-adv-x="613" 
d="M292 -171q-124 0 -190.5 37t-66.5 100q0 26 14 48t29.5 32.5t34.5 21t20 11.5q-1 0 -7.5 3.5t-8.5 5t-8.5 5.5t-9 7t-7 8t-7 10t-4 11.5t-1.5 13.5q0 25 23.5 45t67.5 30q-96 48 -96 143q0 77 61.5 120.5t162.5 43.5q87 0 148 -45l131 54v-84l-91 -17q18 -38 18 -71
q0 -70 -55.5 -117t-159.5 -47l-30 1q-95 -3 -95 -35q0 -14 21.5 -20t77.5 -10q44 -2 113 -6q168 -12 168 -140q0 -74 -66 -116.5t-187 -42.5zM293 257q61 0 93.5 26.5t32.5 76.5q0 52 -34 80.5t-92 28.5q-60 0 -94.5 -29t-34.5 -80q0 -49 33.5 -76t95.5 -27zM308 -113
q149 0 149 88q0 69 -95 75l-146 9q-31 2 -61.5 -23.5t-30.5 -59.5q0 -89 184 -89z" />
    <glyph glyph-name="h" unicode="h" horiz-adv-x="586" 
d="M80 0v743h88v-299q48 80 162 80q77 0 129 -43t52 -110v-371h-90v353q0 45 -32 71t-84 26q-57 0 -96 -27t-39 -76v-347h-90z" />
    <glyph glyph-name="i" unicode="i" horiz-adv-x="262" 
d="M180 719v-94h-96v94h96zM177 517v-517h-90v517h90z" />
    <glyph glyph-name="j" unicode="j" horiz-adv-x="264" 
d="M185 719v-94h-96v94h96zM182 -25q0 -73 -32 -107t-109 -34q-25 0 -41 3t-20 6l-3 3l-1 59l52 3q35 2 49.5 18t14.5 53v538h90v-542z" />
    <glyph glyph-name="k" unicode="k" horiz-adv-x="566" 
d="M532 0h-95l-163 262l-104 -108v-154h-90v743h90v-487l246 261h103l-186 -196z" />
    <glyph glyph-name="l" unicode="l" horiz-adv-x="292" 
d="M209 -6q-74 0 -101.5 37.5t-27.5 100.5v611h89v-602q0 -78 58 -81h28v-58q-24 -8 -46 -8z" />
    <glyph glyph-name="m" unicode="m" horiz-adv-x="873" 
d="M80 0v517h87v-72q52 82 155 82q46 0 88.5 -21t61.5 -60q25 38 67 59.5t91 21.5q30 0 57.5 -8.5t53.5 -28t41.5 -57t15.5 -89.5v-344h-90v337q0 120 -106 120q-50 0 -84.5 -27.5t-34.5 -85.5v-344h-89v365q0 43 -33 67.5t-73 24.5q-46 0 -82 -26.5t-36 -76.5v-354h-90z
" />
    <glyph glyph-name="n" unicode="n" horiz-adv-x="586" 
d="M80 0v517h87v-72q52 79 163 79q78 0 129.5 -48.5t51.5 -135.5v-340h-90v331q0 57 -31 88t-84 31q-58 0 -97 -26.5t-39 -75.5v-348h-90z" />
    <glyph glyph-name="o" unicode="o" horiz-adv-x="562" 
d="M281 -10q-110 0 -173 73t-63 192q0 122 64 197t173 75t171.5 -75t62.5 -196q0 -119 -63 -192.5t-172 -73.5zM283 61q72 0 108 54.5t36 143.5t-36.5 143t-108.5 54q-73 0 -110.5 -54.5t-37.5 -142.5t37.5 -143t111.5 -55z" />
    <glyph glyph-name="p" unicode="p" horiz-adv-x="591" 
d="M80 -161v678h89v-71q65 81 161 81q94 0 154.5 -67.5t60.5 -194.5q0 -129 -63.5 -202t-165.5 -73q-90 0 -146 81v-232h-90zM302 59q69 0 113 54.5t44 149.5q0 94 -44 144t-109 50q-56 0 -96 -38.5t-40 -81.5v-197q54 -81 132 -81z" />
    <glyph glyph-name="q" unicode="q" horiz-adv-x="586" 
d="M511 -161h-90v241q-47 -90 -151 -90q-101 0 -163 73t-62 202q0 127 60.5 194.5t154.5 67.5q41 0 78 -16t50.5 -27.5t33.5 -31.5v65h89v-678zM293 56q62 0 95 45.5t33 107.5v116q0 54 -37.5 94.5t-95.5 40.5q-65 0 -108 -50t-43 -146t43.5 -152t112.5 -56z" />
    <glyph glyph-name="r" unicode="r" horiz-adv-x="379" 
d="M80 0v517h86v-98q21 48 70 78t119 30l1 -86q-96 4 -141 -28t-45 -89v-324h-90z" />
    <glyph glyph-name="s" unicode="s" horiz-adv-x="513" 
d="M261 -10q-86 0 -145 41.5t-69 118.5h83q10 -46 45.5 -68.5t85.5 -22.5q54 0 85.5 20.5t31.5 58.5q0 56 -74 73l-103 27q-67 17 -101.5 48.5t-34.5 86.5q-1 73 53 113.5t143 40.5q84 0 135.5 -39.5t52.5 -108.5h-80q-5 37 -34.5 58t-75.5 21q-45 0 -78.5 -18.5
t-33.5 -61.5q0 -27 21 -42.5t66 -26.5l105 -27q64 -16 92 -55t28 -84q0 -72 -56 -112.5t-142 -40.5z" />
    <glyph glyph-name="t" unicode="t" horiz-adv-x="367" 
d="M317 451h-117v-320q0 -40 13.5 -52.5t50.5 -12.5h56v-60q-23 -9 -76 -9q-76 0 -105.5 31t-29.5 96v327h-84v66h86l17 150h72v-150h117v-66z" />
    <glyph glyph-name="u" unicode="u" horiz-adv-x="583" 
d="M271 -9q-75 0 -134.5 44.5t-59.5 131.5v351h90v-342q0 -60 36.5 -87.5t85.5 -27.5q54 0 91 31t37 89v337h91l-2 -517h-71l-9 98q-14 -53 -57.5 -81t-97.5 -27z" />
    <glyph glyph-name="v" unicode="v" horiz-adv-x="505" 
d="M480 517l-185 -517h-84l-186 517h85l138 -405h9l140 405h83z" />
    <glyph glyph-name="w" unicode="w" horiz-adv-x="783" 
d="M755 517l-156 -517h-90l-119 385l-113 -385h-89l-159 517h83l119 -402h8l118 402h69l122 -400h8l115 400h84z" />
    <glyph glyph-name="x" unicode="x" horiz-adv-x="563" 
d="M531 0h-98l-152 205l-151 -205h-98l199 269l-183 248h98l136 -184l136 184h98l-184 -248z" />
    <glyph glyph-name="y" unicode="y" horiz-adv-x="536" 
d="M128 -165q-27 0 -46.5 3.5t-25.5 6.5l-7 3v58l54 -1q35 -1 58.5 8.5t32 20.5t15.5 28l18 50l-202 505h91l154 -402l153 402h87l-218 -558q-28 -69 -67.5 -96.5t-96.5 -27.5z" />
    <glyph glyph-name="z" unicode="z" horiz-adv-x="506" 
d="M45 0v56l299 399h-277v62h386v-57l-298 -398h303v-62h-413z" />
    <glyph glyph-name="braceleft" unicode="{" horiz-adv-x="325" 
d="M121 621q0 47 35.5 74.5t92.5 27.5h49v-58h-35q-36 0 -49 -12.5t-13 -38.5v-214q-1 -53 -29 -81t-70 -32q-5 -1 -6 -3t2 -3l4 -1q42 -3 70 -30.5t29 -83.5v-216q0 -29 13.5 -41t48.5 -12h35v-58h-47q-59 0 -94.5 28t-35.5 76v217q0 39 -29.5 67.5t-83.5 28.5v54
q57 1 85 28t28 73v210z" />
    <glyph glyph-name="bar" unicode="|" horiz-adv-x="254" 
d="M164 -161h-70v987h70v-987z" />
    <glyph glyph-name="braceright" unicode="}" horiz-adv-x="329" 
d="M196 621v-210q0 -46 28 -73t85 -28v-54q-54 0 -83.5 -28.5t-29.5 -67.5v-217q0 -48 -35 -76t-94 -28h-48v58h35q36 0 49.5 12t13.5 41v216q1 56 29 83.5t69 30.5q6 1 6 3q1 2 -2 3l-4 1q-41 4 -69 32.5t-29 80.5v214q0 26 -13.5 38.5t-48.5 12.5h-36v58h50
q56 0 91.5 -27.5t35.5 -74.5z" />
    <glyph glyph-name="asciitilde" unicode="~" horiz-adv-x="566" 
d="M504 373q-40 -65 -126 -65q-42 0 -97.5 26t-87.5 26q-55 0 -109 -56l-26 51q34 33 63.5 50t70.5 17q39 0 96 -26t89 -26q59 0 100 55z" />
    <glyph glyph-name="uni00A0" unicode="&#xa0;" horiz-adv-x="229" 
 />
    <glyph glyph-name="exclamdown" unicode="&#xa1;" horiz-adv-x="248" 
d="M176 403h-107v114h107v-114zM177 -161h-108l24 496h60z" />
    <glyph glyph-name="cent" unicode="&#xa2;" horiz-adv-x="542" 
d="M292 170q47 0 80 27t43 72h78q-10 -71 -57 -114t-115 -52v-103h-66v103q-93 11 -148 83t-55 181q0 110 55 183.5t148 85.5v87h66v-87q69 -9 116 -54t57 -116l-80 -1q-13 49 -45 75t-78 26q-70 0 -111.5 -53.5t-41.5 -143.5q0 -91 41.5 -145t112.5 -54z" />
    <glyph glyph-name="sterling" unicode="&#xa3;" horiz-adv-x="611" 
d="M15 0v77h38q40 0 65 35t25 104q0 51 -12 128h-101v58h91l-15 82q-24 111 39 180t164 69q70 0 126 -33t77 -84l-80 -29q-33 69 -111 69q-52 0 -86.5 -30.5t-34.5 -82.5q0 -56 24 -140h162v-58h-154q10 -68 6 -115q-3 -95 -58 -152h176q52 0 82.5 18.5t46.5 63.5l78 -21
q-46 -139 -202 -139h-346z" />
    <glyph glyph-name="currency" unicode="&#xa4;" horiz-adv-x="537" 
d="M267 174q-57 0 -104 31q-8 5 -14 -1l-53 -55l-44 46l59 59q-34 51 -34 110q0 56 30 102q5 7 -1 13l-53 54l44 45l59 -61q49 35 109 35t104 -31q6 -5 12 1l54 54l43 -45l-59 -59q35 -49 35 -108q0 -60 -31 -103q-3 -7 1 -11l55 -52l-44 -45l-58 58q-53 -37 -110 -37z
M267 243q51 0 86 36t35 85t-35 85t-86 36t-86 -36t-35 -85t35 -85t86 -36z" />
    <glyph glyph-name="yen" unicode="&#xa5;" horiz-adv-x="609" 
d="M604 723l-235 -385h142v-57h-153v-89h153v-57h-153v-135h-102v134h-153v57h153v89h-153v57h132l-230 386h117l192 -333l193 333h97z" />
    <glyph glyph-name="brokenbar" unicode="&#xa6;" horiz-adv-x="254" 
d="M164 426h-70v400h70v-400zM164 -161h-70v401h70v-401z" />
    <glyph glyph-name="section" unicode="&#xa7;" horiz-adv-x="489" 
d="M252 -72q-72 0 -130.5 32.5t-84.5 83.5l59 32q55 -85 156 -85q49 0 80 19.5t31 53.5q0 27 -21.5 49t-75.5 43l-87 34q-68 26 -99 61t-31 84q0 45 27 78.5t72 51.5q-55 29 -75 59.5t-20 69.5q0 60 51.5 99.5t134.5 39.5q64 0 115 -29t78 -72l-60 -33q-56 71 -128 71
q-51 0 -79.5 -18.5t-28.5 -50.5q0 -48 79 -79l83 -33q78 -31 112 -69.5t34 -91.5q0 -82 -89 -128q92 -52 92 -127q0 -64 -53 -104.5t-142 -40.5zM275 236q37 -3 64 21t26 59q-2 32 -20 54t-66 40l-55 22q-40 -4 -68.5 -29t-28.5 -56q0 -28 18 -46.5t70 -39.5z" />
    <glyph glyph-name="dieresis" unicode="&#xa8;" horiz-adv-x="264" 
d="M0 625v94h96v-94h-96zM168 625v94h96v-94h-96z" />
    <glyph glyph-name="copyright" unicode="&#xa9;" horiz-adv-x="816" 
d="M407 -10q-155 0 -263.5 108.5t-108.5 263.5q0 153 109 262t263 109q153 0 262 -109t109 -262q0 -155 -109 -263.5t-262 -108.5zM407 51q129 0 217.5 86.5t88.5 224.5q0 137 -89 224t-217 87q-131 0 -219 -86.5t-88 -224.5q0 -139 87.5 -225t219.5 -86zM409 573
q107 0 165 -110l-67 -17q-38 71 -95 71q-52 0 -84 -41t-32 -111q0 -71 32.5 -112t85.5 -41q70 0 111 76l50 -19q-58 -113 -166 -113q-85 0 -138 57.5t-53 149.5q0 93 53.5 151.5t137.5 58.5z" />
    <glyph glyph-name="ordfeminine" unicode="&#xaa;" horiz-adv-x="403" 
d="M153 396q-51 0 -79.5 24t-28.5 66q0 48 42 76t120 33l56 5v23q0 62 -72 62q-55 0 -83 -48l-55 15q37 79 141 79q130 0 130 -108v-117q0 -39 4 -68l6 -36h-64l-8 43q-50 -49 -109 -49zM175 440q37 0 65 25q23 21 23 41v53l-46 -3q-108 -8 -108 -66q0 -23 18 -36.5
t48 -13.5z" />
    <glyph glyph-name="guillemotleft" unicode="&#xab;" horiz-adv-x="452" 
d="M121 251l101 -181h-51l-131 181l131 189h52zM297 251l101 -181h-51l-132 181l132 189h52z" />
    <glyph glyph-name="logicalnot" unicode="&#xac;" horiz-adv-x="553" 
d="M62 398l429 1v-213h-75l-1 143l-353 -1v70z" />
    <glyph glyph-name="uni00AD" unicode="&#xad;" horiz-adv-x="380" 
d="M315 294v-71l-253 -1v71z" />
    <glyph glyph-name="registered" unicode="&#xae;" horiz-adv-x="538" 
d="M268 268q-97 0 -165 67.5t-68 164.5t68 165t165 68q96 0 164 -68t68 -165t-68 -164.5t-164 -67.5zM268 313q82 0 133 51t51 136q0 84 -51.5 136t-132.5 52q-83 0 -134 -51.5t-51 -136.5t50.5 -136t134.5 -51zM179 383v231h104q79 0 79 -59q0 -44 -48 -62l44 -110h-46
l-38 106h-53v-106h-42zM221 523h57q40 0 40 29t-43 29h-54v-58z" />
    <glyph glyph-name="macron" unicode="&#xaf;" horiz-adv-x="324" 
d="M308 710v-63h-295v63h295z" />
    <glyph glyph-name="degree" unicode="&#xb0;" horiz-adv-x="462" 
d="M386 680q0 -68 -44.5 -112t-111.5 -44q-68 0 -112 43.5t-44 112.5q0 68 44 112.5t112 44.5q67 0 111.5 -44.5t44.5 -112.5zM322 679q0 43 -25.5 70t-68.5 27t-69 -27t-25 -70q1 -44 26.5 -71t68.5 -27q42 0 67.5 27t25.5 71z" />
    <glyph glyph-name="plusminus" unicode="&#xb1;" horiz-adv-x="553" 
d="M312 475h179v-70h-179v-180h-70v179h-180v70h180v181h70v-180zM62 60v69l429 1v-70h-429z" />
    <glyph glyph-name="uni00B2" unicode="&#xb2;" horiz-adv-x="360" 
d="M33 384v53q0 45 25 79t60 54.5t70.5 39.5t60.5 45.5t25 60.5q0 35 -25 57t-67 22q-44 0 -71.5 -25t-31.5 -68h-56q2 62 44 102.5t118 40.5q68 0 108.5 -35.5t40.5 -93.5q0 -45 -24.5 -78.5t-59.5 -53t-70 -38t-59.5 -44t-24.5 -59.5v-9h240v-50h-303z" />
    <glyph glyph-name="uni00B3" unicode="&#xb3;" horiz-adv-x="395" 
d="M31 707q0 63 45 100.5t111 37.5q72 0 116 -31t44 -86q0 -73 -87 -104q46 -12 72.5 -42t26.5 -73q0 -60 -49 -96t-125 -35q-70 1 -114 37.5t-46 98.5h57q6 -42 34 -65t71 -23q51 0 81 23t30 61q0 41 -32.5 63.5t-83.5 22.5l-40 1v48l38 1q45 1 75.5 24t30.5 56
q0 30 -27 51t-72 21q-40 0 -69.5 -23.5t-30.5 -67.5h-56z" />
    <glyph glyph-name="acute" unicode="&#xb4;" horiz-adv-x="289" 
d="M254 732l23 -68l-252 -75l-15 46z" />
    <glyph glyph-name="uni00B5" unicode="&#xb5;" horiz-adv-x="591" 
d="M77 -165v695h92v-363q0 -38 30.5 -64.5t74.5 -26.5q76 0 149 89v365h93l-1 -530h-89v82q-46 -40 -79 -57t-71 -19q-66 -3 -107 30v-201h-92z" />
    <glyph glyph-name="paragraph" unicode="&#xb6;" horiz-adv-x="562" 
d="M486 668h-60v-751h-60v751h-50v-751h-60v380q-95 3 -153 61.5t-58 146.5q0 90 60.5 154t169.5 64h211v-55z" />
    <glyph glyph-name="periodcentered" unicode="&#xb7;" horiz-adv-x="228" 
d="M168 419v-109h-113v109h113z" />
    <glyph glyph-name="cedilla" unicode="&#xb8;" horiz-adv-x="229" 
d="M213 -129q0 -36 -31 -56.5t-77 -20.5q-54 0 -94 25l15 39q33 -24 69 -24q54 0 54 37q0 43 -80 44q-9 0 -6 7l37 83h47l-23 -60q47 -3 68 -24t21 -50z" />
    <glyph glyph-name="uni00B9" unicode="&#xb9;" horiz-adv-x="297" 
d="M94 380v363h-89v37q59 0 81.5 13t24.5 42h41v-455h-58z" />
    <glyph glyph-name="ordmasculine" unicode="&#xba;" horiz-adv-x="403" 
d="M201 732q71 0 114 -46.5t43 -122.5q0 -74 -42.5 -120t-114.5 -46t-114 46t-42 120q0 76 43 122.5t113 46.5zM201 685q-43 0 -66 -31.5t-23 -87.5q0 -58 22.5 -90t66.5 -32t67 32t23 90q0 56 -23 87.5t-67 31.5z" />
    <glyph glyph-name="guillemotright" unicode="&#xbb;" horiz-adv-x="452" 
d="M152 251l-102 189h51l132 -189l-132 -181h-50zM328 251l-102 189h51l132 -189l-132 -181h-50z" />
    <glyph glyph-name="onequarter" unicode="&#xbc;" horiz-adv-x="903" 
d="M94 276v363h-89v37q59 0 81.5 13t24.5 42h41v-455h-58zM694 731l-486 -735l-61 1l488 734h59zM723 455h57v-288h76v-50h-76v-117h-55v117h-214v52zM565 167h159v213z" />
    <glyph glyph-name="onehalf" unicode="&#xbd;" horiz-adv-x="938" 
d="M94 276v363h-89v37q59 0 81.5 13t24.5 42h41v-455h-58zM694 731l-486 -735l-61 1l488 734h59zM592 0v53q0 45 25 79t60 54.5t70.5 39.5t60.5 45.5t25 60.5q0 35 -25 57t-67 22q-44 0 -71.5 -25t-31.5 -68h-56q2 62 44 102.5t118 40.5q68 0 108.5 -35.5t40.5 -93.5
q0 -45 -24.5 -78.5t-59.5 -53t-70 -38t-59.5 -44t-24.5 -59.5v-9h240v-50h-303z" />
    <glyph glyph-name="threequarters" unicode="&#xbe;" horiz-adv-x="1001" 
d="M31 602q0 63 45 100.5t111 37.5q72 0 116 -31t44 -86q0 -73 -87 -104q46 -12 72.5 -42t26.5 -73q0 -60 -49 -96t-125 -35q-70 1 -114 37.5t-46 98.5h57q6 -42 34 -65t71 -23q51 0 81 23t30 61q0 41 -32.5 63.5t-83.5 22.5l-40 1v48l38 1q45 1 75.5 24t30.5 56
q0 30 -27 51t-72 21q-40 0 -69.5 -23.5t-30.5 -67.5h-56zM792 731l-486 -735l-61 1l488 734h59zM821 455h57v-288h76v-50h-76v-117h-55v117h-214v52zM663 167h159v213z" />
    <glyph glyph-name="questiondown" unicode="&#xbf;" horiz-adv-x="516" 
d="M216 403v114h108v-114h-108zM490 -27q-32 -68 -94.5 -106t-142.5 -38q-104 0 -162.5 48.5t-58.5 126.5q0 45 20.5 80.5t50 60.5t58.5 49.5t49.5 60.5t20.5 81h78q0 -52 -19 -93t-46 -67.5t-54.5 -50.5t-46.5 -53.5t-19 -64.5q0 -49 35.5 -78t93.5 -29q50 0 95 28t61 69z
" />
    <glyph glyph-name="Agrave" unicode="&#xc0;" horiz-adv-x="706" 
d="M230 938l244 -97l-15 -46l-252 75zM40 0l262 723h102l262 -723h-92l-71 199h-298l-73 -199h-92zM228 282h250l-124 352z" />
    <glyph glyph-name="Aacute" unicode="&#xc1;" horiz-adv-x="706" 
d="M464 938l23 -68l-252 -75l-15 46zM40 0l262 723h102l262 -723h-92l-71 199h-298l-73 -199h-92zM228 282h250l-124 352z" />
    <glyph glyph-name="Acircumflex" unicode="&#xc2;" horiz-adv-x="706" 
d="M424 818l-70 68l-76 -68h-80l125 114h64l123 -114h-86zM40 0l262 723h102l262 -723h-92l-71 199h-298l-73 -199h-92zM228 282h250l-124 352z" />
    <glyph glyph-name="Atilde" unicode="&#xc3;" horiz-adv-x="706" 
d="M504 871q-40 -29 -86 -29q-28 0 -66 13t-60 13q-33 0 -70 -28l-17 48q41 37 82 37q26 0 68 -14t63 -14q31 0 70 27zM40 0l262 723h102l262 -723h-92l-71 199h-298l-73 -199h-92zM228 282h250l-124 352z" />
    <glyph glyph-name="Adieresis" unicode="&#xc4;" horiz-adv-x="706" 
d="M220 830v94h96v-94h-96zM388 830v94h96v-94h-96zM40 0l262 723h102l262 -723h-92l-71 199h-298l-73 -199h-92zM228 282h250l-124 352z" />
    <glyph glyph-name="Aring" unicode="&#xc5;" horiz-adv-x="706" 
d="M457 886q0 -43 -30 -72.5t-74 -29.5q-43 0 -72.5 30t-29.5 74q0 41 30 70t72 29q44 0 74 -29t30 -72zM406 886q0 23 -15.5 38t-38.5 15q-22 0 -38 -15t-16 -38q0 -22 16.5 -38.5t37.5 -16.5q22 0 38 16.5t16 38.5zM40 0l262 723h102l262 -723h-92l-71 199h-298l-73 -199
h-92zM228 282h250l-124 352z" />
    <glyph glyph-name="AE" unicode="&#xc6;" horiz-adv-x="976" 
d="M911 78v-78h-460v202h-247l-113 -202h-91l401 723h497v-78h-345v-241h257v-78h-257v-248h358zM451 282v376l-211 -376h211z" />
    <glyph glyph-name="Ccedilla" unicode="&#xc7;" horiz-adv-x="697" 
d="M369 68q66 0 113 39t61 105l95 -7q-10 -88 -76.5 -148t-171.5 -66l-17 -46q47 -3 68 -24t21 -50q0 -36 -31 -56.5t-77 -20.5q-54 0 -94 25l15 39q33 -24 69 -24q54 0 54 37q0 43 -80 44q-9 0 -6 7l31 69q-133 10 -207 108.5t-74 263.5q0 174 80 272t223 98q113 0 189 -63
t86 -156l-95 -5q-13 67 -59 106.5t-122 39.5q-203 0 -203 -293q0 -294 208 -294z" />
    <glyph glyph-name="Egrave" unicode="&#xc8;" horiz-adv-x="622" 
d="M199 938l244 -97l-15 -46l-252 75zM94 0v723h453v-79h-363v-240h328v-78h-329v-245l374 -1v-80h-463z" />
    <glyph glyph-name="Eacute" unicode="&#xc9;" horiz-adv-x="622" 
d="M433 938l23 -68l-252 -75l-15 46zM94 0v723h453v-79h-363v-240h328v-78h-329v-245l374 -1v-80h-463z" />
    <glyph glyph-name="Ecircumflex" unicode="&#xca;" horiz-adv-x="622" 
d="M392 818l-70 68l-76 -68h-80l125 114h64l123 -114h-86zM94 0v723h453v-79h-363v-240h328v-78h-329v-245l374 -1v-80h-463z" />
    <glyph glyph-name="Edieresis" unicode="&#xcb;" horiz-adv-x="622" 
d="M189 830v94h96v-94h-96zM357 830v94h96v-94h-96zM94 0v723h453v-79h-363v-240h328v-78h-329v-245l374 -1v-80h-463z" />
    <glyph glyph-name="Igrave" unicode="&#xcc;" horiz-adv-x="274" 
d="M16 938l244 -97l-15 -46l-252 75zM94 723h89v-723h-89v723z" />
    <glyph glyph-name="Iacute" unicode="&#xcd;" horiz-adv-x="274" 
d="M250 938l23 -68l-252 -75l-15 46zM94 723h89v-723h-89v723z" />
    <glyph glyph-name="Icircumflex" unicode="&#xce;" horiz-adv-x="274" 
d="M209 818l-70 68l-76 -68h-80l125 114h64l123 -114h-86zM94 723h89v-723h-89v723z" />
    <glyph glyph-name="Idieresis" unicode="&#xcf;" horiz-adv-x="274" 
d="M5 830v94h96v-94h-96zM173 830v94h96v-94h-96zM94 723h89v-723h-89v723z" />
    <glyph glyph-name="Eth" unicode="&#xd0;" horiz-adv-x="704" 
d="M272 722q195 -3 285.5 -92t90.5 -264q0 -366 -386 -366h-156v325h-71v72h71v326q105 0 166 -1zM262 77q143 0 217 67.5t74 219.5q0 153 -72 217.5t-215 64.5h-67v-249h167v-72h-167v-248h63z" />
    <glyph glyph-name="Ntilde" unicode="&#xd1;" horiz-adv-x="744" 
d="M525 871q-40 -29 -86 -29q-27 0 -66 13t-60 13q-33 0 -70 -28l-17 48q41 37 82 37q26 0 68 -14t63 -14q31 0 70 27zM564 723h90v-723h-80l-391 574v-574h-89v723h85l385 -566v566z" />
    <glyph glyph-name="Ograve" unicode="&#xd2;" horiz-adv-x="747" 
d="M253 938l244 -97l-15 -46l-252 75zM374 -10q-146 0 -229 97t-83 272q0 177 83.5 275.5t229.5 98.5q144 0 227.5 -98.5t83.5 -274.5q0 -175 -83 -272.5t-229 -97.5zM376 68q211 0 211 291q0 296 -212 296q-103 0 -159 -73.5t-56 -222.5q0 -147 56 -219t160 -72z" />
    <glyph glyph-name="Oacute" unicode="&#xd3;" horiz-adv-x="747" 
d="M486 938l23 -68l-252 -75l-15 46zM374 -10q-146 0 -229 97t-83 272q0 177 83.5 275.5t229.5 98.5q144 0 227.5 -98.5t83.5 -274.5q0 -175 -83 -272.5t-229 -97.5zM376 68q211 0 211 291q0 296 -212 296q-103 0 -159 -73.5t-56 -222.5q0 -147 56 -219t160 -72z" />
    <glyph glyph-name="Ocircumflex" unicode="&#xd4;" horiz-adv-x="747" 
d="M445 818l-70 68l-76 -68h-80l125 114h64l123 -114h-86zM374 -10q-146 0 -229 97t-83 272q0 177 83.5 275.5t229.5 98.5q144 0 227.5 -98.5t83.5 -274.5q0 -175 -83 -272.5t-229 -97.5zM376 68q211 0 211 291q0 296 -212 296q-103 0 -159 -73.5t-56 -222.5q0 -147 56 -219
t160 -72z" />
    <glyph glyph-name="Otilde" unicode="&#xd5;" horiz-adv-x="747" 
d="M527 871q-40 -29 -86 -29q-27 0 -66 13t-60 13q-33 0 -70 -28l-17 48q41 37 82 37q26 0 68 -14t63 -14q31 0 70 27zM374 -10q-146 0 -229 97t-83 272q0 177 83.5 275.5t229.5 98.5q144 0 227.5 -98.5t83.5 -274.5q0 -175 -83 -272.5t-229 -97.5zM376 68q211 0 211 291
q0 296 -212 296q-103 0 -159 -73.5t-56 -222.5q0 -147 56 -219t160 -72z" />
    <glyph glyph-name="Odieresis" unicode="&#xd6;" horiz-adv-x="747" 
d="M242 830v94h96v-94h-96zM410 830v94h96v-94h-96zM374 -10q-146 0 -229 97t-83 272q0 177 83.5 275.5t229.5 98.5q144 0 227.5 -98.5t83.5 -274.5q0 -175 -83 -272.5t-229 -97.5zM376 68q211 0 211 291q0 296 -212 296q-103 0 -159 -73.5t-56 -222.5q0 -147 56 -219
t160 -72z" />
    <glyph glyph-name="multiply" unicode="&#xd7;" horiz-adv-x="538" 
d="M475 521l-157 -158l157 -156l-50 -50l-157 157l-156 -157l-49 50l156 156l-157 157l49 49l157 -156l157 158z" />
    <glyph glyph-name="Oslash" unicode="&#xd8;" horiz-adv-x="749" 
d="M77 -13l-48 48l85 93q-53 89 -53 231q0 177 83.5 275.5t228.5 98.5q134 0 216 -85l81 87l49 -47l-88 -96q54 -93 54 -232q0 -175 -83.5 -272.5t-228.5 -97.5q-137 0 -215 83zM194 210l331 372q-49 74 -152 74q-194 0 -201 -268q-3 -103 22 -178zM374 68q191 0 198 257
q3 103 -21 185l-331 -371q52 -71 154 -71z" />
    <glyph glyph-name="Ugrave" unicode="&#xd9;" horiz-adv-x="709" 
d="M235 938l244 -97l-15 -46l-252 75zM620 248q0 -258 -264 -258q-137 0 -199.5 67.5t-62.5 201.5v464h93v-479q0 -175 169 -175q84 0 128.5 44t44.5 131v479h91v-475z" />
    <glyph glyph-name="Uacute" unicode="&#xda;" horiz-adv-x="709" 
d="M468 938l23 -68l-252 -75l-15 46zM620 248q0 -258 -264 -258q-137 0 -199.5 67.5t-62.5 201.5v464h93v-479q0 -175 169 -175q84 0 128.5 44t44.5 131v479h91v-475z" />
    <glyph glyph-name="Ucircumflex" unicode="&#xdb;" horiz-adv-x="709" 
d="M427 818l-70 68l-76 -68h-80l125 114h64l123 -114h-86zM620 248q0 -258 -264 -258q-137 0 -199.5 67.5t-62.5 201.5v464h93v-479q0 -175 169 -175q84 0 128.5 44t44.5 131v479h91v-475z" />
    <glyph glyph-name="Udieresis" unicode="&#xdc;" horiz-adv-x="709" 
d="M224 830v94h96v-94h-96zM392 830v94h96v-94h-96zM620 248q0 -258 -264 -258q-137 0 -199.5 67.5t-62.5 201.5v464h93v-479q0 -175 169 -175q84 0 128.5 44t44.5 131v479h91v-475z" />
    <glyph glyph-name="Yacute" unicode="&#xdd;" horiz-adv-x="597" 
d="M417 939l23 -68l-252 -75l-15 46zM588 723l-244 -415v-308h-89v308l-247 415h98l194 -335l191 335h97z" />
    <glyph glyph-name="Thorn" unicode="&#xde;" horiz-adv-x="665" 
d="M632 374q0 -104 -70.5 -157t-188.5 -53h-177v-164h-102v723h102v-149h165q122 0 196.5 -50.5t74.5 -149.5zM526 375q0 122 -170 122h-160v-256h166q78 0 121 33t43 101z" />
    <glyph glyph-name="germandbls" unicode="&#xdf;" horiz-adv-x="616" 
d="M321 723q88 0 131.5 -39t43.5 -99q0 -52 -28.5 -79.5t-91.5 -57.5q-34 -17 -45 -27t-11 -26q0 -17 11 -24.5t44 -18.5q89 -34 123 -60q64 -49 64 -131q0 -81 -55 -126t-142 -45q-83 0 -136 35l32 60q51 -31 98 -31q55 0 87.5 25.5t32.5 72.5q0 25 -9 43.5t-29.5 32
t-37 20.5t-48.5 18q-50 17 -78.5 41t-28.5 71q0 36 20 60t64 50q4 3 18 12t19.5 13t15.5 12.5t14 16t8 18.5t4 23q0 35 -25.5 55.5t-71.5 20.5q-59 0 -93.5 -35.5t-34.5 -101.5v-522h-88v440h-68v66h67q1 97 59 157t165 60z" />
    <glyph glyph-name="agrave" unicode="&#xe0;" horiz-adv-x="546" 
d="M153 732l244 -97l-15 -46l-252 75zM215 -10q-76 0 -123 40t-47 109q0 87 60 128.5t192 44.5l94 3v41q0 50 -32.5 77.5t-87.5 26.5q-47 0 -81.5 -22.5t-43.5 -65.5h-80q4 67 61 111t148 44q98 0 150 -44.5t52 -121.5v-361h-76l-7 94q-53 -104 -179 -104zM242 55
q53 0 100.5 36t48.5 79v89l-78 -1q-93 -2 -137 -27.5t-44 -82.5q0 -43 30.5 -68t79.5 -25z" />
    <glyph glyph-name="aacute" unicode="&#xe1;" horiz-adv-x="546" 
d="M386 732l23 -68l-252 -75l-15 46zM215 -10q-76 0 -123 40t-47 109q0 87 60 128.5t192 44.5l94 3v41q0 50 -32.5 77.5t-87.5 26.5q-47 0 -81.5 -22.5t-43.5 -65.5h-80q4 67 61 111t148 44q98 0 150 -44.5t52 -121.5v-361h-76l-7 94q-53 -104 -179 -104zM242 55
q53 0 100.5 36t48.5 79v89l-78 -1q-93 -2 -137 -27.5t-44 -82.5q0 -43 30.5 -68t79.5 -25z" />
    <glyph glyph-name="acircumflex" unicode="&#xe2;" horiz-adv-x="546" 
d="M345 612l-70 68l-76 -68h-80l125 114h64l123 -114h-86zM215 -10q-76 0 -123 40t-47 109q0 87 60 128.5t192 44.5l94 3v41q0 50 -32.5 77.5t-87.5 26.5q-47 0 -81.5 -22.5t-43.5 -65.5h-80q4 67 61 111t148 44q98 0 150 -44.5t52 -121.5v-361h-76l-7 94
q-53 -104 -179 -104zM242 55q53 0 100.5 36t48.5 79v89l-78 -1q-93 -2 -137 -27.5t-44 -82.5q0 -43 30.5 -68t79.5 -25z" />
    <glyph glyph-name="atilde" unicode="&#xe3;" horiz-adv-x="546" 
d="M427 665q-40 -29 -86 -29q-27 0 -66 13t-60 13q-33 0 -70 -28l-17 48q41 37 82 37q26 0 68 -14t63 -14q31 0 70 27zM215 -10q-76 0 -123 40t-47 109q0 87 60 128.5t192 44.5l94 3v41q0 50 -32.5 77.5t-87.5 26.5q-47 0 -81.5 -22.5t-43.5 -65.5h-80q4 67 61 111t148 44
q98 0 150 -44.5t52 -121.5v-361h-76l-7 94q-53 -104 -179 -104zM242 55q53 0 100.5 36t48.5 79v89l-78 -1q-93 -2 -137 -27.5t-44 -82.5q0 -43 30.5 -68t79.5 -25z" />
    <glyph glyph-name="adieresis" unicode="&#xe4;" horiz-adv-x="546" 
d="M142 624v94h96v-94h-96zM310 624v94h96v-94h-96zM215 -10q-76 0 -123 40t-47 109q0 87 60 128.5t192 44.5l94 3v41q0 50 -32.5 77.5t-87.5 26.5q-47 0 -81.5 -22.5t-43.5 -65.5h-80q4 67 61 111t148 44q98 0 150 -44.5t52 -121.5v-361h-76l-7 94q-53 -104 -179 -104z
M242 55q53 0 100.5 36t48.5 79v89l-78 -1q-93 -2 -137 -27.5t-44 -82.5q0 -43 30.5 -68t79.5 -25z" />
    <glyph glyph-name="aring" unicode="&#xe5;" horiz-adv-x="546" 
d="M379 680q0 -43 -30 -72.5t-74 -29.5q-43 0 -72.5 30t-29.5 74q0 41 30 70t72 29q44 0 74 -29t30 -72zM328 680q0 23 -15.5 38t-38.5 15q-22 0 -38 -15t-16 -38q0 -22 16.5 -38.5t37.5 -16.5q22 0 38 16.5t16 38.5zM215 -10q-76 0 -123 40t-47 109q0 87 60 128.5t192 44.5
l94 3v41q0 50 -32.5 77.5t-87.5 26.5q-47 0 -81.5 -22.5t-43.5 -65.5h-80q4 67 61 111t148 44q98 0 150 -44.5t52 -121.5v-361h-76l-7 94q-53 -104 -179 -104zM242 55q53 0 100.5 36t48.5 79v89l-78 -1q-93 -2 -137 -27.5t-44 -82.5q0 -43 30.5 -68t79.5 -25z" />
    <glyph glyph-name="ae" unicode="&#xe6;" horiz-adv-x="917" 
d="M480 239q0 -71 48 -126.5t116 -55.5q56 0 90.5 23t66.5 64l59 -31q-72 -123 -226 -123q-118 0 -200 103q-4 5 -7 0q-41 -47 -90.5 -75t-126.5 -28q-78 0 -121.5 39t-43.5 106q0 75 62.5 119.5t186.5 52.5l99 8v39q0 52 -31 80.5t-89 28.5q-85 0 -139 -85l-75 25
q66 124 221 124q136 0 174 -92q60 92 181 92q107 0 172 -76.5t65 -210.5zM636 464q-66 0 -109.5 -45.5t-44.5 -121.5l300 -1q0 68 -41 118t-105 50zM393 259l-83 -6q-175 -14 -175 -112q0 -41 28.5 -65.5t78.5 -22.5q62 2 106.5 35.5t44.5 78.5v92z" />
    <glyph glyph-name="ccedilla" unicode="&#xe7;" horiz-adv-x="533" 
d="M286 59q47 0 80 27t42 72h78q-11 -74 -61 -118t-122 -49l-18 -46q47 -3 68 -24t21 -50q0 -36 -31 -56.5t-77 -20.5q-54 0 -94 25l15 39q33 -24 69 -24q54 0 54 37q0 43 -80 44q-9 0 -6 7l31 69q-95 10 -152.5 82t-57.5 183q0 120 65 195.5t171 75.5q81 0 138 -46t68 -126
l-79 -1q-13 48 -45.5 74.5t-77.5 26.5q-71 0 -112.5 -53.5t-41.5 -143.5q0 -91 41.5 -145t113.5 -54z" />
    <glyph glyph-name="egrave" unicode="&#xe8;" horiz-adv-x="551" 
d="M158 732l244 -97l-15 -46l-252 75zM136 237q-1 -78 37.5 -127t112.5 -49q101 0 131 89h84q-17 -78 -76 -119t-138 -41q-109 0 -175.5 70.5t-66.5 192.5q0 125 62.5 199.5t173.5 74.5q107 0 165.5 -68.5t58.5 -187.5v-34h-369zM136 299h283q0 71 -35.5 115t-103.5 44
q-69 0 -107 -47.5t-37 -111.5z" />
    <glyph glyph-name="eacute" unicode="&#xe9;" horiz-adv-x="551" 
d="M392 732l23 -68l-252 -75l-15 46zM136 237q-1 -78 37.5 -127t112.5 -49q101 0 131 89h84q-17 -78 -76 -119t-138 -41q-109 0 -175.5 70.5t-66.5 192.5q0 125 62.5 199.5t173.5 74.5q107 0 165.5 -68.5t58.5 -187.5v-34h-369zM136 299h283q0 71 -35.5 115t-103.5 44
q-69 0 -107 -47.5t-37 -111.5z" />
    <glyph glyph-name="ecircumflex" unicode="&#xea;" horiz-adv-x="551" 
d="M351 612l-70 68l-76 -68h-80l125 114h64l123 -114h-86zM136 237q-1 -78 37.5 -127t112.5 -49q101 0 131 89h84q-17 -78 -76 -119t-138 -41q-109 0 -175.5 70.5t-66.5 192.5q0 125 62.5 199.5t173.5 74.5q107 0 165.5 -68.5t58.5 -187.5v-34h-369zM136 299h283
q0 71 -35.5 115t-103.5 44q-69 0 -107 -47.5t-37 -111.5z" />
    <glyph glyph-name="edieresis" unicode="&#xeb;" horiz-adv-x="551" 
d="M147 624v94h96v-94h-96zM315 624v94h96v-94h-96zM136 237q-1 -78 37.5 -127t112.5 -49q101 0 131 89h84q-17 -78 -76 -119t-138 -41q-109 0 -175.5 70.5t-66.5 192.5q0 125 62.5 199.5t173.5 74.5q107 0 165.5 -68.5t58.5 -187.5v-34h-369zM136 299h283q0 71 -35.5 115
t-103.5 44q-69 0 -107 -47.5t-37 -111.5z" />
    <glyph glyph-name="igrave" unicode="&#xec;" horiz-adv-x="256" 
d="M7 732l244 -97l-15 -46l-252 75zM173 517v-517h-89v517h89z" />
    <glyph glyph-name="iacute" unicode="&#xed;" horiz-adv-x="256" 
d="M240 732l23 -68l-252 -75l-15 46zM173 517v-517h-89v517h89z" />
    <glyph glyph-name="icircumflex" unicode="&#xee;" horiz-adv-x="256" 
d="M199 612l-70 68l-76 -68h-80l125 114h64l123 -114h-86zM173 517v-517h-89v517h89z" />
    <glyph glyph-name="idieresis" unicode="&#xef;" horiz-adv-x="256" 
d="M-4 624v94h96v-94h-96zM164 624v94h96v-94h-96zM173 517v-517h-89v517h89z" />
    <glyph glyph-name="eth" unicode="&#xf0;" horiz-adv-x="587" 
d="M542 257q0 -120 -67.5 -193.5t-182.5 -73.5q-110 0 -178.5 72t-68.5 184q0 114 69 187.5t174 73.5q72 0 114 -44q-41 89 -133 150l-150 -84l-24 38l133 73q-43 24 -112 51l57 43q68 -24 124 -54l101 56l21 -39l-79 -45q202 -138 202 -395zM295 56q69 0 112 53.5t43 139.5
q0 85 -43.5 139.5t-112.5 54.5t-113 -54.5t-44 -139.5t44 -139t114 -54z" />
    <glyph glyph-name="ntilde" unicode="&#xf1;" horiz-adv-x="586" 
d="M454 665q-40 -29 -86 -29q-28 0 -66 13t-60 13q-33 0 -70 -28l-17 48q41 37 82 37q26 0 68 -14t63 -14q31 0 70 27zM80 0v517h87v-72q52 79 163 79q78 0 129.5 -48.5t51.5 -135.5v-340h-90v331q0 57 -31 88t-84 31q-58 0 -97 -26.5t-39 -75.5v-348h-90z" />
    <glyph glyph-name="ograve" unicode="&#xf2;" horiz-adv-x="562" 
d="M160 732l244 -97l-15 -46l-252 75zM281 -10q-110 0 -173 73t-63 192q0 122 64 197t173 75t171.5 -75t62.5 -196q0 -119 -63 -192.5t-172 -73.5zM283 61q72 0 108 54.5t36 143.5t-36.5 143t-108.5 54q-73 0 -110.5 -54.5t-37.5 -142.5t37.5 -143t111.5 -55z" />
    <glyph glyph-name="oacute" unicode="&#xf3;" horiz-adv-x="562" 
d="M393 732l23 -68l-252 -75l-15 46zM281 -10q-110 0 -173 73t-63 192q0 122 64 197t173 75t171.5 -75t62.5 -196q0 -119 -63 -192.5t-172 -73.5zM283 61q72 0 108 54.5t36 143.5t-36.5 143t-108.5 54q-73 0 -110.5 -54.5t-37.5 -142.5t37.5 -143t111.5 -55z" />
    <glyph glyph-name="ocircumflex" unicode="&#xf4;" horiz-adv-x="562" 
d="M352 612l-70 68l-76 -68h-80l125 114h64l123 -114h-86zM281 -10q-110 0 -173 73t-63 192q0 122 64 197t173 75t171.5 -75t62.5 -196q0 -119 -63 -192.5t-172 -73.5zM283 61q72 0 108 54.5t36 143.5t-36.5 143t-108.5 54q-73 0 -110.5 -54.5t-37.5 -142.5t37.5 -143
t111.5 -55z" />
    <glyph glyph-name="otilde" unicode="&#xf5;" horiz-adv-x="562" 
d="M434 665q-40 -29 -86 -29q-28 0 -66 13t-60 13q-33 0 -70 -28l-17 48q41 37 82 37q26 0 68 -14t63 -14q31 0 70 27zM281 -10q-110 0 -173 73t-63 192q0 122 64 197t173 75t171.5 -75t62.5 -196q0 -119 -63 -192.5t-172 -73.5zM283 61q72 0 108 54.5t36 143.5t-36.5 143
t-108.5 54q-73 0 -110.5 -54.5t-37.5 -142.5t37.5 -143t111.5 -55z" />
    <glyph glyph-name="odieresis" unicode="&#xf6;" horiz-adv-x="562" 
d="M149 624v94h96v-94h-96zM317 624v94h96v-94h-96zM281 -10q-110 0 -173 73t-63 192q0 122 64 197t173 75t171.5 -75t62.5 -196q0 -119 -63 -192.5t-172 -73.5zM283 61q72 0 108 54.5t36 143.5t-36.5 143t-108.5 54q-73 0 -110.5 -54.5t-37.5 -142.5t37.5 -143t111.5 -55z
" />
    <glyph glyph-name="divide" unicode="&#xf7;" horiz-adv-x="553" 
d="M334 593v-109h-114v109h114zM491 399v-70l-429 -1v70zM334 244v-110h-114v110h114z" />
    <glyph glyph-name="oslash" unicode="&#xf8;" horiz-adv-x="584" 
d="M561 482l-72 -69q36 -66 36 -157q0 -119 -63 -192.5t-172 -73.5q-104 0 -168 67l-65 -63l-37 39l70 68q-36 66 -36 154q0 122 64 197t173 75q105 0 167 -70l67 64zM143 259q0 -54 13 -94l244 236q-37 55 -109 55q-73 0 -110.5 -54.5t-37.5 -142.5zM436 259q0 51 -12 90
l-242 -234q38 -54 110 -54t108 54.5t36 143.5z" />
    <glyph glyph-name="ugrave" unicode="&#xf9;" horiz-adv-x="583" 
d="M169 732l244 -97l-15 -46l-252 75zM271 -9q-75 0 -134.5 44.5t-59.5 131.5v351h90v-342q0 -60 36.5 -87.5t85.5 -27.5q54 0 91 31t37 89v337h91l-2 -517h-71l-9 98q-14 -53 -57.5 -81t-97.5 -27z" />
    <glyph glyph-name="uacute" unicode="&#xfa;" horiz-adv-x="583" 
d="M402 732l23 -68l-252 -75l-15 46zM271 -9q-75 0 -134.5 44.5t-59.5 131.5v351h90v-342q0 -60 36.5 -87.5t85.5 -27.5q54 0 91 31t37 89v337h91l-2 -517h-71l-9 98q-14 -53 -57.5 -81t-97.5 -27z" />
    <glyph glyph-name="ucircumflex" unicode="&#xfb;" horiz-adv-x="583" 
d="M362 612l-70 68l-76 -68h-80l125 114h64l123 -114h-86zM271 -9q-75 0 -134.5 44.5t-59.5 131.5v351h90v-342q0 -60 36.5 -87.5t85.5 -27.5q54 0 91 31t37 89v337h91l-2 -517h-71l-9 98q-14 -53 -57.5 -81t-97.5 -27z" />
    <glyph glyph-name="udieresis" unicode="&#xfc;" horiz-adv-x="583" 
d="M158 624v94h96v-94h-96zM326 624v94h96v-94h-96zM271 -9q-75 0 -134.5 44.5t-59.5 131.5v351h90v-342q0 -60 36.5 -87.5t85.5 -27.5q54 0 91 31t37 89v337h91l-2 -517h-71l-9 98q-14 -53 -57.5 -81t-97.5 -27z" />
    <glyph glyph-name="yacute" unicode="&#xfd;" horiz-adv-x="536" 
d="M388 732l23 -68l-252 -75l-15 46zM128 -165q-27 0 -46.5 3.5t-25.5 6.5l-7 3v58l54 -1q35 -1 58.5 8.5t32 20.5t15.5 28l18 50l-202 505h91l154 -402l153 402h87l-218 -558q-28 -69 -67.5 -96.5t-96.5 -27.5z" />
    <glyph glyph-name="thorn" unicode="&#xfe;" horiz-adv-x="591" 
d="M169 723v-277q15 17 23.5 25t30 24.5t49 24t61.5 7.5q94 0 153 -67t59 -195q0 -130 -60.5 -202.5t-161.5 -72.5q-80 0 -138 49q-6 6 -9 7t-4.5 -2t-1.5 -11v-194h-90v884h89zM170 116q61 -63 127 -63q71 0 114 54.5t43 157.5q0 100 -42.5 149t-109.5 49q-56 0 -94 -34.5
t-38 -73.5v-239z" />
    <glyph glyph-name="ydieresis" unicode="&#xff;" horiz-adv-x="536" 
d="M144 624v94h96v-94h-96zM312 624v94h96v-94h-96zM128 -165q-27 0 -46.5 3.5t-25.5 6.5l-7 3v58l54 -1q35 -1 58.5 8.5t32 20.5t15.5 28l18 50l-202 505h91l154 -402l153 402h87l-218 -558q-28 -69 -67.5 -96.5t-96.5 -27.5z" />
    <glyph glyph-name="Amacron" unicode="&#x100;" horiz-adv-x="706" 
d="M500 916v-63h-295v63h295zM40 0l262 723h102l262 -723h-92l-71 199h-298l-73 -199h-92zM228 282h250l-124 352z" />
    <glyph glyph-name="amacron" unicode="&#x101;" horiz-adv-x="546" 
d="M423 710v-63h-295v63h295zM215 -10q-76 0 -123 40t-47 109q0 87 60 128.5t192 44.5l94 3v41q0 50 -32.5 77.5t-87.5 26.5q-47 0 -81.5 -22.5t-43.5 -65.5h-80q4 67 61 111t148 44q98 0 150 -44.5t52 -121.5v-361h-76l-7 94q-53 -104 -179 -104zM242 55q53 0 100.5 36
t48.5 79v89l-78 -1q-93 -2 -137 -27.5t-44 -82.5q0 -43 30.5 -68t79.5 -25z" />
    <glyph glyph-name="Abreve" unicode="&#x102;" horiz-adv-x="706" 
d="M507 928q-13 -45 -53.5 -76t-98.5 -31t-97 30t-51 77h66q31 -52 82 -52q53 0 85 52h67zM40 0l262 723h102l262 -723h-92l-71 199h-298l-73 -199h-92zM228 282h250l-124 352z" />
    <glyph glyph-name="abreve" unicode="&#x103;" horiz-adv-x="546" 
d="M430 722q-13 -45 -53.5 -76t-98.5 -31t-97 30t-51 77h66q31 -52 82 -52q52 0 85 52h67zM215 -10q-76 0 -123 40t-47 109q0 87 60 128.5t192 44.5l94 3v41q0 50 -32.5 77.5t-87.5 26.5q-47 0 -81.5 -22.5t-43.5 -65.5h-80q4 67 61 111t148 44q98 0 150 -44.5t52 -121.5
v-361h-76l-7 94q-53 -104 -179 -104zM242 55q53 0 100.5 36t48.5 79v89l-78 -1q-93 -2 -137 -27.5t-44 -82.5q0 -43 30.5 -68t79.5 -25z" />
    <glyph glyph-name="Aogonek" unicode="&#x104;" horiz-adv-x="706" 
d="M618 -118q40 0 72 18v-48q-38 -20 -93 -20q-48 0 -73 21t-25 58q0 29 18 50.5t64 38.5h-7l-71 199h-298l-73 -199h-92l262 723h102l262 -722h1h-1v-1h-1q-51 -21 -72.5 -39.5t-21.5 -42.5q0 -36 47 -36zM228 282h250l-124 352z" />
    <glyph glyph-name="aogonek" unicode="&#x105;" horiz-adv-x="546" 
d="M426 -115q40 0 72 18v-48q-38 -20 -93 -20q-48 0 -73 21t-25 58q0 31 20.5 53.5t72.5 39.5l-6 87q-53 -104 -179 -104q-76 0 -123 40t-47 109q0 87 60 128.5t192 44.5l94 3v41q0 50 -32.5 77.5t-87.5 26.5q-47 0 -81.5 -22.5t-43.5 -65.5h-80q4 67 61 111t148 44
q98 0 150 -44.5t52 -121.5v-361h-12q-46 -20 -66 -38t-20 -41q0 -36 47 -36zM391 170v89l-78 -1q-93 -2 -137 -27.5t-44 -82.5q0 -43 30.5 -68t79.5 -25q53 0 100.5 36t48.5 79z" />
    <glyph glyph-name="Cacute" unicode="&#x106;" horiz-adv-x="697" 
d="M476 938l23 -68l-252 -75l-15 46zM365 733q113 0 189 -63t86 -156l-95 -5q-13 67 -59 106.5t-122 39.5q-203 0 -203 -293q0 -294 208 -294q66 0 113 39t61 105l95 -7q-11 -93 -83 -154t-185 -61q-145 0 -226.5 99.5t-81.5 273.5t80 272t223 98z" />
    <glyph glyph-name="cacute" unicode="&#x107;" horiz-adv-x="533" 
d="M391 732l23 -68l-252 -75l-15 46zM281 527q81 0 138 -46t68 -126l-79 -1q-13 48 -45.5 74.5t-77.5 26.5q-71 0 -112.5 -53.5t-41.5 -143.5q0 -91 41.5 -145t113.5 -54q47 0 80 27t42 72h78q-12 -80 -68.5 -124t-136.5 -44q-106 0 -171 73.5t-65 192.5q0 120 65 195.5
t171 75.5z" />
    <glyph glyph-name="Ccircumflex" unicode="&#x108;" horiz-adv-x="697" 
d="M435 818l-70 68l-76 -68h-80l125 114h64l123 -114h-86zM365 733q113 0 189 -63t86 -156l-95 -5q-13 67 -59 106.5t-122 39.5q-203 0 -203 -293q0 -294 208 -294q66 0 113 39t61 105l95 -7q-11 -93 -83 -154t-185 -61q-145 0 -226.5 99.5t-81.5 273.5t80 272t223 98z" />
    <glyph glyph-name="ccircumflex" unicode="&#x109;" horiz-adv-x="533" 
d="M350 612l-70 68l-76 -68h-80l125 114h64l123 -114h-86zM281 527q81 0 138 -46t68 -126l-79 -1q-13 48 -45.5 74.5t-77.5 26.5q-71 0 -112.5 -53.5t-41.5 -143.5q0 -91 41.5 -145t113.5 -54q47 0 80 27t42 72h78q-12 -80 -68.5 -124t-136.5 -44q-106 0 -171 73.5
t-65 192.5q0 120 65 195.5t171 75.5z" />
    <glyph glyph-name="Cdotaccent" unicode="&#x10a;" horiz-adv-x="697" 
d="M317 812v93h96v-93h-96zM365 733q113 0 189 -63t86 -156l-95 -5q-13 67 -59 106.5t-122 39.5q-203 0 -203 -293q0 -294 208 -294q66 0 113 39t61 105l95 -7q-11 -93 -83 -154t-185 -61q-145 0 -226.5 99.5t-81.5 273.5t80 272t223 98z" />
    <glyph glyph-name="cdotaccent" unicode="&#x10b;" horiz-adv-x="533" 
d="M232 606v93h96v-93h-96zM281 527q81 0 138 -46t68 -126l-79 -1q-13 48 -45.5 74.5t-77.5 26.5q-71 0 -112.5 -53.5t-41.5 -143.5q0 -91 41.5 -145t113.5 -54q47 0 80 27t42 72h78q-12 -80 -68.5 -124t-136.5 -44q-106 0 -171 73.5t-65 192.5q0 120 65 195.5t171 75.5z
" />
    <glyph glyph-name="Ccaron" unicode="&#x10c;" horiz-adv-x="697" 
d="M435 929h86l-123 -114h-65l-125 114h81l76 -67zM365 733q113 0 189 -63t86 -156l-95 -5q-13 67 -59 106.5t-122 39.5q-203 0 -203 -293q0 -294 208 -294q66 0 113 39t61 105l95 -7q-11 -93 -83 -154t-185 -61q-145 0 -226.5 99.5t-81.5 273.5t80 272t223 98z" />
    <glyph glyph-name="ccaron" unicode="&#x10d;" horiz-adv-x="533" 
d="M350 723h86l-123 -114h-65l-125 114h81l76 -67zM281 527q81 0 138 -46t68 -126l-79 -1q-13 48 -45.5 74.5t-77.5 26.5q-71 0 -112.5 -53.5t-41.5 -143.5q0 -91 41.5 -145t113.5 -54q47 0 80 27t42 72h78q-12 -80 -68.5 -124t-136.5 -44q-106 0 -171 73.5t-65 192.5
q0 120 65 195.5t171 75.5z" />
    <glyph glyph-name="Dcaron" unicode="&#x10e;" horiz-adv-x="692" 
d="M407 929h86l-123 -114h-65l-125 114h81l76 -67zM94 723q104 0 165 -1q196 -3 286 -92t90 -264q0 -366 -386 -366h-155v723zM186 646v-569h63q143 0 217.5 67.5t74.5 219.5q0 153 -72.5 217.5t-215.5 64.5h-67z" />
    <glyph glyph-name="dcaron" unicode="&#x10f;" horiz-adv-x="676" 
d="M261 -10q-105 0 -160.5 72t-55.5 199q0 119 53.5 192.5t155.5 73.5q65 0 108 -28.5t60 -60.5v305h89v-743h-68l-10 106q-5 -18 -15.5 -35.5t-29.5 -37t-52 -31.5t-75 -12zM567 531l37 91l-27 5v96h75v-101l-39 -91h-46zM276 59q64 0 104 40.5t42 98.5v123
q-1 19 -8.5 39.5t-22.5 43.5t-44.5 38t-68.5 15q-69 0 -106 -50t-37 -146q0 -102 38 -152t103 -50z" />
    <glyph glyph-name="Dcroat" unicode="&#x110;" horiz-adv-x="704" 
d="M272 722q195 -3 285.5 -92t90.5 -264q0 -366 -386 -366h-156v325h-71v72h71v326q105 0 166 -1zM262 77q143 0 217 67.5t74 219.5q0 153 -72 217.5t-215 64.5h-67v-249h167v-72h-167v-248h63z" />
    <glyph glyph-name="dcroat" unicode="&#x111;" horiz-adv-x="633" 
d="M586 653v-57h-75v-596h-68l-10 106q-5 -18 -15.5 -35.5t-29.5 -37t-52 -31.5t-75 -12q-105 0 -160.5 72t-55.5 199q0 119 53.5 192.5t155.5 73.5q65 0 108 -28.5t60 -60.5v158h-144v57h144v90h89v-90h75zM422 198v123q-1 19 -8.5 39.5t-22.5 43.5t-44.5 38t-68.5 15
q-69 0 -106 -50t-37 -146q0 -102 38 -152t103 -50q64 0 104 40.5t42 98.5z" />
    <glyph glyph-name="Emacron" unicode="&#x112;" horiz-adv-x="622" 
d="M469 916v-63h-295v63h295zM94 0v723h453v-79h-363v-240h328v-78h-329v-245l374 -1v-80h-463z" />
    <glyph glyph-name="emacron" unicode="&#x113;" horiz-adv-x="551" 
d="M428 710v-63h-295v63h295zM136 237q-1 -78 37.5 -127t112.5 -49q101 0 131 89h84q-17 -78 -76 -119t-138 -41q-109 0 -175.5 70.5t-66.5 192.5q0 125 62.5 199.5t173.5 74.5q107 0 165.5 -68.5t58.5 -187.5v-34h-369zM136 299h283q0 71 -35.5 115t-103.5 44
q-69 0 -107 -47.5t-37 -111.5z" />
    <glyph glyph-name="Ebreve" unicode="&#x114;" horiz-adv-x="622" 
d="M476 928q-13 -45 -53.5 -76t-98.5 -31t-97 30t-51 77h66q31 -52 82 -52q53 0 85 52h67zM94 0v723h453v-79h-363v-240h328v-78h-329v-245l374 -1v-80h-463z" />
    <glyph glyph-name="ebreve" unicode="&#x115;" horiz-adv-x="551" 
d="M435 722q-13 -45 -53.5 -76t-98.5 -31t-97 30t-51 77h66q31 -52 82 -52q53 0 85 52h67zM136 237q-1 -78 37.5 -127t112.5 -49q101 0 131 89h84q-17 -78 -76 -119t-138 -41q-109 0 -175.5 70.5t-66.5 192.5q0 125 62.5 199.5t173.5 74.5q107 0 165.5 -68.5t58.5 -187.5
v-34h-369zM136 299h283q0 71 -35.5 115t-103.5 44q-69 0 -107 -47.5t-37 -111.5z" />
    <glyph glyph-name="Edotaccent" unicode="&#x116;" horiz-adv-x="622" 
d="M274 812v93h96v-93h-96zM94 0v723h453v-79h-363v-240h328v-78h-329v-245l374 -1v-80h-463z" />
    <glyph glyph-name="edotaccent" unicode="&#x117;" horiz-adv-x="551" 
d="M233 606v93h96v-93h-96zM136 237q-1 -78 37.5 -127t112.5 -49q101 0 131 89h84q-17 -78 -76 -119t-138 -41q-109 0 -175.5 70.5t-66.5 192.5q0 125 62.5 199.5t173.5 74.5q107 0 165.5 -68.5t58.5 -187.5v-34h-369zM136 299h283q0 71 -35.5 115t-103.5 44
q-69 0 -107 -47.5t-37 -111.5z" />
    <glyph glyph-name="Eogonek" unicode="&#x118;" horiz-adv-x="622" 
d="M515 -117q41 0 72 18v-48q-38 -20 -93 -20q-48 0 -73 21t-25 58q0 57 79 88h-381v723h453v-79h-363v-240h328v-78h-329v-245l374 -1v-77l7 -1q-52 -21 -74 -40t-22 -43q0 -36 47 -36z" />
    <glyph glyph-name="eogonek" unicode="&#x119;" horiz-adv-x="551" 
d="M505 237h-369q-1 -78 37.5 -127t112.5 -49q101 0 131 89h84q-22 -96 -108 -138h3q-52 -21 -74 -40t-22 -43q0 -36 47 -36q41 0 72 18v-48q-38 -20 -93 -20q-48 0 -73 21t-25 58q0 42 40 69q-101 6 -162 76t-61 186q0 125 62.5 199.5t173.5 74.5q107 0 165.5 -68.5
t58.5 -187.5v-34zM280 458q-69 0 -107 -47.5t-37 -111.5h283q0 71 -35.5 115t-103.5 44z" />
    <glyph glyph-name="Ecaron" unicode="&#x11a;" horiz-adv-x="622" 
d="M392 929h86l-123 -114h-65l-125 114h81l76 -67zM94 0v723h453v-79h-363v-240h328v-78h-329v-245l374 -1v-80h-463z" />
    <glyph glyph-name="ecaron" unicode="&#x11b;" horiz-adv-x="552" 
d="M351 723h85l-122 -114h-65l-126 114h82l76 -67zM136 237q-1 -78 37.5 -127t112.5 -49q101 0 131 89h84q-17 -78 -76 -119t-138 -41q-109 0 -175.5 70.5t-66.5 192.5q0 125 62.5 199.5t173.5 74.5q107 0 165.5 -68.5t58.5 -187.5v-34h-369zM136 299h283q0 71 -35.5 115
t-103.5 44q-69 0 -107 -47.5t-37 -111.5z" />
    <glyph glyph-name="Gcircumflex" unicode="&#x11c;" horiz-adv-x="736" 
d="M440 818l-70 68l-76 -68h-80l125 114h64l123 -114h-86zM367 -10q-142 0 -223.5 99t-81.5 270q0 175 84 274.5t226 99.5q107 0 185.5 -65t84.5 -153l-97 -5q-11 62 -59 102.5t-116 40.5q-98 0 -155 -74.5t-57 -213.5q0 -147 58 -220.5t157 -73.5q84 0 133 54t52 117l3 65
h-177v66h270v-373h-68v111q-73 -121 -219 -121z" />
    <glyph glyph-name="gcircumflex" unicode="&#x11d;" horiz-adv-x="613" 
d="M367 612l-70 68l-76 -68h-80l125 114h64l123 -114h-86zM292 -171q-124 0 -190.5 37t-66.5 100q0 26 14 48t29.5 32.5t34.5 21t20 11.5q-1 0 -7.5 3.5t-8.5 5t-8.5 5.5t-9 7t-7 8t-7 10t-4 11.5t-1.5 13.5q0 25 23.5 45t67.5 30q-96 48 -96 143q0 77 61.5 120.5
t162.5 43.5q87 0 148 -45l131 54v-84l-91 -17q18 -38 18 -71q0 -70 -55.5 -117t-159.5 -47l-30 1q-95 -3 -95 -35q0 -14 21.5 -20t77.5 -10q44 -2 113 -6q168 -12 168 -140q0 -74 -66 -116.5t-187 -42.5zM293 257q61 0 93.5 26.5t32.5 76.5q0 52 -34 80.5t-92 28.5
q-60 0 -94.5 -29t-34.5 -80q0 -49 33.5 -76t95.5 -27zM308 -113q149 0 149 88q0 69 -95 75l-146 9q-31 2 -61.5 -23.5t-30.5 -59.5q0 -89 184 -89z" />
    <glyph glyph-name="Gbreve" unicode="&#x11e;" horiz-adv-x="736" 
d="M524 928q-13 -45 -53.5 -76t-98.5 -31t-97 30t-51 77h66q31 -52 82 -52q52 0 85 52h67zM367 -10q-142 0 -223.5 99t-81.5 270q0 175 84 274.5t226 99.5q107 0 185.5 -65t84.5 -153l-97 -5q-11 62 -59 102.5t-116 40.5q-98 0 -155 -74.5t-57 -213.5q0 -147 58 -220.5
t157 -73.5q84 0 133 54t52 117l3 65h-177v66h270v-373h-68v111q-73 -121 -219 -121z" />
    <glyph glyph-name="gbreve" unicode="&#x11f;" horiz-adv-x="613" 
d="M451 722q-13 -45 -53.5 -76t-98.5 -31t-97 30t-51 77h66q31 -52 82 -52q53 0 85 52h67zM292 -171q-124 0 -190.5 37t-66.5 100q0 26 14 48t29.5 32.5t34.5 21t20 11.5q-1 0 -7.5 3.5t-8.5 5t-8.5 5.5t-9 7t-7 8t-7 10t-4 11.5t-1.5 13.5q0 25 23.5 45t67.5 30
q-96 48 -96 143q0 77 61.5 120.5t162.5 43.5q87 0 148 -45l131 54v-84l-91 -17q18 -38 18 -71q0 -70 -55.5 -117t-159.5 -47l-30 1q-95 -3 -95 -35q0 -14 21.5 -20t77.5 -10q44 -2 113 -6q168 -12 168 -140q0 -74 -66 -116.5t-187 -42.5zM293 257q61 0 93.5 26.5t32.5 76.5
q0 52 -34 80.5t-92 28.5q-60 0 -94.5 -29t-34.5 -80q0 -49 33.5 -76t95.5 -27zM308 -113q149 0 149 88q0 69 -95 75l-146 9q-31 2 -61.5 -23.5t-30.5 -59.5q0 -89 184 -89z" />
    <glyph glyph-name="Gdotaccent" unicode="&#x120;" horiz-adv-x="736" 
d="M322 812v93h96v-93h-96zM367 -10q-142 0 -223.5 99t-81.5 270q0 175 84 274.5t226 99.5q107 0 185.5 -65t84.5 -153l-97 -5q-11 62 -59 102.5t-116 40.5q-98 0 -155 -74.5t-57 -213.5q0 -147 58 -220.5t157 -73.5q84 0 133 54t52 117l3 65h-177v66h270v-373h-68v111
q-73 -121 -219 -121z" />
    <glyph glyph-name="gdotaccent" unicode="&#x121;" horiz-adv-x="613" 
d="M249 606v93h96v-93h-96zM292 -171q-124 0 -190.5 37t-66.5 100q0 26 14 48t29.5 32.5t34.5 21t20 11.5q-1 0 -7.5 3.5t-8.5 5t-8.5 5.5t-9 7t-7 8t-7 10t-4 11.5t-1.5 13.5q0 25 23.5 45t67.5 30q-96 48 -96 143q0 77 61.5 120.5t162.5 43.5q87 0 148 -45l131 54v-84
l-91 -17q18 -38 18 -71q0 -70 -55.5 -117t-159.5 -47l-30 1q-95 -3 -95 -35q0 -14 21.5 -20t77.5 -10q44 -2 113 -6q168 -12 168 -140q0 -74 -66 -116.5t-187 -42.5zM293 257q61 0 93.5 26.5t32.5 76.5q0 52 -34 80.5t-92 28.5q-60 0 -94.5 -29t-34.5 -80q0 -49 33.5 -76
t95.5 -27zM308 -113q149 0 149 88q0 69 -95 75l-146 9q-31 2 -61.5 -23.5t-30.5 -59.5q0 -89 184 -89z" />
    <glyph glyph-name="uni0122" unicode="&#x122;" horiz-adv-x="736" 
d="M367 -10q-142 0 -223.5 99t-81.5 270q0 175 84 274.5t226 99.5q107 0 185.5 -65t84.5 -153l-97 -5q-11 62 -59 102.5t-116 40.5q-98 0 -155 -74.5t-57 -213.5q0 -147 58 -220.5t157 -73.5q84 0 133 54t52 117l3 65h-177v66h270v-373h-68v111q-73 -121 -219 -121z
M300 -303l56 123l-43 2v109h114v-95l-84 -139h-43z" />
    <glyph glyph-name="uni0123" unicode="&#x123;" horiz-adv-x="613" 
d="M237 606v92l45 71h42l-44 -76h36v-87h-79zM292 -171q-124 0 -190.5 37t-66.5 100q0 26 14 48t29.5 32.5t34.5 21t20 11.5q-1 0 -7.5 3.5t-8.5 5t-8.5 5.5t-9 7t-7 8t-7 10t-4 11.5t-1.5 13.5q0 25 23.5 45t67.5 30q-96 48 -96 143q0 77 61.5 120.5t162.5 43.5
q87 0 148 -45l131 54v-84l-91 -17q18 -38 18 -71q0 -70 -55.5 -117t-159.5 -47l-30 1q-95 -3 -95 -35q0 -14 21.5 -20t77.5 -10q44 -2 113 -6q168 -12 168 -140q0 -74 -66 -116.5t-187 -42.5zM293 257q61 0 93.5 26.5t32.5 76.5q0 52 -34 80.5t-92 28.5q-60 0 -94.5 -29
t-34.5 -80q0 -49 33.5 -76t95.5 -27zM308 -113q149 0 149 88q0 69 -95 75l-146 9q-31 2 -61.5 -23.5t-30.5 -59.5q0 -89 184 -89z" />
    <glyph glyph-name="Hcircumflex" unicode="&#x124;" horiz-adv-x="704" 
d="M423 818l-70 68l-76 -68h-80l125 114h64l123 -114h-86zM524 335h-341v-335h-89v723h89v-309h341v309h90v-723h-90v335z" />
    <glyph glyph-name="hcircumflex" unicode="&#x125;" horiz-adv-x="586" 
d="M80 0v743h88v-299q48 80 162 80q77 0 129 -43t52 -110v-371h-90v353q0 45 -32 71t-84 26q-57 0 -96 -27t-39 -76v-347h-90zM432 612l-70 68l-76 -68h-80l125 114h64l123 -114h-86z" />
    <glyph glyph-name="Hbar" unicode="&#x126;" horiz-adv-x="738" 
d="M725 616v-59h-96v-557h-90v335h-340v-335h-90v557h-96v59h96v107h90v-107h340v107h90v-107h96zM539 414v143h-340v-143h340z" />
    <glyph glyph-name="hbar" unicode="&#x127;" horiz-adv-x="597" 
d="M342 524q77 0 128.5 -43t51.5 -110v-371h-90v353q0 45 -31.5 71t-83.5 26q-58 0 -97 -27t-39 -76v-347h-89v596h-72v57h72v90h87v-90h149v-57h-149v-152q21 35 62.5 57.5t100.5 22.5z" />
    <glyph glyph-name="Itilde" unicode="&#x128;" horiz-adv-x="274" 
d="M290 871q-40 -29 -86 -29q-28 0 -66 13t-60 13q-33 0 -70 -28l-17 48q41 37 82 37q26 0 68 -14t63 -14q31 0 70 27zM94 723h89v-723h-89v723z" />
    <glyph glyph-name="itilde" unicode="&#x129;" horiz-adv-x="256" 
d="M281 665q-40 -29 -86 -29q-27 0 -66 13t-60 13q-33 0 -70 -28l-17 48q41 37 82 37q26 0 68 -14t63 -14q31 0 70 27zM173 517v-517h-89v517h89z" />
    <glyph glyph-name="Imacron" unicode="&#x12a;" horiz-adv-x="274" 
d="M286 916v-63h-295v63h295zM94 723h89v-723h-89v723z" />
    <glyph glyph-name="imacron" unicode="&#x12b;" horiz-adv-x="256" 
d="M276 710v-63h-295v63h295zM173 517v-517h-89v517h89z" />
    <glyph glyph-name="Ibreve" unicode="&#x12c;" horiz-adv-x="274" 
d="M293 928q-13 -45 -53.5 -76t-98.5 -31t-97 30t-51 77h66q31 -52 82 -52q53 0 85 52h67zM94 723h89v-723h-89v723z" />
    <glyph glyph-name="ibreve" unicode="&#x12d;" horiz-adv-x="256" 
d="M283 722q-13 -45 -53.5 -76t-98.5 -31t-97 30t-51 77h66q31 -52 82 -52q53 0 85 52h67zM173 517v-517h-89v517h89z" />
    <glyph glyph-name="Iogonek" unicode="&#x12e;" horiz-adv-x="274" 
d="M134 -120q40 0 72 18v-48q-38 -20 -93 -20q-48 0 -73 21t-25 58q0 30 19.5 52t67.5 39h-8v723h89v-723h-11l11 -1q-52 -21 -74 -40t-22 -43q0 -36 47 -36z" />
    <glyph glyph-name="iogonek" unicode="&#x12f;" horiz-adv-x="256" 
d="M177 699v-93h-96v93h96zM121 -116q41 0 72 18v-48q-38 -20 -93 -20q-48 0 -73 21t-25 58q0 29 18 50.5t64 38.5v515h89v-517h-10q-48 -21 -68.5 -38.5t-20.5 -41.5q0 -36 47 -36z" />
    <glyph glyph-name="Idotaccent" unicode="&#x130;" horiz-adv-x="274" 
d="M91 812v93h96v-93h-96zM94 723h89v-723h-89v723z" />
    <glyph glyph-name="dotlessi" unicode="&#x131;" horiz-adv-x="256" 
d="M173 517v-517h-89v517h89z" />
    <glyph glyph-name="Jcircumflex" unicode="&#x134;" horiz-adv-x="382" 
d="M317 818l-70 68l-76 -68h-80l125 114h64l123 -114h-86zM294 169q0 -91 -33 -135t-119 -44q-63 0 -117 23l7 86q2 -1 15.5 -7t20.5 -8t21.5 -5t29.5 -3q48 0 66.5 26.5t18.5 92.5v528h90v-554z" />
    <glyph glyph-name="jcircumflex" unicode="&#x135;" horiz-adv-x="251" 
d="M195 612l-70 68l-76 -68h-80l125 114h64l123 -114h-86zM171 -25q0 -73 -32.5 -107t-108.5 -34q-65 0 -65 12v59l52 3q35 2 49.5 18t14.5 53v538h90v-542z" />
    <glyph glyph-name="uni0136" unicode="&#x136;" horiz-adv-x="677" 
d="M644 0h-103l-228 374l-126 -145v-229h-93v723h93v-376l327 376h108l-241 -282zM270 -303l56 123l-43 2v109h114v-95l-84 -139h-43z" />
    <glyph glyph-name="uni0137" unicode="&#x137;" horiz-adv-x="566" 
d="M532 0h-95l-163 262l-104 -108v-154h-90v743h90v-487l246 261h103l-186 -196zM214 -303l56 123l-43 2v109h114v-95l-84 -139h-43z" />
    <glyph glyph-name="kgreenlandic" unicode="&#x138;" horiz-adv-x="576" 
d="M542 0h-105l-153 268l-114 -114v-154h-90v517h90v-268l256 268h99l-179 -181z" />
    <glyph glyph-name="Lacute" unicode="&#x139;" horiz-adv-x="561" 
d="M250 938l23 -68l-252 -75l-15 46zM94 723h92v-642h343v-81h-435v723z" />
    <glyph glyph-name="lacute" unicode="&#x13a;" horiz-adv-x="292" 
d="M233 978l23 -68l-252 -75l-15 46zM209 -6q-74 0 -101.5 37.5t-27.5 100.5v611h89v-602q0 -78 58 -81h28v-58q-24 -8 -46 -8z" />
    <glyph glyph-name="uni013B" unicode="&#x13b;" horiz-adv-x="561" 
d="M94 723h92v-642h343v-81h-435v723zM238 -303l56 123l-43 2v109h114v-95l-84 -139h-43z" />
    <glyph glyph-name="uni013C" unicode="&#x13c;" horiz-adv-x="292" 
d="M209 -6q-74 0 -101.5 37.5t-27.5 100.5v611h89v-602q0 -78 58 -81h28v-58q-24 -8 -46 -8zM66 -302l56 123l-43 2v109h114v-95l-84 -139h-43z" />
    <glyph glyph-name="Lcaron" unicode="&#x13d;" horiz-adv-x="561" 
d="M94 723h92v-642h343v-81h-435v723zM355 530l37 92l-27 5v96h76v-101l-40 -92h-46z" />
    <glyph glyph-name="lcaron" unicode="&#x13e;" horiz-adv-x="292" 
d="M209 -6q-74 0 -101.5 37.5t-27.5 100.5v611h89v-602q0 -78 58 -81h28v-58q-24 -8 -46 -8zM220 544l37 92l-27 5v96h76v-101l-40 -92h-46z" />
    <glyph glyph-name="Ldot" unicode="&#x13f;" horiz-adv-x="579" 
d="M94 723h92v-642h343v-81h-435v723zM533 448v-108h-112v108h112z" />
    <glyph glyph-name="ldot" unicode="&#x140;" horiz-adv-x="346" 
d="M209 -6q-74 0 -101.5 37.5t-27.5 100.5v611h89v-602q0 -78 58 -81h28v-58q-24 -8 -46 -8zM365 340v-108h-113v108h113z" />
    <glyph glyph-name="Lslash" unicode="&#x141;" horiz-adv-x="564" 
d="M189 81h343v-81h-435v322l-77 -21v78l77 20v324h92v-300l167 43v-74l-167 -45v-266z" />
    <glyph glyph-name="lslash" unicode="&#x142;" horiz-adv-x="277" 
d="M255 60h29v-58q-26 -8 -46 -8q-75 0 -102 37t-27 101v108l-96 -79v83l96 78v421h88v-350l75 61v-79l-75 -62v-172q0 -78 58 -81z" />
    <glyph glyph-name="Nacute" unicode="&#x143;" horiz-adv-x="744" 
d="M484 938l23 -68l-252 -75l-15 46zM564 723h90v-723h-80l-391 574v-574h-89v723h85l385 -566v566z" />
    <glyph glyph-name="nacute" unicode="&#x144;" horiz-adv-x="586" 
d="M413 732l23 -68l-252 -75l-15 46zM80 0v517h87v-72q52 79 163 79q78 0 129.5 -48.5t51.5 -135.5v-340h-90v331q0 57 -31 88t-84 31q-58 0 -97 -26.5t-39 -75.5v-348h-90z" />
    <glyph glyph-name="uni0145" unicode="&#x145;" horiz-adv-x="744" 
d="M564 723h90v-723h-80l-391 574v-574h-89v723h85l385 -566v566zM289 -303l56 123l-43 2v109h114v-95l-84 -139h-43z" />
    <glyph glyph-name="uni0146" unicode="&#x146;" horiz-adv-x="586" 
d="M80 0v517h87v-72q52 79 163 79q78 0 129.5 -48.5t51.5 -135.5v-340h-90v331q0 57 -31 88t-84 31q-58 0 -97 -26.5t-39 -75.5v-348h-90zM228 -303l56 123l-43 2v109h114v-95l-84 -139h-43z" />
    <glyph glyph-name="Ncaron" unicode="&#x147;" horiz-adv-x="744" 
d="M443 929h86l-123 -114h-65l-125 114h81l76 -67zM564 723h90v-723h-80l-391 574v-574h-89v723h85l385 -566v566z" />
    <glyph glyph-name="ncaron" unicode="&#x148;" horiz-adv-x="586" 
d="M372 723h86l-123 -114h-65l-125 114h81l76 -67zM80 0v517h87v-72q52 79 163 79q78 0 129.5 -48.5t51.5 -135.5v-340h-90v331q0 57 -31 88t-84 31q-58 0 -97 -26.5t-39 -75.5v-348h-90z" />
    <glyph glyph-name="Eng" unicode="&#x14a;" horiz-adv-x="746" 
d="M654 33h1v-94q0 -91 -33 -135t-119 -44q-59 0 -117 23l7 86q3 -1 16 -6.5t20.5 -8t22 -5.5t28.5 -3q48 0 67 27t19 92v47l-383 562v-574h-89v723h85l385 -566v566h90v-690z" />
    <glyph glyph-name="eng" unicode="&#x14b;" horiz-adv-x="590" 
d="M372 -166q-59 0 -59 10v60l45 2q34 2 49 18.5t15 53.5v378q0 101 -101 101q-74 0 -150 -78v-379h-91l1 517h87v-79q55 49 97 69t90 20q72 0 114 -41t42 -108v-396q0 -70 -36 -109t-103 -39z" />
    <glyph glyph-name="Omacron" unicode="&#x14c;" horiz-adv-x="747" 
d="M523 916v-63h-295v63h295zM374 -10q-146 0 -229 97t-83 272q0 177 83.5 275.5t229.5 98.5q144 0 227.5 -98.5t83.5 -274.5q0 -175 -83 -272.5t-229 -97.5zM376 68q211 0 211 291q0 296 -212 296q-103 0 -159 -73.5t-56 -222.5q0 -147 56 -219t160 -72z" />
    <glyph glyph-name="omacron" unicode="&#x14d;" horiz-adv-x="562" 
d="M430 710v-63h-295v63h295zM281 -10q-110 0 -173 73t-63 192q0 122 64 197t173 75t171.5 -75t62.5 -196q0 -119 -63 -192.5t-172 -73.5zM283 61q72 0 108 54.5t36 143.5t-36.5 143t-108.5 54q-73 0 -110.5 -54.5t-37.5 -142.5t37.5 -143t111.5 -55z" />
    <glyph glyph-name="Obreve" unicode="&#x14e;" horiz-adv-x="747" 
d="M529 928q-13 -45 -53.5 -76t-98.5 -31t-97 30t-51 77h66q31 -52 82 -52q53 0 85 52h67zM374 -10q-146 0 -229 97t-83 272q0 177 83.5 275.5t229.5 98.5q144 0 227.5 -98.5t83.5 -274.5q0 -175 -83 -272.5t-229 -97.5zM376 68q211 0 211 291q0 296 -212 296
q-103 0 -159 -73.5t-56 -222.5q0 -147 56 -219t160 -72z" />
    <glyph glyph-name="obreve" unicode="&#x14f;" horiz-adv-x="562" 
d="M436 722q-13 -45 -53.5 -76t-98.5 -31t-97 30t-51 77h66q31 -52 82 -52q52 0 85 52h67zM281 -10q-110 0 -173 73t-63 192q0 122 64 197t173 75t171.5 -75t62.5 -196q0 -119 -63 -192.5t-172 -73.5zM283 61q72 0 108 54.5t36 143.5t-36.5 143t-108.5 54
q-73 0 -110.5 -54.5t-37.5 -142.5t37.5 -143t111.5 -55z" />
    <glyph glyph-name="Ohungarumlaut" unicode="&#x150;" horiz-adv-x="747" 
d="M371 940l46 -55l-150 -119l-31 37zM533 940l47 -55l-152 -120l-30 38zM374 -10q-146 0 -229 97t-83 272q0 177 83.5 275.5t229.5 98.5q144 0 227.5 -98.5t83.5 -274.5q0 -175 -83 -272.5t-229 -97.5zM376 68q211 0 211 291q0 296 -212 296q-103 0 -159 -73.5t-56 -222.5
q0 -147 56 -219t160 -72z" />
    <glyph glyph-name="ohungarumlaut" unicode="&#x151;" horiz-adv-x="562" 
d="M278 734l46 -55l-150 -119l-31 37zM440 734l47 -55l-152 -120l-30 38zM281 -10q-110 0 -173 73t-63 192q0 122 64 197t173 75t171.5 -75t62.5 -196q0 -119 -63 -192.5t-172 -73.5zM283 61q72 0 108 54.5t36 143.5t-36.5 143t-108.5 54q-73 0 -110.5 -54.5t-37.5 -142.5
t37.5 -143t111.5 -55z" />
    <glyph glyph-name="OE" unicode="&#x152;" horiz-adv-x="1118" 
d="M1053 78v-78h-447l-16 92q-67 -102 -212 -102q-149 0 -232.5 96.5t-83.5 272.5q0 178 85 276t236 98q142 0 207 -103l20 93h430v-78h-358v-241h263v-78h-263v-248h371zM376 67q102 0 151.5 71t49.5 221q0 298 -202 298q-206 0 -206 -298q0 -149 51.5 -220.5t155.5 -71.5z
" />
    <glyph glyph-name="oe" unicode="&#x153;" horiz-adv-x="977" 
d="M293 -10q-112 0 -180 73t-68 192q0 121 69.5 196.5t179.5 75.5q130 0 194 -107q8 -11 17 0q29 50 78 78.5t110 28.5q111 0 175 -76.5t64 -210.5h-391q0 -77 47.5 -129.5t116.5 -52.5q98 0 155 86l61 -31q-41 -65 -94.5 -94t-129.5 -29q-129 0 -194 102q-9 13 -18 -3
q-65 -99 -192 -99zM697 463q-67 0 -111 -46.5t-43 -119.5l301 -1q0 69 -41 118t-106 49zM295 56q73 0 114 53.5t41 148.5q0 94 -42 148.5t-114 54.5t-114.5 -54.5t-42.5 -148.5t42.5 -148t115.5 -54z" />
    <glyph glyph-name="Racute" unicode="&#x154;" horiz-adv-x="676" 
d="M437 938l23 -68l-252 -75l-15 46zM608 0h-95l-132 313h-198v-313h-89v723h278q115 0 175 -51.5t60 -145.5q0 -144 -141 -197zM342 388q84 0 128.5 33.5t44.5 99.5q0 63 -39.5 95.5t-110.5 32.5h-182v-261h159z" />
    <glyph glyph-name="racute" unicode="&#x155;" horiz-adv-x="379" 
d="M325 732l23 -68l-252 -75l-15 46zM80 0v517h86v-98q21 48 70 78t119 30l1 -86q-96 4 -141 -28t-45 -89v-324h-90z" />
    <glyph glyph-name="uni0156" unicode="&#x156;" horiz-adv-x="676" 
d="M608 0h-95l-132 313h-198v-313h-89v723h278q115 0 175 -51.5t60 -145.5q0 -144 -141 -197zM342 388q84 0 128.5 33.5t44.5 99.5q0 63 -39.5 95.5t-110.5 32.5h-182v-261h159zM266 -303l56 123l-43 2v109h114v-95l-84 -139h-43z" />
    <glyph glyph-name="uni0157" unicode="&#x157;" horiz-adv-x="379" 
d="M80 0v517h86v-98q21 48 70 78t119 30l1 -86q-96 4 -141 -28t-45 -89v-324h-90zM60 -303l56 123l-43 2v109h114v-95l-84 -139h-43z" />
    <glyph glyph-name="Rcaron" unicode="&#x158;" horiz-adv-x="676" 
d="M396 929h86l-123 -114h-65l-125 114h81l76 -67zM608 0h-95l-132 313h-198v-313h-89v723h278q115 0 175 -51.5t60 -145.5q0 -144 -141 -197zM342 388q84 0 128.5 33.5t44.5 99.5q0 63 -39.5 95.5t-110.5 32.5h-182v-261h159z" />
    <glyph glyph-name="rcaron" unicode="&#x159;" horiz-adv-x="379" 
d="M284 723h86l-123 -114h-65l-125 114h81l76 -67zM80 0v517h86v-98q21 48 70 78t119 30l1 -86q-96 4 -141 -28t-45 -89v-324h-90z" />
    <glyph glyph-name="Sacute" unicode="&#x15a;" horiz-adv-x="692" 
d="M454 938l23 -68l-252 -75l-15 46zM348 -10q-110 0 -192 51t-96 143l94 6q14 -60 67.5 -92.5t126.5 -32.5q80 0 131.5 32.5t51.5 87.5q0 97 -129 127l-145 33q-174 38 -174 177q-1 93 72.5 151.5t188.5 58.5q120 0 190.5 -59t79.5 -145l-91 -5q-22 133 -179 133
q-66 0 -115.5 -33.5t-49.5 -92.5q0 -40 28 -64.5t100 -42.5l141 -33q177 -39 177 -204q0 -84 -75 -140t-202 -56z" />
    <glyph glyph-name="sacute" unicode="&#x15b;" horiz-adv-x="513" 
d="M358 732l23 -68l-252 -75l-15 46zM261 -10q-86 0 -145 41.5t-69 118.5h83q10 -46 45.5 -68.5t85.5 -22.5q54 0 85.5 20.5t31.5 58.5q0 56 -74 73l-103 27q-67 17 -101.5 48.5t-34.5 86.5q-1 73 53 113.5t143 40.5q84 0 135.5 -39.5t52.5 -108.5h-80q-5 37 -34.5 58
t-75.5 21q-45 0 -78.5 -18.5t-33.5 -61.5q0 -27 21 -42.5t66 -26.5l105 -27q64 -16 92 -55t28 -84q0 -72 -56 -112.5t-142 -40.5z" />
    <glyph glyph-name="Scircumflex" unicode="&#x15c;" horiz-adv-x="692" 
d="M413 818l-70 68l-76 -68h-80l125 114h64l123 -114h-86zM348 -10q-110 0 -192 51t-96 143l94 6q14 -60 67.5 -92.5t126.5 -32.5q80 0 131.5 32.5t51.5 87.5q0 97 -129 127l-145 33q-174 38 -174 177q-1 93 72.5 151.5t188.5 58.5q120 0 190.5 -59t79.5 -145l-91 -5
q-22 133 -179 133q-66 0 -115.5 -33.5t-49.5 -92.5q0 -40 28 -64.5t100 -42.5l141 -33q177 -39 177 -204q0 -84 -75 -140t-202 -56z" />
    <glyph glyph-name="scircumflex" unicode="&#x15d;" horiz-adv-x="513" 
d="M317 612l-70 68l-76 -68h-80l125 114h64l123 -114h-86zM261 -10q-86 0 -145 41.5t-69 118.5h83q10 -46 45.5 -68.5t85.5 -22.5q54 0 85.5 20.5t31.5 58.5q0 56 -74 73l-103 27q-67 17 -101.5 48.5t-34.5 86.5q-1 73 53 113.5t143 40.5q84 0 135.5 -39.5t52.5 -108.5h-80
q-5 37 -34.5 58t-75.5 21q-45 0 -78.5 -18.5t-33.5 -61.5q0 -27 21 -42.5t66 -26.5l105 -27q64 -16 92 -55t28 -84q0 -72 -56 -112.5t-142 -40.5z" />
    <glyph glyph-name="Scedilla" unicode="&#x15e;" horiz-adv-x="692" 
d="M625 186q0 -82 -72 -137.5t-194 -58.5l-17 -45q47 -3 68 -24t21 -50q0 -36 -31 -56.5t-77 -20.5q-54 0 -94 25l15 39q33 -24 69 -24q54 0 54 37q0 43 -80 44q-9 0 -6 7l31 70q-98 8 -169 58t-83 134l94 6q14 -60 67.5 -92.5t126.5 -32.5q80 0 131.5 32.5t51.5 87.5
q0 97 -129 127l-145 33q-174 38 -174 177q-1 93 72.5 151.5t188.5 58.5q120 0 190.5 -59t79.5 -145l-91 -5q-22 133 -179 133q-66 0 -115.5 -33.5t-49.5 -92.5q0 -40 28 -64.5t100 -42.5l141 -33q177 -39 177 -204z" />
    <glyph glyph-name="scedilla" unicode="&#x15f;" horiz-adv-x="513" 
d="M459 143q0 -69 -52.5 -109.5t-133.5 -43.5l-17 -45q47 -3 68 -24t21 -50q0 -36 -31 -56.5t-77 -20.5q-54 0 -94 25l15 39q33 -24 69 -24q54 0 54 37q0 43 -80 44q-9 0 -6 7l31 70q-73 8 -121.5 48.5t-57.5 109.5h83q10 -46 45.5 -68.5t85.5 -22.5q54 0 85.5 20.5
t31.5 58.5q0 56 -74 73l-103 27q-67 17 -101.5 48.5t-34.5 86.5q-1 73 53 113.5t143 40.5q84 0 135.5 -39.5t52.5 -108.5h-80q-5 37 -34.5 58t-75.5 21q-45 0 -78.5 -18.5t-33.5 -61.5q0 -27 21 -42.5t66 -26.5l105 -27q64 -16 92 -55t28 -84z" />
    <glyph glyph-name="Scaron" unicode="&#x160;" horiz-adv-x="692" 
d="M413 929h86l-123 -114h-65l-125 114h81l76 -67zM348 -10q-110 0 -192 51t-96 143l94 6q14 -60 67.5 -92.5t126.5 -32.5q80 0 131.5 32.5t51.5 87.5q0 97 -129 127l-145 33q-174 38 -174 177q-1 93 72.5 151.5t188.5 58.5q120 0 190.5 -59t79.5 -145l-91 -5
q-22 133 -179 133q-66 0 -115.5 -33.5t-49.5 -92.5q0 -40 28 -64.5t100 -42.5l141 -33q177 -39 177 -204q0 -84 -75 -140t-202 -56z" />
    <glyph glyph-name="scaron" unicode="&#x161;" horiz-adv-x="513" 
d="M317 723h86l-123 -114h-65l-125 114h81l76 -67zM261 -10q-86 0 -145 41.5t-69 118.5h83q10 -46 45.5 -68.5t85.5 -22.5q54 0 85.5 20.5t31.5 58.5q0 56 -74 73l-103 27q-67 17 -101.5 48.5t-34.5 86.5q-1 73 53 113.5t143 40.5q84 0 135.5 -39.5t52.5 -108.5h-80
q-5 37 -34.5 58t-75.5 21q-45 0 -78.5 -18.5t-33.5 -61.5q0 -27 21 -42.5t66 -26.5l105 -27q64 -16 92 -55t28 -84q0 -72 -56 -112.5t-142 -40.5z" />
    <glyph glyph-name="uni0162" unicode="&#x162;" horiz-adv-x="575" 
d="M339 0h-17l-21 -54q47 -3 68 -24t21 -50q0 -36 -31 -56.5t-77 -20.5q-54 0 -94 25l15 39q33 -24 69 -24q54 0 54 37q0 43 -80 44q-9 0 -6 7l34 77h-25v640h-234v83h545v-83h-221v-640z" />
    <glyph glyph-name="uni0163" unicode="&#x163;" horiz-adv-x="367" 
d="M244 -3h-11l-19 -49q47 -3 68 -24t21 -50q0 -36 -31 -56.5t-77 -20.5q-54 0 -94 25l15 39q33 -24 69 -24q54 0 54 37q0 43 -80 44q-9 0 -6 7l35 78q-43 10 -61 39.5t-18 81.5v327h-84v66h86l17 150h72v-150h117v-66h-117v-320q0 -40 13.5 -52.5t50.5 -12.5h56v-60
q-23 -9 -76 -9z" />
    <glyph glyph-name="Tcaron" unicode="&#x164;" horiz-adv-x="575" 
d="M368 929h86l-123 -114h-65l-125 114h81l76 -67zM15 640v83h545v-83h-221v-640h-90v640h-234z" />
    <glyph glyph-name="tcaron" unicode="&#x165;" horiz-adv-x="367" 
d="M285 562l37 92l-27 5v96h76v-101l-40 -92h-46zM317 451h-117v-320q0 -40 13.5 -52.5t50.5 -12.5h56v-60q-23 -9 -76 -9q-76 0 -105.5 31t-29.5 96v327h-84v66h86l17 150h72v-150h117v-66z" />
    <glyph glyph-name="Tbar" unicode="&#x166;" horiz-adv-x="575" 
d="M560 640h-221v-242h147v-72h-147v-326h-90v326h-143v72h143v242h-234v83h545v-83z" />
    <glyph glyph-name="tbar" unicode="&#x167;" horiz-adv-x="385" 
d="M275 66h56v-60q-25 -9 -76 -9q-76 0 -106 30.5t-30 96.5v133h-72v57h72v137h-84v66h87l16 150h72v-150h117v-66h-117v-137h105v-57h-105v-126q0 -40 14 -52.5t51 -12.5z" />
    <glyph glyph-name="Utilde" unicode="&#x168;" horiz-adv-x="709" 
d="M509 871q-40 -29 -86 -29q-27 0 -66 13t-60 13q-33 0 -70 -28l-17 48q41 37 82 37q26 0 68 -14t63 -14q31 0 70 27zM620 248q0 -258 -264 -258q-137 0 -199.5 67.5t-62.5 201.5v464h93v-479q0 -175 169 -175q84 0 128.5 44t44.5 131v479h91v-475z" />
    <glyph glyph-name="utilde" unicode="&#x169;" horiz-adv-x="583" 
d="M443 665q-40 -29 -86 -29q-27 0 -66 13t-60 13q-33 0 -70 -28l-17 48q41 37 82 37q26 0 68 -14t63 -14q31 0 70 27zM271 -9q-75 0 -134.5 44.5t-59.5 131.5v351h90v-342q0 -60 36.5 -87.5t85.5 -27.5q54 0 91 31t37 89v337h91l-2 -517h-71l-9 98q-14 -53 -57.5 -81
t-97.5 -27z" />
    <glyph glyph-name="Umacron" unicode="&#x16a;" horiz-adv-x="709" 
d="M505 916v-63h-295v63h295zM620 248q0 -258 -264 -258q-137 0 -199.5 67.5t-62.5 201.5v464h93v-479q0 -175 169 -175q84 0 128.5 44t44.5 131v479h91v-475z" />
    <glyph glyph-name="umacron" unicode="&#x16b;" horiz-adv-x="583" 
d="M439 710v-63h-295v63h295zM271 -9q-75 0 -134.5 44.5t-59.5 131.5v351h90v-342q0 -60 36.5 -87.5t85.5 -27.5q54 0 91 31t37 89v337h91l-2 -517h-71l-9 98q-14 -53 -57.5 -81t-97.5 -27z" />
    <glyph glyph-name="Ubreve" unicode="&#x16c;" horiz-adv-x="709" 
d="M511 928q-13 -45 -53.5 -76t-98.5 -31t-97 30t-51 77h66q31 -52 82 -52q53 0 85 52h67zM620 248q0 -258 -264 -258q-137 0 -199.5 67.5t-62.5 201.5v464h93v-479q0 -175 169 -175q84 0 128.5 44t44.5 131v479h91v-475z" />
    <glyph glyph-name="ubreve" unicode="&#x16d;" horiz-adv-x="583" 
d="M446 722q-13 -45 -53.5 -76t-98.5 -31t-97 30t-51 77h66q31 -52 82 -52q52 0 85 52h67zM271 -9q-75 0 -134.5 44.5t-59.5 131.5v351h90v-342q0 -60 36.5 -87.5t85.5 -27.5q54 0 91 31t37 89v337h91l-2 -517h-71l-9 98q-14 -53 -57.5 -81t-97.5 -27z" />
    <glyph glyph-name="Uring" unicode="&#x16e;" horiz-adv-x="709" 
d="M461 886q0 -43 -30 -72.5t-74 -29.5q-43 0 -72.5 30t-29.5 74q0 41 30 70t72 29q44 0 74 -29t30 -72zM410 886q0 23 -15.5 38t-38.5 15q-22 0 -38 -15t-16 -38q0 -22 16.5 -38.5t37.5 -16.5q22 0 38 16.5t16 38.5zM620 248q0 -258 -264 -258q-137 0 -199.5 67.5
t-62.5 201.5v464h93v-479q0 -175 169 -175q84 0 128.5 44t44.5 131v479h91v-475z" />
    <glyph glyph-name="uring" unicode="&#x16f;" horiz-adv-x="583" 
d="M395 680q0 -43 -30 -72.5t-74 -29.5q-43 0 -72.5 30t-29.5 74q0 41 30 70t72 29q44 0 74 -29t30 -72zM344 680q0 23 -15.5 38t-38.5 15q-22 0 -38 -15t-16 -38q0 -22 16.5 -38.5t37.5 -16.5q22 0 38 16.5t16 38.5zM271 -9q-75 0 -134.5 44.5t-59.5 131.5v351h90v-342
q0 -60 36.5 -87.5t85.5 -27.5q54 0 91 31t37 89v337h91l-2 -517h-71l-9 98q-14 -53 -57.5 -81t-97.5 -27z" />
    <glyph glyph-name="Uhungarumlaut" unicode="&#x170;" horiz-adv-x="709" 
d="M353 940l46 -55l-150 -119l-31 37zM515 940l47 -55l-152 -120l-30 38zM620 248q0 -258 -264 -258q-137 0 -199.5 67.5t-62.5 201.5v464h93v-479q0 -175 169 -175q84 0 128.5 44t44.5 131v479h91v-475z" />
    <glyph glyph-name="uhungarumlaut" unicode="&#x171;" horiz-adv-x="583" 
d="M287 734l46 -55l-150 -119l-31 37zM449 734l47 -55l-152 -120l-30 38zM271 -9q-75 0 -134.5 44.5t-59.5 131.5v351h90v-342q0 -60 36.5 -87.5t85.5 -27.5q54 0 91 31t37 89v337h91l-2 -517h-71l-9 98q-14 -53 -57.5 -81t-97.5 -27z" />
    <glyph glyph-name="Uogonek" unicode="&#x172;" horiz-adv-x="709" 
d="M529 723h91v-475q0 -224 -197 -253q-42 -19 -60.5 -36.5t-18.5 -39.5q0 -36 47 -36q41 0 72 18v-48q-38 -20 -93 -20q-48 0 -73 21t-25 58q0 50 57 79q-122 6 -178.5 73.5t-56.5 194.5v464h93v-479q0 -175 169 -175q84 0 128.5 44t44.5 131v479z" />
    <glyph glyph-name="uogonek" unicode="&#x173;" horiz-adv-x="583" 
d="M453 -117q41 0 72 18v-48q-38 -20 -93 -20q-48 0 -73 21t-25 58q0 32 22 55t78 40l-8 92q-14 -53 -57.5 -81t-97.5 -27q-75 0 -134.5 44.5t-59.5 131.5v351h90v-342q0 -60 36.5 -87.5t85.5 -27.5q54 0 91 31t37 89v337h91l-2 -517h-6q-51 -21 -72.5 -39.5t-21.5 -42.5
q0 -36 47 -36z" />
    <glyph glyph-name="Wcircumflex" unicode="&#x174;" horiz-adv-x="956" 
d="M547 818l-70 68l-76 -68h-80l125 114h64l123 -114h-86zM931 723l-210 -723h-85l-159 565l-162 -565h-82l-208 723h91l161 -581l165 581h70l164 -581l165 581h90z" />
    <glyph glyph-name="wcircumflex" unicode="&#x175;" horiz-adv-x="783" 
d="M465 612l-70 68l-76 -68h-80l125 114h64l123 -114h-86zM755 517l-156 -517h-90l-119 385l-113 -385h-89l-159 517h83l119 -402h8l118 402h69l122 -400h8l115 400h84z" />
    <glyph glyph-name="Ycircumflex" unicode="&#x176;" horiz-adv-x="597" 
d="M376 819l-70 68l-76 -68h-80l125 114h64l123 -114h-86zM588 723l-244 -415v-308h-89v308l-247 415h98l194 -335l191 335h97z" />
    <glyph glyph-name="ycircumflex" unicode="&#x177;" horiz-adv-x="536" 
d="M347 612l-70 68l-76 -68h-80l125 114h64l123 -114h-86zM128 -165q-27 0 -46.5 3.5t-25.5 6.5l-7 3v58l54 -1q35 -1 58.5 8.5t32 20.5t15.5 28l18 50l-202 505h91l154 -402l153 402h87l-218 -558q-28 -69 -67.5 -96.5t-96.5 -27.5z" />
    <glyph glyph-name="Ydieresis" unicode="&#x178;" horiz-adv-x="597" 
d="M173 831v94h96v-94h-96zM341 831v94h96v-94h-96zM588 723l-244 -415v-308h-89v308l-247 415h98l194 -335l191 335h97z" />
    <glyph glyph-name="Zacute" unicode="&#x179;" horiz-adv-x="625" 
d="M436 938l23 -68l-252 -75l-15 46zM52 0v50l397 595h-381v78h507v-48l-401 -596h399v-79h-521z" />
    <glyph glyph-name="zacute" unicode="&#x17a;" horiz-adv-x="506" 
d="M370 732l23 -68l-252 -75l-15 46zM45 0v56l299 399h-277v62h386v-57l-298 -398h303v-62h-413z" />
    <glyph glyph-name="Zdotaccent" unicode="&#x17b;" horiz-adv-x="625" 
d="M277 812v93h96v-93h-96zM52 0v50l397 595h-381v78h507v-48l-401 -596h399v-79h-521z" />
    <glyph glyph-name="zdotaccent" unicode="&#x17c;" horiz-adv-x="506" 
d="M212 606v93h96v-93h-96zM45 0v56l299 399h-277v62h386v-57l-298 -398h303v-62h-413z" />
    <glyph glyph-name="Zcaron" unicode="&#x17d;" horiz-adv-x="625" 
d="M395 929h86l-123 -114h-65l-125 114h81l76 -67zM52 0v50l397 595h-381v78h507v-48l-401 -596h399v-79h-521z" />
    <glyph glyph-name="zcaron" unicode="&#x17e;" horiz-adv-x="506" 
d="M329 723h86l-123 -114h-65l-125 114h81l76 -67zM45 0v56l299 399h-277v62h386v-57l-298 -398h303v-62h-413z" />
    <glyph glyph-name="uni018F" unicode="&#x18f;" horiz-adv-x="746" 
d="M574 396q0 33 -4 63.5t-16.5 67t-33.5 62.5t-58.5 43.5t-87.5 17.5q-44 0 -78.5 -12.5t-55.5 -36.5t-33 -42.5t-23.5 -46.5t-14.5 -34q-3 -5 -13 0l-69 29q-8 4 -2 16q11 24 15 32.5t20.5 36.5t29 41.5t37 36t49.5 34t61 20.5t76 9q85 0 147.5 -32.5t97 -87.5
t50.5 -117.5t16 -133.5q0 -74 -19.5 -140t-56.5 -118.5t-98 -83t-138 -30.5q-83 0 -144 29t-96.5 81.5t-52.5 119t-17 147.5q0 7 0.5 10t3.5 5.5t9 2.5h489q10 0 10 11zM574 313h-388q-13 0 -13 -10q0 -45 10.5 -85t32 -74.5t62 -55t94.5 -20.5q190 0 202 245z" />
    <glyph glyph-name="florin" unicode="&#x192;" horiz-adv-x="452" 
d="M384 517l-12 -66h-127l-85 -488q-11 -62 -48.5 -96t-99.5 -34h-83l10 64l57 1q35 0 52 17.5t24 60.5l84 475h-84l12 66h83l14 80q11 61 49 93.5t98 32.5h96l-10 -64h-74q-27 0 -47 -19.5t-25 -51.5l-13 -71h129z" />
    <glyph glyph-name="Ohorn" unicode="&#x1a0;" horiz-adv-x="783" 
d="M741 739q-1 -74 -25 -111t-80 -42q50 -92 50 -226q0 -175 -83 -272.5t-229 -97.5t-229 97t-83 272q0 177 83.5 275.5t229.5 98.5q139 0 220 -90q40 1 55 19t18 77h73zM376 68q211 0 211 291q0 296 -212 296q-103 0 -159 -73.5t-56 -222.5q0 -147 56 -219t160 -72z" />
    <glyph glyph-name="ohorn" unicode="&#x1a1;" horiz-adv-x="673" 
d="M630 502q-1 -80 -30 -117t-95 -37q11 -44 11 -92q0 -119 -63 -192.5t-172 -73.5q-110 0 -173 73t-63 192q0 122 64 197t173 75q141 0 202 -121q39 1 54 19t19 77h73zM283 61q72 0 108 54.5t36 143.5t-36.5 143t-108.5 54q-73 0 -110.5 -54.5t-37.5 -142.5t37.5 -143
t111.5 -55z" />
    <glyph glyph-name="Uhorn" unicode="&#x1af;" horiz-adv-x="820" 
d="M686 739h73q-1 -84 -33 -121t-106 -33v-337q0 -258 -264 -258q-137 0 -199.5 67.5t-62.5 201.5v464h93v-479q0 -175 169 -175q84 0 128.5 44t44.5 131v479h91v-80q35 2 49 21t17 75z" />
    <glyph glyph-name="uhorn" unicode="&#x1b0;" horiz-adv-x="695" 
d="M574 557h73q-1 -84 -33 -121t-106 -33l-2 -402h-71l-9 98q-14 -53 -57.5 -81t-97.5 -27q-75 0 -134.5 44.5t-59.5 131.5v351h90v-342q0 -60 36.5 -87.5t85.5 -27.5q54 0 91 31t37 89v337h91v-57q35 2 49 21t17 75z" />
    <glyph glyph-name="uni01EA" unicode="&#x1ea;" horiz-adv-x="747" 
d="M459 0q-51 -22 -72 -40t-21 -42q0 -36 47 -36q40 0 72 18v-48q-38 -20 -93 -20q-48 0 -73 21t-25 58q0 51 59 80q-137 7 -214 103.5t-77 264.5q0 177 83.5 275.5t229.5 98.5q144 0 227.5 -98.5t83.5 -274.5q0 -147 -59.5 -240t-167.5 -120zM160 359q0 -147 56 -219
t160 -72q211 0 211 291q0 296 -212 296q-103 0 -159 -73.5t-56 -222.5z" />
    <glyph glyph-name="uni01EB" unicode="&#x1eb;" horiz-adv-x="562" 
d="M352 -1q-48 -20 -69 -38t-21 -42q0 -36 47 -36q41 0 72 18v-48q-38 -20 -93 -20q-48 0 -73 21t-25 58q0 51 60 80q-96 10 -150.5 81.5t-54.5 181.5q0 122 64 197t173 75t171.5 -75t62.5 -196q0 -97 -43.5 -166t-120.5 -91zM134 259q0 -88 37.5 -143t111.5 -55
q72 0 108 54.5t36 143.5t-36.5 143t-108.5 54q-73 0 -110.5 -54.5t-37.5 -142.5z" />
    <glyph glyph-name="Aringacute" unicode="&#x1fa;" horiz-adv-x="706" 
d="M413 699l253 -699h-92l-71 199h-298l-73 -199h-92l254 700q-41 30 -41 82q0 36 23 62t59 32l15 64h68l-29 -68q29 -11 47 -35.5t18 -56.5q0 -51 -41 -81zM352 833q-22 0 -38 -15.5t-16 -38.5q0 -21 16.5 -38t37.5 -17q22 0 38 17t16 38q0 23 -15.5 38.5t-38.5 15.5z
M228 282h250l-124 352z" />
    <glyph glyph-name="aringacute" unicode="&#x1fb;" horiz-adv-x="546" 
d="M352 518q125 -32 125 -157v-361h-76l-7 94q-53 -104 -179 -104q-76 0 -123 40t-47 109q0 87 60 128.5t192 44.5l94 3v41q0 50 -32.5 77.5t-87.5 26.5q-47 0 -81.5 -22.5t-43.5 -65.5h-80q3 53 40 92.5t99 54.5q-26 29 -26 70q0 36 23 62t59 32l15 64h68l-28 -68
q28 -11 46 -35.5t18 -56.5q0 -41 -28 -69zM278 640q-22 0 -38 -15.5t-16 -38.5q0 -21 16.5 -38t37.5 -17q22 0 38 17t16 38q0 23 -15.5 38.5t-38.5 15.5zM391 170v89l-78 -1q-93 -2 -137 -27.5t-44 -82.5q0 -43 30.5 -68t79.5 -25q53 0 100.5 36t48.5 79z" />
    <glyph glyph-name="AEacute" unicode="&#x1fc;" horiz-adv-x="976" 
d="M752 938l23 -68l-252 -75l-15 46zM911 78v-78h-460v202h-247l-113 -202h-91l401 723h497v-78h-345v-241h257v-78h-257v-248h358zM451 282v376l-211 -376h211z" />
    <glyph glyph-name="aeacute" unicode="&#x1fd;" horiz-adv-x="917" 
d="M561 732l23 -68l-252 -75l-15 46zM480 239q0 -71 48 -126.5t116 -55.5q56 0 90.5 23t66.5 64l59 -31q-72 -123 -226 -123q-118 0 -200 103q-4 5 -7 0q-41 -47 -90.5 -75t-126.5 -28q-78 0 -121.5 39t-43.5 106q0 75 62.5 119.5t186.5 52.5l99 8v39q0 52 -31 80.5
t-89 28.5q-85 0 -139 -85l-75 25q66 124 221 124q136 0 174 -92q60 92 181 92q107 0 172 -76.5t65 -210.5zM636 464q-66 0 -109.5 -45.5t-44.5 -121.5l300 -1q0 68 -41 118t-105 50zM393 259l-83 -6q-175 -14 -175 -112q0 -41 28.5 -65.5t78.5 -22.5q62 2 106.5 35.5
t44.5 78.5v92z" />
    <glyph glyph-name="Oslashacute" unicode="&#x1fe;" horiz-adv-x="749" 
d="M484 938l23 -68l-252 -75l-15 46zM77 -13l-48 48l85 93q-53 89 -53 231q0 177 83.5 275.5t228.5 98.5q134 0 216 -85l81 87l49 -47l-88 -96q54 -93 54 -232q0 -175 -83.5 -272.5t-228.5 -97.5q-137 0 -215 83zM194 210l331 372q-49 74 -152 74q-194 0 -201 -268
q-3 -103 22 -178zM374 68q191 0 198 257q3 103 -21 185l-331 -371q52 -71 154 -71z" />
    <glyph glyph-name="oslashacute" unicode="&#x1ff;" horiz-adv-x="584" 
d="M425 664l-252 -75l-15 46l244 97zM561 482l-72 -69q36 -66 36 -157q0 -119 -63 -192.5t-172 -73.5q-104 0 -168 67l-65 -63l-37 39l70 68q-36 66 -36 154q0 122 64 197t173 75q105 0 167 -70l67 64zM143 259q0 -54 13 -94l244 236q-37 55 -109 55q-73 0 -110.5 -54.5
t-37.5 -142.5zM436 259q0 51 -12 90l-242 -234q38 -54 110 -54t108 54.5t36 143.5z" />
    <glyph glyph-name="uni0200" unicode="&#x200;" horiz-adv-x="706" 
d="M187 940l135 -137l-30 -37l-151 119zM349 940l135 -137l-31 -37l-150 119zM40 0l262 723h102l262 -723h-92l-71 199h-298l-73 -199h-92zM228 282h250l-124 352z" />
    <glyph glyph-name="uni0201" unicode="&#x201;" horiz-adv-x="546" 
d="M110 734l135 -137l-30 -37l-151 119zM272 734l135 -137l-31 -37l-150 119zM215 -10q-76 0 -123 40t-47 109q0 87 60 128.5t192 44.5l94 3v41q0 50 -32.5 77.5t-87.5 26.5q-47 0 -81.5 -22.5t-43.5 -65.5h-80q4 67 61 111t148 44q98 0 150 -44.5t52 -121.5v-361h-76l-7 94
q-53 -104 -179 -104zM242 55q53 0 100.5 36t48.5 79v89l-78 -1q-93 -2 -137 -27.5t-44 -82.5q0 -43 30.5 -68t79.5 -25z" />
    <glyph glyph-name="uni0202" unicode="&#x202;" horiz-adv-x="706" 
d="M503 862h-67q-30 52 -84 52q-52 0 -83 -52h-66q13 47 52 77t97 30t98 -31t53 -76zM40 0l262 723h102l262 -723h-92l-71 199h-298l-73 -199h-92zM228 282h250l-124 352z" />
    <glyph glyph-name="uni0203" unicode="&#x203;" horiz-adv-x="546" 
d="M425 656h-67q-30 52 -84 52q-52 0 -83 -52h-66q13 47 52 77t97 30t98 -31t53 -76zM215 -10q-76 0 -123 40t-47 109q0 87 60 128.5t192 44.5l94 3v41q0 50 -32.5 77.5t-87.5 26.5q-47 0 -81.5 -22.5t-43.5 -65.5h-80q4 67 61 111t148 44q98 0 150 -44.5t52 -121.5v-361
h-76l-7 94q-53 -104 -179 -104zM242 55q53 0 100.5 36t48.5 79v89l-78 -1q-93 -2 -137 -27.5t-44 -82.5q0 -43 30.5 -68t79.5 -25z" />
    <glyph glyph-name="uni0204" unicode="&#x204;" horiz-adv-x="622" 
d="M156 940l135 -137l-30 -37l-151 119zM318 940l135 -137l-31 -37l-150 119zM94 0v723h453v-79h-363v-240h328v-78h-329v-245l374 -1v-80h-463z" />
    <glyph glyph-name="uni0205" unicode="&#x205;" horiz-adv-x="551" 
d="M115 734l135 -137l-30 -37l-151 119zM277 734l135 -137l-31 -37l-150 119zM136 237q-1 -78 37.5 -127t112.5 -49q101 0 131 89h84q-17 -78 -76 -119t-138 -41q-109 0 -175.5 70.5t-66.5 192.5q0 125 62.5 199.5t173.5 74.5q107 0 165.5 -68.5t58.5 -187.5v-34h-369z
M136 299h283q0 71 -35.5 115t-103.5 44q-69 0 -107 -47.5t-37 -111.5z" />
    <glyph glyph-name="uni0206" unicode="&#x206;" horiz-adv-x="622" 
d="M471 862h-67q-30 52 -84 52q-52 0 -83 -52h-66q13 47 52 77t97 30t98 -31t53 -76zM94 0v723h453v-79h-363v-240h328v-78h-329v-245l374 -1v-80h-463z" />
    <glyph glyph-name="uni0207" unicode="&#x207;" horiz-adv-x="551" 
d="M430 656h-67q-30 52 -84 52q-52 0 -83 -52h-66q13 47 52 77t97 30t98 -31t53 -76zM136 237q-1 -78 37.5 -127t112.5 -49q101 0 131 89h84q-17 -78 -76 -119t-138 -41q-109 0 -175.5 70.5t-66.5 192.5q0 125 62.5 199.5t173.5 74.5q107 0 165.5 -68.5t58.5 -187.5v-34
h-369zM136 299h283q0 71 -35.5 115t-103.5 44q-69 0 -107 -47.5t-37 -111.5z" />
    <glyph glyph-name="uni0208" unicode="&#x208;" horiz-adv-x="274" 
d="M-27 940l135 -137l-30 -37l-151 119zM135 940l135 -137l-31 -37l-150 119zM94 723h89v-723h-89v723z" />
    <glyph glyph-name="uni0209" unicode="&#x209;" horiz-adv-x="256" 
d="M-37 734l135 -137l-30 -37l-151 119zM125 734l135 -137l-31 -37l-150 119zM173 517v-517h-89v517h89z" />
    <glyph glyph-name="uni020A" unicode="&#x20a;" horiz-adv-x="274" 
d="M288 862h-67q-30 52 -84 52q-52 0 -83 -52h-66q13 47 52 77t97 30t98 -31t53 -76zM94 723h89v-723h-89v723z" />
    <glyph glyph-name="uni020B" unicode="&#x20b;" horiz-adv-x="256" 
d="M279 656h-67q-30 52 -84 52q-52 0 -83 -52h-66q13 47 52 77t97 30t98 -31t53 -76zM173 517v-517h-89v517h89z" />
    <glyph glyph-name="uni020C" unicode="&#x20c;" horiz-adv-x="747" 
d="M209 940l135 -137l-30 -37l-151 119zM371 940l135 -137l-31 -37l-150 119zM374 -10q-146 0 -229 97t-83 272q0 177 83.5 275.5t229.5 98.5q144 0 227.5 -98.5t83.5 -274.5q0 -175 -83 -272.5t-229 -97.5zM376 68q211 0 211 291q0 296 -212 296q-103 0 -159 -73.5
t-56 -222.5q0 -147 56 -219t160 -72z" />
    <glyph glyph-name="uni020D" unicode="&#x20d;" horiz-adv-x="562" 
d="M117 734l135 -137l-30 -37l-151 119zM279 734l135 -137l-31 -37l-150 119zM281 -10q-110 0 -173 73t-63 192q0 122 64 197t173 75t171.5 -75t62.5 -196q0 -119 -63 -192.5t-172 -73.5zM283 61q72 0 108 54.5t36 143.5t-36.5 143t-108.5 54q-73 0 -110.5 -54.5
t-37.5 -142.5t37.5 -143t111.5 -55z" />
    <glyph glyph-name="uni020E" unicode="&#x20e;" horiz-adv-x="747" 
d="M525 862h-67q-30 52 -84 52q-52 0 -83 -52h-66q13 47 52 77t97 30t98 -31t53 -76zM374 -10q-146 0 -229 97t-83 272q0 177 83.5 275.5t229.5 98.5q144 0 227.5 -98.5t83.5 -274.5q0 -175 -83 -272.5t-229 -97.5zM376 68q211 0 211 291q0 296 -212 296q-103 0 -159 -73.5
t-56 -222.5q0 -147 56 -219t160 -72z" />
    <glyph glyph-name="uni020F" unicode="&#x20f;" horiz-adv-x="562" 
d="M432 656h-67q-30 52 -84 52q-52 0 -83 -52h-66q13 47 52 77t97 30t98 -31t53 -76zM281 -10q-110 0 -173 73t-63 192q0 122 64 197t173 75t171.5 -75t62.5 -196q0 -119 -63 -192.5t-172 -73.5zM283 61q72 0 108 54.5t36 143.5t-36.5 143t-108.5 54q-73 0 -110.5 -54.5
t-37.5 -142.5t37.5 -143t111.5 -55z" />
    <glyph glyph-name="uni0210" unicode="&#x210;" horiz-adv-x="676" 
d="M160 940l135 -137l-30 -37l-151 119zM322 940l135 -137l-31 -37l-150 119zM608 0h-95l-132 313h-198v-313h-89v723h278q115 0 175 -51.5t60 -145.5q0 -144 -141 -197zM342 388q84 0 128.5 33.5t44.5 99.5q0 63 -39.5 95.5t-110.5 32.5h-182v-261h159z" />
    <glyph glyph-name="uni0211" unicode="&#x211;" horiz-adv-x="379" 
d="M48 734l135 -137l-30 -37l-151 119zM210 734l135 -137l-31 -37l-150 119zM80 0v517h86v-98q21 48 70 78t119 30l1 -86q-96 4 -141 -28t-45 -89v-324h-90z" />
    <glyph glyph-name="uni0212" unicode="&#x212;" horiz-adv-x="676" 
d="M476 862h-67q-30 52 -84 52q-52 0 -83 -52h-66q13 47 52 77t97 30t98 -31t53 -76zM608 0h-95l-132 313h-198v-313h-89v723h278q115 0 175 -51.5t60 -145.5q0 -144 -141 -197zM342 388q84 0 128.5 33.5t44.5 99.5q0 63 -39.5 95.5t-110.5 32.5h-182v-261h159z" />
    <glyph glyph-name="uni0213" unicode="&#x213;" horiz-adv-x="379" 
d="M364 656h-67q-30 52 -84 52q-52 0 -83 -52h-66q13 47 52 77t97 30t98 -31t53 -76zM80 0v517h86v-98q21 48 70 78t119 30l1 -86q-96 4 -141 -28t-45 -89v-324h-90z" />
    <glyph glyph-name="uni0214" unicode="&#x214;" horiz-adv-x="709" 
d="M192 940l135 -137l-30 -37l-151 119zM354 940l135 -137l-31 -37l-150 119zM620 248q0 -258 -264 -258q-137 0 -199.5 67.5t-62.5 201.5v464h93v-479q0 -175 169 -175q84 0 128.5 44t44.5 131v479h91v-475z" />
    <glyph glyph-name="uni0215" unicode="&#x215;" horiz-adv-x="583" 
d="M126 734l135 -137l-30 -37l-151 119zM288 734l135 -137l-31 -37l-150 119zM271 -9q-75 0 -134.5 44.5t-59.5 131.5v351h90v-342q0 -60 36.5 -87.5t85.5 -27.5q54 0 91 31t37 89v337h91l-2 -517h-71l-9 98q-14 -53 -57.5 -81t-97.5 -27z" />
    <glyph glyph-name="uni0216" unicode="&#x216;" horiz-adv-x="709" 
d="M507 862h-67q-30 52 -84 52q-52 0 -83 -52h-66q13 47 52 77t97 30t98 -31t53 -76zM620 248q0 -258 -264 -258q-137 0 -199.5 67.5t-62.5 201.5v464h93v-479q0 -175 169 -175q84 0 128.5 44t44.5 131v479h91v-475z" />
    <glyph glyph-name="uni0217" unicode="&#x217;" horiz-adv-x="583" 
d="M441 656h-67q-30 52 -84 52q-52 0 -83 -52h-66q13 47 52 77t97 30t98 -31t53 -76zM271 -9q-75 0 -134.5 44.5t-59.5 131.5v351h90v-342q0 -60 36.5 -87.5t85.5 -27.5q54 0 91 31t37 89v337h91l-2 -517h-71l-9 98q-14 -53 -57.5 -81t-97.5 -27z" />
    <glyph glyph-name="uni0218" unicode="&#x218;" horiz-adv-x="692" 
d="M348 -10q-110 0 -192 51t-96 143l94 6q14 -60 67.5 -92.5t126.5 -32.5q80 0 131.5 32.5t51.5 87.5q0 97 -129 127l-145 33q-174 38 -174 177q-1 93 72.5 151.5t188.5 58.5q120 0 190.5 -59t79.5 -145l-91 -5q-22 133 -179 133q-66 0 -115.5 -33.5t-49.5 -92.5
q0 -40 28 -64.5t100 -42.5l141 -33q177 -39 177 -204q0 -84 -75 -140t-202 -56zM271 -303l56 123l-43 2v109h114v-95l-84 -139h-43z" />
    <glyph glyph-name="uni0219" unicode="&#x219;" horiz-adv-x="513" 
d="M261 -10q-86 0 -145 41.5t-69 118.5h83q10 -46 45.5 -68.5t85.5 -22.5q54 0 85.5 20.5t31.5 58.5q0 56 -74 73l-103 27q-67 17 -101.5 48.5t-34.5 86.5q-1 73 53 113.5t143 40.5q84 0 135.5 -39.5t52.5 -108.5h-80q-5 37 -34.5 58t-75.5 21q-45 0 -78.5 -18.5
t-33.5 -61.5q0 -27 21 -42.5t66 -26.5l105 -27q64 -16 92 -55t28 -84q0 -72 -56 -112.5t-142 -40.5zM184 -303l56 123l-43 2v109h114v-95l-84 -139h-43z" />
    <glyph glyph-name="uni021A" unicode="&#x21a;" horiz-adv-x="575" 
d="M15 640v83h545v-83h-221v-640h-90v640h-234zM230 -302l56 123l-43 2v109h114v-95l-84 -139h-43z" />
    <glyph glyph-name="uni021B" unicode="&#x21b;" horiz-adv-x="367" 
d="M317 451h-117v-320q0 -40 13.5 -52.5t50.5 -12.5h56v-60q-23 -9 -76 -9q-76 0 -105.5 31t-29.5 96v327h-84v66h86l17 150h72v-150h117v-66zM143 -300l56 123l-43 2v109h114v-95l-84 -139h-43z" />
    <glyph glyph-name="uni0237" unicode="&#x237;" horiz-adv-x="251" 
d="M171 -25q0 -73 -32.5 -107t-108.5 -34q-65 0 -65 12v59l52 3q35 2 49.5 18t14.5 53v538h90v-542z" />
    <glyph glyph-name="uni0259" unicode="&#x259;" horiz-adv-x="551" 
d="M415 280q1 78 -37.5 127t-112.5 49q-101 0 -131 -89h-84q17 78 76 119t138 41q109 0 175.5 -70.5t66.5 -192.5q0 -125 -62.5 -199.5t-173.5 -74.5q-107 0 -165.5 68.5t-58.5 187.5v34h369zM415 218h-283q0 -71 35.5 -115t103.5 -44q69 0 107 47.5t37 111.5z" />
    <glyph glyph-name="uni02BB" unicode="&#x2bb;" horiz-adv-x="205" 
d="M164 679l-8 -1q-20 -1 -35.5 -21t-15.5 -45v-6l59 -3v-107h-114v95q0 55 35.5 93t78.5 30v-35z" />
    <glyph glyph-name="uni02BC" unicode="&#x2bc;" horiz-adv-x="205" 
d="M50 532l8 1q20 1 35.5 21t15.5 45v6l-59 3v107h114v-95q0 -55 -36 -93t-78 -29v34z" />
    <glyph glyph-name="circumflex" unicode="&#x2c6;" horiz-adv-x="321" 
d="M231 612l-70 68l-76 -68h-80l125 114h64l123 -114h-86z" />
    <glyph glyph-name="caron" unicode="&#x2c7;" horiz-adv-x="326" 
d="M231 723h86l-123 -114h-65l-125 114h81l76 -67z" />
    <glyph glyph-name="breve" unicode="&#x2d8;" horiz-adv-x="324" 
d="M312 723q-13 -45 -53.5 -76t-98.5 -31t-97 30t-51 77h66q31 -52 82 -52q52 0 85 52h67z" />
    <glyph glyph-name="dotaccent" unicode="&#x2d9;" horiz-adv-x="125" 
d="M14 606v93h96v-93h-96z" />
    <glyph glyph-name="ring" unicode="&#x2da;" horiz-adv-x="234" 
d="M219 676q0 -43 -30 -72.5t-74 -29.5q-43 0 -72.5 30t-29.5 74q0 41 30 70t72 29q44 0 74 -29t30 -72zM168 676q0 23 -15.5 38t-38.5 15q-22 0 -38 -15t-16 -38q0 -22 16.5 -38.5t37.5 -16.5q22 0 38 16.5t16 38.5z" />
    <glyph glyph-name="ogonek" unicode="&#x2db;" horiz-adv-x="220" 
d="M13 -87q0 32 22.5 55t79.5 41l66 -6q-52 -21 -74 -40t-22 -43q0 -36 47 -36q40 0 72 18v-48q-38 -20 -93 -20q-48 0 -73 21t-25 58z" />
    <glyph glyph-name="tilde" unicode="&#x2dc;" horiz-adv-x="340" 
d="M319 665q-40 -29 -86 -29q-27 0 -66 13t-60 13q-33 0 -70 -28l-17 48q41 37 82 37q26 0 68 -14t63 -14q31 0 70 27z" />
    <glyph glyph-name="hungarumlaut" unicode="&#x2dd;" horiz-adv-x="389" 
d="M157 734l46 -55l-150 -119l-31 37zM319 734l47 -55l-152 -120l-30 38z" />
    <glyph glyph-name="gravecomb" unicode="&#x300;" 
d="M-257 732l244 -97l-15 -46l-252 75z" />
    <glyph glyph-name="acutecomb" unicode="&#x301;" 
d="M-35 732l23 -68l-252 -75l-15 46z" />
    <glyph glyph-name="uni0302" unicode="&#x302;" 
d="M-90 612l-70 68l-76 -68h-80l125 114h64l123 -114h-86z" />
    <glyph glyph-name="tildecomb" unicode="&#x303;" 
d="M-21 665q-40 -29 -86 -29q-27 0 -66 13t-60 13q-33 0 -70 -28l-17 48q41 37 82 37q26 0 68 -14t63 -14q31 0 70 27z" />
    <glyph glyph-name="uni0304" unicode="&#x304;" 
d="M-16 710v-63h-295v63h295z" />
    <glyph glyph-name="uni0306" unicode="&#x306;" 
d="M-12 723q-13 -45 -53.5 -76t-98.5 -31t-97 30t-51 77h66q31 -52 82 -52q52 0 85 52h67z" />
    <glyph glyph-name="uni0307" unicode="&#x307;" 
d="M-111 606v93h96v-93h-96z" />
    <glyph glyph-name="uni0308" unicode="&#x308;" 
d="M-264 625v94h96v-94h-96zM-96 625v94h96v-94h-96z" />
    <glyph glyph-name="hookabovecomb" unicode="&#x309;" 
d="M-366 748l27 -41q21 14 42 14t31 -16q21 -35 -29 -68l27 -41q45 27 57 63t-12 74q-21 32 -60.5 36.5t-82.5 -21.5z" />
    <glyph glyph-name="uni030A" unicode="&#x30a;" 
d="M-15 676q0 -43 -30 -72.5t-74 -29.5q-43 0 -72.5 30t-29.5 74q0 41 30 70t72 29q44 0 74 -29t30 -72zM-66 676q0 23 -15.5 38t-38.5 15q-22 0 -38 -15t-16 -38q0 -22 16.5 -38.5t37.5 -16.5q22 0 38 16.5t16 38.5z" />
    <glyph glyph-name="uni030B" unicode="&#x30b;" 
d="M-232 734l46 -55l-150 -119l-31 37zM-70 734l47 -55l-152 -120l-30 38z" />
    <glyph glyph-name="uni030C" unicode="&#x30c;" 
d="M-95 723h86l-123 -114h-65l-125 114h81l76 -67z" />
    <glyph glyph-name="uni030F" unicode="&#x30f;" 
d="M-322 734l135 -137l-30 -37l-151 119zM-160 734l135 -137l-31 -37l-150 119z" />
    <glyph glyph-name="uni0311" unicode="&#x311;" 
d="M-7 656h-67q-30 52 -84 52q-52 0 -83 -52h-66q13 47 52 77t97 30t98 -31t53 -76z" />
    <glyph glyph-name="uni031B" unicode="&#x31b;" 
d="M0 626q-1 -90 -37.5 -126t-122.5 -26v56q49 -1 66 16t21 80h73z" />
    <glyph glyph-name="dotbelowcomb" unicode="&#x323;" 
d="M-103 -181v93h95v-93h-95z" />
    <glyph glyph-name="uni0326" unicode="&#x326;" 
d="M-126 -303l56 123l-43 2v109h114v-95l-84 -139h-43z" />
    <glyph glyph-name="uni0327" unicode="&#x327;" 
d="M-16 -129q0 -36 -31 -56.5t-77 -20.5q-54 0 -94 25l15 39q33 -24 69 -24q54 0 54 37q0 43 -80 44q-9 0 -6 7l37 83h47l-23 -60q47 -3 68 -24t21 -50z" />
    <glyph glyph-name="uni0328" unicode="&#x328;" 
d="M-207 -87q0 32 22.5 55t79.5 41l66 -6q-52 -21 -74 -40t-22 -43q0 -36 47 -36q40 0 72 18v-48q-38 -20 -93 -20q-48 0 -73 21t-25 58z" />
    <glyph glyph-name="pi" unicode="&#x3c0;" horiz-adv-x="658" 
d="M628 451h-114v-451h-87v451h-216q0 -122 -17 -250t-42 -201h-81q55 211 55 441q0 10 -8 10h-91v66h601v-66z" />
    <glyph glyph-name="uni1E0C" unicode="&#x1e0c;" horiz-adv-x="692" 
d="M94 723q104 0 165 -1q196 -3 286 -92t90 -264q0 -366 -386 -366h-155v723zM186 646v-569h63q143 0 217.5 67.5t74.5 219.5q0 153 -72.5 217.5t-215.5 64.5h-67zM305 -181v93h95v-93h-95z" />
    <glyph glyph-name="uni1E0D" unicode="&#x1e0d;" horiz-adv-x="587" 
d="M261 -10q-105 0 -160.5 72t-55.5 199q0 119 53.5 192.5t155.5 73.5q65 0 108 -28.5t60 -60.5v305h89v-743h-68l-10 106q-5 -18 -15.5 -35.5t-29.5 -37t-52 -31.5t-75 -12zM276 59q64 0 104 40.5t42 98.5v123q-1 19 -8.5 39.5t-22.5 43.5t-44.5 38t-68.5 15
q-69 0 -106 -50t-37 -146q0 -102 38 -152t103 -50zM239 -181v93h95v-93h-95z" />
    <glyph glyph-name="uni1E24" unicode="&#x1e24;" horiz-adv-x="704" 
d="M524 335h-341v-335h-89v723h89v-309h341v309h90v-723h-90v335zM304 -181v93h95v-93h-95z" />
    <glyph glyph-name="uni1E25" unicode="&#x1e25;" horiz-adv-x="586" 
d="M80 0v743h88v-299q48 80 162 80q77 0 129 -43t52 -110v-371h-90v353q0 45 -32 71t-84 26q-57 0 -96 -27t-39 -76v-347h-90zM255 -181v93h95v-93h-95z" />
    <glyph glyph-name="uni1E44" unicode="&#x1e44;" horiz-adv-x="744" 
d="M325 812v93h96v-93h-96zM564 723h90v-723h-80l-391 574v-574h-89v723h85l385 -566v566z" />
    <glyph glyph-name="uni1E45" unicode="&#x1e45;" horiz-adv-x="586" 
d="M254 606v93h96v-93h-96zM80 0v517h87v-72q52 79 163 79q78 0 129.5 -48.5t51.5 -135.5v-340h-90v331q0 57 -31 88t-84 31q-58 0 -97 -26.5t-39 -75.5v-348h-90z" />
    <glyph glyph-name="uni1E5A" unicode="&#x1e5a;" horiz-adv-x="676" 
d="M608 0h-95l-132 313h-198v-313h-89v723h278q115 0 175 -51.5t60 -145.5q0 -144 -141 -197zM342 388q84 0 128.5 33.5t44.5 99.5q0 63 -39.5 95.5t-110.5 32.5h-182v-261h159zM286 -181v93h95v-93h-95z" />
    <glyph glyph-name="uni1E5B" unicode="&#x1e5b;" horiz-adv-x="379" 
d="M80 0v517h86v-98q21 48 70 78t119 30l1 -86q-96 4 -141 -28t-45 -89v-324h-90zM81 -181v93h95v-93h-95z" />
    <glyph glyph-name="uni1E62" unicode="&#x1e62;" horiz-adv-x="692" 
d="M348 -10q-110 0 -192 51t-96 143l94 6q14 -60 67.5 -92.5t126.5 -32.5q80 0 131.5 32.5t51.5 87.5q0 97 -129 127l-145 33q-174 38 -174 177q-1 93 72.5 151.5t188.5 58.5q120 0 190.5 -59t79.5 -145l-91 -5q-22 133 -179 133q-66 0 -115.5 -33.5t-49.5 -92.5
q0 -40 28 -64.5t100 -42.5l141 -33q177 -39 177 -204q0 -84 -75 -140t-202 -56zM291 -181v93h95v-93h-95z" />
    <glyph glyph-name="uni1E63" unicode="&#x1e63;" horiz-adv-x="513" 
d="M261 -10q-86 0 -145 41.5t-69 118.5h83q10 -46 45.5 -68.5t85.5 -22.5q54 0 85.5 20.5t31.5 58.5q0 56 -74 73l-103 27q-67 17 -101.5 48.5t-34.5 86.5q-1 73 53 113.5t143 40.5q84 0 135.5 -39.5t52.5 -108.5h-80q-5 37 -34.5 58t-75.5 21q-45 0 -78.5 -18.5
t-33.5 -61.5q0 -27 21 -42.5t66 -26.5l105 -27q64 -16 92 -55t28 -84q0 -72 -56 -112.5t-142 -40.5zM205 -181v93h95v-93h-95z" />
    <glyph glyph-name="uni1E6C" unicode="&#x1e6c;" horiz-adv-x="575" 
d="M15 640v83h545v-83h-221v-640h-90v640h-234zM250 -180v93h95v-93h-95z" />
    <glyph glyph-name="uni1E6D" unicode="&#x1e6d;" horiz-adv-x="367" 
d="M317 451h-117v-320q0 -40 13.5 -52.5t50.5 -12.5h56v-60q-23 -9 -76 -9q-76 0 -105.5 31t-29.5 96v327h-84v66h86l17 150h72v-150h117v-66zM163 -178v93h95v-93h-95z" />
    <glyph glyph-name="Wgrave" unicode="&#x1e80;" horiz-adv-x="956" 
d="M355 938l244 -97l-15 -46l-252 75zM931 723l-210 -723h-85l-159 565l-162 -565h-82l-208 723h91l161 -581l165 581h70l164 -581l165 581h90z" />
    <glyph glyph-name="wgrave" unicode="&#x1e81;" horiz-adv-x="783" 
d="M273 732l244 -97l-15 -46l-252 75zM755 517l-156 -517h-90l-119 385l-113 -385h-89l-159 517h83l119 -402h8l118 402h69l122 -400h8l115 400h84z" />
    <glyph glyph-name="Wacute" unicode="&#x1e82;" horiz-adv-x="956" 
d="M588 938l23 -68l-252 -75l-15 46zM931 723l-210 -723h-85l-159 565l-162 -565h-82l-208 723h91l161 -581l165 581h70l164 -581l165 581h90z" />
    <glyph glyph-name="wacute" unicode="&#x1e83;" horiz-adv-x="783" 
d="M506 732l23 -68l-252 -75l-15 46zM755 517l-156 -517h-90l-119 385l-113 -385h-89l-159 517h83l119 -402h8l118 402h69l122 -400h8l115 400h84z" />
    <glyph glyph-name="Wdieresis" unicode="&#x1e84;" horiz-adv-x="956" 
d="M344 830v94h96v-94h-96zM512 830v94h96v-94h-96zM931 723l-210 -723h-85l-159 565l-162 -565h-82l-208 723h91l161 -581l165 581h70l164 -581l165 581h90z" />
    <glyph glyph-name="wdieresis" unicode="&#x1e85;" horiz-adv-x="783" 
d="M262 624v94h96v-94h-96zM430 624v94h96v-94h-96zM755 517l-156 -517h-90l-119 385l-113 -385h-89l-159 517h83l119 -402h8l118 402h69l122 -400h8l115 400h84z" />
    <glyph glyph-name="uni1E92" unicode="&#x1e92;" horiz-adv-x="625" 
d="M52 0v50l397 595h-381v78h507v-48l-401 -596h399v-79h-521zM274 -181v93h95v-93h-95z" />
    <glyph glyph-name="uni1E93" unicode="&#x1e93;" horiz-adv-x="506" 
d="M45 0v56l299 399h-277v62h386v-57l-298 -398h303v-62h-413zM212 -181v93h95v-93h-95z" />
    <glyph glyph-name="uni1EA0" unicode="&#x1ea0;" horiz-adv-x="706" 
d="M40 0l262 723h102l262 -723h-92l-71 199h-298l-73 -199h-92zM228 282h250l-124 352zM305 -181v93h95v-93h-95z" />
    <glyph glyph-name="uni1EA1" unicode="&#x1ea1;" horiz-adv-x="546" 
d="M215 -10q-76 0 -123 40t-47 109q0 87 60 128.5t192 44.5l94 3v41q0 50 -32.5 77.5t-87.5 26.5q-47 0 -81.5 -22.5t-43.5 -65.5h-80q4 67 61 111t148 44q98 0 150 -44.5t52 -121.5v-361h-76l-7 94q-53 -104 -179 -104zM242 55q53 0 100.5 36t48.5 79v89l-78 -1
q-93 -2 -137 -27.5t-44 -82.5q0 -43 30.5 -68t79.5 -25zM227 -181v93h95v-93h-95z" />
    <glyph glyph-name="uni1EA2" unicode="&#x1ea2;" horiz-adv-x="706" 
d="M284 945l27 -41q21 14 42 14t31 -16q21 -35 -29 -68l27 -41q45 27 57 63t-12 74q-21 32 -60.5 36.5t-82.5 -21.5zM40 0l262 723h102l262 -723h-92l-71 199h-298l-73 -199h-92zM228 282h250l-124 352z" />
    <glyph glyph-name="uni1EA3" unicode="&#x1ea3;" horiz-adv-x="546" 
d="M207 739l27 -41q21 14 42 14t31 -16q21 -35 -29 -68l27 -41q45 27 57 63t-12 74q-21 32 -60.5 36.5t-82.5 -21.5zM215 -10q-76 0 -123 40t-47 109q0 87 60 128.5t192 44.5l94 3v41q0 50 -32.5 77.5t-87.5 26.5q-47 0 -81.5 -22.5t-43.5 -65.5h-80q4 67 61 111t148 44
q98 0 150 -44.5t52 -121.5v-361h-76l-7 94q-53 -104 -179 -104zM242 55q53 0 100.5 36t48.5 79v89l-78 -1q-93 -2 -137 -27.5t-44 -82.5q0 -43 30.5 -68t79.5 -25z" />
    <glyph glyph-name="uni1EA4" unicode="&#x1ea4;" horiz-adv-x="706" 
d="M463 1108l22 -69l-251 -74l-15 46zM423 818l-70 68l-76 -68h-80l125 114h64l123 -114h-86zM40 0l262 723h102l262 -723h-92l-71 199h-298l-73 -199h-92zM228 282h250l-124 352z" />
    <glyph glyph-name="uni1EA5" unicode="&#x1ea5;" horiz-adv-x="546" 
d="M385 902l22 -69l-251 -74l-15 46zM345 612l-70 68l-76 -68h-80l125 114h64l123 -114h-86zM215 -10q-76 0 -123 40t-47 109q0 87 60 128.5t192 44.5l94 3v41q0 50 -32.5 77.5t-87.5 26.5q-47 0 -81.5 -22.5t-43.5 -65.5h-80q4 67 61 111t148 44q98 0 150 -44.5t52 -121.5
v-361h-76l-7 94q-53 -104 -179 -104zM242 55q53 0 100.5 36t48.5 79v89l-78 -1q-93 -2 -137 -27.5t-44 -82.5q0 -43 30.5 -68t79.5 -25z" />
    <glyph glyph-name="uni1EA6" unicode="&#x1ea6;" horiz-adv-x="706" 
d="M245 1105l244 -97l-15 -46l-252 74zM423 818l-70 68l-76 -68h-80l125 114h64l123 -114h-86zM40 0l262 723h102l262 -723h-92l-71 199h-298l-73 -199h-92zM228 282h250l-124 352z" />
    <glyph glyph-name="uni1EA7" unicode="&#x1ea7;" horiz-adv-x="546" 
d="M167 899l244 -97l-15 -46l-252 74zM345 612l-70 68l-76 -68h-80l125 114h64l123 -114h-86zM215 -10q-76 0 -123 40t-47 109q0 87 60 128.5t192 44.5l94 3v41q0 50 -32.5 77.5t-87.5 26.5q-47 0 -81.5 -22.5t-43.5 -65.5h-80q4 67 61 111t148 44q98 0 150 -44.5t52 -121.5
v-361h-76l-7 94q-53 -104 -179 -104zM242 55q53 0 100.5 36t48.5 79v89l-78 -1q-93 -2 -137 -27.5t-44 -82.5q0 -43 30.5 -68t79.5 -25z" />
    <glyph glyph-name="uni1EA8" unicode="&#x1ea8;" horiz-adv-x="706" 
d="M370 1064l27 -41q21 14 42 14t31 -16q21 -35 -29 -68l27 -41q44 27 56.5 63t-11.5 74q-21 32 -61 36.5t-82 -21.5zM423 818l-70 68l-76 -68h-80l125 114h64l123 -114h-86zM40 0l262 723h102l262 -723h-92l-71 199h-298l-73 -199h-92zM228 282h250l-124 352z" />
    <glyph glyph-name="uni1EA9" unicode="&#x1ea9;" horiz-adv-x="546" 
d="M292 858l27 -41q21 14 42 14t31 -16q21 -35 -29 -68l27 -41q44 27 56.5 63t-11.5 74q-21 32 -61 36.5t-82 -21.5zM345 612l-70 68l-76 -68h-80l125 114h64l123 -114h-86zM215 -10q-76 0 -123 40t-47 109q0 87 60 128.5t192 44.5l94 3v41q0 50 -32.5 77.5t-87.5 26.5
q-47 0 -81.5 -22.5t-43.5 -65.5h-80q4 67 61 111t148 44q98 0 150 -44.5t52 -121.5v-361h-76l-7 94q-53 -104 -179 -104zM242 55q53 0 100.5 36t48.5 79v89l-78 -1q-93 -2 -137 -27.5t-44 -82.5q0 -43 30.5 -68t79.5 -25z" />
    <glyph glyph-name="uni1EAA" unicode="&#x1eaa;" horiz-adv-x="706" 
d="M504 1004q-40 -29 -86 -29q-28 0 -66 13t-60 13q-33 0 -70 -28l-17 48q41 37 82 37q25 0 67.5 -14t63.5 -14q33 0 70 28zM424 818l-70 68l-76 -68h-80l125 114h64l123 -114h-86zM40 0l262 723h102l262 -723h-92l-71 199h-298l-73 -199h-92zM228 282h250l-124 352z" />
    <glyph glyph-name="uni1EAB" unicode="&#x1eab;" horiz-adv-x="546" 
d="M426 798q-40 -29 -86 -29q-28 0 -66 13t-60 13q-33 0 -70 -28l-17 48q41 37 82 37q25 0 67.5 -14t63.5 -14q33 0 70 28zM346 612l-70 68l-76 -68h-80l125 114h64l123 -114h-86zM215 -10q-76 0 -123 40t-47 109q0 87 60 128.5t192 44.5l94 3v41q0 50 -32.5 77.5
t-87.5 26.5q-47 0 -81.5 -22.5t-43.5 -65.5h-80q4 67 61 111t148 44q98 0 150 -44.5t52 -121.5v-361h-76l-7 94q-53 -104 -179 -104zM242 55q53 0 100.5 36t48.5 79v89l-78 -1q-93 -2 -137 -27.5t-44 -82.5q0 -43 30.5 -68t79.5 -25z" />
    <glyph glyph-name="uni1EAC" unicode="&#x1eac;" horiz-adv-x="706" 
d="M423 818l-70 68l-76 -68h-80l125 114h64l123 -114h-86zM40 0l262 723h102l262 -723h-92l-71 199h-298l-73 -199h-92zM228 282h250l-124 352zM305 -181v93h95v-93h-95z" />
    <glyph glyph-name="uni1EAD" unicode="&#x1ead;" horiz-adv-x="546" 
d="M345 612l-70 68l-76 -68h-80l125 114h64l123 -114h-86zM215 -10q-76 0 -123 40t-47 109q0 87 60 128.5t192 44.5l94 3v41q0 50 -32.5 77.5t-87.5 26.5q-47 0 -81.5 -22.5t-43.5 -65.5h-80q4 67 61 111t148 44q98 0 150 -44.5t52 -121.5v-361h-76l-7 94
q-53 -104 -179 -104zM242 55q53 0 100.5 36t48.5 79v89l-78 -1q-93 -2 -137 -27.5t-44 -82.5q0 -43 30.5 -68t79.5 -25zM227 -181v93h95v-93h-95z" />
    <glyph glyph-name="uni1EAE" unicode="&#x1eae;" horiz-adv-x="706" 
d="M466 1107l22 -69l-251 -74l-15 46zM507 928q-13 -45 -53.5 -76t-98.5 -31t-97 30t-51 77h66q31 -52 82 -52q53 0 85 52h67zM40 0l262 723h102l262 -723h-92l-71 199h-298l-73 -199h-92zM228 282h250l-124 352z" />
    <glyph glyph-name="uni1EAF" unicode="&#x1eaf;" horiz-adv-x="546" 
d="M389 901l22 -69l-251 -74l-15 46zM430 722q-13 -45 -53.5 -76t-98.5 -31t-97 30t-51 77h66q31 -52 82 -52q52 0 85 52h67zM215 -10q-76 0 -123 40t-47 109q0 87 60 128.5t192 44.5l94 3v41q0 50 -32.5 77.5t-87.5 26.5q-47 0 -81.5 -22.5t-43.5 -65.5h-80q4 67 61 111
t148 44q98 0 150 -44.5t52 -121.5v-361h-76l-7 94q-53 -104 -179 -104zM242 55q53 0 100.5 36t48.5 79v89l-78 -1q-93 -2 -137 -27.5t-44 -82.5q0 -43 30.5 -68t79.5 -25z" />
    <glyph glyph-name="uni1EB0" unicode="&#x1eb0;" horiz-adv-x="706" 
d="M248 1104l244 -97l-15 -46l-252 74zM507 928q-13 -45 -53.5 -76t-98.5 -31t-97 30t-51 77h66q31 -52 82 -52q53 0 85 52h67zM40 0l262 723h102l262 -723h-92l-71 199h-298l-73 -199h-92zM228 282h250l-124 352z" />
    <glyph glyph-name="uni1EB1" unicode="&#x1eb1;" horiz-adv-x="546" 
d="M171 898l244 -97l-15 -46l-252 74zM430 722q-13 -45 -53.5 -76t-98.5 -31t-97 30t-51 77h66q31 -52 82 -52q52 0 85 52h67zM215 -10q-76 0 -123 40t-47 109q0 87 60 128.5t192 44.5l94 3v41q0 50 -32.5 77.5t-87.5 26.5q-47 0 -81.5 -22.5t-43.5 -65.5h-80q4 67 61 111
t148 44q98 0 150 -44.5t52 -121.5v-361h-76l-7 94q-53 -104 -179 -104zM242 55q53 0 100.5 36t48.5 79v89l-78 -1q-93 -2 -137 -27.5t-44 -82.5q0 -43 30.5 -68t79.5 -25z" />
    <glyph glyph-name="uni1EB2" unicode="&#x1eb2;" horiz-adv-x="706" 
d="M301 1090l27 -41q20 14 41 13.5t31 -16.5q21 -34 -28 -67l26 -41q45 27 57.5 63t-12.5 74q-21 32 -60.5 36.5t-81.5 -21.5zM507 928q-13 -45 -53.5 -76t-98.5 -31t-97 30t-51 77h66q31 -52 82 -52q53 0 85 52h67zM40 0l262 723h102l262 -723h-92l-71 199h-298l-73 -199
h-92zM228 282h250l-124 352z" />
    <glyph glyph-name="uni1EB3" unicode="&#x1eb3;" horiz-adv-x="546" 
d="M224 884l27 -41q20 14 41 13.5t31 -16.5q21 -34 -28 -67l26 -41q45 27 57.5 63t-12.5 74q-21 32 -60.5 36.5t-81.5 -21.5zM430 722q-13 -45 -53.5 -76t-98.5 -31t-97 30t-51 77h66q31 -52 82 -52q52 0 85 52h67zM215 -10q-76 0 -123 40t-47 109q0 87 60 128.5t192 44.5
l94 3v41q0 50 -32.5 77.5t-87.5 26.5q-47 0 -81.5 -22.5t-43.5 -65.5h-80q4 67 61 111t148 44q98 0 150 -44.5t52 -121.5v-361h-76l-7 94q-53 -104 -179 -104zM242 55q53 0 100.5 36t48.5 79v89l-78 -1q-93 -2 -137 -27.5t-44 -82.5q0 -43 30.5 -68t79.5 -25z" />
    <glyph glyph-name="uni1EB4" unicode="&#x1eb4;" horiz-adv-x="706" 
d="M506 1003q-40 -29 -86 -29q-28 0 -66 13t-60 13q-33 0 -70 -28l-17 48q41 37 82 37q25 0 67.5 -14t63.5 -14q33 0 70 28zM507 928q-13 -45 -53.5 -76t-98.5 -31t-97 30t-51 77h66q31 -52 82 -52q53 0 85 52h67zM40 0l262 723h102l262 -723h-92l-71 199h-298l-73 -199h-92
zM228 282h250l-124 352z" />
    <glyph glyph-name="uni1EB5" unicode="&#x1eb5;" horiz-adv-x="546" 
d="M429 797q-40 -29 -86 -29q-27 0 -66 13t-60 13q-33 0 -70 -28l-17 48q41 37 82 37q25 0 67.5 -14t63.5 -14q33 0 70 28zM430 722q-13 -45 -53.5 -76t-98.5 -31t-97 30t-51 77h66q31 -52 82 -52q52 0 85 52h67zM215 -10q-76 0 -123 40t-47 109q0 87 60 128.5t192 44.5
l94 3v41q0 50 -32.5 77.5t-87.5 26.5q-47 0 -81.5 -22.5t-43.5 -65.5h-80q4 67 61 111t148 44q98 0 150 -44.5t52 -121.5v-361h-76l-7 94q-53 -104 -179 -104zM242 55q53 0 100.5 36t48.5 79v89l-78 -1q-93 -2 -137 -27.5t-44 -82.5q0 -43 30.5 -68t79.5 -25z" />
    <glyph glyph-name="uni1EB6" unicode="&#x1eb6;" horiz-adv-x="706" 
d="M507 928q-13 -45 -53.5 -76t-98.5 -31t-97 30t-51 77h66q31 -52 82 -52q53 0 85 52h67zM40 0l262 723h102l262 -723h-92l-71 199h-298l-73 -199h-92zM228 282h250l-124 352zM305 -181v93h95v-93h-95z" />
    <glyph glyph-name="uni1EB7" unicode="&#x1eb7;" horiz-adv-x="546" 
d="M430 722q-13 -45 -53.5 -76t-98.5 -31t-97 30t-51 77h66q31 -52 82 -52q52 0 85 52h67zM215 -10q-76 0 -123 40t-47 109q0 87 60 128.5t192 44.5l94 3v41q0 50 -32.5 77.5t-87.5 26.5q-47 0 -81.5 -22.5t-43.5 -65.5h-80q4 67 61 111t148 44q98 0 150 -44.5t52 -121.5
v-361h-76l-7 94q-53 -104 -179 -104zM242 55q53 0 100.5 36t48.5 79v89l-78 -1q-93 -2 -137 -27.5t-44 -82.5q0 -43 30.5 -68t79.5 -25zM227 -181v93h95v-93h-95z" />
    <glyph glyph-name="uni1EB8" unicode="&#x1eb8;" horiz-adv-x="622" 
d="M94 0v723h453v-79h-363v-240h328v-78h-329v-245l374 -1v-80h-463zM292 -181v93h95v-93h-95z" />
    <glyph glyph-name="uni1EB9" unicode="&#x1eb9;" horiz-adv-x="551" 
d="M136 237q-1 -78 37.5 -127t112.5 -49q101 0 131 89h84q-17 -78 -76 -119t-138 -41q-109 0 -175.5 70.5t-66.5 192.5q0 125 62.5 199.5t173.5 74.5q107 0 165.5 -68.5t58.5 -187.5v-34h-369zM136 299h283q0 71 -35.5 115t-103.5 44q-69 0 -107 -47.5t-37 -111.5zM233 -181
v93h95v-93h-95z" />
    <glyph glyph-name="uni1EBA" unicode="&#x1eba;" horiz-adv-x="622" 
d="M253 945l27 -41q21 14 42 14t31 -16q21 -35 -29 -68l27 -41q45 27 57 63t-12 74q-21 32 -60.5 36.5t-82.5 -21.5zM94 0v723h453v-79h-363v-240h328v-78h-329v-245l374 -1v-80h-463z" />
    <glyph glyph-name="uni1EBB" unicode="&#x1ebb;" horiz-adv-x="551" 
d="M212 739l27 -41q21 14 42 14t31 -16q21 -35 -29 -68l27 -41q45 27 57 63t-12 74q-21 32 -60.5 36.5t-82.5 -21.5zM136 237q-1 -78 37.5 -127t112.5 -49q101 0 131 89h84q-17 -78 -76 -119t-138 -41q-109 0 -175.5 70.5t-66.5 192.5q0 125 62.5 199.5t173.5 74.5
q107 0 165.5 -68.5t58.5 -187.5v-34h-369zM136 299h283q0 71 -35.5 115t-103.5 44q-69 0 -107 -47.5t-37 -111.5z" />
    <glyph glyph-name="uni1EBC" unicode="&#x1ebc;" horiz-adv-x="622" 
d="M473 871q-40 -29 -86 -29q-27 0 -66 13t-60 13q-33 0 -70 -28l-17 48q41 37 82 37q26 0 68 -14t63 -14q31 0 70 27zM94 0v723h453v-79h-363v-240h328v-78h-329v-245l374 -1v-80h-463z" />
    <glyph glyph-name="uni1EBD" unicode="&#x1ebd;" horiz-adv-x="551" 
d="M432 665q-40 -29 -86 -29q-28 0 -66 13t-60 13q-33 0 -70 -28l-17 48q41 37 82 37q26 0 68 -14t63 -14q31 0 70 27zM136 237q-1 -78 37.5 -127t112.5 -49q101 0 131 89h84q-17 -78 -76 -119t-138 -41q-109 0 -175.5 70.5t-66.5 192.5q0 125 62.5 199.5t173.5 74.5
q107 0 165.5 -68.5t58.5 -187.5v-34h-369zM136 299h283q0 71 -35.5 115t-103.5 44q-69 0 -107 -47.5t-37 -111.5z" />
    <glyph glyph-name="uni1EBE" unicode="&#x1ebe;" horiz-adv-x="622" 
d="M432 1108l22 -69l-251 -74l-15 46zM392 818l-70 68l-76 -68h-80l125 114h64l123 -114h-86zM94 0v723h453v-79h-363v-240h328v-78h-329v-245l374 -1v-80h-463z" />
    <glyph glyph-name="uni1EBF" unicode="&#x1ebf;" horiz-adv-x="551" 
d="M391 902l22 -69l-251 -74l-15 46zM351 612l-70 68l-76 -68h-80l125 114h64l123 -114h-86zM136 237q-1 -78 37.5 -127t112.5 -49q101 0 131 89h84q-17 -78 -76 -119t-138 -41q-109 0 -175.5 70.5t-66.5 192.5q0 125 62.5 199.5t173.5 74.5q107 0 165.5 -68.5t58.5 -187.5
v-34h-369zM136 299h283q0 71 -35.5 115t-103.5 44q-69 0 -107 -47.5t-37 -111.5z" />
    <glyph glyph-name="uni1EC0" unicode="&#x1ec0;" horiz-adv-x="622" 
d="M214 1105l244 -97l-15 -46l-252 74zM392 818l-70 68l-76 -68h-80l125 114h64l123 -114h-86zM94 0v723h453v-79h-363v-240h328v-78h-329v-245l374 -1v-80h-463z" />
    <glyph glyph-name="uni1EC1" unicode="&#x1ec1;" horiz-adv-x="551" 
d="M173 899l244 -97l-15 -46l-252 74zM351 612l-70 68l-76 -68h-80l125 114h64l123 -114h-86zM136 237q-1 -78 37.5 -127t112.5 -49q101 0 131 89h84q-17 -78 -76 -119t-138 -41q-109 0 -175.5 70.5t-66.5 192.5q0 125 62.5 199.5t173.5 74.5q107 0 165.5 -68.5t58.5 -187.5
v-34h-369zM136 299h283q0 71 -35.5 115t-103.5 44q-69 0 -107 -47.5t-37 -111.5z" />
    <glyph glyph-name="uni1EC2" unicode="&#x1ec2;" horiz-adv-x="622" 
d="M339 1064l27 -41q21 14 42 14t31 -16q21 -35 -29 -68l27 -41q44 27 56.5 63t-11.5 74q-21 32 -61 36.5t-82 -21.5zM392 818l-70 68l-76 -68h-80l125 114h64l123 -114h-86zM94 0v723h453v-79h-363v-240h328v-78h-329v-245l374 -1v-80h-463z" />
    <glyph glyph-name="uni1EC3" unicode="&#x1ec3;" horiz-adv-x="551" 
d="M298 858l27 -41q21 14 42 14t31 -16q21 -35 -29 -68l27 -41q44 27 56.5 63t-11.5 74q-21 32 -61 36.5t-82 -21.5zM351 612l-70 68l-76 -68h-80l125 114h64l123 -114h-86zM136 237q-1 -78 37.5 -127t112.5 -49q101 0 131 89h84q-17 -78 -76 -119t-138 -41
q-109 0 -175.5 70.5t-66.5 192.5q0 125 62.5 199.5t173.5 74.5q107 0 165.5 -68.5t58.5 -187.5v-34h-369zM136 299h283q0 71 -35.5 115t-103.5 44q-69 0 -107 -47.5t-37 -111.5z" />
    <glyph glyph-name="uni1EC4" unicode="&#x1ec4;" horiz-adv-x="622" 
d="M472 1004q-40 -29 -86 -29q-28 0 -66 13t-60 13q-33 0 -70 -28l-17 48q41 37 82 37q25 0 67.5 -14t63.5 -14q33 0 70 28zM392 818l-70 68l-76 -68h-80l125 114h64l123 -114h-86zM94 0v723h453v-79h-363v-240h328v-78h-329v-245l374 -1v-80h-463z" />
    <glyph glyph-name="uni1EC5" unicode="&#x1ec5;" horiz-adv-x="551" 
d="M431 798q-40 -29 -86 -29q-27 0 -66 13t-60 13q-33 0 -70 -28l-17 48q41 37 82 37q25 0 67.5 -14t63.5 -14q33 0 70 28zM351 612l-70 68l-76 -68h-80l125 114h64l123 -114h-86zM136 237q-1 -78 37.5 -127t112.5 -49q101 0 131 89h84q-17 -78 -76 -119t-138 -41
q-109 0 -175.5 70.5t-66.5 192.5q0 125 62.5 199.5t173.5 74.5q107 0 165.5 -68.5t58.5 -187.5v-34h-369zM136 299h283q0 71 -35.5 115t-103.5 44q-69 0 -107 -47.5t-37 -111.5z" />
    <glyph glyph-name="uni1EC6" unicode="&#x1ec6;" horiz-adv-x="622" 
d="M392 818l-70 68l-76 -68h-80l125 114h64l123 -114h-86zM94 0v723h453v-79h-363v-240h328v-78h-329v-245l374 -1v-80h-463zM292 -181v93h95v-93h-95z" />
    <glyph glyph-name="uni1EC7" unicode="&#x1ec7;" horiz-adv-x="551" 
d="M351 612l-70 68l-76 -68h-80l125 114h64l123 -114h-86zM136 237q-1 -78 37.5 -127t112.5 -49q101 0 131 89h84q-17 -78 -76 -119t-138 -41q-109 0 -175.5 70.5t-66.5 192.5q0 125 62.5 199.5t173.5 74.5q107 0 165.5 -68.5t58.5 -187.5v-34h-369zM136 299h283
q0 71 -35.5 115t-103.5 44q-69 0 -107 -47.5t-37 -111.5zM233 -181v93h95v-93h-95z" />
    <glyph glyph-name="uni1EC8" unicode="&#x1ec8;" horiz-adv-x="274" 
d="M70 945l27 -41q21 14 42 14t31 -16q21 -35 -29 -68l27 -41q45 27 57 63t-12 74q-21 32 -60.5 36.5t-82.5 -21.5zM94 723h89v-723h-89v723z" />
    <glyph glyph-name="uni1EC9" unicode="&#x1ec9;" horiz-adv-x="256" 
d="M60 739l27 -41q21 14 42 14t31 -16q21 -35 -29 -68l27 -41q45 27 57 63t-12 74q-21 32 -60.5 36.5t-82.5 -21.5zM173 517v-517h-89v517h89z" />
    <glyph glyph-name="uni1ECA" unicode="&#x1eca;" horiz-adv-x="274" 
d="M94 723h89v-723h-89v723zM95 -181v93h95v-93h-95z" />
    <glyph glyph-name="uni1ECB" unicode="&#x1ecb;" horiz-adv-x="263" 
d="M180 719v-94h-96v94h96zM178 517v-517h-90v517h90zM84 -181v93h96v-93h-96z" />
    <glyph glyph-name="uni1ECC" unicode="&#x1ecc;" horiz-adv-x="747" 
d="M374 -10q-146 0 -229 97t-83 272q0 177 83.5 275.5t229.5 98.5q144 0 227.5 -98.5t83.5 -274.5q0 -175 -83 -272.5t-229 -97.5zM376 68q211 0 211 291q0 296 -212 296q-103 0 -159 -73.5t-56 -222.5q0 -147 56 -219t160 -72zM328 -181v93h95v-93h-95z" />
    <glyph glyph-name="uni1ECD" unicode="&#x1ecd;" horiz-adv-x="562" 
d="M281 -10q-110 0 -173 73t-63 192q0 122 64 197t173 75t171.5 -75t62.5 -196q0 -119 -63 -192.5t-172 -73.5zM283 61q72 0 108 54.5t36 143.5t-36.5 143t-108.5 54q-73 0 -110.5 -54.5t-37.5 -142.5t37.5 -143t111.5 -55zM234 -181v93h95v-93h-95z" />
    <glyph glyph-name="uni1ECE" unicode="&#x1ece;" horiz-adv-x="747" 
d="M307 945l27 -41q21 14 42 14t31 -16q21 -35 -29 -68l27 -41q45 27 57 63t-12 74q-21 32 -60.5 36.5t-82.5 -21.5zM374 -10q-146 0 -229 97t-83 272q0 177 83.5 275.5t229.5 98.5q144 0 227.5 -98.5t83.5 -274.5q0 -175 -83 -272.5t-229 -97.5zM376 68q211 0 211 291
q0 296 -212 296q-103 0 -159 -73.5t-56 -222.5q0 -147 56 -219t160 -72z" />
    <glyph glyph-name="uni1ECF" unicode="&#x1ecf;" horiz-adv-x="562" 
d="M214 739l27 -41q21 14 42 14t31 -16q21 -35 -29 -68l27 -41q45 27 57 63t-12 74q-21 32 -60.5 36.5t-82.5 -21.5zM281 -10q-110 0 -173 73t-63 192q0 122 64 197t173 75t171.5 -75t62.5 -196q0 -119 -63 -192.5t-172 -73.5zM283 61q72 0 108 54.5t36 143.5t-36.5 143
t-108.5 54q-73 0 -110.5 -54.5t-37.5 -142.5t37.5 -143t111.5 -55z" />
    <glyph glyph-name="uni1ED0" unicode="&#x1ed0;" horiz-adv-x="747" 
d="M485 1108l22 -69l-251 -74l-15 46zM445 818l-70 68l-76 -68h-80l125 114h64l123 -114h-86zM374 -10q-146 0 -229 97t-83 272q0 177 83.5 275.5t229.5 98.5q144 0 227.5 -98.5t83.5 -274.5q0 -175 -83 -272.5t-229 -97.5zM376 68q211 0 211 291q0 296 -212 296
q-103 0 -159 -73.5t-56 -222.5q0 -147 56 -219t160 -72z" />
    <glyph glyph-name="uni1ED1" unicode="&#x1ed1;" horiz-adv-x="562" 
d="M392 902l22 -69l-251 -74l-15 46zM352 612l-70 68l-76 -68h-80l125 114h64l123 -114h-86zM281 -10q-110 0 -173 73t-63 192q0 122 64 197t173 75t171.5 -75t62.5 -196q0 -119 -63 -192.5t-172 -73.5zM283 61q72 0 108 54.5t36 143.5t-36.5 143t-108.5 54
q-73 0 -110.5 -54.5t-37.5 -142.5t37.5 -143t111.5 -55z" />
    <glyph glyph-name="uni1ED2" unicode="&#x1ed2;" horiz-adv-x="747" 
d="M267 1105l244 -97l-15 -46l-252 74zM445 818l-70 68l-76 -68h-80l125 114h64l123 -114h-86zM374 -10q-146 0 -229 97t-83 272q0 177 83.5 275.5t229.5 98.5q144 0 227.5 -98.5t83.5 -274.5q0 -175 -83 -272.5t-229 -97.5zM376 68q211 0 211 291q0 296 -212 296
q-103 0 -159 -73.5t-56 -222.5q0 -147 56 -219t160 -72z" />
    <glyph glyph-name="uni1ED3" unicode="&#x1ed3;" horiz-adv-x="562" 
d="M174 899l244 -97l-15 -46l-252 74zM352 612l-70 68l-76 -68h-80l125 114h64l123 -114h-86zM281 -10q-110 0 -173 73t-63 192q0 122 64 197t173 75t171.5 -75t62.5 -196q0 -119 -63 -192.5t-172 -73.5zM283 61q72 0 108 54.5t36 143.5t-36.5 143t-108.5 54
q-73 0 -110.5 -54.5t-37.5 -142.5t37.5 -143t111.5 -55z" />
    <glyph glyph-name="uni1ED4" unicode="&#x1ed4;" horiz-adv-x="747" 
d="M392 1064l27 -41q21 14 42 14t31 -16q21 -35 -29 -68l27 -41q44 27 56.5 63t-11.5 74q-21 32 -61 36.5t-82 -21.5zM445 818l-70 68l-76 -68h-80l125 114h64l123 -114h-86zM374 -10q-146 0 -229 97t-83 272q0 177 83.5 275.5t229.5 98.5q144 0 227.5 -98.5t83.5 -274.5
q0 -175 -83 -272.5t-229 -97.5zM376 68q211 0 211 291q0 296 -212 296q-103 0 -159 -73.5t-56 -222.5q0 -147 56 -219t160 -72z" />
    <glyph glyph-name="uni1ED5" unicode="&#x1ed5;" horiz-adv-x="562" 
d="M299 858l27 -41q21 14 42 14t31 -16q21 -35 -29 -68l27 -41q44 27 56.5 63t-11.5 74q-21 32 -61 36.5t-82 -21.5zM352 612l-70 68l-76 -68h-80l125 114h64l123 -114h-86zM281 -10q-110 0 -173 73t-63 192q0 122 64 197t173 75t171.5 -75t62.5 -196q0 -119 -63 -192.5
t-172 -73.5zM283 61q72 0 108 54.5t36 143.5t-36.5 143t-108.5 54q-73 0 -110.5 -54.5t-37.5 -142.5t37.5 -143t111.5 -55z" />
    <glyph glyph-name="uni1ED6" unicode="&#x1ed6;" horiz-adv-x="747" 
d="M526 1004q-40 -29 -86 -29q-28 0 -66 13t-60 13q-33 0 -70 -28l-17 48q41 37 82 37q25 0 67.5 -14t63.5 -14q33 0 70 28zM446 818l-70 68l-76 -68h-80l125 114h64l123 -114h-86zM374 -10q-146 0 -229 97t-83 272q0 177 83.5 275.5t229.5 98.5q144 0 227.5 -98.5
t83.5 -274.5q0 -175 -83 -272.5t-229 -97.5zM376 68q211 0 211 291q0 296 -212 296q-103 0 -159 -73.5t-56 -222.5q0 -147 56 -219t160 -72z" />
    <glyph glyph-name="uni1ED7" unicode="&#x1ed7;" horiz-adv-x="562" 
d="M433 798q-40 -29 -86 -29q-27 0 -66 13t-60 13q-33 0 -70 -28l-17 48q41 37 82 37q25 0 67.5 -14t63.5 -14q33 0 70 28zM353 612l-70 68l-76 -68h-80l125 114h64l123 -114h-86zM281 -10q-110 0 -173 73t-63 192q0 122 64 197t173 75t171.5 -75t62.5 -196
q0 -119 -63 -192.5t-172 -73.5zM283 61q72 0 108 54.5t36 143.5t-36.5 143t-108.5 54q-73 0 -110.5 -54.5t-37.5 -142.5t37.5 -143t111.5 -55z" />
    <glyph glyph-name="uni1ED8" unicode="&#x1ed8;" horiz-adv-x="747" 
d="M445 818l-70 68l-76 -68h-80l125 114h64l123 -114h-86zM374 -10q-146 0 -229 97t-83 272q0 177 83.5 275.5t229.5 98.5q144 0 227.5 -98.5t83.5 -274.5q0 -175 -83 -272.5t-229 -97.5zM376 68q211 0 211 291q0 296 -212 296q-103 0 -159 -73.5t-56 -222.5q0 -147 56 -219
t160 -72zM328 -181v93h95v-93h-95z" />
    <glyph glyph-name="uni1ED9" unicode="&#x1ed9;" horiz-adv-x="562" 
d="M352 612l-70 68l-76 -68h-80l125 114h64l123 -114h-86zM281 -10q-110 0 -173 73t-63 192q0 122 64 197t173 75t171.5 -75t62.5 -196q0 -119 -63 -192.5t-172 -73.5zM283 61q72 0 108 54.5t36 143.5t-36.5 143t-108.5 54q-73 0 -110.5 -54.5t-37.5 -142.5t37.5 -143
t111.5 -55zM234 -181v93h95v-93h-95z" />
    <glyph glyph-name="uni1EDA" unicode="&#x1eda;" horiz-adv-x="783" 
d="M509 870l-252 -75l-15 46l244 97zM741 739q-1 -74 -25 -111t-80 -42q50 -92 50 -226q0 -175 -83 -272.5t-229 -97.5t-229 97t-83 272q0 177 83.5 275.5t229.5 98.5q139 0 220 -90q40 1 55 19t18 77h73zM376 68q211 0 211 291q0 296 -212 296q-103 0 -159 -73.5
t-56 -222.5q0 -147 56 -219t160 -72z" />
    <glyph glyph-name="uni1EDB" unicode="&#x1edb;" horiz-adv-x="673" 
d="M416 664l-252 -75l-15 46l244 97zM630 502q-1 -80 -30 -117t-95 -37q11 -44 11 -92q0 -119 -63 -192.5t-172 -73.5q-110 0 -173 73t-63 192q0 122 64 197t173 75q141 0 202 -121q39 1 54 19t19 77h73zM283 61q72 0 108 54.5t36 143.5t-36.5 143t-108.5 54
q-73 0 -110.5 -54.5t-37.5 -142.5t37.5 -143t111.5 -55z" />
    <glyph glyph-name="uni1EDC" unicode="&#x1edc;" horiz-adv-x="783" 
d="M497 841l-15 -46l-252 75l23 68zM741 739q-1 -74 -25 -111t-80 -42q50 -92 50 -226q0 -175 -83 -272.5t-229 -97.5t-229 97t-83 272q0 177 83.5 275.5t229.5 98.5q139 0 220 -90q40 1 55 19t18 77h73zM376 68q211 0 211 291q0 296 -212 296q-103 0 -159 -73.5t-56 -222.5
q0 -147 56 -219t160 -72z" />
    <glyph glyph-name="uni1EDD" unicode="&#x1edd;" horiz-adv-x="673" 
d="M404 635l-15 -46l-252 75l23 68zM630 502q-1 -80 -30 -117t-95 -37q11 -44 11 -92q0 -119 -63 -192.5t-172 -73.5q-110 0 -173 73t-63 192q0 122 64 197t173 75q141 0 202 -121q39 1 54 19t19 77h73zM283 61q72 0 108 54.5t36 143.5t-36.5 143t-108.5 54
q-73 0 -110.5 -54.5t-37.5 -142.5t37.5 -143t111.5 -55z" />
    <glyph glyph-name="uni1EDE" unicode="&#x1ede;" horiz-adv-x="783" 
d="M407 902q-10 16 -31 16t-42 -14l-27 41q43 26 82.5 21.5t60.5 -36.5q24 -38 12 -74t-57 -63l-27 41q50 33 29 68zM741 739q-1 -74 -25 -111t-80 -42q50 -92 50 -226q0 -175 -83 -272.5t-229 -97.5t-229 97t-83 272q0 177 83.5 275.5t229.5 98.5q139 0 220 -90q40 1 55 19
t18 77h73zM376 68q211 0 211 291q0 296 -212 296q-103 0 -159 -73.5t-56 -222.5q0 -147 56 -219t160 -72z" />
    <glyph glyph-name="uni1EDF" unicode="&#x1edf;" horiz-adv-x="673" 
d="M314 696q-10 16 -31 16t-42 -14l-27 41q43 26 82.5 21.5t60.5 -36.5q24 -38 12 -74t-57 -63l-27 41q50 33 29 68zM630 502q-1 -80 -30 -117t-95 -37q11 -44 11 -92q0 -119 -63 -192.5t-172 -73.5q-110 0 -173 73t-63 192q0 122 64 197t173 75q141 0 202 -121q39 1 54 19
t19 77h73zM283 61q72 0 108 54.5t36 143.5t-36.5 143t-108.5 54q-73 0 -110.5 -54.5t-37.5 -142.5t37.5 -143t111.5 -55z" />
    <glyph glyph-name="uni1EE0" unicode="&#x1ee0;" horiz-adv-x="783" 
d="M315 868q-33 0 -70 -28l-17 48q41 37 82 37q26 0 68 -14t63 -14q31 0 70 27l16 -53q-40 -29 -86 -29q-27 0 -66 13t-60 13zM741 739q-1 -74 -25 -111t-80 -42q50 -92 50 -226q0 -175 -83 -272.5t-229 -97.5t-229 97t-83 272q0 177 83.5 275.5t229.5 98.5q139 0 220 -90
q40 1 55 19t18 77h73zM376 68q211 0 211 291q0 296 -212 296q-103 0 -159 -73.5t-56 -222.5q0 -147 56 -219t160 -72z" />
    <glyph glyph-name="uni1EE1" unicode="&#x1ee1;" horiz-adv-x="673" 
d="M222 662q-33 0 -70 -28l-17 48q41 37 82 37q26 0 68 -14t63 -14q31 0 70 27l16 -53q-40 -29 -86 -29q-28 0 -66 13t-60 13zM630 502q-1 -80 -30 -117t-95 -37q11 -44 11 -92q0 -119 -63 -192.5t-172 -73.5q-110 0 -173 73t-63 192q0 122 64 197t173 75q141 0 202 -121
q39 1 54 19t19 77h73zM283 61q72 0 108 54.5t36 143.5t-36.5 143t-108.5 54q-73 0 -110.5 -54.5t-37.5 -142.5t37.5 -143t111.5 -55z" />
    <glyph glyph-name="uni1EE2" unicode="&#x1ee2;" horiz-adv-x="783" 
d="M741 739q-1 -74 -25 -111t-80 -42q50 -92 50 -226q0 -175 -83 -272.5t-229 -97.5t-229 97t-83 272q0 177 83.5 275.5t229.5 98.5q139 0 220 -90q40 1 55 19t18 77h73zM376 68q211 0 211 291q0 296 -212 296q-103 0 -159 -73.5t-56 -222.5q0 -147 56 -219t160 -72z
M328 -181v93h95v-93h-95z" />
    <glyph glyph-name="uni1EE3" unicode="&#x1ee3;" horiz-adv-x="673" 
d="M630 502q-1 -80 -30 -117t-95 -37q11 -44 11 -92q0 -119 -63 -192.5t-172 -73.5q-110 0 -173 73t-63 192q0 122 64 197t173 75q141 0 202 -121q39 1 54 19t19 77h73zM283 61q72 0 108 54.5t36 143.5t-36.5 143t-108.5 54q-73 0 -110.5 -54.5t-37.5 -142.5t37.5 -143
t111.5 -55zM234 -181v93h95v-93h-95z" />
    <glyph glyph-name="uni1EE4" unicode="&#x1ee4;" horiz-adv-x="709" 
d="M620 248q0 -258 -264 -258q-137 0 -199.5 67.5t-62.5 201.5v464h93v-479q0 -175 169 -175q84 0 128.5 44t44.5 131v479h91v-475zM308 -180v93h95v-93h-95z" />
    <glyph glyph-name="uni1EE5" unicode="&#x1ee5;" horiz-adv-x="583" 
d="M271 -9q-75 0 -134.5 44.5t-59.5 131.5v351h90v-342q0 -60 36.5 -87.5t85.5 -27.5q54 0 91 31t37 89v337h91l-2 -517h-71l-9 98q-14 -53 -57.5 -81t-97.5 -27zM243 -181v93h95v-93h-95z" />
    <glyph glyph-name="uni1EE6" unicode="&#x1ee6;" horiz-adv-x="709" 
d="M289 945l27 -41q21 14 42 14t31 -16q21 -35 -29 -68l27 -41q45 27 57 63t-12 74q-21 32 -60.5 36.5t-82.5 -21.5zM620 248q0 -258 -264 -258q-137 0 -199.5 67.5t-62.5 201.5v464h93v-479q0 -175 169 -175q84 0 128.5 44t44.5 131v479h91v-475z" />
    <glyph glyph-name="uni1EE7" unicode="&#x1ee7;" horiz-adv-x="583" 
d="M223 739l27 -41q21 14 42 14t31 -16q21 -35 -29 -68l27 -41q45 27 57 63t-12 74q-21 32 -60.5 36.5t-82.5 -21.5zM271 -9q-75 0 -134.5 44.5t-59.5 131.5v351h90v-342q0 -60 36.5 -87.5t85.5 -27.5q54 0 91 31t37 89v337h91l-2 -517h-71l-9 98q-14 -53 -57.5 -81
t-97.5 -27z" />
    <glyph glyph-name="uni1EE8" unicode="&#x1ee8;" horiz-adv-x="820" 
d="M491 870l-252 -75l-15 46l244 97zM686 739h73q-1 -84 -33 -121t-106 -33v-337q0 -258 -264 -258q-137 0 -199.5 67.5t-62.5 201.5v464h93v-479q0 -175 169 -175q84 0 128.5 44t44.5 131v479h91v-80q35 2 49 21t17 75z" />
    <glyph glyph-name="uni1EE9" unicode="&#x1ee9;" horiz-adv-x="695" 
d="M425 664l-252 -75l-15 46l244 97zM574 557h73q-1 -84 -33 -121t-106 -33l-2 -402h-71l-9 98q-14 -53 -57.5 -81t-97.5 -27q-75 0 -134.5 44.5t-59.5 131.5v351h90v-342q0 -60 36.5 -87.5t85.5 -27.5q54 0 91 31t37 89v337h91v-57q35 2 49 21t17 75z" />
    <glyph glyph-name="uni1EEA" unicode="&#x1eea;" horiz-adv-x="820" 
d="M479 841l-15 -46l-252 75l23 68zM686 739h73q-1 -84 -33 -121t-106 -33v-337q0 -258 -264 -258q-137 0 -199.5 67.5t-62.5 201.5v464h93v-479q0 -175 169 -175q84 0 128.5 44t44.5 131v479h91v-80q35 2 49 21t17 75z" />
    <glyph glyph-name="uni1EEB" unicode="&#x1eeb;" horiz-adv-x="695" 
d="M413 635l-15 -46l-252 75l23 68zM574 557h73q-1 -84 -33 -121t-106 -33l-2 -402h-71l-9 98q-14 -53 -57.5 -81t-97.5 -27q-75 0 -134.5 44.5t-59.5 131.5v351h90v-342q0 -60 36.5 -87.5t85.5 -27.5q54 0 91 31t37 89v337h91v-57q35 2 49 21t17 75z" />
    <glyph glyph-name="uni1EEC" unicode="&#x1eec;" horiz-adv-x="820" 
d="M389 902q-10 16 -31 16t-42 -14l-27 41q43 26 82.5 21.5t60.5 -36.5q24 -38 12 -74t-57 -63l-27 41q50 33 29 68zM686 739h73q-1 -84 -33 -121t-106 -33v-337q0 -258 -264 -258q-137 0 -199.5 67.5t-62.5 201.5v464h93v-479q0 -175 169 -175q84 0 128.5 44t44.5 131v479
h91v-80q35 2 49 21t17 75z" />
    <glyph glyph-name="uni1EED" unicode="&#x1eed;" horiz-adv-x="695" 
d="M323 696q-10 16 -31 16t-42 -14l-27 41q43 26 82.5 21.5t60.5 -36.5q24 -38 12 -74t-57 -63l-27 41q50 33 29 68zM574 557h73q-1 -84 -33 -121t-106 -33l-2 -402h-71l-9 98q-14 -53 -57.5 -81t-97.5 -27q-75 0 -134.5 44.5t-59.5 131.5v351h90v-342q0 -60 36.5 -87.5
t85.5 -27.5q54 0 91 31t37 89v337h91v-57q35 2 49 21t17 75z" />
    <glyph glyph-name="uni1EEE" unicode="&#x1eee;" horiz-adv-x="820" 
d="M297 868q-33 0 -70 -28l-17 48q41 37 82 37q26 0 68 -14t63 -14q31 0 70 27l16 -53q-40 -29 -86 -29q-27 0 -66 13t-60 13zM686 739h73q-1 -84 -33 -121t-106 -33v-337q0 -258 -264 -258q-137 0 -199.5 67.5t-62.5 201.5v464h93v-479q0 -175 169 -175q84 0 128.5 44
t44.5 131v479h91v-80q35 2 49 21t17 75z" />
    <glyph glyph-name="uni1EEF" unicode="&#x1eef;" horiz-adv-x="695" 
d="M231 662q-33 0 -70 -28l-17 48q41 37 82 37q26 0 68 -14t63 -14q31 0 70 27l16 -53q-40 -29 -86 -29q-27 0 -66 13t-60 13zM574 557h73q-1 -84 -33 -121t-106 -33l-2 -402h-71l-9 98q-14 -53 -57.5 -81t-97.5 -27q-75 0 -134.5 44.5t-59.5 131.5v351h90v-342
q0 -60 36.5 -87.5t85.5 -27.5q54 0 91 31t37 89v337h91v-57q35 2 49 21t17 75z" />
    <glyph glyph-name="uni1EF0" unicode="&#x1ef0;" horiz-adv-x="820" 
d="M686 739h73q-1 -84 -33 -121t-106 -33v-337q0 -258 -264 -258q-137 0 -199.5 67.5t-62.5 201.5v464h93v-479q0 -175 169 -175q84 0 128.5 44t44.5 131v479h91v-80q35 2 49 21t17 75zM308 -180v93h95v-93h-95z" />
    <glyph glyph-name="uni1EF1" unicode="&#x1ef1;" horiz-adv-x="695" 
d="M574 557h73q-1 -84 -33 -121t-106 -33l-2 -402h-71l-9 98q-14 -53 -57.5 -81t-97.5 -27q-75 0 -134.5 44.5t-59.5 131.5v351h90v-342q0 -60 36.5 -87.5t85.5 -27.5q54 0 91 31t37 89v337h91v-57q35 2 49 21t17 75zM243 -181v93h95v-93h-95z" />
    <glyph glyph-name="Ygrave" unicode="&#x1ef2;" horiz-adv-x="597" 
d="M184 939l244 -97l-15 -46l-252 75zM588 723l-244 -415v-308h-89v308l-247 415h98l194 -335l191 335h97z" />
    <glyph glyph-name="ygrave" unicode="&#x1ef3;" horiz-adv-x="536" 
d="M154 732l244 -97l-15 -46l-252 75zM128 -165q-27 0 -46.5 3.5t-25.5 6.5l-7 3v58l54 -1q35 -1 58.5 8.5t32 20.5t15.5 28l18 50l-202 505h91l154 -402l153 402h87l-218 -558q-28 -69 -67.5 -96.5t-96.5 -27.5z" />
    <glyph glyph-name="uni1EF4" unicode="&#x1ef4;" horiz-adv-x="597" 
d="M588 723l-244 -415v-308h-89v308l-247 415h98l194 -335l191 335h97zM252 -181v93h95v-93h-95z" />
    <glyph glyph-name="uni1EF5" unicode="&#x1ef5;" horiz-adv-x="536" 
d="M128 -165q-27 0 -46.5 3.5t-25.5 6.5l-7 3v58l54 -1q35 -1 58.5 8.5t32 20.5t15.5 28l18 50l-202 505h91l154 -402l153 402h87l-218 -558q-28 -69 -67.5 -96.5t-96.5 -27.5zM218 -286v94h96v-94h-96z" />
    <glyph glyph-name="uni1EF6" unicode="&#x1ef6;" horiz-adv-x="597" 
d="M238 947l27 -41q21 14 42 14t31 -16q21 -35 -29 -68l27 -41q45 27 57 63t-12 74q-21 32 -60.5 36.5t-82.5 -21.5zM588 723l-244 -415v-308h-89v308l-247 415h98l194 -335l191 335h97z" />
    <glyph glyph-name="uni1EF7" unicode="&#x1ef7;" horiz-adv-x="536" 
d="M208 739l27 -41q21 14 42 14t31 -16q21 -35 -29 -68l27 -41q45 27 57 63t-12 74q-21 32 -60.5 36.5t-82.5 -21.5zM128 -165q-27 0 -46.5 3.5t-25.5 6.5l-7 3v58l54 -1q35 -1 58.5 8.5t32 20.5t15.5 28l18 50l-202 505h91l154 -402l153 402h87l-218 -558
q-28 -69 -67.5 -96.5t-96.5 -27.5z" />
    <glyph glyph-name="uni1EF8" unicode="&#x1ef8;" horiz-adv-x="597" 
d="M458 872q-40 -29 -86 -29q-28 0 -66 13t-60 13q-33 0 -70 -28l-17 48q41 37 82 37q26 0 68 -14t63 -14q31 0 70 27zM588 723l-244 -415v-308h-89v308l-247 415h98l194 -335l191 335h97z" />
    <glyph glyph-name="uni1EF9" unicode="&#x1ef9;" horiz-adv-x="536" 
d="M428 665q-40 -29 -86 -29q-28 0 -66 13t-60 13q-33 0 -70 -28l-17 48q41 37 82 37q26 0 68 -14t63 -14q31 0 70 27zM128 -165q-27 0 -46.5 3.5t-25.5 6.5l-7 3v58l54 -1q35 -1 58.5 8.5t32 20.5t15.5 28l18 50l-202 505h91l154 -402l153 402h87l-218 -558
q-28 -69 -67.5 -96.5t-96.5 -27.5z" />
    <glyph glyph-name="endash" unicode="&#x2013;" horiz-adv-x="556" 
d="M491 287v-71l-429 -1v71z" />
    <glyph glyph-name="emdash" unicode="&#x2014;" horiz-adv-x="871" 
d="M806 287v-71l-744 -1v71z" />
    <glyph glyph-name="quoteleft" unicode="&#x2018;" horiz-adv-x="238" 
d="M180 755l-55 -124l43 -2v-108h-114v94l84 140h42z" />
    <glyph glyph-name="quoteright" unicode="&#x2019;" horiz-adv-x="218" 
d="M50 489l55 124l-42 2v108h113v-94l-84 -140h-42z" />
    <glyph glyph-name="quotesinglbase" unicode="&#x201a;" horiz-adv-x="239" 
d="M43 -124l56 123l-43 2v109h114v-95l-84 -139h-43z" />
    <glyph glyph-name="quotedblleft" unicode="&#x201c;" horiz-adv-x="416" 
d="M55 489v95l85 139h42l-56 -123l43 -2v-109h-114zM233 489v95l84 139h43l-56 -123l43 -2v-109h-114z" />
    <glyph glyph-name="quotedblright" unicode="&#x201d;" horiz-adv-x="395" 
d="M50 489l55 124l-42 2v108h113v-94l-84 -140h-42zM227 489l56 124l-43 2v108h113v-94l-83 -140h-43z" />
    <glyph glyph-name="quotedblbase" unicode="&#x201e;" horiz-adv-x="421" 
d="M43 -124l56 123l-43 2v109h114v-95l-84 -139h-43zM225 -124l55 123l-42 2v109h113v-95l-84 -139h-42z" />
    <glyph glyph-name="dagger" unicode="&#x2020;" horiz-adv-x="454" 
d="M436 473v-85l-182 13l19 -562h-94l18 562l-182 -13v85l178 -12l-14 262h94l-15 -262z" />
    <glyph glyph-name="daggerdbl" unicode="&#x2021;" horiz-adv-x="454" 
d="M255 395v-240l181 13v-85l-178 12l15 -256h-94l14 256l-178 -12v85l181 -13v240l-181 -13v84l178 -12l-14 269h94l-15 -269l178 12v-84z" />
    <glyph glyph-name="bullet" unicode="&#x2022;" horiz-adv-x="314" 
d="M155 271q-40 0 -68 28.5t-28 68.5t28 68t68 28t68 -28t28 -68t-28 -68.5t-68 -28.5z" />
    <glyph glyph-name="ellipsis" unicode="&#x2026;" horiz-adv-x="759" 
d="M173 116v-116h-108v116h108zM442 116v-116h-108v116h108zM711 116v-116h-108v116h108z" />
    <glyph glyph-name="perthousand" unicode="&#x2030;" horiz-adv-x="1302" 
d="M225 734q74 0 121.5 -56.5t47.5 -150.5t-47 -150t-122 -56t-123 56t-48 150t48 150.5t123 56.5zM742 731l-486 -735l-61 1l488 734h59zM224 372q47 0 74 42t27 113q0 72 -27 114.5t-74 42.5t-74.5 -43t-27.5 -114q0 -70 27 -112.5t75 -42.5zM676 404q74 0 121.5 -57
t47.5 -150q0 -95 -47 -151t-122 -56t-123 56.5t-48 150.5q0 93 48.5 150t122.5 57zM1076 404q74 0 121.5 -57t47.5 -150q0 -95 -47 -151t-122 -56t-123 56t-48 151q0 93 48.5 150t122.5 57zM675 41q46 0 73.5 43t27.5 112t-27.5 113t-73.5 44t-73.5 -44t-27.5 -113
q0 -68 27.5 -111.5t73.5 -43.5zM1075 41q46 0 73.5 43.5t27.5 111.5q0 69 -27.5 113t-73.5 44t-74 -44.5t-28 -112.5q0 -69 27.5 -112t74.5 -43z" />
    <glyph glyph-name="guilsinglleft" unicode="&#x2039;" horiz-adv-x="276" 
d="M121 251l101 -181h-51l-131 181l131 189h52z" />
    <glyph glyph-name="guilsinglright" unicode="&#x203a;" horiz-adv-x="276" 
d="M152 251l-102 189h51l132 -189l-132 -181h-50z" />
    <glyph glyph-name="fraction" unicode="&#x2044;" horiz-adv-x="252" 
d="M397 731l-486 -735l-61 1l488 734h59z" />
    <glyph glyph-name="uni2070" unicode="&#x2070;" horiz-adv-x="408" 
d="M175 844q74 0 117.5 -60.5t43.5 -174.5q0 -113 -43 -172.5t-119 -59.5t-118.5 59.5t-42.5 172.5q0 114 43.5 174.5t118.5 60.5zM175 426q100 0 100 183q0 187 -101 187t-101 -187q0 -183 102 -183z" />
    <glyph glyph-name="uni2074" unicode="&#x2074;" horiz-adv-x="411" 
d="M231 835h57v-288h76v-50h-76v-117h-55v117h-214v52zM73 547h159v213z" />
    <glyph glyph-name="uni2075" unicode="&#x2075;" horiz-adv-x="396" 
d="M70 835h270l-2 -49h-220l-12 -149q42 39 108 39q65 0 109 -38.5t44 -108.5q0 -71 -45 -113t-120 -42q-62 0 -110 32t-66 84l50 20q36 -89 123 -89q49 0 78.5 28.5t29.5 77.5q0 45 -30 73t-74 28q-31 0 -53.5 -9t-46.5 -36q-3 -1 -6 0l-48 15z" />
    <glyph glyph-name="uni2076" unicode="&#x2076;" horiz-adv-x="378" 
d="M204 849q57 0 99 -31.5t49 -85.5h-54q-20 70 -93 70q-62 0 -92 -51t-25 -148q13 35 45 56.5t73 21.5q68 0 109 -38.5t41 -105.5q0 -69 -43 -111.5t-114 -42.5q-79 0 -125.5 60t-46.5 166q0 111 46 175.5t131 64.5zM198 635q-39 0 -70 -25.5t-31 -60.5q-1 -53 27 -86.5
t74 -33.5q42 0 69.5 29.5t27.5 76.5t-25.5 73.5t-71.5 26.5z" />
    <glyph glyph-name="uni2077" unicode="&#x2077;" horiz-adv-x="363" 
d="M34 835h318v-49q-60 -82 -113.5 -207.5t-61.5 -198.5h-62q13 76 58 190t116 216h-255v49z" />
    <glyph glyph-name="uni2078" unicode="&#x2078;" horiz-adv-x="395" 
d="M192 846q67 0 110 -32.5t43 -90.5q0 -70 -72 -98q35 -7 63.5 -41t28.5 -73q0 -59 -47 -94t-126 -35q-78 0 -125 35t-47 94q0 39 28.5 73t63.5 41q-72 29 -72 98q0 58 42.5 90.5t109.5 32.5zM192 649q43 0 69 19.5t26 55.5q0 37 -26 58.5t-69 21.5q-42 0 -68 -22t-26 -58
t26 -55.5t68 -19.5zM192 427q52 0 82 23t30 61q0 39 -30.5 63.5t-81.5 24.5q-50 0 -80.5 -24.5t-30.5 -63.5q0 -38 30 -61t81 -23z" />
    <glyph glyph-name="uni2079" unicode="&#x2079;" horiz-adv-x="401" 
d="M171 383q-57 0 -100 31.5t-50 84.5h54q8 -31 33.5 -50t61.5 -19q63 0 95.5 49.5t27.5 151.5q-11 -37 -43.5 -59.5t-75.5 -22.5q-68 0 -109.5 39t-41.5 107q0 69 42 111.5t114 42.5q79 0 125 -60t46 -166q0 -114 -46.5 -177t-132.5 -63zM180 597q39 0 69.5 25.5t30.5 60.5
q1 53 -27 86.5t-74 33.5q-42 0 -68.5 -29.5t-26.5 -76.5t25 -73.5t71 -26.5z" />
    <glyph glyph-name="colonmonetary" unicode="&#x20a1;" horiz-adv-x="582" 
d="M292 162q47 0 80 27t43 72h78q-9 -66 -51 -108.5t-103 -54.5l-26 -98l-58 1l24 92q-27 1 -57 8l-27 -101l-58 1l32 122q-55 33 -86 94.5t-31 141.5q0 103 48 174t131 91l27 98l59 1l-25 -93q28 0 57 -8l27 100l58 1l-32 -123q79 -45 92 -142l-80 -1q-13 49 -45 75t-78 26
q-70 0 -111.5 -53.5t-41.5 -143.5q0 -91 41.5 -145t112.5 -54z" />
    <glyph glyph-name="franc" unicode="&#x20a3;" horiz-adv-x="607" 
d="M557 645h-368v-253h310v-77h-310v-123h163v-58h-163v-134h-103v134h-92v57h92v532h471v-78z" />
    <glyph glyph-name="lira" unicode="&#x20a4;" horiz-adv-x="611" 
d="M563 139q-22 -68 -74.5 -103.5t-127.5 -35.5h-346v77h38q37 0 62 33t27 97v38q-1 5 -9 5h-106v57h106l-14 90h-92v57h82l-3 30q-18 128 40.5 188.5t162.5 60.5q66 0 123.5 -33t79.5 -84l-80 -29q-34 69 -111 69q-52 0 -86.5 -30.5t-34.5 -82.5q0 -17 11 -79q2 -10 10 -10
l159 1v-57l-159 -1l14 -90l145 1v-57h-143q1 -47 -13.5 -95t-44.5 -78h177q51 0 82.5 19t46.5 63z" />
    <glyph glyph-name="uni20A6" unicode="&#x20a6;" horiz-adv-x="732" 
d="M722 437h-53v-128h53v-53h-53v-256h-81l-174 256l-216 -1v-255h-90v255h-101v54h101v128h-101v53h101v233h86l158 -233l227 1v232h90v-232h53v-54zM198 574v-84h57zM198 309h180l-87 128h-93v-128zM579 309v128h-190l87 -128h103zM579 157v99h-67z" />
    <glyph glyph-name="uni20A9" unicode="&#x20a9;" horiz-adv-x="1041" 
d="M1027 475h-138l-29 -99h167v-57h-183l-93 -319h-84l-90 319h-141l-91 -319h-82l-92 319h-158v56h142l-29 100h-113v56h97l-55 192h91l53 -192h219l54 192h71l54 -191h220l54 191h90l-56 -191h122v-57zM507 565l-10 -34h19zM215 475l27 -100h131l29 100h-187zM453 375
l108 1l-29 99h-51zM773 376l28 99h-188l28 -99h132zM307 142l50 177h-99zM707 142l50 177h-100z" />
    <glyph glyph-name="dong" unicode="&#x20ab;" horiz-adv-x="507" 
d="M429 660h61v-48h-61v-480h-75v58q-17 -19 -28 -29t-41 -23.5t-66 -13.5q-78 0 -127.5 55.5t-49.5 157.5q0 101 52 164t133 63q61 0 112 -45q13 -10 13 5v88h-134v48h134v62h77v-62zM349 269v188q-45 47 -101 47t-89.5 -42.5t-33.5 -121.5q0 -80 33.5 -119.5t86.5 -39.5
q44 0 74 27.5t30 60.5zM65 0v51h367v-51h-367z" />
    <glyph glyph-name="Euro" unicode="&#x20ac;" horiz-adv-x="596" 
d="M509 120l50 -58q-81 -72 -185 -72q-116 0 -192.5 70t-100.5 195h-91v57h84q-2 32 -2 51t2 51h-84v57h91q23 125 99 193.5t191 68.5q107 0 185 -73l-62 -56q-57 52 -116 52q-158 0 -192 -185h198v-56l-205 -1q-2 -32 -2 -52q0 -18 2 -50h205v-57h-198q36 -185 199 -185
q68 0 124 50z" />
    <glyph glyph-name="uni20B9" unicode="&#x20b9;" horiz-adv-x="581" 
d="M561 724v-54h-136q45 -38 54 -99h82v-54h-81q-13 -119 -141 -161q-6 -3 -3 -11l132 -345h-111l-122 337h-225v71h191q81 0 122.5 25.5t48.5 83.5l-361 -1v54l361 1q-16 95 -149 95h-213v57z" />
    <glyph glyph-name="uni20BA" unicode="&#x20ba;" horiz-adv-x="563" 
d="M466 250l83 -19q-36 -109 -113 -170t-195 -61h-124v222l-75 -27l-20 58l95 35v96l-81 -29l-21 59l102 37v272h102v-235l136 50l22 -59l-158 -57v-97l142 52l22 -58l-164 -60v-181h49q135 2 198 172z" />
    <glyph glyph-name="uni2113" unicode="&#x2113;" horiz-adv-x="501" 
d="M193 199q0 -74 22 -105.5t69 -31.5q41 0 72 22l-86 -94q-37 0 -65.5 11t-44 26t-27.5 38.5t-16.5 39t-8.5 38.5t-5 26q-1 7 -5 3l-47 -33l-28 55l79 57v252q0 113 49.5 171.5t129.5 58.5q70 0 106 -43.5t36 -113.5q0 -42 -14.5 -84.5t-34 -75t-55 -71.5t-60 -62.5
t-66.5 -60.5v-23zM193 487v-183q164 148 164 282q0 84 -72 84q-45 0 -68.5 -41.5t-23.5 -141.5zM356 84l60 66l-6 -8q-30 -41 -54 -58z" />
    <glyph glyph-name="uni2116" unicode="&#x2116;" horiz-adv-x="1147" 
d="M945 732q71 0 114 -46.5t43 -122.5q0 -74 -42.5 -120t-114.5 -46t-114 46t-42 120q0 76 43 122.5t113 46.5zM564 723h90v-723h-80l-391 574v-574h-89v723h85l385 -566v566zM945 685q-43 0 -66 -31.5t-23 -87.5q0 -58 22.5 -90t66.5 -32t67 32t23 90q0 56 -23 87.5
t-67 31.5z" />
    <glyph glyph-name="uni2117" unicode="&#x2117;" horiz-adv-x="816" 
d="M407 -10q-155 0 -263.5 108.5t-108.5 263.5q0 153 109 262t263 109q153 0 262 -109t109 -262q0 -155 -109 -263.5t-262 -108.5zM407 51q129 0 217.5 86.5t88.5 224.5q0 137 -89 224t-217 87q-131 0 -219 -86.5t-88 -224.5q0 -139 87.5 -225t219.5 -86zM573 443
q0 -60 -38 -92t-101 -32h-95v-153h-64v388h153q66 0 105.5 -28t39.5 -83zM507 437q0 66 -82 66h-86v-134h89q35 0 57 17.5t22 50.5z" />
    <glyph glyph-name="uni2120" unicode="&#x2120;" horiz-adv-x="985" 
d="M215 -6q-69 0 -120 32t-60 89l59 4q8 -38 41.5 -58.5t79.5 -20.5q50 0 82 20.5t32 54.5q0 61 -80 80l-91 20q-109 24 -109 111q0 58 46 95t118 37q75 0 118.5 -37t49.5 -91l-57 -3q-14 83 -111 83q-42 0 -73 -21t-31 -57q0 -26 17.5 -41.5t62.5 -26.5l88 -20
q111 -24 111 -128q0 -53 -46.5 -87.5t-126.5 -34.5zM491 0v452h77l138 -376l140 376h77v-452h-58v366l-133 -366h-53l-131 363v-363h-57z" />
    <glyph glyph-name="trademark" unicode="&#x2122;" horiz-adv-x="911" 
d="M7 400v52h340v-52h-138v-400h-56v400h-146zM417 0v452h78l138 -376l140 376h76v-452h-57v366l-133 -366h-53l-131 363v-363h-58z" />
    <glyph glyph-name="uni2126" unicode="&#x2126;" horiz-adv-x="766" 
d="M384 673q-104 0 -162.5 -77.5t-58.5 -196.5q0 -102 45 -178t140 -145v-76h-262v82h157q-1 1 -15.5 12.5t-22.5 18.5t-25.5 23.5t-28.5 30.5t-26.5 35t-26 43t-20 48t-14.5 56t-5 62q0 90 36.5 166t112.5 125.5t176 49.5q101 0 176.5 -50.5t111 -126.5t35.5 -163
q0 -101 -41.5 -172.5t-145.5 -157.5h160v-82h-262v76q184 130 184 324q0 118 -57 195.5t-161 77.5z" />
    <glyph glyph-name="uni2153" unicode="&#x2153;" horiz-adv-x="944" 
d="M94 276v363h-89v37q59 0 81.5 13t24.5 42h41v-455h-58zM694 731l-486 -735l-61 1l488 734h59zM580 320q0 63 45 100.5t111 37.5q72 0 116 -31t44 -86q0 -73 -87 -104q46 -12 72.5 -42t26.5 -73q0 -60 -49 -96t-125 -35q-70 1 -114 37.5t-46 98.5h57q6 -42 34 -65t71 -23
q51 0 81 23t30 61q0 41 -32.5 63.5t-83.5 22.5l-40 1v48l38 1q45 1 75.5 24t30.5 56q0 30 -27 51t-72 21q-40 0 -69.5 -23.5t-30.5 -67.5h-56z" />
    <glyph glyph-name="uni2154" unicode="&#x2154;" horiz-adv-x="1027" 
d="M33 279v53q0 45 25 79t60 54.5t70.5 39.5t60.5 45.5t25 60.5q0 35 -25 57t-67 22q-44 0 -71.5 -25t-31.5 -68h-56q2 62 44 102.5t118 40.5q68 0 108.5 -35.5t40.5 -93.5q0 -45 -24.5 -78.5t-59.5 -53t-70 -38t-59.5 -44t-24.5 -59.5v-9h240v-50h-303zM777 731l-486 -735
l-61 1l488 734h59zM664 320q0 63 45 100.5t111 37.5q72 0 116 -31t44 -86q0 -73 -87 -104q46 -12 72.5 -42t26.5 -73q0 -60 -49 -96t-125 -35q-70 1 -114 37.5t-46 98.5h57q6 -42 34 -65t71 -23q51 0 81 23t30 61q0 41 -32.5 63.5t-83.5 22.5l-40 1v48l38 1q45 1 75.5 24
t30.5 56q0 30 -27 51t-72 21q-40 0 -69.5 -23.5t-30.5 -67.5h-56z" />
    <glyph glyph-name="oneeighth" unicode="&#x215b;" horiz-adv-x="945" 
d="M94 276v363h-89v37q59 0 81.5 13t24.5 42h41v-455h-58zM694 731l-486 -735l-61 1l488 734h59zM741 458q67 0 110 -32.5t43 -90.5q0 -70 -72 -98q35 -7 63.5 -41t28.5 -73q0 -59 -47 -94t-126 -35q-78 0 -125 35t-47 94q0 39 28.5 73t63.5 41q-72 29 -72 98
q0 58 42.5 90.5t109.5 32.5zM741 261q43 0 69 19.5t26 55.5q0 37 -26 58.5t-69 21.5q-42 0 -68 -22t-26 -58t26 -55.5t68 -19.5zM741 39q52 0 82 23t30 61q0 39 -30.5 63.5t-81.5 24.5q-50 0 -80.5 -24.5t-30.5 -63.5q0 -38 30 -61t81 -23z" />
    <glyph glyph-name="threeeighths" unicode="&#x215c;" horiz-adv-x="1042" 
d="M31 602q0 63 45 100.5t111 37.5q72 0 116 -31t44 -86q0 -73 -87 -104q46 -12 72.5 -42t26.5 -73q0 -60 -49 -96t-125 -35q-70 1 -114 37.5t-46 98.5h57q6 -42 34 -65t71 -23q51 0 81 23t30 61q0 41 -32.5 63.5t-83.5 22.5l-40 1v48l38 1q45 1 75.5 24t30.5 56
q0 30 -27 51t-72 21q-40 0 -69.5 -23.5t-30.5 -67.5h-56zM792 731l-486 -735l-61 1l488 734h59zM839 458q67 0 110 -32.5t43 -90.5q0 -70 -72 -98q35 -7 63.5 -41t28.5 -73q0 -59 -47 -94t-126 -35q-78 0 -125 35t-47 94q0 39 28.5 73t63.5 41q-72 29 -72 98q0 58 42.5 90.5
t109.5 32.5zM839 261q43 0 69 19.5t26 55.5q0 37 -26 58.5t-69 21.5q-42 0 -68 -22t-26 -58t26 -55.5t68 -19.5zM839 39q52 0 82 23t30 61q0 39 -30.5 63.5t-81.5 24.5q-50 0 -80.5 -24.5t-30.5 -63.5q0 -38 30 -61t81 -23z" />
    <glyph glyph-name="fiveeighths" unicode="&#x215d;" horiz-adv-x="1043" 
d="M70 731h270l-2 -49h-220l-12 -149q42 39 108 39q65 0 109 -38.5t44 -108.5q0 -71 -45 -113t-120 -42q-62 0 -110 32t-66 84l50 20q36 -89 123 -89q49 0 78.5 28.5t29.5 77.5q0 45 -30 73t-74 28q-31 0 -53.5 -9t-46.5 -36q-3 -1 -6 0l-48 15zM793 731l-486 -735l-61 1
l488 734h59zM840 458q67 0 110 -32.5t43 -90.5q0 -70 -72 -98q35 -7 63.5 -41t28.5 -73q0 -59 -47 -94t-126 -35q-78 0 -125 35t-47 94q0 39 28.5 73t63.5 41q-72 29 -72 98q0 58 42.5 90.5t109.5 32.5zM840 261q43 0 69 19.5t26 55.5q0 37 -26 58.5t-69 21.5q-42 0 -68 -22
t-26 -58t26 -55.5t68 -19.5zM840 39q52 0 82 23t30 61q0 39 -30.5 63.5t-81.5 24.5q-50 0 -80.5 -24.5t-30.5 -63.5q0 -38 30 -61t81 -23z" />
    <glyph glyph-name="seveneighths" unicode="&#x215e;" horiz-adv-x="1011" 
d="M760 731l-486 -735l-61 1l488 734h59zM34 730h318v-49q-60 -82 -113.5 -207.5t-61.5 -198.5h-62q13 76 58 190t116 216h-255v49zM808 458q67 0 110 -32.5t43 -90.5q0 -70 -72 -98q35 -7 63.5 -41t28.5 -73q0 -59 -47 -94t-126 -35q-78 0 -125 35t-47 94q0 39 28.5 73
t63.5 41q-72 29 -72 98q0 58 42.5 90.5t109.5 32.5zM808 261q43 0 69 19.5t26 55.5q0 37 -26 58.5t-69 21.5q-42 0 -68 -22t-26 -58t26 -55.5t68 -19.5zM808 39q52 0 82 23t30 61q0 39 -30.5 63.5t-81.5 24.5q-50 0 -80.5 -24.5t-30.5 -63.5q0 -38 30 -61t81 -23z" />
    <glyph glyph-name="partialdiff" unicode="&#x2202;" horiz-adv-x="589" 
d="M107 611l-28 56q26 27 79 46.5t112 19.5q126 0 197.5 -93.5t71.5 -276.5q0 -177 -66.5 -275t-190.5 -98q-104 0 -168.5 65.5t-64.5 166.5q0 99 64 159.5t174 60.5q34 0 61.5 -7t43.5 -15.5t44 -26.5q14 -8 14 3q0 124 -51.5 193.5t-150.5 69.5q-69 0 -141 -48zM275 62h1
q66 0 112.5 58t56.5 153q2 25 -6 35q-22 27 -64 46t-85 19q-66 0 -108.5 -44t-42.5 -112q0 -66 39.5 -110.5t96.5 -44.5z" />
    <glyph glyph-name="emptyset" unicode="&#x2205;" horiz-adv-x="578" 
d="M520 536l-60 -55q37 -53 37 -117q0 -86 -61.5 -147.5t-147.5 -61.5q-74 0 -131 46l-66 -61l-37 38l67 62q-41 55 -41 124q0 86 61 147t147 61q78 0 137 -51l59 54zM130 364q0 -51 28 -90l230 212q-42 36 -100 36q-66 0 -112 -46.5t-46 -111.5zM447 364q0 43 -24 83
l-229 -211q42 -31 94 -31q66 0 112.5 46.5t46.5 112.5z" />
    <glyph glyph-name="uni2206" unicode="&#x2206;" horiz-adv-x="700" 
d="M18 0l334 723l329 -723h-663zM151 80h399l-198 454z" />
    <glyph glyph-name="product" unicode="&#x220f;" horiz-adv-x="654" 
d="M634 723v-78h-100v-645h-95v645h-228v-645h-95v645h-99v78h617z" />
    <glyph glyph-name="summation" unicode="&#x2211;" horiz-adv-x="526" 
d="M500 0h-473v59l214 301l-201 298v65h442v-76h-318l190 -278l-207 -290h353v-79z" />
    <glyph glyph-name="minus" unicode="&#x2212;" horiz-adv-x="553" 
d="M491 399v-70l-429 -1v70z" />
    <glyph glyph-name="uni2219" unicode="&#x2219;" horiz-adv-x="316" 
d="M156 306q-25 0 -43 18t-18 43t17.5 43t43.5 18q25 0 42.5 -18t17.5 -43t-17.5 -43t-42.5 -18z" />
    <glyph glyph-name="radical" unicode="&#x221a;" horiz-adv-x="630" 
d="M631 825l-258 -986h-96l-166 450l-75 -29l-21 58l151 56l156 -441l230 892h79z" />
    <glyph glyph-name="infinity" unicode="&#x221e;" horiz-adv-x="730" 
d="M678 274v-2q0 -76 -45.5 -120.5t-112.5 -44.5q-33 0 -61.5 13.5t-45 29.5t-41.5 46q-6 6 -8 6t-9 -6q-1 -1 -11 -12.5t-17 -19t-22 -19.5t-29 -19.5t-34 -13t-41 -5.5q-63 0 -108 44.5t-45 116.5t46 117t118 45q33 0 61 -12.5t43 -26.5t42 -43q8 -8 11.5 -8t10.5 8
q22 25 37 39t46 28.5t65 14.5q66 0 108 -42.5t42 -113.5zM206 173h2q56 0 111 72q10 14 9.5 20t-11.5 22q-53 79 -112 79q-40 0 -65 -26.5t-25 -68.5q0 -43 26.5 -70.5t64.5 -27.5zM525 366h-1q-22 0 -45 -13t-36 -26.5t-33 -36.5q-16 -19 0 -39q57 -78 118 -78
q38 0 60.5 29.5t22.5 67.5q0 40 -24 68t-62 28z" />
    <glyph glyph-name="integral" unicode="&#x222b;" horiz-adv-x="438" 
d="M153 632q0 99 42.5 151t117.5 52q69 0 114 -27l-22 -80q-45 24 -83 24q-37 0 -60 -26.5t-23 -81.5q0 -104 20 -311.5t20 -297.5q0 -100 -42.5 -153t-115.5 -53q-67 0 -113 27l23 80q43 -24 82 -24q36 0 58 27t22 82q0 103 -20 311.5t-20 299.5z" />
    <glyph glyph-name="approxequal" unicode="&#x2248;" horiz-adv-x="569" 
d="M507 453q-40 -64 -126 -64q-39 0 -94.5 25.5t-89.5 25.5q-57 0 -109 -56l-26 52q32 32 62.5 49.5t71.5 17.5q38 0 95 -26t90 -26q60 0 99 55zM507 256q-40 -65 -126 -65q-41 0 -96 26t-88 26q-58 0 -109 -57l-26 52q32 32 62.5 49.5t71.5 17.5q38 0 95 -26t90 -26
q60 0 99 55z" />
    <glyph glyph-name="notequal" unicode="&#x2260;" horiz-adv-x="553" 
d="M491 425h-163l-67 -152l230 1v-70l-261 -1l-63 -143h-53l64 143h-116v70h147l67 152h-214v70h245l60 135h52l-60 -135h132v-70z" />
    <glyph glyph-name="lessequal" unicode="&#x2264;" horiz-adv-x="553" 
d="M487 313v-84l-420 165v82l420 166v-85l-312 -122zM491 127v-70l-429 1v69h429z" />
    <glyph glyph-name="greaterequal" unicode="&#x2265;" horiz-adv-x="553" 
d="M66 313l313 122l-314 122v85l420 -166v-82l-419 -165v84zM62 127h429v-69l-429 -1v70z" />
    <glyph glyph-name="lozenge" unicode="&#x25ca;" horiz-adv-x="485" 
d="M279 0h-71l-162 361l167 362h71l162 -360zM247 652l-121 -287l121 -294l121 290z" />
    <glyph glyph-name="i.loclTRK" horiz-adv-x="256" 
d="M81 606v93h96v-93h-96zM173 517v-517h-89v517h89z" />
    <glyph glyph-name="g.ss01" horiz-adv-x="595" 
d="M519 48q0 -102 -65 -159.5t-171 -57.5q-85 0 -143.5 44.5t-69.5 106.5h86q10 -38 45 -59.5t81 -22.5q78 -1 116.5 37.5t38.5 94.5l1 62q-41 -80 -165 -80q-97 0 -161 69.5t-67 176.5q-2 109 58.5 187.5t165.5 78.5q57 0 100 -28t60 -60l1 78h86zM432 213l-2 116
q-1 47 -42.5 88t-97.5 41q-72 0 -112.5 -55t-40.5 -143q0 -77 43.5 -127t114.5 -50q75 0 106.5 37t30.5 93z" />
    <glyph glyph-name="l.ss01" horiz-adv-x="277" 
d="M94 0v743h89v-743h-89z" />
    <glyph glyph-name="zero.osf" horiz-adv-x="607" 
d="M304 733q119 0 187.5 -96t68.5 -277q0 -180 -68.5 -274.5t-188.5 -94.5q-121 0 -188.5 93.5t-67.5 274.5q0 182 68.5 278t188.5 96zM304 68q80 0 119.5 69.5t39.5 222.5q0 297 -160 297t-160 -297q0 -152 40.5 -222t120.5 -70z" />
    <glyph glyph-name="one.osf" horiz-adv-x="402" 
d="M185 0v577h-140v60q94 0 130 20t39 66h64v-723h-93z" />
    <glyph glyph-name="two.osf" horiz-adv-x="606" 
d="M69 0v85q0 72 39.5 125.5t95.5 86.5t112.5 63.5t96 72t39.5 95.5q0 57 -39.5 91.5t-105.5 34.5q-71 0 -115 -40t-49 -108h-89q2 98 69 162.5t188 64.5q108 0 172 -56t64 -149q0 -53 -21 -95.5t-54 -70.5t-73.5 -51.5t-81 -45t-73.5 -44t-54 -54.5t-21 -72v-15h382v-80
h-482z" />
    <glyph glyph-name="three.osf" horiz-adv-x="618" 
d="M51 516q0 102 71 161t177 59q115 0 184.5 -49t69.5 -137q0 -55 -34.5 -98t-103.5 -67q74 -20 116 -67t42 -115q0 -97 -77.5 -154t-199.5 -56q-112 2 -181.5 60.5t-72.5 156.5h89q10 -67 55 -103.5t113 -36.5q80 0 128.5 36.5t48.5 96.5q0 65 -52 101t-132 37l-65 1v76
l62 2q71 1 119.5 38.5t48.5 88.5q0 48 -42.5 81t-115.5 33q-64 0 -110.5 -37t-47.5 -108h-90z" />
    <glyph glyph-name="four.osf" horiz-adv-x="621" 
d="M377 723h92v-458h120v-79h-120v-186h-88v186h-341v82zM126 265h253v340z" />
    <glyph glyph-name="five.osf" horiz-adv-x="646" 
d="M117 723h430l-3 -78h-350l-19 -236q66 62 172 62q103 0 173 -62t70 -172q0 -113 -71.5 -180t-190.5 -67q-99 0 -175.5 51t-103.5 134l78 32q27 -65 76.5 -103t118.5 -38q79 0 126 45t47 123q0 71 -48 116t-118 45q-49 0 -85 -14.5t-74 -57.5q-5 -2 -10 0l-76 23z" />
    <glyph glyph-name="six.osf" horiz-adv-x="616" 
d="M328 738q92 0 158 -50t78 -136h-85q-14 52 -53 81.5t-96 29.5q-97 0 -145.5 -81.5t-39.5 -235.5q20 56 71.5 90.5t115.5 34.5q108 0 173 -61.5t65 -167.5q0 -110 -68 -177.5t-182 -67.5q-126 0 -199.5 95.5t-73.5 263.5q0 177 73 279.5t208 102.5zM319 398
q-62 0 -111 -41t-49 -96q-1 -84 44 -137.5t117 -53.5q67 0 110.5 47t43.5 121q0 76 -40.5 118t-114.5 42z" />
    <glyph glyph-name="seven.osf" horiz-adv-x="586" 
d="M42 723h505v-78q-94 -130 -179 -329.5t-99 -315.5h-97q20 121 92 302t185 343h-407v78z" />
    <glyph glyph-name="eight.osf" horiz-adv-x="643" 
d="M321 735q107 0 175 -52t68 -144q0 -108 -114 -156q56 -11 101 -65t45 -116q0 -94 -75 -149.5t-200 -55.5t-199.5 55.5t-74.5 149.5q0 62 45 116t101 65q-114 48 -114 156q0 92 68 144t174 52zM321 421q68 0 109.5 31.5t41.5 88.5q0 59 -41.5 93t-109.5 34
q-67 0 -108.5 -34.5t-41.5 -92.5q0 -57 41 -88.5t109 -31.5zM321 69q82 0 130.5 36.5t48.5 97.5t-49 99.5t-130 38.5q-80 0 -128.5 -38.5t-48.5 -99.5t48 -97.5t129 -36.5z" />
    <glyph glyph-name="nine.osf" horiz-adv-x="623" 
d="M290 -4q-92 0 -160 50.5t-80 135.5h87q13 -51 53 -81t97 -30q100 0 152 79t44 241q-18 -59 -69.5 -95t-119.5 -36q-109 0 -175 62.5t-66 169.5q0 111 67 178.5t181 67.5q126 0 199.5 -96t73.5 -264q0 -182 -74 -282t-210 -100zM303 336q62 0 110.5 41.5t48.5 96.5
q2 84 -42.5 137.5t-117.5 53.5q-67 0 -109 -46.5t-42 -121.5t39 -118t113 -43z" />
    <glyph glyph-name="zero.tf" horiz-adv-x="694" 
d="M340 733q119 0 187.5 -96t68.5 -277q0 -180 -68 -274.5t-188 -94.5q-121 0 -189 94t-68 274q0 182 68.5 278t188.5 96zM341 68q80 0 119 69.5t39 222.5q0 154 -40 225.5t-119 71.5q-161 0 -161 -297q0 -152 40.5 -222t121.5 -70z" />
    <glyph glyph-name="one.tf" horiz-adv-x="694" 
d="M397 80h213v-80h-523v80h220v546l-208 -79v84l248 93h50v-644z" />
    <glyph glyph-name="two.tf" horiz-adv-x="694" 
d="M124 0v85q0 72 39.5 125.5t96 86.5t112.5 63.5t95.5 72t39.5 95.5q0 57 -40 91.5t-106 34.5q-71 0 -114.5 -40t-49.5 -108h-89q2 98 69.5 162.5t187.5 64.5q108 0 172 -56t64 -149q0 -53 -21 -95.5t-54 -70.5t-73.5 -51.5t-81 -45t-73.5 -44t-54 -54.5t-21 -72v-15h382
v-80h-481z" />
    <glyph glyph-name="three.tf" horiz-adv-x="694" 
d="M92 513q0 101 71 160.5t177 59.5q115 0 184.5 -49t69.5 -137q0 -56 -34.5 -99t-103.5 -66q74 -20 116 -67t42 -116q0 -96 -77.5 -153t-199.5 -56q-112 1 -181.5 59.5t-72.5 157.5h89q10 -67 55 -103.5t113 -36.5q80 0 128.5 36.5t48.5 96.5q0 64 -51.5 100t-132.5 37
l-65 2v76l61 2q72 1 120.5 38t48.5 89q0 47 -42.5 80.5t-115.5 33.5q-64 0 -110.5 -37t-48.5 -108h-89z" />
    <glyph glyph-name="four.tf" horiz-adv-x="694" 
d="M407 723h92v-458h120v-79h-120v-186h-89l1 186h-341v82zM156 265h253v340z" />
    <glyph glyph-name="five.tf" horiz-adv-x="694" 
d="M149 723h430l-2 -78h-351l-19 -236q66 62 172 62q103 0 173 -62t70 -172q0 -113 -71 -180t-190 -67q-100 0 -176 51t-104 134l78 32q27 -65 76.5 -103t118.5 -38q79 0 126 45t47 123q0 71 -48 116t-118 45q-49 0 -85 -14.5t-74 -57.5q-5 -2 -9 0l-76 23z" />
    <glyph glyph-name="six.tf" horiz-adv-x="694" 
d="M364 738q92 0 157.5 -50t77.5 -136h-84q-15 52 -54 81.5t-95 29.5q-98 0 -146 -81.5t-39 -235.5q20 56 71.5 90.5t115.5 34.5q108 0 173 -61.5t65 -167.5q0 -110 -68 -177.5t-182 -67.5q-126 0 -200 95.5t-74 263.5q0 178 73.5 280t208.5 102zM354 398q-61 0 -110 -41
t-49 -96q-1 -84 43.5 -137.5t116.5 -53.5q68 0 111 46.5t43 121.5q0 76 -40.5 118t-114.5 42z" />
    <glyph glyph-name="seven.tf" horiz-adv-x="694" 
d="M74 723h556v-78q-107 -146 -208.5 -342.5t-114.5 -302.5h-101q17 101 108.5 284.5t214.5 360.5h-455v78z" />
    <glyph glyph-name="eight.tf" horiz-adv-x="694" 
d="M341 735q107 0 174.5 -52t67.5 -144q0 -109 -113 -156q56 -11 101 -65t45 -116q0 -94 -75 -149.5t-200 -55.5t-199.5 55.5t-74.5 149.5q0 62 45 116t101 65q-115 48 -115 156q0 92 68 144t175 52zM341 421q68 0 109 31.5t41 88.5q0 58 -41.5 92.5t-108.5 34.5t-109 -34.5
t-42 -92.5q0 -57 41.5 -88.5t109.5 -31.5zM341 69q81 0 129.5 36.5t48.5 97.5t-49 99.5t-129 38.5t-129 -38.5t-49 -99.5t48.5 -97.5t129.5 -36.5z" />
    <glyph glyph-name="nine.tf" horiz-adv-x="694" 
d="M331 -4q-92 0 -160 50.5t-80 135.5h88q12 -51 52 -81t97 -30q101 0 153 79t44 241q-19 -59 -70 -95t-119 -36q-109 0 -175 62.5t-66 169.5q0 111 67 178.5t181 67.5q126 0 199.5 -96t73.5 -264q0 -182 -74 -282t-211 -100zM345 336q61 0 110 41.5t49 96.5
q1 84 -43.5 137.5t-116.5 53.5q-68 0 -110 -46.5t-42 -121.5t39.5 -118t113.5 -43z" />
    <glyph glyph-name="zero.subs" horiz-adv-x="408" 
d="M175 291q74 0 117.5 -60.5t43.5 -174.5q0 -113 -43 -172.5t-119 -59.5t-118.5 59.5t-42.5 172.5q0 114 43.5 174.5t118.5 60.5zM175 -127q100 0 100 183q0 187 -101 187t-101 -187q0 -183 102 -183z" />
    <glyph glyph-name="one.subs" horiz-adv-x="295" 
d="M94 -165v363h-89v37q59 0 81.5 13t24.5 42h41v-455h-58z" />
    <glyph glyph-name="two.subs" horiz-adv-x="379" 
d="M33 -165v53q0 45 25 79t60 54.5t70.5 39.5t60.5 45.5t25 60.5q0 35 -25 57t-67 22q-44 0 -71.5 -25t-31.5 -68h-56q2 62 44 102.5t118 40.5q68 0 108.5 -35.5t40.5 -93.5q0 -45 -24.5 -78.5t-59.5 -53t-70 -38t-59.5 -44t-24.5 -59.5v-9h240v-50h-303z" />
    <glyph glyph-name="three.subs" horiz-adv-x="395" 
d="M31 155q0 63 45 100.5t111 37.5q72 0 116 -31t44 -86q0 -73 -87 -104q46 -12 72.5 -42t26.5 -73q0 -60 -49 -96t-125 -35q-70 1 -114 37.5t-46 98.5h57q6 -42 34 -65t71 -23q51 0 81 23t30 61q0 41 -32.5 63.5t-83.5 22.5l-40 1v48l38 1q45 1 75.5 24t30.5 56
q0 30 -27 51t-72 21q-40 0 -69.5 -23.5t-30.5 -67.5h-56z" />
    <glyph glyph-name="four.subs" horiz-adv-x="411" 
d="M231 290h57v-288h76v-50h-76v-117h-55v117h-214v52zM73 2h159v213z" />
    <glyph glyph-name="five.subs" horiz-adv-x="396" 
d="M70 287h270l-2 -49h-220l-12 -149q42 39 108 39q65 0 109 -38.5t44 -108.5q0 -71 -45 -113t-120 -42q-62 0 -110 32t-66 84l50 20q36 -89 123 -89q49 0 78.5 28.5t29.5 77.5q0 45 -30 73t-74 28q-31 0 -53.5 -9t-46.5 -36q-3 -1 -6 0l-48 15z" />
    <glyph glyph-name="six.subs" horiz-adv-x="399" 
d="M191 294q58 0 99.5 -31.5t48.5 -85.5h-53q-21 70 -94 70q-61 0 -91.5 -51t-24.5 -148q12 35 44 56.5t73 21.5q68 0 109 -38.5t41 -105.5q0 -69 -43 -111.5t-114 -42.5q-79 0 -125.5 60t-46.5 166q0 111 46 175.5t131 64.5zM185 80q-39 0 -70 -25.5t-31 -60.5
q0 -53 28 -86.5t73 -33.5q43 0 70 29.5t27 76.5t-25 73.5t-72 26.5z" />
    <glyph glyph-name="seven.subs" horiz-adv-x="363" 
d="M34 290h318v-49q-60 -82 -113.5 -207.5t-61.5 -198.5h-62q13 76 58 190t116 216h-255v49z" />
    <glyph glyph-name="eight.subs" horiz-adv-x="395" 
d="M192 294q67 0 110 -32.5t43 -90.5q0 -70 -72 -98q35 -7 63.5 -41t28.5 -73q0 -59 -47 -94t-126 -35q-78 0 -125 35t-47 94q0 39 28.5 73t63.5 41q-72 29 -72 98q0 58 42.5 90.5t109.5 32.5zM192 97q43 0 69 19.5t26 55.5q0 37 -26 58.5t-69 21.5q-42 0 -68 -22t-26 -58
t26 -55.5t68 -19.5zM192 -125q52 0 82 23t30 61q0 39 -30.5 63.5t-81.5 24.5q-50 0 -80.5 -24.5t-30.5 -63.5q0 -38 30 -61t81 -23z" />
    <glyph glyph-name="nine.subs" horiz-adv-x="401" 
d="M171 -172q-57 0 -100 31.5t-50 84.5h54q8 -31 33.5 -50t61.5 -19q63 0 95.5 49.5t27.5 151.5q-11 -37 -43.5 -59.5t-75.5 -22.5q-68 0 -109.5 39t-41.5 107q0 69 42 111.5t114 42.5q79 0 125 -60t46 -166q0 -114 -46.5 -177t-132.5 -63zM180 42q39 0 69.5 25.5t30.5 60.5
q1 53 -27 86.5t-74 33.5q-42 0 -68.5 -29.5t-26.5 -76.5t25 -73.5t71 -26.5z" />
    <glyph glyph-name="zero.dnom" horiz-adv-x="408" 
d="M175 456q74 0 117.5 -60.5t43.5 -174.5q0 -113 -43 -172.5t-119 -59.5t-118.5 59.5t-42.5 172.5q0 114 43.5 174.5t118.5 60.5zM175 38q100 0 100 183q0 187 -101 187t-101 -187q0 -183 102 -183z" />
    <glyph glyph-name="one.dnom" horiz-adv-x="295" 
d="M94 0v363h-89v37q59 0 81.5 13t24.5 42h41v-455h-58z" />
    <glyph glyph-name="two.dnom" horiz-adv-x="379" 
d="M33 0v53q0 45 25 79t60 54.5t70.5 39.5t60.5 45.5t25 60.5q0 35 -25 57t-67 22q-44 0 -71.5 -25t-31.5 -68h-56q2 62 44 102.5t118 40.5q68 0 108.5 -35.5t40.5 -93.5q0 -45 -24.5 -78.5t-59.5 -53t-70 -38t-59.5 -44t-24.5 -59.5v-9h240v-50h-303z" />
    <glyph glyph-name="three.dnom" horiz-adv-x="395" 
d="M31 320q0 63 45 100.5t111 37.5q72 0 116 -31t44 -86q0 -73 -87 -104q46 -12 72.5 -42t26.5 -73q0 -60 -49 -96t-125 -35q-70 1 -114 37.5t-46 98.5h57q6 -42 34 -65t71 -23q51 0 81 23t30 61q0 41 -32.5 63.5t-83.5 22.5l-40 1v48l38 1q45 1 75.5 24t30.5 56
q0 30 -27 51t-72 21q-40 0 -69.5 -23.5t-30.5 -67.5h-56z" />
    <glyph glyph-name="four.dnom" horiz-adv-x="411" 
d="M231 455h57v-288h76v-50h-76v-117h-55v117h-214v52zM73 167h159v213z" />
    <glyph glyph-name="five.dnom" horiz-adv-x="396" 
d="M70 452h270l-2 -49h-220l-12 -149q42 39 108 39q65 0 109 -38.5t44 -108.5q0 -71 -45 -113t-120 -42q-62 0 -110 32t-66 84l50 20q36 -89 123 -89q49 0 78.5 28.5t29.5 77.5q0 45 -30 73t-74 28q-31 0 -53.5 -9t-46.5 -36q-3 -1 -6 0l-48 15z" />
    <glyph glyph-name="six.dnom" horiz-adv-x="399" 
d="M191 459q58 0 99.5 -31.5t48.5 -85.5h-53q-21 70 -94 70q-61 0 -91.5 -51t-24.5 -148q12 35 44 56.5t73 21.5q68 0 109 -38.5t41 -105.5q0 -69 -43 -111.5t-114 -42.5q-79 0 -125.5 60t-46.5 166q0 111 46 175.5t131 64.5zM185 245q-39 0 -70 -25.5t-31 -60.5
q0 -53 28 -86.5t73 -33.5q43 0 70 29.5t27 76.5t-25 73.5t-72 26.5z" />
    <glyph glyph-name="seven.dnom" horiz-adv-x="363" 
d="M34 455h318v-49q-60 -82 -113.5 -207.5t-61.5 -198.5h-62q13 76 58 190t116 216h-255v49z" />
    <glyph glyph-name="eight.dnom" horiz-adv-x="395" 
d="M192 458q67 0 110 -32.5t43 -90.5q0 -70 -72 -98q35 -7 63.5 -41t28.5 -73q0 -59 -47 -94t-126 -35q-78 0 -125 35t-47 94q0 39 28.5 73t63.5 41q-72 29 -72 98q0 58 42.5 90.5t109.5 32.5zM192 261q43 0 69 19.5t26 55.5q0 37 -26 58.5t-69 21.5q-42 0 -68 -22t-26 -58
t26 -55.5t68 -19.5zM192 39q52 0 82 23t30 61q0 39 -30.5 63.5t-81.5 24.5q-50 0 -80.5 -24.5t-30.5 -63.5q0 -38 30 -61t81 -23z" />
    <glyph glyph-name="nine.dnom" horiz-adv-x="401" 
d="M171 -7q-57 0 -100 31.5t-50 84.5h54q8 -31 33.5 -50t61.5 -19q63 0 95.5 49.5t27.5 151.5q-11 -37 -43.5 -59.5t-75.5 -22.5q-68 0 -109.5 39t-41.5 107q0 69 42 111.5t114 42.5q79 0 125 -60t46 -166q0 -114 -46.5 -177t-132.5 -63zM180 207q39 0 69.5 25.5t30.5 60.5
q1 53 -27 86.5t-74 33.5q-42 0 -68.5 -29.5t-26.5 -76.5t25 -73.5t71 -26.5z" />
    <glyph glyph-name="zero.numr" horiz-adv-x="408" 
d="M175 740q74 0 117.5 -60.5t43.5 -174.5q0 -113 -43 -172.5t-119 -59.5t-118.5 59.5t-42.5 172.5q0 114 43.5 174.5t118.5 60.5zM175 322q100 0 100 183q0 187 -101 187t-101 -187q0 -183 102 -183z" />
    <glyph glyph-name="one.numr" horiz-adv-x="297" 
d="M94 276v363h-89v37q59 0 81.5 13t24.5 42h41v-455h-58z" />
    <glyph glyph-name="two.numr" horiz-adv-x="360" 
d="M33 279v53q0 45 25 79t60 54.5t70.5 39.5t60.5 45.5t25 60.5q0 35 -25 57t-67 22q-44 0 -71.5 -25t-31.5 -68h-56q2 62 44 102.5t118 40.5q68 0 108.5 -35.5t40.5 -93.5q0 -45 -24.5 -78.5t-59.5 -53t-70 -38t-59.5 -44t-24.5 -59.5v-9h240v-50h-303z" />
    <glyph glyph-name="three.numr" horiz-adv-x="395" 
d="M31 602q0 63 45 100.5t111 37.5q72 0 116 -31t44 -86q0 -73 -87 -104q46 -12 72.5 -42t26.5 -73q0 -60 -49 -96t-125 -35q-70 1 -114 37.5t-46 98.5h57q6 -42 34 -65t71 -23q51 0 81 23t30 61q0 41 -32.5 63.5t-83.5 22.5l-40 1v48l38 1q45 1 75.5 24t30.5 56
q0 30 -27 51t-72 21q-40 0 -69.5 -23.5t-30.5 -67.5h-56z" />
    <glyph glyph-name="four.numr" horiz-adv-x="411" 
d="M231 731h57v-288h76v-50h-76v-117h-55v117h-214v52zM73 443h159v213z" />
    <glyph glyph-name="five.numr" horiz-adv-x="396" 
d="M70 731h270l-2 -49h-220l-12 -149q42 39 108 39q65 0 109 -38.5t44 -108.5q0 -71 -45 -113t-120 -42q-62 0 -110 32t-66 84l50 20q36 -89 123 -89q49 0 78.5 28.5t29.5 77.5q0 45 -30 73t-74 28q-31 0 -53.5 -9t-46.5 -36q-3 -1 -6 0l-48 15z" />
    <glyph glyph-name="six.numr" horiz-adv-x="378" 
d="M204 744q57 0 99 -31.5t49 -85.5h-54q-20 70 -93 70q-62 0 -92 -51t-25 -148q13 35 45 56.5t73 21.5q68 0 109 -38.5t41 -105.5q0 -69 -43 -111.5t-114 -42.5q-79 0 -125.5 60t-46.5 166q0 111 46 175.5t131 64.5zM198 530q-39 0 -70 -25.5t-31 -60.5q-1 -53 27 -86.5
t74 -33.5q42 0 69.5 29.5t27.5 76.5t-25.5 73.5t-71.5 26.5z" />
    <glyph glyph-name="seven.numr" horiz-adv-x="363" 
d="M34 730h318v-49q-60 -82 -113.5 -207.5t-61.5 -198.5h-62q13 76 58 190t116 216h-255v49z" />
    <glyph glyph-name="eight.numr" horiz-adv-x="395" 
d="M192 741q67 0 110 -32.5t43 -90.5q0 -70 -72 -98q35 -7 63.5 -41t28.5 -73q0 -59 -47 -94t-126 -35q-78 0 -125 35.5t-47 93.5q0 39 28.5 73t63.5 41q-72 29 -72 98q0 58 42.5 90.5t109.5 32.5zM192 544q43 0 69 19.5t26 55.5q0 37 -26 58.5t-69 21.5q-42 0 -68 -22
t-26 -58t26 -55.5t68 -19.5zM192 322q52 0 82 23t30 61q0 39 -30.5 63.5t-81.5 24.5q-50 0 -80.5 -24.5t-30.5 -63.5q0 -38 30 -61t81 -23z" />
    <glyph glyph-name="nine.numr" horiz-adv-x="401" 
d="M171 278q-57 0 -100 31.5t-50 84.5h54q8 -31 33.5 -50t61.5 -19q63 0 95.5 49.5t27.5 151.5q-11 -37 -43.5 -59.5t-75.5 -22.5q-68 0 -109.5 39t-41.5 107q0 69 42 111.5t114 42.5q79 0 125 -60t46 -166q0 -114 -46.5 -177t-132.5 -63zM180 492q39 0 69.5 25.5t30.5 60.5
q1 53 -27 86.5t-74 33.5q-42 0 -68.5 -29.5t-26.5 -76.5t25 -73.5t71 -26.5z" />
    <glyph glyph-name="period.tf" horiz-adv-x="290" 
d="M210 116v-116h-108v116h108z" />
    <glyph glyph-name="comma.tf" horiz-adv-x="285" 
d="M89 -125l55 123l-43 2v109h114v-94l-84 -140h-42z" />
    <glyph glyph-name="caroncomb.alt" 
d="M-109 530l37 92l-27 5v96h76v-101l-40 -92h-46z" />
    <glyph glyph-name="uni03060301" 
d="M-53 902l22 -69l-251 -74l-15 46zM-12 723q-13 -45 -53.5 -76t-98.5 -31t-97 30t-51 77h66q31 -52 82 -52q52 0 85 52h67z" />
    <glyph glyph-name="uni03060300" 
d="M-271 899l244 -97l-15 -46l-252 74zM-12 723q-13 -45 -53.5 -76t-98.5 -31t-97 30t-51 77h66q31 -52 82 -52q52 0 85 52h67z" />
    <glyph glyph-name="uni03060309" 
d="M-218 885l27 -41q20 14 41 13.5t31 -16.5q21 -34 -28 -67l26 -41q45 27 57.5 63t-12.5 74q-21 32 -60.5 36.5t-81.5 -21.5zM-12 723q-13 -45 -53.5 -76t-98.5 -31t-97 30t-51 77h66q31 -52 82 -52q52 0 85 52h67z" />
    <glyph glyph-name="uni03060303" 
d="M-14 798q-40 -29 -86 -29q-28 0 -66 13t-60 13q-33 0 -70 -28l-17 48q41 37 82 37q25 0 67.5 -14t63.5 -14q33 0 70 28zM-13 723q-13 -45 -53.5 -76t-98.5 -31t-97 30t-51 77h66q31 -52 82 -52q53 0 85 52h67z" />
    <glyph glyph-name="uni03020301" 
d="M-50 902l22 -69l-251 -74l-15 46zM-90 612l-70 68l-76 -68h-80l125 114h64l123 -114h-86z" />
    <glyph glyph-name="uni03020300" 
d="M-268 899l244 -97l-15 -46l-252 74zM-90 612l-70 68l-76 -68h-80l125 114h64l123 -114h-86z" />
    <glyph glyph-name="uni03020309" 
d="M-163 858l27 -41q21 14 42 14t31 -16q21 -35 -29 -68l27 -41q44 27 56.5 63t-11.5 74q-21 32 -61 36.5t-82 -21.5zM-110 612l-70 68l-76 -68h-80l125 114h64l123 -114h-86z" />
    <glyph glyph-name="uni03020303" 
d="M-10 798q-40 -29 -86 -29q-28 0 -66 13t-60 13q-33 0 -70 -28l-17 48q41 37 82 37q25 0 67.5 -14t63.5 -14q33 0 70 28zM-90 612l-70 68l-76 -68h-80l125 114h64l123 -114h-86z" />
    </font>
</defs>
</svg>
